%FSTAX23Y23*%
%MOIN*%
%SFA1B1*%

%IPPOS*%
%AMD17*
4,1,4,0.020900,-0.029200,0.029200,-0.020900,-0.020900,0.029200,-0.029200,0.020900,0.020900,-0.029200,0.0*
%
%AMD18*
4,1,4,-0.029200,-0.020900,-0.020900,-0.029200,0.029200,0.020900,0.020900,0.029200,-0.029200,-0.020900,0.0*
%
%AMD30*
4,1,4,-0.024700,-0.003500,-0.003500,-0.024700,0.024700,0.003500,0.003500,0.024700,-0.024700,-0.003500,0.0*
%
%AMD34*
4,1,4,-0.003500,0.024700,-0.024700,0.003500,0.003500,-0.024700,0.024700,-0.003500,-0.003500,0.024700,0.0*
%
%AMD39*
4,1,4,-0.020200,0.003500,0.003500,-0.020200,0.020200,-0.003500,-0.003500,0.020200,-0.020200,0.003500,0.0*
%
%AMD71*
4,1,4,-0.025700,-0.002100,-0.002100,-0.025700,0.025700,0.002100,0.002100,0.025700,-0.025700,-0.002100,0.0*
%
%ADD12C,0.010000*%
%ADD15C,0.015000*%
G04~CAMADD=17~9~0.0~0.0~118.1~708.7~0.0~0.0~0~0.0~0.0~0.0~0.0~0~0.0~0.0~0.0~0.0~0~0.0~0.0~0.0~225.0~584.0~583.0*
%ADD17D17*%
G04~CAMADD=18~9~0.0~0.0~118.1~708.7~0.0~0.0~0~0.0~0.0~0.0~0.0~0~0.0~0.0~0.0~0.0~0~0.0~0.0~0.0~135.0~584.0~583.0*
%ADD18D18*%
%ADD19C,0.039370*%
%ADD20R,0.133858X0.059055*%
%ADD21R,0.137795X0.039370*%
%ADD22R,0.071000X0.047000*%
%ADD23R,0.070866X0.224409*%
%ADD24R,0.066929X0.098425*%
%ADD25R,0.051181X0.110236*%
%ADD26R,0.030000X0.040000*%
%ADD27R,0.024098X0.073008*%
%ADD28R,0.040000X0.030000*%
%ADD29R,0.035000X0.035000*%
G04~CAMADD=30~9~0.0~0.0~300.0~400.0~0.0~0.0~0~0.0~0.0~0.0~0.0~0~0.0~0.0~0.0~0.0~0~0.0~0.0~0.0~135.0~494.0~493.0*
%ADD30D30*%
%ADD31R,0.035000X0.070000*%
%ADD32R,0.061024X0.023622*%
%ADD33R,0.035000X0.035000*%
G04~CAMADD=34~9~0.0~0.0~300.0~400.0~0.0~0.0~0~0.0~0.0~0.0~0.0~0~0.0~0.0~0.0~0.0~0~0.0~0.0~0.0~45.0~494.0~493.0*
%ADD34D34*%
%ADD35R,0.011811X0.029527*%
%ADD36R,0.094488X0.062992*%
%ADD37R,0.059055X0.031496*%
%ADD38R,0.078740X0.057087*%
G04~CAMADD=39~9~0.0~0.0~334.6~236.2~0.0~0.0~0~0.0~0.0~0.0~0.0~0~0.0~0.0~0.0~0.0~0~0.0~0.0~0.0~135.0~404.0~403.0*
%ADD39D39*%
%ADD40R,0.050000X0.030000*%
%ADD41R,0.011811X0.031496*%
%ADD42R,0.039370X0.039370*%
%ADD43R,0.059055X0.133858*%
%ADD44R,0.039370X0.137795*%
%ADD45R,0.045449X0.053394*%
%ADD46R,0.018504X0.023622*%
%ADD47R,0.035433X0.031496*%
%ADD48R,0.060000X0.040000*%
G04~CAMADD=71~9~0.0~0.0~334.6~393.7~0.0~0.0~0~0.0~0.0~0.0~0.0~0~0.0~0.0~0.0~0.0~0~0.0~0.0~0.0~135.0~514.0~513.0*
%ADD71D71*%
%ADD81C,0.020000*%
%ADD82C,0.040000*%
%ADD83R,0.059055X0.059055*%
%ADD84C,0.059055*%
%ADD85C,0.015748*%
%LNstrwl-p01-v01-1*%
%LPD*%
G36*
X01486Y03042D02*
X0153D01*
Y02955*
X01435*
Y03076*
X01486*
Y03042*
G37*
G36*
X00884Y02955D02*
X00789D01*
Y03042*
X00833*
Y03076*
X00884*
Y02955*
G37*
G36*
X00703Y01364D02*
X00678Y01379D01*
X00653Y01364*
Y01409*
X00703*
Y01364*
G37*
G36*
Y01354D02*
Y01324D01*
X00653*
Y01354*
X00678Y01369*
X00703Y01354*
G37*
G36*
X00953Y01004D02*
X00928Y01019D01*
X00903Y01004*
Y01049*
X00953*
Y01004*
G37*
G36*
Y00994D02*
Y00964D01*
X00903*
Y00994*
X00928Y01009*
X00953Y00994*
G37*
G54D12*
X01743Y02111D02*
Y0214D01*
X01613Y01982D02*
D01*
X01743Y02111*
X01595Y01964D02*
X01613Y01982D01*
X01531Y02002D02*
Y02003D01*
Y02002D02*
X016Y01932D01*
Y01914D02*
Y01932D01*
X01575Y01889D02*
X016Y01914D01*
X01368Y01737D02*
X01509Y01878D01*
X01355Y01752D02*
X01533Y0193D01*
X01204Y01752D02*
X01355D01*
X01659Y01804D02*
X01696Y01768D01*
X01658Y01804D02*
X01659D01*
X00289Y02315D02*
Y02321D01*
X00542Y02634D02*
Y02668D01*
Y02634D02*
X00687Y02489D01*
X0117*
X00489Y01924D02*
X01051D01*
X00339Y02506D02*
X00627D01*
X00289Y02321D02*
X00295Y02315D01*
X00264Y02347D02*
X00289Y02321D01*
Y02333*
X00264Y02691D02*
X00309Y02736D01*
X00264Y02347D02*
Y02691D01*
X00627Y02506D02*
X00709Y02424D01*
X01209*
X00614Y02491D02*
X00866Y02239D01*
X00311Y02491D02*
X00614D01*
X00866Y02239D02*
X01194D01*
X00279Y02523D02*
X00311Y02491D01*
X00279Y02548D02*
X00309Y02578D01*
Y02586*
X00279Y02523D02*
Y02548D01*
X00309Y02536D02*
X00339Y02506D01*
X01159Y01457D02*
X01216Y01515D01*
X01743Y02202D02*
Y02433D01*
X01704Y02472D02*
Y02486D01*
X01981Y02216D02*
X02014D01*
X01719Y02477D02*
Y02532D01*
X01704Y02472D02*
X01743Y02433D01*
X01719Y02477D02*
X01981Y02216D01*
X01644Y02545D02*
X01704Y02486D01*
X01575Y01888D02*
Y01889D01*
X01423Y01908D02*
X01455Y01939D01*
X01211Y01737D02*
X01368D01*
X01378Y01861D02*
X01397Y0188D01*
X01626Y0127D02*
X01634Y01278D01*
X01621Y01265D02*
X01626Y0127D01*
X01621Y01226D02*
Y01265D01*
Y01224D02*
Y01226D01*
X00711Y02189D02*
X00712Y02188D01*
X01183Y00952D02*
Y01016D01*
X0044Y01293D02*
X00524D01*
X00576Y00504D02*
X00716Y00644D01*
X00775*
X00576Y00452D02*
Y00504D01*
X01696Y01768D02*
X01701D01*
X01954Y01255D02*
Y01256D01*
X01159Y01215D02*
Y01457D01*
X01745Y02557D02*
Y02559D01*
X01719Y02532D02*
X01745Y02557D01*
X02014Y02216D02*
X02051Y02252D01*
X01951Y02099D02*
X01995Y02055D01*
X01951Y02152D02*
X02014Y02216D01*
X01951Y02099D02*
Y02152D01*
X01257Y02288D02*
X01261Y02291D01*
X01116Y02288D02*
X01257D01*
X01012Y02392D02*
X01116Y02288D01*
X01012Y02508D02*
Y02541D01*
X0101Y02543D02*
X01012Y02541D01*
X01884Y01942D02*
Y01943D01*
X0184Y01835D02*
Y01847D01*
X01884Y01942D02*
X01909Y01917D01*
X0184Y01835D02*
X01909Y01905D01*
Y01917*
X01841Y01783D02*
X01845Y0178D01*
X01788Y01783D02*
X0184Y01835D01*
X01769Y01764D02*
X01788Y01783D01*
X01841*
X0194Y01684D02*
X01942D01*
X01893Y01731D02*
X0194Y01684D01*
X01906Y0183D02*
X01908Y01832D01*
X01893Y01731D02*
Y01732D01*
X01951Y01768D02*
X01965Y01754D01*
X01951Y01768D02*
Y01785D01*
X01953Y01787*
X01845Y0178D02*
X01893Y01732D01*
X01965Y01715D02*
Y01754D01*
X01893Y01738D02*
X01906Y01752D01*
X01893Y01732D02*
Y01738D01*
X01906Y01752D02*
Y0183D01*
X02323Y00714D02*
X02337Y00728D01*
X02377*
X02323Y00643D02*
Y00714D01*
X02271Y00591D02*
X02323Y00643D01*
X02271Y00528D02*
Y00591D01*
X0048Y02738D02*
Y02743D01*
X00727Y02652D02*
X00752Y02677D01*
X0079Y02532D02*
X00954D01*
X00727Y02595D02*
Y02652D01*
Y02595D02*
X0079Y02532D01*
X00954D02*
X00965Y02543D01*
X0101*
X01076Y01188D02*
Y01209D01*
X02037Y02096D02*
X02083Y0205D01*
X02037Y02096D02*
Y02097D01*
X01705Y01764D02*
X01769D01*
X01883Y02784D02*
X01984Y02885D01*
X01821Y02784D02*
X01883D01*
X01773Y02615D02*
X01793Y02636D01*
X01616Y02784D02*
X01821D01*
X01729Y02615D02*
X01773D01*
X02199Y02885D02*
X02204D01*
X01814Y01873D02*
Y01874D01*
Y01873D02*
X0184Y01847D01*
X01701Y01768D02*
X01705Y01764D01*
X01817Y01271D02*
X01939D01*
X01817Y01272D02*
Y0134D01*
X01089Y02819D02*
X01094D01*
X01119Y02794*
Y02642D02*
Y02794D01*
X0102Y02543D02*
X01119Y02642D01*
X0101Y02543D02*
X0102D01*
X01261Y02291D02*
X01303Y02249D01*
X01062Y01208D02*
X01069Y01214D01*
X00993Y01208D02*
X01062D01*
X01051Y01924D02*
X01054Y01927D01*
X01728Y02576D02*
Y02614D01*
X02102Y02302D02*
X02116D01*
X02098Y02298D02*
X02102Y02302D01*
X02116D02*
X02119Y02298D01*
X02097D02*
X02098D01*
X02051Y02252D02*
X02097Y02298D01*
X02083Y02017D02*
Y0205D01*
X0204Y0201D02*
X02076D01*
X01995Y02055D02*
X0204Y0201D01*
X01745Y02559D02*
D01*
X01728Y02576D02*
X01745Y02559D01*
X01109Y02939D02*
X0111Y0294D01*
X01109Y02913D02*
Y02939D01*
X01101Y02905D02*
X01109Y02913D01*
X01091Y0294D02*
X01092Y02939D01*
Y02915D02*
X01101Y02905D01*
X01092Y02915D02*
Y02939D01*
X01099Y02898D02*
X01101Y029D01*
X01084Y02819D02*
X01089D01*
X01074Y02829D02*
Y02848D01*
X01065Y02857D02*
X01074Y02848D01*
Y02829D02*
X01084Y02819D01*
X01032Y0289D02*
X01065Y02857D01*
X01032Y0289D02*
Y0294D01*
X01303Y02246D02*
Y02249D01*
Y02246D02*
X01324Y02225D01*
X01954Y01235D02*
Y01255D01*
X01942Y01692D02*
X01965Y01715D01*
X01942Y01684D02*
Y01692D01*
X01132Y01188D02*
X01159Y01215D01*
X02519Y00313D02*
X02595D01*
X02624Y00342*
Y00401*
X02595Y0043D02*
X02624Y00401D01*
X02432Y0043D02*
X02595D01*
X02347Y0051D02*
X02352D01*
X02337Y0052D02*
Y00525D01*
Y0052D02*
X02347Y0051D01*
X02352D02*
X02432Y0043D01*
X00439Y00313D02*
X00439Y00313D01*
X00516*
X00524*
X00516Y00392D02*
X00576Y00452D01*
X00775Y00644D02*
Y00682D01*
X01634Y01278D02*
Y01331D01*
X01617Y01176D02*
Y0122D01*
X01621Y01224*
X01617Y00844D02*
X01636Y00826D01*
X02046Y01115D02*
X02082D01*
X02046Y01255D02*
X02082D01*
X01636Y00826D02*
X01678D01*
X01733*
X01829Y01143D02*
X01834D01*
X01693Y01171D02*
Y01266D01*
X01768Y01171D02*
X01802D01*
X01829Y01143*
X01731Y01171D02*
Y0122D01*
X01731Y0122*
X01689Y0127D02*
X01693Y01266D01*
X01689Y0127D02*
X0169Y01271D01*
X01754*
X01745Y01331D02*
X01754Y0134D01*
X01694Y01331D02*
X01745D01*
X01513Y00534D02*
X01568Y00589D01*
X01998*
X01111Y00604D02*
X01992D01*
X01077Y0057D02*
X01111Y00604D01*
X02004Y00574D02*
X02327Y00897D01*
X01051Y00619D02*
X01986D01*
X01988Y00574D02*
X02004D01*
X01998Y00589D02*
X02312Y00903D01*
X01986Y00619D02*
X02243Y00875D01*
X01948Y00534D02*
X01988Y00574D01*
X01992Y00604D02*
X02297Y00909D01*
Y01641*
X02327Y00897D02*
Y01667D01*
X02228Y00882D02*
Y01558D01*
X02312Y00903D02*
Y01654D01*
X01059Y00634D02*
X0198D01*
X01896Y01605D02*
X02202D01*
X02243Y00875D02*
Y01564D01*
X0198Y00634D02*
X02228Y00882D01*
X01814Y01687D02*
X01896Y01605D01*
X01948Y00484D02*
Y00534D01*
X02202Y01605D02*
X02243Y01564D01*
X01784Y01695D02*
X01889Y0159D01*
X02195D02*
X02228Y01558D01*
X01848Y01691D02*
X01868Y01711D01*
X01765Y01695D02*
X01784D01*
X01889Y0159D02*
X02195D01*
X01848Y01687D02*
Y01691D01*
X01897Y01639D02*
X01911Y01653D01*
X01814Y01687D02*
Y01687D01*
X01785Y01716D02*
X01814Y01687D01*
X0174Y01716D02*
X01785D01*
X0194Y01999D02*
X02297Y01641D01*
X01967Y02027D02*
X02327Y01667D01*
X01953Y02013D02*
X02312Y01654D01*
X01762Y01698D02*
X01765Y01695D01*
X0174Y01716D02*
X0174Y01716D01*
X01761Y01698D02*
X01762D01*
X01029Y02757D02*
Y02783D01*
Y02756D02*
Y02757D01*
X01038Y01158D02*
X01062D01*
X00993D02*
X01038D01*
X00516Y00665D02*
X00524D01*
X00429D02*
X00516D01*
X01054Y01258D02*
X01091Y01294D01*
X01074Y01108D02*
X01106Y01139D01*
X01091Y01294D02*
Y01638D01*
X01106Y01139D02*
Y01632D01*
X01211Y01737*
X01091Y01638D02*
X01204Y01752D01*
X01701Y01705D02*
Y01731D01*
Y01705D02*
X01701Y01705D01*
X02124Y01969D02*
D01*
X02103Y0199D02*
X02124Y01969D01*
X02102Y0199D02*
X02103D01*
X01897Y01639D02*
D01*
X01992Y01865D02*
Y01866D01*
Y01865D02*
X02011Y01846D01*
X02011*
X01898Y01957D02*
X01965Y0189D01*
X01967*
X01209Y02424D02*
X01366Y02266D01*
X01313Y02265D02*
X01338Y0224D01*
X01312Y02281D02*
X01313Y02281D01*
Y02265D02*
Y02281D01*
X00419Y02315D02*
X00454D01*
X00482Y02666D02*
X00505D01*
X0048Y02668D02*
X00482Y02666D01*
X0202Y02194D02*
X02023Y02197D01*
Y02197D02*
X02065Y02239D01*
X02023Y02197D02*
Y02197D01*
X01249Y02439D02*
X01394Y02294D01*
X01438Y02202D02*
X01478Y02242D01*
X01547Y02364D02*
X01926Y01985D01*
D01*
X00542Y02733D02*
Y02738D01*
Y02668D02*
Y02733D01*
X00517Y02708D02*
X00542Y02733D01*
X00394Y02766D02*
X00451Y02708D01*
X00517*
X00309Y02736D02*
X00339Y02766D01*
X00394*
X01275Y02158D02*
X01305D01*
X01194Y02239D02*
X01275Y02158D01*
X01305D02*
X01324Y02138D01*
X01115Y02082D02*
X01199Y02166D01*
X00582Y02082D02*
X01115D01*
X01105Y02097D02*
X01193Y02185D01*
X00489Y02097D02*
X01105D01*
X01445Y02181D02*
X01493Y02229D01*
X01193Y02185D02*
X01197D01*
X01199Y02186*
X01441Y02181D02*
X01445D01*
X0144Y0218D02*
X01441Y02181D01*
X02065Y02124D02*
X02434Y01756D01*
Y01074D02*
X02619Y00889D01*
X02434Y01074D02*
Y01756D01*
X02051Y02111D02*
X02416Y01745D01*
Y00705D02*
Y01745D01*
X02377Y00665D02*
X02416Y00705D01*
X02619Y00662D02*
Y00889D01*
X02481Y00525D02*
X02619Y00662D01*
X02519Y00744D02*
X02601D01*
X02377Y00665D02*
X02518D01*
X02337Y00525D02*
X02481D01*
X00516Y01135D02*
X00707D01*
X01832Y0199D02*
X01833Y01988D01*
Y01967D02*
X0187Y0193D01*
X01833Y01967D02*
Y01988D01*
X0187Y01928D02*
Y0193D01*
X0188Y02003D02*
X01911Y01971D01*
X01912*
X00993Y01258D02*
X01054D01*
X01985Y02121D02*
X02023Y02083D01*
X01969Y02121D02*
X01985D01*
X00553Y02054D02*
X00582Y02082D01*
X00982Y00712D02*
X01059Y00634D01*
X00693Y00712D02*
X00982D01*
X00973Y00697D02*
X01051Y00619D01*
X0079Y00697D02*
X00973D01*
X00662Y00742D02*
X00693Y00712D01*
X00775Y00682D02*
X0079Y00697D01*
X01077Y00484D02*
Y0057D01*
X01513Y00484D02*
Y00534D01*
X01287Y01361D02*
X01315D01*
X0126D02*
X01287D01*
X01373Y01215D02*
Y01242D01*
X01502Y00797D02*
Y00823D01*
X01415Y00858D02*
X01441D01*
X0123D02*
X01259D01*
X00635Y01177D02*
X00665D01*
X00488Y02012D02*
X00489Y02011D01*
X00436Y02012D02*
X00488D01*
X018Y01737D02*
X01821Y01757D01*
X01589Y02859D02*
X01621D01*
X0138Y02801D02*
Y02829D01*
X00788Y02877D02*
X00811D01*
X01216Y02336D02*
X01235Y02318D01*
X0092Y02562D02*
Y02599D01*
X00908Y02756D02*
Y02781D01*
X01089Y02757D02*
Y02783D01*
X01149Y02757D02*
Y02781D01*
X00969Y02756D02*
Y02781D01*
X00388Y02146D02*
Y0219D01*
X00386Y02191D02*
X00388Y0219D01*
X00712Y0215D02*
Y02188D01*
X00713Y0165D02*
Y01697D01*
Y0165D02*
X00713Y0165D01*
X01666Y02615D02*
X01694D01*
X01665Y02614D02*
X01666Y02615D01*
X02128Y02336D02*
X02157D01*
X02164Y02343*
X02208Y02276D02*
Y0235D01*
X02176Y02244D02*
X02208Y02276D01*
X02102Y02244D02*
X02176D01*
X01989Y02947D02*
X02055D01*
X01072Y0294D02*
Y02968D01*
X01071Y0294D02*
X01072Y0294D01*
X02195Y02952D02*
X02199Y02947D01*
X0213Y02952D02*
X02195D01*
X02055Y02947D02*
X0206Y02952D01*
Y02653D02*
Y02892D01*
X02009Y02603D02*
X0206Y02653D01*
X0203Y02594D02*
X0213Y02694D01*
Y02892*
X01856Y02447D02*
X01912Y02503D01*
X0194D02*
X01944D01*
X0187Y02433D02*
X0194Y02503D01*
X01943Y02506D02*
X01944Y02505D01*
Y02503D02*
Y02505D01*
X01834Y02682D02*
X0208Y02436D01*
X0184Y02697D02*
X02095Y02442D01*
X01804Y02697D02*
X0184D01*
X01846Y02712D02*
X02208Y0235D01*
X02095Y02406D02*
Y02442D01*
X01383Y02712D02*
X01846D01*
X0136Y02667D02*
X01828D01*
X02065Y0235D02*
Y02429D01*
X01852Y02727D02*
X02223Y02357D01*
X01828Y02667D02*
X02065Y02429D01*
X01389Y02727D02*
X01852D01*
X01798Y02682D02*
X01834D01*
X02223Y02268D02*
Y02357D01*
X0208Y02399D02*
Y02436D01*
X01786Y02517D02*
X01832Y02562D01*
X01786Y02517D02*
Y02517D01*
X01772Y02531D02*
Y02532D01*
X01817Y02577*
X01832Y02562D02*
Y02562D01*
X01817Y02577D02*
Y02578D01*
X01478Y02242D02*
Y02321D01*
X02518Y00665D02*
X02519Y00665D01*
X01281Y02012D02*
X01366Y02097D01*
X01338Y02041D02*
X0138Y02083D01*
X01249Y02012D02*
X01281D01*
X01214Y02041D02*
X01251Y02078D01*
X01275*
X00877Y02041D02*
X01214D01*
X00803Y01968D02*
X00877Y02041D01*
X00489Y01968D02*
X00803D01*
X00489Y01881D02*
X01069D01*
X01279Y01901D02*
X01282D01*
X01422Y02041*
X01278Y019D02*
X01279Y01901D01*
X01161Y019D02*
X01249Y01987D01*
X00489Y01838D02*
X01075D01*
X01249Y01987D02*
X01249D01*
X01075Y01838D02*
X01249Y02012D01*
X01056Y01794D02*
X01161Y019D01*
X00489Y01794D02*
X01056D01*
X01161Y019D02*
D01*
X01275Y02032D02*
X01352Y0211D01*
Y02111*
X01275Y02032D02*
Y02032D01*
X00489Y02054D02*
X00553D01*
X01493Y02229D02*
Y02334D01*
X01463Y02364D02*
X01493Y02334D01*
X0145Y0235D02*
X01478Y02321D01*
X01511Y02898D02*
X0153D01*
X01501Y02883D02*
Y02888D01*
X01511Y02898*
X0153D02*
X01531Y02898D01*
X00634Y01179D02*
X00635Y01177D01*
X0066Y00744D02*
X00662Y00742D01*
X00516Y00744D02*
X0066D01*
X01436Y02027D02*
X0147Y02061D01*
X01552*
X01555Y02058*
X0145Y02013D02*
X0148Y02043D01*
X01541*
X00516Y01214D02*
X00711D01*
X01249Y02439D02*
Y02737D01*
X01276Y0244D02*
Y0271D01*
Y0244D02*
X01408Y02308D01*
X01054Y01968D02*
Y0199D01*
X00908Y01968D02*
Y01989D01*
X00909Y0199*
X00386Y01696D02*
X00387Y01697D01*
X00386Y0165D02*
Y01696D01*
X01335Y02437D02*
X01436Y02336D01*
X01307Y02437D02*
X01422Y02322D01*
X01338Y02239D02*
Y0224D01*
X01335Y02437D02*
Y02658D01*
X01307Y02437D02*
Y02692D01*
X0197Y02108D02*
X02009Y02069D01*
X01969Y02121D02*
X0197Y02119D01*
Y02108D02*
Y02119D01*
X018Y01735D02*
Y01737D01*
X00711Y02189D02*
X00713Y02191D01*
X00489Y01968D02*
X00499Y01978D01*
X02079Y02225D02*
X021Y02246D01*
X02101D02*
X02102Y02244D01*
X021Y02246D02*
X02101D01*
X02087Y02132D02*
X02223Y02268D01*
X02085Y02132D02*
X02087D01*
X02079Y02138D02*
X02085Y02132D01*
X01558Y02854D02*
Y02859D01*
X01497Y02827D02*
X01531D01*
X01558Y02854*
X01472Y02855D02*
Y02905D01*
X01497Y02827D02*
Y02829D01*
X01472Y02855D02*
X01497Y02829D01*
X01462Y02914D02*
X01472Y02905D01*
X01376Y02914D02*
X01462D01*
X01377Y02892D02*
X01401D01*
X01367Y02923D02*
X01376Y02914D01*
X01367Y02923D02*
Y02939D01*
X01366Y0294D02*
X01367Y02939D01*
X01347Y02921D02*
X01377Y02892D01*
X01347Y02921D02*
Y02939D01*
X01347Y0294D02*
X01347Y02939D01*
X0141Y02883D02*
X01438D01*
X01401Y02892D02*
X0141Y02883D01*
X01438D02*
X01446Y02875D01*
Y02827D02*
Y02875D01*
X01535Y02752D02*
X01563Y0278D01*
Y02784*
X01472Y02752D02*
X01535D01*
X0117Y029D02*
X01374Y02697D01*
X0119Y02905D02*
X01383Y02712D01*
X01131Y02896D02*
X0136Y02667D01*
X0121Y02906D02*
X01389Y02727D01*
X01374Y02697D02*
X01804D01*
X01367Y02682D02*
X01798D01*
X01151Y02898D02*
X01367Y02682D01*
X01357Y02874D02*
X0137D01*
X01334Y02897D02*
D01*
X0137Y02874D02*
X0138Y02864D01*
X01334Y02897D02*
X01357Y02874D01*
X01307Y0294D02*
X01308Y02939D01*
Y02923D02*
Y02939D01*
Y02923D02*
X01334Y02897D01*
X01288Y02921D02*
X01334Y02875D01*
X01288Y02921D02*
Y02939D01*
X01334Y02817D02*
Y02875D01*
X01275Y02866D02*
Y02891D01*
X01249Y02917D02*
X01275Y02891D01*
X01269Y02919D02*
X01307Y02881D01*
Y02844D02*
Y02881D01*
X01287Y0294D02*
X01288Y02939D01*
X01228Y02914D02*
X01249Y02893D01*
Y02892D02*
Y02893D01*
X01269Y02919D02*
Y02939D01*
X01249Y02917D02*
Y02939D01*
X01268Y0294D02*
X01269Y02939D01*
X01248Y0294D02*
X01249Y02939D01*
X01228Y02914D02*
Y0294D01*
X0117Y029D02*
Y02939D01*
X0119Y02905D02*
Y02939D01*
X0121Y02906D02*
Y02939D01*
X01151Y02898D02*
Y02939D01*
X0208Y02337D02*
Y02399D01*
X02023Y0228D02*
X0208Y02337D01*
X02037Y02266D02*
X02095Y02324D01*
X02009Y02294D02*
X02065Y0235D01*
X02095Y02324D02*
Y02406D01*
X01131Y02896D02*
Y02939D01*
X01052Y02911D02*
X01144Y02819D01*
X01052Y02911D02*
Y02939D01*
X01144Y02819D02*
X01149D01*
X01051Y0294D02*
X01052Y02939D01*
X01012Y02875D02*
X01029Y02857D01*
X01012Y02875D02*
Y0294D01*
X01029Y02819D02*
Y02857D01*
X00969Y02819D02*
Y02853D01*
X00992Y02877*
Y0294*
X00913Y02819D02*
X00973Y02878D01*
Y0294*
X00974Y02819D02*
X00999Y02794D01*
X00969Y02819D02*
X00974D01*
X0101Y02673D02*
Y02727D01*
X00999Y02738D02*
X0101Y02727D01*
X00999Y02738D02*
Y02794D01*
X00895Y02675D02*
Y02677D01*
X0091Y02692D02*
X0092D01*
X00832Y02622D02*
X00842D01*
X00895Y02675*
Y02677D02*
X0091Y02692D01*
X00824Y02614D02*
X00832Y02622D01*
X00757Y02614D02*
X00824D01*
X00832Y02795D02*
X00849Y02812D01*
X00832Y02752D02*
Y02795D01*
X00849Y02812D02*
Y02817D01*
X01209Y0294D02*
X0121Y02939D01*
X01189Y0294D02*
X0119Y02939D01*
X01169Y0294D02*
X0117Y02939D01*
X0115Y0294D02*
X01151Y02939D01*
X0113Y0294D02*
X01131Y02939D01*
X00932D02*
X00933Y0294D01*
X00932Y02929D02*
Y02939D01*
X00853Y0288D02*
X00884D01*
X00932Y02929*
X00859Y02832D02*
X00864D01*
X00849Y02822D02*
X00859Y02832D01*
X00864D02*
X00952Y0292D01*
Y02939*
X00849Y02817D02*
Y02822D01*
X0085Y02878D02*
X00853Y0288D01*
X00952Y02939D02*
X00953Y0294D01*
X00908Y02819D02*
X00913D01*
X00787Y02878D02*
X00788Y02877D01*
X00787Y02817D02*
X00813D01*
X01438Y00918D02*
Y00956D01*
X01355Y01015D02*
X01418D01*
X01399Y01034D02*
X01418Y01015D01*
X01399Y01034D02*
Y01074D01*
X01321Y01306D02*
X01379D01*
X01315Y01301D02*
X01321Y01306D01*
X01308Y01242D02*
X01313D01*
X01272Y01277D02*
X01308Y01242D01*
X01272Y01277D02*
Y01288D01*
X0126Y01301D02*
X01272Y01288D01*
X01436Y01303D02*
X01439Y01306D01*
X01436Y01244D02*
Y01303D01*
X01499Y01306D02*
X01499D01*
X01489Y01244D02*
Y01296D01*
X01499Y01306*
X01373Y01147D02*
Y01179D01*
Y01147D02*
X01418Y01101D01*
Y01074D02*
Y01101D01*
X01438Y01074D02*
Y01181D01*
X01436Y01184D02*
X01438Y01181D01*
X01458Y01103D02*
X01489Y01135D01*
Y01184*
X01458Y01074D02*
Y01103D01*
X01294Y01016D02*
Y01044D01*
X01497Y00859D02*
X01502D01*
X01438Y00918D02*
X01497Y00859D01*
X01398Y00939D02*
Y00955D01*
X01321Y00858D02*
Y00863D01*
X01398Y00939*
Y00955D02*
X01399Y00956D01*
X01321Y00798D02*
Y00858D01*
X01417Y00932D02*
Y00955D01*
X01378Y00858D02*
Y00893D01*
X01417Y00932*
Y00955D02*
X01418Y00956D01*
X01378Y00798D02*
Y00858D01*
X01294Y00987D02*
Y01016D01*
X01439Y0094D02*
Y00955D01*
X01438Y00956D02*
X01439Y00955D01*
X00747Y01336D02*
Y01397D01*
X00678Y01339D02*
X0068Y01336D01*
X00747*
X00918Y01358D02*
X00952Y01392D01*
X00918Y01164D02*
Y01358D01*
Y01164D02*
X00974Y01108D01*
X00993*
X00952Y01392D02*
Y01397D01*
X00807D02*
X0089D01*
X00807Y01336D02*
X00808Y01337D01*
X0089*
X00952Y01332D02*
X00993Y01292D01*
X00952Y01332D02*
Y01337D01*
X00993Y01258D02*
Y01292D01*
Y01108D02*
X01074D01*
X01062Y01158D02*
X01069Y01151D01*
X00713Y01008D02*
Y01141D01*
Y01008D02*
X00716Y01006D01*
X00799Y01208D02*
X00928Y01079D01*
Y01034D02*
Y01079D01*
X0078Y01208D02*
X00799D01*
X00884Y01006D02*
X00901Y00989D01*
X00918*
X00928Y00979*
X00843Y01006D02*
X00884D01*
X00761Y01208D02*
X0078D01*
X00713Y01216D02*
X00753D01*
X00761Y01208*
X00711Y01214D02*
X00713Y01216D01*
Y01141D02*
X00746D01*
X00755Y0115*
Y01151*
X00761Y01158*
X0078*
X00707Y01135D02*
X00713Y01141D01*
X02519Y00392D02*
X02605D01*
X02606Y00393*
X01869Y00405D02*
X0187Y00405D01*
X01869Y00405D02*
Y00484D01*
X01434Y00405D02*
Y00484D01*
X01434Y00405D02*
X01434Y00405D01*
X00998Y00409D02*
X00998Y00409D01*
Y00484*
X00981Y01968D02*
Y0199D01*
X00813Y02817D02*
X00814Y02818D01*
G54D15*
X00614Y02788D02*
X0064D01*
X00435D02*
X00614D01*
X00243Y02716D02*
X00315Y02788D01*
X00241Y02714D02*
X00243Y02716D01*
X01797Y01515D02*
X01954Y01357D01*
X01216Y01515D02*
X01797D01*
X01644Y01667D02*
X01797Y01515D01*
X01165D02*
X01216D01*
X00379Y00618D02*
X00479Y00518D01*
X00379Y00618D02*
Y01036D01*
X0064Y02788D02*
X00752Y02677D01*
X00614Y02788D02*
X00754Y02928D01*
Y03028*
X00243Y0189D02*
Y02716D01*
X00315Y02788D02*
X00435D01*
X0048Y02743*
X00667Y00518D02*
X00852D01*
Y00443D02*
Y00518D01*
Y00624*
X01644Y01716D02*
X01696Y01768D01*
X01789Y0289D02*
X01984D01*
X0158Y031D02*
X01789Y0289D01*
X02129Y0038D02*
X02264Y00515D01*
X01971Y0038D02*
X02129D01*
X01971D02*
X02027Y00435D01*
X01536Y0038D02*
X01971D01*
X01536D02*
X01591Y00435D01*
X00826Y031D02*
X0158D01*
X00754Y03028D02*
X00826Y031D01*
X00277Y01924D02*
X00489D01*
X00243Y0189D02*
X00277Y01924D01*
X00243Y01647D02*
X00299Y01591D01*
X00243Y01647D02*
Y0189D01*
X011Y0038D02*
X01536D01*
X011D02*
X01156Y00435D01*
X00915Y0038D02*
X011D01*
X00685Y01399D02*
Y01486D01*
X00379Y01036D02*
Y01481D01*
Y01036D02*
X0061Y00804D01*
X00662*
X00986Y01591D02*
X01062Y01514D01*
X00685Y01486D02*
X0079Y01591D01*
X00986*
X00852Y00443D02*
X00915Y0038D01*
X00837Y00639D02*
X00852Y00624D01*
X00837Y00639D02*
Y00644D01*
X02234Y02915D02*
Y02969D01*
X02204Y02885D02*
X02234Y02915D01*
X00379Y01481D02*
X00488Y01591D01*
X00299D02*
X00488D01*
X0079*
X02103Y031D02*
X02234Y02969D01*
X0158Y031D02*
X02103D01*
X01644Y01667D02*
Y01716D01*
X01954Y01256D02*
Y01357D01*
X01292Y00774D02*
X01307Y0076D01*
X01408D02*
X01441Y00793D01*
X01307Y0076D02*
X01408D01*
X01545Y00777D02*
Y01137D01*
X01441Y00793D02*
X01466Y00768D01*
X01536*
X01545Y00777*
X01567Y01146D02*
X01592Y01121D01*
X01525Y01399D02*
X01567Y01357D01*
X01544Y01215D02*
X01545Y01215D01*
Y01328*
X01504Y01369D02*
X01545Y01328D01*
X01567Y01205D02*
X01567Y01206D01*
Y01357*
X01544Y01137D02*
X01545Y01137D01*
X01544Y01137D02*
Y01215D01*
X01567Y01146D02*
Y01205D01*
X01499Y01369D02*
X01504D01*
X01439D02*
X01499D01*
X00781Y00798D02*
X01259D01*
X00623Y00956D02*
X00781Y00798D01*
X00623Y00956D02*
Y01048D01*
X01185Y01107D02*
Y01342D01*
X01242Y01399*
X01185Y01107D02*
X01294D01*
X01605Y01044D02*
X01617D01*
X01592Y01057D02*
X01605Y01044D01*
X01592Y01057D02*
Y01121D01*
X01242Y01399D02*
X01525D01*
X01693Y0108D02*
X01731D01*
X01617Y01044D02*
X01629D01*
X01617Y00976D02*
Y01044D01*
X01655Y0108D02*
X01693D01*
X01629Y01044D02*
X01643Y01057D01*
Y01068*
X01655Y0108*
X01292Y00774D02*
Y00798D01*
X01439Y01369D02*
X01439Y01369D01*
X01379Y01369D02*
X01439D01*
X01304Y01117D02*
X01313Y01126D01*
X01304Y01112D02*
Y01117D01*
X01299Y01107D02*
X01304Y01112D01*
X01294Y01107D02*
X01299D01*
X01313Y01126D02*
Y01179D01*
X00516Y01056D02*
X00614D01*
X00623Y01048*
X01292Y00798D02*
Y00917D01*
X01259Y00798D02*
X01292D01*
Y00917D02*
X01294Y00919D01*
X01306Y00932D02*
Y00934D01*
X01294Y00924D02*
X01299D01*
X01306Y00932*
X01294Y00919D02*
Y00924D01*
X01328Y00956D02*
X01379D01*
X01306Y00934D02*
X01328Y00956D01*
X01441Y00793D02*
Y00798D01*
X01332Y01074D02*
X01379D01*
X01299Y01107D02*
X01332Y01074D01*
G54D17*
X01745Y01804D03*
X01759Y01818D03*
X01772Y01832D03*
X01786Y01846D03*
X018Y0186D03*
X01814Y01874D03*
X01828Y01888D03*
X01842Y01902D03*
X01856Y01916D03*
X0187Y0193D03*
X01884Y01943D03*
X01898Y01957D03*
X01912Y01971D03*
X01926Y01985D03*
X0194Y01999D03*
X01953Y02013D03*
X01967Y02027D03*
X01981Y02041D03*
X01995Y02055D03*
X02009Y02069D03*
X02023Y02083D03*
X02037Y02097D03*
X02051Y02111D03*
X02065Y02124D03*
X02079Y02138D03*
X01658Y02559D03*
X01644Y02545D03*
X01631Y02531D03*
X01617Y02517D03*
X01603Y02503D03*
X01589Y02489D03*
X01575Y02475D03*
X01561Y02461D03*
X01547Y02447D03*
X01533Y02433D03*
X01519Y0242D03*
X01505Y02406D03*
X01491Y02392D03*
X01477Y02378D03*
X01463Y02364D03*
X0145Y0235D03*
X01436Y02336D03*
X01422Y02322D03*
X01408Y02308D03*
X01394Y02294D03*
X0138Y0228D03*
X01366Y02266D03*
X01352Y02252D03*
X01338Y02239D03*
X01324Y02225D03*
G54D18*
X02079Y02225D03*
X02065Y02239D03*
X02051Y02252D03*
X02037Y02266D03*
X02023Y0228D03*
X02009Y02294D03*
X01995Y02308D03*
X01981Y02322D03*
X01967Y02336D03*
X01953Y0235D03*
X0194Y02364D03*
X01926Y02378D03*
X01912Y02392D03*
X01898Y02406D03*
X01884Y0242D03*
X0187Y02433D03*
X01856Y02447D03*
X01842Y02461D03*
X01828Y02475D03*
X01814Y02489D03*
X018Y02503D03*
X01786Y02517D03*
X01772Y02531D03*
X01759Y02545D03*
X01745Y02559D03*
X01324Y02138D03*
X01338Y02124D03*
X01352Y02111D03*
X01366Y02097D03*
X0138Y02083D03*
X01394Y02069D03*
X01408Y02055D03*
X01422Y02041D03*
X01436Y02027D03*
X0145Y02013D03*
X01463Y01999D03*
X01477Y01985D03*
X01491Y01971D03*
X01505Y01957D03*
X01519Y01943D03*
X01533Y0193D03*
X01547Y01916D03*
X01561Y01902D03*
X01575Y01888D03*
X01589Y01874D03*
X01603Y0186D03*
X01617Y01846D03*
X01631Y01832D03*
X01644Y01818D03*
X01658Y01804D03*
G54D19*
X01038Y00893D03*
X02713Y01018D03*
X02364Y031D03*
X00582Y03166D03*
G54D20*
X0029Y00221D03*
Y00484D03*
X02745Y00836D03*
Y00573D03*
Y00221D03*
Y00484D03*
X00289Y01385D03*
Y00964D03*
X0029Y00836D03*
Y00573D03*
G54D21*
X00516Y00313D03*
Y00392D03*
X02519Y00744D03*
Y00665D03*
Y00313D03*
Y00392D03*
X00516Y01056D03*
Y01135D03*
Y01214D03*
Y01293D03*
X00516Y00744D03*
Y00665D03*
G54D22*
X01617Y00844D03*
Y00976D03*
Y01176D03*
Y01044D03*
G54D23*
X01852Y00911D03*
X02067D03*
G54D24*
X01733Y00826D03*
Y00983D03*
X01181Y00957D03*
Y01114D03*
G54D25*
X01954Y01255D03*
X02082D03*
X01954Y01115D03*
X02082D03*
X00716Y01006D03*
X00843D03*
G54D26*
X01626Y0127D03*
X01689D03*
X01754Y01271D03*
X01817D03*
X01754Y0134D03*
X01816D03*
X01259Y00798D03*
X01321D03*
X00542Y02668D03*
X0048D03*
X00542Y02738D03*
X0048D03*
X01441Y00858D03*
X01378D03*
X0089Y01397D03*
X00952D03*
X00952Y01337D03*
X0089D03*
X01259Y00858D03*
X01321D03*
X01378Y00798D03*
X01441D03*
X01665Y02614D03*
X01728D03*
X01558Y02859D03*
X01621D03*
X01501Y02883D03*
X01438D03*
X00837Y00644D03*
X00775D03*
X02337Y00525D03*
X02274D03*
X0085Y02878D03*
X00787D03*
X00849Y02817D03*
X00787D03*
G54D27*
X01768Y01171D03*
X01731D03*
X01693D03*
Y0108D03*
X01731D03*
X01768D03*
G54D28*
X01834Y01143D03*
Y01081D03*
X01989Y02885D03*
Y02947D03*
X02199D03*
Y02885D03*
X01373Y01179D03*
Y01242D03*
X01294Y01107D03*
Y01044D03*
X01069Y01151D03*
Y01214D03*
X01029Y02757D03*
Y02819D03*
X01149Y02757D03*
Y02819D03*
X01089Y02757D03*
Y02819D03*
X02377Y00665D03*
Y00728D03*
X01701Y01705D03*
Y01768D03*
X00909Y01927D03*
Y0199D03*
X00981Y01927D03*
Y0199D03*
X01054Y01927D03*
Y0199D03*
X01439Y01369D03*
Y01306D03*
X01499Y01369D03*
Y01306D03*
X01379Y01369D03*
Y01306D03*
X01313Y01179D03*
Y01242D03*
X01502Y00859D03*
Y00797D03*
X00662Y00804D03*
Y00742D03*
X01294Y00987D03*
Y00924D03*
X0138Y02864D03*
Y02801D03*
X00757Y02677D03*
Y02614D03*
X00908Y02819D03*
Y02756D03*
X00969Y02819D03*
Y02756D03*
G54D29*
X01694Y01331D03*
X01634D03*
X00807Y01336D03*
X00747D03*
Y01397D03*
X00807D03*
G54D30*
X02124Y01969D03*
X0208Y02013D03*
X01216Y02336D03*
X01261Y02291D03*
G54D31*
X0046Y02315D03*
X00295D03*
G54D32*
X00993Y01108D03*
Y01158D03*
Y01208D03*
Y01258D03*
X0078Y01108D03*
Y01158D03*
Y01208D03*
Y01258D03*
G54D33*
X0213Y02952D03*
Y02892D03*
X0206Y02952D03*
Y02892D03*
X01436Y01244D03*
Y01184D03*
X01489Y01244D03*
Y01184D03*
X01315Y01361D03*
Y01301D03*
X0126Y01361D03*
Y01301D03*
G54D34*
X01848Y01687D03*
X01893Y01731D03*
X01942Y01684D03*
X01897Y01639D03*
X01845Y0178D03*
X018Y01735D03*
X01421Y01905D03*
X01377Y01861D03*
X02164Y02343D03*
X02119Y02298D03*
G54D35*
X01379Y00956D03*
X01399D03*
X01418D03*
X01438D03*
X01458D03*
Y01074D03*
X01438D03*
X01418D03*
X01399D03*
X01379D03*
G54D36*
X01418Y01015D03*
G54D37*
X00489Y02097D03*
Y02054D03*
Y02011D03*
Y01968D03*
Y01924D03*
Y01881D03*
Y01838D03*
Y01794D03*
G54D38*
X00386Y0165D03*
Y02191D03*
X00713Y0165D03*
Y02191D03*
G54D39*
X01982Y01816D03*
X01938Y01861D03*
G54D40*
X00678Y01339D03*
Y01394D03*
X00928Y00979D03*
Y01034D03*
G54D41*
X00973Y0294D03*
X01386D03*
X01366D03*
X01347D03*
X01327D03*
X01307D03*
X01287D03*
X01268D03*
X01248D03*
X01228D03*
X01209D03*
X01189D03*
X01169D03*
X0115D03*
X0113D03*
X0111D03*
X01091D03*
X01071D03*
X01051D03*
X01032D03*
X01012D03*
X00992D03*
X00953D03*
X00933D03*
G54D42*
X01484Y03003D03*
X00835D03*
G54D43*
X01777Y00258D03*
X02119D03*
X01341D03*
X01684D03*
X00906D03*
X01248D03*
G54D44*
X02027Y00484D03*
X01948D03*
X01869D03*
X01591D03*
X01513D03*
X01434D03*
X01156D03*
X01077D03*
X00998D03*
G54D45*
X01616Y02784D03*
X01563D03*
G54D46*
X01497Y02827D03*
X01446D03*
X01472Y02752D03*
G54D47*
X00634Y01179D03*
X00713Y01141D03*
Y01216D03*
G54D48*
X0101Y02673D03*
Y02543D03*
X0092Y02562D03*
Y02692D03*
X00832Y02622D03*
Y02752D03*
G54D71*
X01953Y01787D03*
X02011Y01846D03*
X01967Y0189D03*
X01908Y01832D03*
G54D81*
X02271Y00528D02*
X02274Y00525D01*
X02027Y00435D02*
Y00484D01*
X01591Y00435D02*
Y00484D01*
X01257Y02288D02*
X01261Y02291D01*
X01156Y00435D02*
Y00484D01*
X00678Y01394D02*
X0068D01*
X00685Y01399*
X01984Y0289D02*
X01989Y02885D01*
X01954Y0103D02*
Y01115D01*
X01972Y01013D02*
X02042D01*
X01954Y0103D02*
X01972Y01013D01*
X02067Y00911D02*
X02068Y00912D01*
X01939Y01271D02*
X01954Y01256D01*
X01817Y01272D02*
X01817Y01271D01*
X01816Y0134D02*
X01817Y0134D01*
X01069Y01214D02*
X01071D01*
X01076Y01209*
X02372Y00723D02*
X02377Y00728D01*
X01728Y02614D02*
X01729Y02615D01*
X02119Y02298D02*
X02123Y02295D01*
X02076Y0201D02*
X0208Y02013D01*
X02083Y02017*
X01954Y01115D02*
Y01235D01*
X01733Y00999D02*
X01766Y01032D01*
X01827Y00983D02*
X01852Y00958D01*
X01733Y00983D02*
X01827D01*
X01733D02*
Y00999D01*
X01766Y01078D02*
X01768Y0108D01*
X01766Y01032D02*
Y01078D01*
X01768Y0108D02*
X01769Y01081D01*
X01834*
X01852Y00911D02*
Y00958D01*
X01258Y01359D02*
X0126Y01361D01*
G54D82*
X00309Y02636D03*
X00359D03*
Y02586D03*
X00309D03*
Y02536D03*
X00359D03*
Y02686D03*
X00309D03*
Y02736D03*
X00359D03*
G54D83*
X02385Y02632D03*
G54D84*
X02385Y02732D03*
Y02832D03*
G54D85*
X01595Y01964D03*
X01531Y02003D03*
X01509Y01878D03*
X01743Y02202D03*
Y0214D03*
X01455Y01939D03*
X01397Y0188D03*
X00667Y00518D03*
X00479D03*
X00439Y00313D03*
X01132Y01188D03*
X01165Y01515D03*
X02046Y01115D03*
Y01255D03*
X01678Y00826D03*
X01621Y01226D03*
X01731Y0122D03*
X01868Y01711D03*
X01911Y01653D03*
X01183Y01016D03*
X01761Y01698D03*
X01701Y01731D03*
X02102Y0199D03*
X01992Y01866D03*
X01012Y02508D03*
X01012Y02392D03*
X01312Y02281D03*
X00419Y02315D03*
X00505Y02666D03*
X01547Y02364D03*
X0117Y02489D03*
X01438Y02202D03*
X0144Y0218D03*
X01199Y02166D03*
Y02186D03*
X02601Y00744D03*
X0044Y01293D03*
X01832Y0199D03*
X0188Y02003D03*
X01062Y01514D03*
X00429Y00665D03*
X01793Y02636D03*
X01821Y02784D03*
X01076Y01188D03*
X01287Y01361D03*
X01373Y01215D03*
X01502Y00823D03*
X01415Y00858D03*
X0123D03*
X01038Y01158D03*
X00665Y01177D03*
X00436Y02012D03*
X01821Y01757D03*
X01589Y02859D03*
X0138Y02829D03*
X00811Y02877D03*
X01235Y02318D03*
X0092Y02599D03*
X00908Y02781D03*
X01029Y02783D03*
X01089D03*
X01149Y02781D03*
X00969Y02781D03*
X00388Y02146D03*
X00712Y0215D03*
X00713Y01697D03*
X01694Y02615D03*
X02128Y02336D03*
X01072Y02968D03*
X02009Y02603D03*
X0203Y02594D03*
X01912Y02503D03*
X01943Y02506D03*
X01817Y02578D03*
X01832Y02562D03*
X01338Y02041D03*
X01275Y02078D03*
X01069Y01881D03*
X01278Y019D03*
X01249Y01987D03*
X01275Y02032D03*
X01531Y02898D03*
X0174Y01716D03*
X01555Y02058D03*
X01541Y02043D03*
X01065Y02857D03*
X01099Y02898D03*
X01054Y01968D03*
X00908D03*
X00387Y01697D03*
X01276Y0271D03*
X01249Y02737D03*
X01307Y02692D03*
X01335Y02658D03*
X01969Y02121D03*
X0202Y02194D03*
X01275Y02866D03*
X01334Y02817D03*
X01249Y02892D03*
X01307Y02844D03*
X01355Y01015D03*
X01294Y01016D03*
X02606Y00393D03*
X0187Y00405D03*
X01434D03*
X00998D03*
X00981Y01968D03*
X00814Y02818D03*
M02*