%FSTAX23Y23*%
%MOIN*%
%SFA1B1*%

%IPPOS*%
%ADD95C,0.002000*%
%ADD96C,0.002665*%
%LNstrwl-p01-v01-1*%
%LPD*%
G54D95*
X00301Y02628D02*
Y02644D01*
X00317*
Y02628*
X00301*
X00351D02*
Y02644D01*
X00367*
Y02628*
X00351*
Y02578D02*
Y02594D01*
X00367*
Y02578*
X00351*
X00301D02*
Y02594D01*
X00317*
Y02578*
X00301*
Y02528D02*
Y02544D01*
X00317*
Y02528*
X00301*
X00351D02*
Y02544D01*
X00367*
Y02528*
X00351*
Y02678D02*
Y02694D01*
X00367*
Y02678*
X00351*
X00301D02*
Y02694D01*
X00317*
Y02678*
X00301*
Y02728D02*
Y02744D01*
X00317*
Y02728*
X00301*
X00351D02*
Y02744D01*
X00367*
Y02728*
X00351*
X00391Y03075D02*
X00383Y03091D01*
X00399*
X00391Y03075*
X02625D02*
X02617Y03091D01*
X02633*
X02625Y03075*
X00731Y00311D02*
X00723Y00327D01*
X00739*
X00731Y00311*
X02324D02*
X02316Y00327D01*
X02332*
X02324Y00311*
X01595Y01956D02*
X01599Y0196D01*
X01603*
X01599Y01964*
X01603Y01968*
X01599*
X01595Y01972*
X01591Y01968*
X01587*
X01591Y01964*
X01587Y0196*
X01591*
X01595Y01956*
X01531Y01995D02*
X01535Y01999D01*
X01539*
X01535Y02003*
X01539Y02007*
X01535*
X01531Y02011*
X01527Y02007*
X01523*
X01527Y02003*
X01523Y01999*
X01527*
X01531Y01995*
X01509Y0187D02*
X01513Y01874D01*
X01517*
X01513Y01878*
X01517Y01882*
X01513*
X01509Y01886*
X01505Y01882*
X01501*
X01505Y01878*
X01501Y01874*
X01505*
X01509Y0187*
X01743Y02194D02*
X01747Y02198D01*
X01751*
X01747Y02202*
X01751Y02206*
X01747*
X01743Y0221*
X01739Y02206*
X01735*
X01739Y02202*
X01735Y02198*
X01739*
X01743Y02194*
Y02132D02*
X01747Y02136D01*
X01751*
X01747Y0214*
X01751Y02144*
X01747*
X01743Y02148*
X01739Y02144*
X01735*
X01739Y0214*
X01735Y02136*
X01739*
X01743Y02132*
X01455Y01931D02*
X01459Y01935D01*
X01463*
X01459Y01939*
X01463Y01943*
X01459*
X01455Y01947*
X01451Y01943*
X01447*
X01451Y01939*
X01447Y01935*
X01451*
X01455Y01931*
X01397Y01872D02*
X01401Y01876D01*
X01405*
X01401Y0188*
X01405Y01884*
X01401*
X01397Y01888*
X01393Y01884*
X01389*
X01393Y0188*
X01389Y01876*
X01393*
X01397Y01872*
X00667Y0051D02*
X00671Y00514D01*
X00675*
X00671Y00518*
X00675Y00522*
X00671*
X00667Y00526*
X00663Y00522*
X00659*
X00663Y00518*
X00659Y00514*
X00663*
X00667Y0051*
X00479D02*
X00483Y00514D01*
X00487*
X00483Y00518*
X00487Y00522*
X00483*
X00479Y00526*
X00475Y00522*
X00471*
X00475Y00518*
X00471Y00514*
X00475*
X00479Y0051*
X00439Y00305D02*
X00443Y00309D01*
X00447*
X00443Y00313*
X00447Y00317*
X00443*
X00439Y00321*
X00435Y00317*
X00431*
X00435Y00313*
X00431Y00309*
X00435*
X00439Y00305*
X01132Y0118D02*
X01136Y01184D01*
X0114*
X01136Y01188*
X0114Y01192*
X01136*
X01132Y01196*
X01128Y01192*
X01124*
X01128Y01188*
X01124Y01184*
X01128*
X01132Y0118*
X01165Y01507D02*
X01169Y01511D01*
X01173*
X01169Y01515*
X01173Y01519*
X01169*
X01165Y01523*
X01161Y01519*
X01157*
X01161Y01515*
X01157Y01511*
X01161*
X01165Y01507*
X02046Y01107D02*
X0205Y01111D01*
X02054*
X0205Y01115*
X02054Y01119*
X0205*
X02046Y01123*
X02042Y01119*
X02038*
X02042Y01115*
X02038Y01111*
X02042*
X02046Y01107*
Y01247D02*
X0205Y01251D01*
X02054*
X0205Y01255*
X02054Y01259*
X0205*
X02046Y01263*
X02042Y01259*
X02038*
X02042Y01255*
X02038Y01251*
X02042*
X02046Y01247*
X01678Y00818D02*
X01682Y00822D01*
X01686*
X01682Y00826*
X01686Y0083*
X01682*
X01678Y00834*
X01674Y0083*
X0167*
X01674Y00826*
X0167Y00822*
X01674*
X01678Y00818*
X01621Y01218D02*
X01625Y01222D01*
X01629*
X01625Y01226*
X01629Y0123*
X01625*
X01621Y01234*
X01617Y0123*
X01613*
X01617Y01226*
X01613Y01222*
X01617*
X01621Y01218*
X01731Y01212D02*
X01735Y01216D01*
X01739*
X01735Y0122*
X01739Y01224*
X01735*
X01731Y01228*
X01727Y01224*
X01723*
X01727Y0122*
X01723Y01216*
X01727*
X01731Y01212*
X01868Y01703D02*
X01872Y01707D01*
X01876*
X01872Y01711*
X01876Y01715*
X01872*
X01868Y01719*
X01864Y01715*
X0186*
X01864Y01711*
X0186Y01707*
X01864*
X01868Y01703*
X01911Y01645D02*
X01915Y01649D01*
X01919*
X01915Y01653*
X01919Y01657*
X01915*
X01911Y01661*
X01907Y01657*
X01903*
X01907Y01653*
X01903Y01649*
X01907*
X01911Y01645*
X01183Y01008D02*
X01187Y01012D01*
X01191*
X01187Y01016*
X01191Y0102*
X01187*
X01183Y01024*
X01179Y0102*
X01175*
X01179Y01016*
X01175Y01012*
X01179*
X01183Y01008*
X01761Y0169D02*
X01765Y01694D01*
X01769*
X01765Y01698*
X01769Y01702*
X01765*
X01761Y01706*
X01757Y01702*
X01753*
X01757Y01698*
X01753Y01694*
X01757*
X01761Y0169*
X01701Y01723D02*
X01705Y01727D01*
X01709*
X01705Y01731*
X01709Y01735*
X01705*
X01701Y01739*
X01697Y01735*
X01693*
X01697Y01731*
X01693Y01727*
X01697*
X01701Y01723*
X02102Y01982D02*
X02106Y01986D01*
X0211*
X02106Y0199*
X0211Y01994*
X02106*
X02102Y01998*
X02098Y01994*
X02094*
X02098Y0199*
X02094Y01986*
X02098*
X02102Y01982*
X01992Y01858D02*
X01996Y01862D01*
X02*
X01996Y01866*
X02Y0187*
X01996*
X01992Y01874*
X01988Y0187*
X01984*
X01988Y01866*
X01984Y01862*
X01988*
X01992Y01858*
X01012Y025D02*
X01016Y02504D01*
X0102*
X01016Y02508*
X0102Y02512*
X01016*
X01012Y02516*
X01008Y02512*
X01004*
X01008Y02508*
X01004Y02504*
X01008*
X01012Y025*
X01012Y02384D02*
X01016Y02388D01*
X0102*
X01016Y02392*
X0102Y02396*
X01016*
X01012Y024*
X01008Y02396*
X01004*
X01008Y02392*
X01004Y02388*
X01008*
X01012Y02384*
X01312Y02273D02*
X01316Y02277D01*
X0132*
X01316Y02281*
X0132Y02285*
X01316*
X01312Y02289*
X01308Y02285*
X01304*
X01308Y02281*
X01304Y02277*
X01308*
X01312Y02273*
X00419Y02307D02*
X00423Y02311D01*
X00427*
X00423Y02315*
X00427Y02319*
X00423*
X00419Y02323*
X00415Y02319*
X00411*
X00415Y02315*
X00411Y02311*
X00415*
X00419Y02307*
X00505Y02658D02*
X00509Y02662D01*
X00513*
X00509Y02666*
X00513Y0267*
X00509*
X00505Y02674*
X00501Y0267*
X00497*
X00501Y02666*
X00497Y02662*
X00501*
X00505Y02658*
X01547Y02356D02*
X01551Y0236D01*
X01555*
X01551Y02364*
X01555Y02368*
X01551*
X01547Y02372*
X01543Y02368*
X01539*
X01543Y02364*
X01539Y0236*
X01543*
X01547Y02356*
X0117Y02481D02*
X01174Y02485D01*
X01178*
X01174Y02489*
X01178Y02493*
X01174*
X0117Y02497*
X01166Y02493*
X01162*
X01166Y02489*
X01162Y02485*
X01166*
X0117Y02481*
X01438Y02194D02*
X01442Y02198D01*
X01446*
X01442Y02202*
X01446Y02206*
X01442*
X01438Y0221*
X01434Y02206*
X0143*
X01434Y02202*
X0143Y02198*
X01434*
X01438Y02194*
X0144Y02172D02*
X01444Y02176D01*
X01448*
X01444Y0218*
X01448Y02184*
X01444*
X0144Y02188*
X01436Y02184*
X01432*
X01436Y0218*
X01432Y02176*
X01436*
X0144Y02172*
X01199Y02158D02*
X01203Y02162D01*
X01207*
X01203Y02166*
X01207Y0217*
X01203*
X01199Y02174*
X01195Y0217*
X01191*
X01195Y02166*
X01191Y02162*
X01195*
X01199Y02158*
Y02178D02*
X01203Y02182D01*
X01207*
X01203Y02186*
X01207Y0219*
X01203*
X01199Y02194*
X01195Y0219*
X01191*
X01195Y02186*
X01191Y02182*
X01195*
X01199Y02178*
X02601Y00736D02*
X02605Y0074D01*
X02609*
X02605Y00744*
X02609Y00748*
X02605*
X02601Y00752*
X02597Y00748*
X02593*
X02597Y00744*
X02593Y0074*
X02597*
X02601Y00736*
X0044Y01285D02*
X00444Y01289D01*
X00448*
X00444Y01293*
X00448Y01297*
X00444*
X0044Y01301*
X00436Y01297*
X00432*
X00436Y01293*
X00432Y01289*
X00436*
X0044Y01285*
X01832Y01982D02*
X01836Y01986D01*
X0184*
X01836Y0199*
X0184Y01994*
X01836*
X01832Y01998*
X01828Y01994*
X01824*
X01828Y0199*
X01824Y01986*
X01828*
X01832Y01982*
X0188Y01995D02*
X01884Y01999D01*
X01888*
X01884Y02003*
X01888Y02007*
X01884*
X0188Y02011*
X01876Y02007*
X01872*
X01876Y02003*
X01872Y01999*
X01876*
X0188Y01995*
X01062Y01506D02*
X01066Y0151D01*
X0107*
X01066Y01514*
X0107Y01518*
X01066*
X01062Y01522*
X01058Y01518*
X01054*
X01058Y01514*
X01054Y0151*
X01058*
X01062Y01506*
X00429Y00657D02*
X00433Y00661D01*
X00437*
X00433Y00665*
X00437Y00669*
X00433*
X00429Y00673*
X00425Y00669*
X00421*
X00425Y00665*
X00421Y00661*
X00425*
X00429Y00657*
X01793Y02628D02*
X01797Y02632D01*
X01801*
X01797Y02636*
X01801Y0264*
X01797*
X01793Y02644*
X01789Y0264*
X01785*
X01789Y02636*
X01785Y02632*
X01789*
X01793Y02628*
X01821Y02776D02*
X01825Y0278D01*
X01829*
X01825Y02784*
X01829Y02788*
X01825*
X01821Y02792*
X01817Y02788*
X01813*
X01817Y02784*
X01813Y0278*
X01817*
X01821Y02776*
X01076Y0118D02*
X0108Y01184D01*
X01084*
X0108Y01188*
X01084Y01192*
X0108*
X01076Y01196*
X01072Y01192*
X01068*
X01072Y01188*
X01068Y01184*
X01072*
X01076Y0118*
X01287Y01353D02*
X01291Y01357D01*
X01295*
X01291Y01361*
X01295Y01365*
X01291*
X01287Y01369*
X01283Y01365*
X01279*
X01283Y01361*
X01279Y01357*
X01283*
X01287Y01353*
X01373Y01207D02*
X01377Y01211D01*
X01381*
X01377Y01215*
X01381Y01219*
X01377*
X01373Y01223*
X01369Y01219*
X01365*
X01369Y01215*
X01365Y01211*
X01369*
X01373Y01207*
X01502Y00815D02*
X01506Y00819D01*
X0151*
X01506Y00823*
X0151Y00827*
X01506*
X01502Y00831*
X01498Y00827*
X01494*
X01498Y00823*
X01494Y00819*
X01498*
X01502Y00815*
X01415Y0085D02*
X01419Y00854D01*
X01423*
X01419Y00858*
X01423Y00862*
X01419*
X01415Y00866*
X01411Y00862*
X01407*
X01411Y00858*
X01407Y00854*
X01411*
X01415Y0085*
X0123D02*
X01234Y00854D01*
X01238*
X01234Y00858*
X01238Y00862*
X01234*
X0123Y00866*
X01226Y00862*
X01222*
X01226Y00858*
X01222Y00854*
X01226*
X0123Y0085*
X01038Y0115D02*
X01042Y01154D01*
X01046*
X01042Y01158*
X01046Y01162*
X01042*
X01038Y01166*
X01034Y01162*
X0103*
X01034Y01158*
X0103Y01154*
X01034*
X01038Y0115*
X00665Y01169D02*
X00669Y01173D01*
X00673*
X00669Y01177*
X00673Y01181*
X00669*
X00665Y01185*
X00661Y01181*
X00657*
X00661Y01177*
X00657Y01173*
X00661*
X00665Y01169*
X00436Y02004D02*
X0044Y02008D01*
X00444*
X0044Y02012*
X00444Y02016*
X0044*
X00436Y0202*
X00432Y02016*
X00428*
X00432Y02012*
X00428Y02008*
X00432*
X00436Y02004*
X01821Y01749D02*
X01825Y01753D01*
X01829*
X01825Y01757*
X01829Y01761*
X01825*
X01821Y01765*
X01817Y01761*
X01813*
X01817Y01757*
X01813Y01753*
X01817*
X01821Y01749*
X01589Y02851D02*
X01593Y02855D01*
X01597*
X01593Y02859*
X01597Y02863*
X01593*
X01589Y02867*
X01585Y02863*
X01581*
X01585Y02859*
X01581Y02855*
X01585*
X01589Y02851*
X0138Y02821D02*
X01384Y02825D01*
X01388*
X01384Y02829*
X01388Y02833*
X01384*
X0138Y02837*
X01376Y02833*
X01372*
X01376Y02829*
X01372Y02825*
X01376*
X0138Y02821*
X00811Y02869D02*
X00815Y02873D01*
X00819*
X00815Y02877*
X00819Y02881*
X00815*
X00811Y02885*
X00807Y02881*
X00803*
X00807Y02877*
X00803Y02873*
X00807*
X00811Y02869*
X01235Y0231D02*
X01239Y02314D01*
X01243*
X01239Y02318*
X01243Y02322*
X01239*
X01235Y02326*
X01231Y02322*
X01227*
X01231Y02318*
X01227Y02314*
X01231*
X01235Y0231*
X0092Y02591D02*
X00924Y02595D01*
X00928*
X00924Y02599*
X00928Y02603*
X00924*
X0092Y02607*
X00916Y02603*
X00912*
X00916Y02599*
X00912Y02595*
X00916*
X0092Y02591*
X00908Y02773D02*
X00912Y02777D01*
X00916*
X00912Y02781*
X00916Y02785*
X00912*
X00908Y02789*
X00904Y02785*
X009*
X00904Y02781*
X009Y02777*
X00904*
X00908Y02773*
X01029Y02775D02*
X01033Y02779D01*
X01037*
X01033Y02783*
X01037Y02787*
X01033*
X01029Y02791*
X01025Y02787*
X01021*
X01025Y02783*
X01021Y02779*
X01025*
X01029Y02775*
X01089D02*
X01093Y02779D01*
X01097*
X01093Y02783*
X01097Y02787*
X01093*
X01089Y02791*
X01085Y02787*
X01081*
X01085Y02783*
X01081Y02779*
X01085*
X01089Y02775*
X01149Y02773D02*
X01153Y02777D01*
X01157*
X01153Y02781*
X01157Y02785*
X01153*
X01149Y02789*
X01145Y02785*
X01141*
X01145Y02781*
X01141Y02777*
X01145*
X01149Y02773*
X00969Y02773D02*
X00973Y02777D01*
X00977*
X00973Y02781*
X00977Y02785*
X00973*
X00969Y02789*
X00965Y02785*
X00961*
X00965Y02781*
X00961Y02777*
X00965*
X00969Y02773*
X00388Y02138D02*
X00392Y02142D01*
X00396*
X00392Y02146*
X00396Y0215*
X00392*
X00388Y02154*
X00384Y0215*
X0038*
X00384Y02146*
X0038Y02142*
X00384*
X00388Y02138*
X00712Y02142D02*
X00716Y02146D01*
X0072*
X00716Y0215*
X0072Y02154*
X00716*
X00712Y02158*
X00708Y02154*
X00704*
X00708Y0215*
X00704Y02146*
X00708*
X00712Y02142*
X00713Y01689D02*
X00717Y01693D01*
X00721*
X00717Y01697*
X00721Y01701*
X00717*
X00713Y01705*
X00709Y01701*
X00705*
X00709Y01697*
X00705Y01693*
X00709*
X00713Y01689*
X01694Y02607D02*
X01698Y02611D01*
X01702*
X01698Y02615*
X01702Y02619*
X01698*
X01694Y02623*
X0169Y02619*
X01686*
X0169Y02615*
X01686Y02611*
X0169*
X01694Y02607*
X02128Y02328D02*
X02132Y02332D01*
X02136*
X02132Y02336*
X02136Y0234*
X02132*
X02128Y02344*
X02124Y0234*
X0212*
X02124Y02336*
X0212Y02332*
X02124*
X02128Y02328*
X01072Y0296D02*
X01076Y02964D01*
X0108*
X01076Y02968*
X0108Y02972*
X01076*
X01072Y02976*
X01068Y02972*
X01064*
X01068Y02968*
X01064Y02964*
X01068*
X01072Y0296*
X02009Y02595D02*
X02013Y02599D01*
X02017*
X02013Y02603*
X02017Y02607*
X02013*
X02009Y02611*
X02005Y02607*
X02001*
X02005Y02603*
X02001Y02599*
X02005*
X02009Y02595*
X0203Y02586D02*
X02034Y0259D01*
X02038*
X02034Y02594*
X02038Y02598*
X02034*
X0203Y02602*
X02026Y02598*
X02022*
X02026Y02594*
X02022Y0259*
X02026*
X0203Y02586*
X01912Y02495D02*
X01916Y02499D01*
X0192*
X01916Y02503*
X0192Y02507*
X01916*
X01912Y02511*
X01908Y02507*
X01904*
X01908Y02503*
X01904Y02499*
X01908*
X01912Y02495*
X01943Y02498D02*
X01947Y02502D01*
X01951*
X01947Y02506*
X01951Y0251*
X01947*
X01943Y02514*
X01939Y0251*
X01935*
X01939Y02506*
X01935Y02502*
X01939*
X01943Y02498*
X01817Y0257D02*
X01821Y02574D01*
X01825*
X01821Y02578*
X01825Y02582*
X01821*
X01817Y02586*
X01813Y02582*
X01809*
X01813Y02578*
X01809Y02574*
X01813*
X01817Y0257*
X01832Y02554D02*
X01836Y02558D01*
X0184*
X01836Y02562*
X0184Y02566*
X01836*
X01832Y0257*
X01828Y02566*
X01824*
X01828Y02562*
X01824Y02558*
X01828*
X01832Y02554*
X01338Y02033D02*
X01342Y02037D01*
X01346*
X01342Y02041*
X01346Y02045*
X01342*
X01338Y02049*
X01334Y02045*
X0133*
X01334Y02041*
X0133Y02037*
X01334*
X01338Y02033*
X01275Y0207D02*
X01279Y02074D01*
X01283*
X01279Y02078*
X01283Y02082*
X01279*
X01275Y02086*
X01271Y02082*
X01267*
X01271Y02078*
X01267Y02074*
X01271*
X01275Y0207*
X01069Y01873D02*
X01073Y01877D01*
X01077*
X01073Y01881*
X01077Y01885*
X01073*
X01069Y01889*
X01065Y01885*
X01061*
X01065Y01881*
X01061Y01877*
X01065*
X01069Y01873*
X01278Y01892D02*
X01282Y01896D01*
X01286*
X01282Y019*
X01286Y01904*
X01282*
X01278Y01908*
X01274Y01904*
X0127*
X01274Y019*
X0127Y01896*
X01274*
X01278Y01892*
X01249Y01979D02*
X01253Y01983D01*
X01257*
X01253Y01987*
X01257Y01991*
X01253*
X01249Y01995*
X01245Y01991*
X01241*
X01245Y01987*
X01241Y01983*
X01245*
X01249Y01979*
X01275Y02024D02*
X01279Y02028D01*
X01283*
X01279Y02032*
X01283Y02036*
X01279*
X01275Y0204*
X01271Y02036*
X01267*
X01271Y02032*
X01267Y02028*
X01271*
X01275Y02024*
X01531Y0289D02*
X01535Y02894D01*
X01539*
X01535Y02898*
X01539Y02902*
X01535*
X01531Y02906*
X01527Y02902*
X01523*
X01527Y02898*
X01523Y02894*
X01527*
X01531Y0289*
X0174Y01708D02*
X01744Y01712D01*
X01748*
X01744Y01716*
X01748Y0172*
X01744*
X0174Y01724*
X01736Y0172*
X01732*
X01736Y01716*
X01732Y01712*
X01736*
X0174Y01708*
X01555Y0205D02*
X01559Y02054D01*
X01563*
X01559Y02058*
X01563Y02062*
X01559*
X01555Y02066*
X01551Y02062*
X01547*
X01551Y02058*
X01547Y02054*
X01551*
X01555Y0205*
X01541Y02035D02*
X01545Y02039D01*
X01549*
X01545Y02043*
X01549Y02047*
X01545*
X01541Y02051*
X01537Y02047*
X01533*
X01537Y02043*
X01533Y02039*
X01537*
X01541Y02035*
X01065Y02849D02*
X01069Y02853D01*
X01073*
X01069Y02857*
X01073Y02861*
X01069*
X01065Y02865*
X01061Y02861*
X01057*
X01061Y02857*
X01057Y02853*
X01061*
X01065Y02849*
X01099Y0289D02*
X01103Y02894D01*
X01107*
X01103Y02898*
X01107Y02902*
X01103*
X01099Y02906*
X01095Y02902*
X01091*
X01095Y02898*
X01091Y02894*
X01095*
X01099Y0289*
X01054Y0196D02*
X01058Y01964D01*
X01062*
X01058Y01968*
X01062Y01972*
X01058*
X01054Y01976*
X0105Y01972*
X01046*
X0105Y01968*
X01046Y01964*
X0105*
X01054Y0196*
X00908D02*
X00912Y01964D01*
X00916*
X00912Y01968*
X00916Y01972*
X00912*
X00908Y01976*
X00904Y01972*
X009*
X00904Y01968*
X009Y01964*
X00904*
X00908Y0196*
X00387Y01689D02*
X00391Y01693D01*
X00395*
X00391Y01697*
X00395Y01701*
X00391*
X00387Y01705*
X00383Y01701*
X00379*
X00383Y01697*
X00379Y01693*
X00383*
X00387Y01689*
X01276Y02702D02*
X0128Y02706D01*
X01284*
X0128Y0271*
X01284Y02714*
X0128*
X01276Y02718*
X01272Y02714*
X01268*
X01272Y0271*
X01268Y02706*
X01272*
X01276Y02702*
X01249Y02729D02*
X01253Y02733D01*
X01257*
X01253Y02737*
X01257Y02741*
X01253*
X01249Y02745*
X01245Y02741*
X01241*
X01245Y02737*
X01241Y02733*
X01245*
X01249Y02729*
X01307Y02684D02*
X01311Y02688D01*
X01315*
X01311Y02692*
X01315Y02696*
X01311*
X01307Y027*
X01303Y02696*
X01299*
X01303Y02692*
X01299Y02688*
X01303*
X01307Y02684*
X01335Y0265D02*
X01339Y02654D01*
X01343*
X01339Y02658*
X01343Y02662*
X01339*
X01335Y02666*
X01331Y02662*
X01327*
X01331Y02658*
X01327Y02654*
X01331*
X01335Y0265*
X01969Y02113D02*
X01973Y02117D01*
X01977*
X01973Y02121*
X01977Y02125*
X01973*
X01969Y02129*
X01965Y02125*
X01961*
X01965Y02121*
X01961Y02117*
X01965*
X01969Y02113*
X0202Y02186D02*
X02024Y0219D01*
X02028*
X02024Y02194*
X02028Y02198*
X02024*
X0202Y02202*
X02016Y02198*
X02012*
X02016Y02194*
X02012Y0219*
X02016*
X0202Y02186*
X01275Y02858D02*
X01279Y02862D01*
X01283*
X01279Y02866*
X01283Y0287*
X01279*
X01275Y02874*
X01271Y0287*
X01267*
X01271Y02866*
X01267Y02862*
X01271*
X01275Y02858*
X01334Y02809D02*
X01338Y02813D01*
X01342*
X01338Y02817*
X01342Y02821*
X01338*
X01334Y02825*
X0133Y02821*
X01326*
X0133Y02817*
X01326Y02813*
X0133*
X01334Y02809*
X01249Y02884D02*
X01253Y02888D01*
X01257*
X01253Y02892*
X01257Y02896*
X01253*
X01249Y029*
X01245Y02896*
X01241*
X01245Y02892*
X01241Y02888*
X01245*
X01249Y02884*
X01307Y02836D02*
X01311Y0284D01*
X01315*
X01311Y02844*
X01315Y02848*
X01311*
X01307Y02852*
X01303Y02848*
X01299*
X01303Y02844*
X01299Y0284*
X01303*
X01307Y02836*
X01355Y01007D02*
X01359Y01011D01*
X01363*
X01359Y01015*
X01363Y01019*
X01359*
X01355Y01023*
X01351Y01019*
X01347*
X01351Y01015*
X01347Y01011*
X01351*
X01355Y01007*
X01294Y01008D02*
X01298Y01012D01*
X01302*
X01298Y01016*
X01302Y0102*
X01298*
X01294Y01024*
X0129Y0102*
X01286*
X0129Y01016*
X01286Y01012*
X0129*
X01294Y01008*
X02606Y00385D02*
X0261Y00389D01*
X02614*
X0261Y00393*
X02614Y00397*
X0261*
X02606Y00401*
X02602Y00397*
X02598*
X02602Y00393*
X02598Y00389*
X02602*
X02606Y00385*
X0187Y00397D02*
X01874Y00401D01*
X01878*
X01874Y00405*
X01878Y00409*
X01874*
X0187Y00413*
X01866Y00409*
X01862*
X01866Y00405*
X01862Y00401*
X01866*
X0187Y00397*
X01434D02*
X01438Y00401D01*
X01442*
X01438Y00405*
X01442Y00409*
X01438*
X01434Y00413*
X0143Y00409*
X01426*
X0143Y00405*
X01426Y00401*
X0143*
X01434Y00397*
X00998D02*
X01002Y00401D01*
X01006*
X01002Y00405*
X01006Y00409*
X01002*
X00998Y00413*
X00994Y00409*
X0099*
X00994Y00405*
X0099Y00401*
X00994*
X00998Y00397*
X00981Y0196D02*
X00985Y01964D01*
X00989*
X00985Y01968*
X00989Y01972*
X00985*
X00981Y01976*
X00977Y01972*
X00973*
X00977Y01968*
X00973Y01964*
X00977*
X00981Y0196*
X00814Y0281D02*
X00818Y02814D01*
X00822*
X00818Y02818*
X00822Y02822*
X00818*
X00814Y02826*
X0081Y02822*
X00806*
X0081Y02818*
X00806Y02814*
X0081*
X00814Y0281*
G54D96*
X02393Y02632D02*
D01*
X02393Y02633*
X02393Y02633*
X02393Y02634*
X02393Y02634*
X02392Y02635*
X02392Y02635*
X02392Y02636*
X02392Y02636*
X02391Y02637*
X02391Y02637*
X02391Y02638*
X0239Y02638*
X0239Y02638*
X02389Y02639*
X02389Y02639*
X02388Y02639*
X02388Y02639*
X02387Y0264*
X02387Y0264*
X02386Y0264*
X02386Y0264*
X02385Y0264*
X02385*
X02384Y0264*
X02383Y0264*
X02383Y0264*
X02382Y0264*
X02382Y02639*
X02381Y02639*
X02381Y02639*
X0238Y02639*
X0238Y02638*
X0238Y02638*
X02379Y02638*
X02379Y02637*
X02378Y02637*
X02378Y02636*
X02378Y02636*
X02378Y02635*
X02377Y02635*
X02377Y02634*
X02377Y02634*
X02377Y02633*
X02377Y02633*
X02377Y02632*
X02377Y02632*
X02377Y02631*
X02377Y0263*
X02377Y0263*
X02377Y02629*
X02378Y02629*
X02378Y02628*
X02378Y02628*
X02378Y02627*
X02379Y02627*
X02379Y02627*
X0238Y02626*
X0238Y02626*
X0238Y02625*
X02381Y02625*
X02381Y02625*
X02382Y02625*
X02382Y02624*
X02383Y02624*
X02383Y02624*
X02384Y02624*
X02385Y02624*
X02385*
X02386Y02624*
X02386Y02624*
X02387Y02624*
X02387Y02624*
X02388Y02625*
X02388Y02625*
X02389Y02625*
X02389Y02625*
X0239Y02626*
X0239Y02626*
X02391Y02627*
X02391Y02627*
X02391Y02627*
X02392Y02628*
X02392Y02628*
X02392Y02629*
X02392Y02629*
X02393Y0263*
X02393Y0263*
X02393Y02631*
X02393Y02632*
X02393Y02632*
Y02732D02*
D01*
X02393Y02733*
X02393Y02733*
X02393Y02734*
X02393Y02734*
X02392Y02735*
X02392Y02735*
X02392Y02736*
X02392Y02736*
X02391Y02737*
X02391Y02737*
X02391Y02738*
X0239Y02738*
X0239Y02738*
X02389Y02739*
X02389Y02739*
X02388Y02739*
X02388Y02739*
X02387Y0274*
X02387Y0274*
X02386Y0274*
X02386Y0274*
X02385Y0274*
X02385*
X02384Y0274*
X02383Y0274*
X02383Y0274*
X02382Y0274*
X02382Y02739*
X02381Y02739*
X02381Y02739*
X0238Y02739*
X0238Y02738*
X0238Y02738*
X02379Y02738*
X02379Y02737*
X02378Y02737*
X02378Y02736*
X02378Y02736*
X02378Y02735*
X02377Y02735*
X02377Y02734*
X02377Y02734*
X02377Y02733*
X02377Y02733*
X02377Y02732*
X02377Y02732*
X02377Y02731*
X02377Y0273*
X02377Y0273*
X02377Y02729*
X02378Y02729*
X02378Y02728*
X02378Y02728*
X02378Y02727*
X02379Y02727*
X02379Y02727*
X0238Y02726*
X0238Y02726*
X0238Y02725*
X02381Y02725*
X02381Y02725*
X02382Y02725*
X02382Y02724*
X02383Y02724*
X02383Y02724*
X02384Y02724*
X02385Y02724*
X02385*
X02386Y02724*
X02386Y02724*
X02387Y02724*
X02387Y02724*
X02388Y02725*
X02388Y02725*
X02389Y02725*
X02389Y02725*
X0239Y02726*
X0239Y02726*
X02391Y02727*
X02391Y02727*
X02391Y02727*
X02392Y02728*
X02392Y02728*
X02392Y02729*
X02392Y02729*
X02393Y0273*
X02393Y0273*
X02393Y02731*
X02393Y02732*
X02393Y02732*
Y02832D02*
D01*
X02393Y02833*
X02393Y02833*
X02393Y02834*
X02393Y02834*
X02392Y02835*
X02392Y02835*
X02392Y02836*
X02392Y02836*
X02391Y02837*
X02391Y02837*
X02391Y02838*
X0239Y02838*
X0239Y02838*
X02389Y02839*
X02389Y02839*
X02388Y02839*
X02388Y02839*
X02387Y0284*
X02387Y0284*
X02386Y0284*
X02386Y0284*
X02385Y0284*
X02385*
X02384Y0284*
X02383Y0284*
X02383Y0284*
X02382Y0284*
X02382Y02839*
X02381Y02839*
X02381Y02839*
X0238Y02839*
X0238Y02838*
X0238Y02838*
X02379Y02838*
X02379Y02837*
X02378Y02837*
X02378Y02836*
X02378Y02836*
X02378Y02835*
X02377Y02835*
X02377Y02834*
X02377Y02834*
X02377Y02833*
X02377Y02833*
X02377Y02832*
X02377Y02832*
X02377Y02831*
X02377Y0283*
X02377Y0283*
X02377Y02829*
X02378Y02829*
X02378Y02828*
X02378Y02828*
X02378Y02827*
X02379Y02827*
X02379Y02827*
X0238Y02826*
X0238Y02826*
X0238Y02825*
X02381Y02825*
X02381Y02825*
X02382Y02825*
X02382Y02824*
X02383Y02824*
X02383Y02824*
X02384Y02824*
X02385Y02824*
X02385*
X02386Y02824*
X02386Y02824*
X02387Y02824*
X02387Y02824*
X02388Y02825*
X02388Y02825*
X02389Y02825*
X02389Y02825*
X0239Y02826*
X0239Y02826*
X02391Y02827*
X02391Y02827*
X02391Y02827*
X02392Y02828*
X02392Y02828*
X02392Y02829*
X02392Y02829*
X02393Y0283*
X02393Y0283*
X02393Y02831*
X02393Y02832*
X02393Y02832*
M02*