%FSTAX23Y23*%
%MOIN*%
%SFA1B1*%

%IPPOS*%
%ADD86C,0.003937*%
%ADD88C,0.000000*%
%ADD89C,0.001000*%
%LNstrwl-p01-v01-1*%
%LPD*%
G54D86*
X01721Y01842D02*
D01*
X01721Y01843*
X01721Y01845*
X01721Y01846*
X0172Y01847*
X0172Y01849*
X01719Y0185*
X01719Y01851*
X01718Y01852*
X01717Y01853*
X01717Y01855*
X01716Y01856*
X01715Y01856*
X01714Y01857*
X01713Y01858*
X01711Y01859*
X0171Y0186*
X01709Y0186*
X01708Y01861*
X01706Y01861*
X01705Y01861*
X01704Y01861*
X01702Y01862*
X01701*
X01699Y01861*
X01698Y01861*
X01697Y01861*
X01695Y01861*
X01694Y0186*
X01693Y0186*
X01692Y01859*
X0169Y01858*
X01689Y01857*
X01688Y01856*
X01687Y01856*
X01686Y01855*
X01686Y01853*
X01685Y01852*
X01684Y01851*
X01684Y0185*
X01683Y01849*
X01683Y01847*
X01682Y01846*
X01682Y01845*
X01682Y01843*
X01682Y01842*
X01682Y0184*
X01682Y01839*
X01682Y01838*
X01683Y01836*
X01683Y01835*
X01684Y01834*
X01684Y01833*
X01685Y01831*
X01686Y0183*
X01686Y01829*
X01687Y01828*
X01688Y01827*
X01689Y01826*
X0169Y01826*
X01692Y01825*
X01693Y01824*
X01694Y01824*
X01695Y01823*
X01697Y01823*
X01698Y01822*
X01699Y01822*
X01701Y01822*
X01702*
X01704Y01822*
X01705Y01822*
X01706Y01823*
X01708Y01823*
X01709Y01824*
X0171Y01824*
X01711Y01825*
X01713Y01826*
X01714Y01826*
X01715Y01827*
X01716Y01828*
X01717Y01829*
X01717Y0183*
X01718Y01831*
X01719Y01833*
X01719Y01834*
X0172Y01835*
X0172Y01836*
X01721Y01838*
X01721Y01839*
X01721Y0184*
X01721Y01842*
X01702Y01792D02*
X02091Y02182D01*
X01312D02*
X01702Y02571D01*
X01312Y02182D02*
X01702Y01792D01*
Y02571D02*
X02091Y02182D01*
X0053Y00197D02*
Y00228D01*
X00262Y00197D02*
X0053D01*
X00467Y00228D02*
X0053D01*
X00467D02*
Y00477D01*
X0053D01*
X0023Y00217D02*
X00262D01*
Y00197D02*
Y00217D01*
X0023D02*
Y00488D01*
X00262D01*
Y00508D01*
X0053Y00477D02*
Y00508D01*
X00262D02*
X0053D01*
X02505Y00829D02*
Y0086D01*
X02773*
X02505Y00829D02*
X02568D01*
Y0058D02*
Y00829D01*
X02505Y0058D02*
X02568D01*
X02773Y0084D02*
X02804D01*
X02773D02*
Y0086D01*
X02804Y00569D02*
Y0084D01*
X02773Y00569D02*
X02804D01*
X02773Y00549D02*
Y00569D01*
X02505Y00549D02*
Y0058D01*
Y00549D02*
X02773D01*
X01359Y00956D02*
Y01074D01*
X01477*
Y00956D02*
Y01074D01*
X01359Y00956D02*
X01477D01*
X01359Y00985D02*
X01389Y00956D01*
X02505Y00197D02*
X02773D01*
X02505D02*
Y00228D01*
X02773Y00197D02*
Y00217D01*
X02804D01*
Y00488D01*
X02773D02*
Y00508D01*
Y00488D02*
X02804D01*
X02505Y00228D02*
X02568D01*
Y00477D01*
X02505D02*
X02568D01*
X02505Y00508D02*
X02773D01*
X02505Y00477D02*
Y00508D01*
X00833Y02963D02*
X01486D01*
X01462Y03164D02*
X01526D01*
X01462Y03101D02*
Y03164D01*
X01462Y03101D02*
X01486D01*
Y02963D02*
Y03101D01*
X00833Y02963D02*
Y03101D01*
X00857*
Y03164*
X01526Y03204D02*
X01526Y03164D01*
X00793Y03204D02*
X01526D01*
X00793Y03164D02*
X00793Y03204D01*
X00793Y03164D02*
X00857D01*
X01462*
X00857Y03101D02*
X01462D01*
X00262Y0086D02*
X0053D01*
Y00829D02*
Y0086D01*
X00262Y0084D02*
Y0086D01*
X0023Y0084D02*
X00262D01*
X0023Y00569D02*
Y0084D01*
X00262Y00549D02*
Y00569D01*
X0023D02*
X00262D01*
X00467Y00829D02*
X0053D01*
X00467Y0058D02*
Y00829D01*
Y0058D02*
X0053D01*
X00262Y00549D02*
X0053D01*
Y0058*
G54D88*
X01924Y01786D02*
D01*
X01924Y01786*
X01925Y01787*
X01925Y01788*
X01926Y01788*
X01926Y01789*
X01927Y0179*
X01927Y01791*
X01927Y01791*
X01927Y01792*
X01927Y01793*
X01927Y01794*
X01927Y01795*
X01927Y01796*
X01927Y01796*
X01927Y01797*
X01927Y01798*
X01926Y01799*
X01926Y01799*
X01926Y018*
X01925Y01801*
X01925Y01802*
X01924Y01802*
X01924Y01803*
X01923Y01803*
X01922Y01804*
X01922Y01804*
X01921Y01805*
X0192Y01805*
X01919Y01805*
X01919Y01806*
X01918Y01806*
X01917Y01806*
X01916Y01806*
X01915Y01806*
X01914Y01806*
X01914Y01806*
X01913Y01806*
X01912Y01806*
X01911Y01805*
X0191Y01805*
X0191Y01805*
X01909Y01804*
X01908Y01804*
X01908Y01803*
X01907Y01803*
X01907*
G54D89*
X0197Y01918D02*
X02039Y01848D01*
X01881Y01829D02*
X0197Y01918D01*
X01881Y01829D02*
X0195Y01759D01*
X02039Y01848*
M02*