%FSTAX23Y23*%
%MOIN*%
%SFA1B1*%

%IPPOS*%
%ADD12C,0.010000*%
%ADD15C,0.015000*%
%LNstrwl-p01-v01-1*%
%LPD*%
G36*
X0118Y02971D02*
X01182D01*
Y02969*
Y02966*
Y02964*
X01184*
Y02962*
Y0296*
Y02958*
X01186*
Y02955*
Y02953*
X01189*
Y02951*
Y02949*
Y02947*
Y02945*
X01191*
Y02942*
X01189*
Y0294*
Y02938*
X01193*
Y02936*
Y02934*
Y02931*
Y02929*
Y02927*
X01195*
Y02925*
Y02923*
Y0292*
X01197*
Y02918*
Y02916*
Y02914*
X01199*
Y02912*
Y0291*
Y02907*
X01202*
Y02905*
Y02903*
X01204*
Y02901*
Y02899*
Y02896*
X01206*
Y02894*
Y02892*
Y0289*
X01208*
Y02888*
Y02886*
X0121*
Y02883*
Y02881*
Y02879*
X01213*
Y02877*
Y02875*
Y02872*
Y0287*
X01215*
Y02868*
Y02866*
Y02864*
Y02861*
Y02859*
X01219*
Y02857*
X01217*
Y02855*
Y02853*
X01219*
Y02851*
Y02848*
Y02846*
X01221*
Y02844*
Y02842*
X01224*
Y0284*
X0109*
Y02842*
Y02844*
Y02846*
Y02848*
Y02851*
X01088*
Y02853*
Y02855*
X01086*
Y02857*
Y02859*
Y02861*
X01084*
Y02864*
Y02866*
Y02868*
Y0287*
X01081*
Y02872*
Y02875*
X01079*
Y02877*
Y02879*
Y02881*
X01077*
Y02883*
Y02886*
Y02888*
X01075*
Y0289*
Y02892*
Y02894*
X01073*
Y02896*
Y02899*
X01071*
Y02901*
Y02903*
Y02905*
X01068*
Y02907*
Y0291*
Y02912*
Y02914*
Y02916*
X01066*
Y02918*
Y0292*
Y02923*
X01064*
Y02925*
Y02927*
Y02929*
X01062*
Y02931*
Y02934*
Y02936*
X0106*
Y02938*
Y0294*
X01057*
Y02942*
Y02945*
Y02947*
Y02949*
X01055*
Y02951*
Y02953*
Y02955*
X01053*
Y02958*
Y0296*
Y02962*
X01051*
Y02964*
Y02966*
X01049*
Y02969*
Y02971*
Y02973*
X0118*
Y02971*
G37*
G36*
X00915D02*
Y02969D01*
X00918*
Y02966*
Y02964*
Y02962*
X0092*
Y0296*
Y02958*
Y02955*
X00922*
Y02953*
Y02951*
X00924*
Y02949*
Y02947*
Y02945*
X00926*
Y02942*
Y0294*
Y02938*
Y02936*
X00928*
Y02934*
Y02931*
Y02929*
X00931*
Y02927*
Y02925*
X00933*
Y02923*
Y0292*
Y02918*
Y02916*
Y02914*
X00937*
Y02912*
Y0291*
X00935*
Y02907*
X00937*
Y02905*
Y02903*
Y02901*
X00939*
Y02899*
Y02896*
Y02894*
X00942*
Y02892*
Y0289*
Y02888*
X00944*
Y02886*
Y02883*
X00946*
Y02881*
Y02879*
Y02877*
X00948*
Y02875*
Y02872*
Y0287*
X0095*
Y02868*
Y02866*
X00952*
Y02864*
Y02861*
Y02859*
Y02857*
Y02855*
Y02853*
Y02851*
X00957*
Y02848*
X00955*
Y02846*
X00957*
Y02844*
Y02842*
Y0284*
X01088*
Y02837*
Y02835*
X0109*
Y02833*
Y02831*
Y02829*
X01092*
Y02826*
Y02824*
X01095*
Y02822*
Y0282*
Y02818*
X01097*
Y02816*
Y02813*
Y02811*
X01099*
Y02809*
Y02807*
Y02805*
X01101*
Y02802*
Y028*
Y02798*
X01103*
Y02796*
Y02794*
Y02792*
X01105*
Y02789*
Y02787*
Y02785*
Y02783*
Y02781*
X01108*
Y02778*
X0111*
Y02776*
X01108*
Y02774*
X0111*
Y02772*
Y0277*
Y02767*
X01112*
Y02765*
Y02763*
Y02761*
X01114*
Y02759*
Y02757*
X01116*
Y02754*
Y02752*
Y0275*
X01119*
Y02748*
Y02746*
Y02743*
X01121*
Y02741*
Y02739*
Y02737*
X01123*
Y02735*
Y02732*
X01125*
Y0273*
Y02728*
Y02726*
Y02724*
Y02722*
Y02719*
X0113*
Y02717*
X01127*
Y02715*
Y02713*
X0113*
Y02711*
Y02708*
X00998*
Y02711*
Y02713*
Y02715*
Y02717*
X00996*
Y02719*
Y02722*
X00994*
Y02724*
Y02726*
Y02728*
X00992*
Y0273*
Y02732*
Y02735*
X0099*
Y02737*
Y02739*
Y02741*
X00987*
Y02743*
Y02746*
Y02748*
X00985*
Y0275*
Y02752*
X00983*
Y02754*
X00985*
Y02757*
Y02759*
X00981*
Y02761*
Y02763*
Y02765*
Y02767*
Y0277*
X00979*
Y02772*
Y02774*
Y02776*
X00977*
Y02778*
Y02781*
Y02783*
X00974*
Y02785*
Y02787*
Y02789*
X00972*
Y02792*
Y02794*
Y02796*
X0097*
Y02798*
Y028*
Y02802*
X00968*
Y02805*
Y02807*
Y02809*
X00966*
Y02811*
Y02813*
X00963*
Y02816*
Y02818*
Y0282*
X00961*
Y02822*
Y02824*
Y02826*
X00959*
Y02829*
Y02831*
Y02833*
Y02835*
Y02837*
X00955*
Y0284*
X00828*
Y02837*
Y02835*
Y02833*
Y02831*
Y02829*
X0083*
Y02826*
Y02824*
X00832*
Y02822*
Y0282*
Y02818*
X00834*
Y02816*
Y02813*
Y02811*
X00837*
Y02809*
Y02807*
Y02805*
X00839*
Y02802*
Y028*
Y02798*
X00841*
Y02796*
Y02794*
X00843*
Y02792*
Y02789*
Y02787*
X00845*
Y02785*
X00843*
Y02783*
X00848*
Y02781*
Y02778*
Y02776*
Y02774*
Y02772*
Y0277*
Y02767*
X0085*
Y02765*
Y02763*
Y02761*
X00852*
Y02759*
Y02757*
X00854*
Y02754*
Y02752*
Y0275*
X00856*
Y02748*
Y02746*
Y02743*
X00858*
Y02741*
Y02739*
Y02737*
X00861*
Y02735*
Y02732*
X00863*
Y0273*
Y02728*
Y02726*
X00865*
Y02724*
Y02722*
Y02719*
X00867*
Y02717*
Y02715*
X00869*
Y02713*
Y02711*
Y02708*
X00998*
Y02706*
Y02704*
Y02702*
X01001*
Y027*
Y02698*
Y02695*
X01003*
Y02693*
Y02691*
X01005*
Y02689*
Y02687*
Y02684*
X01007*
Y02682*
Y0268*
Y02678*
X01009*
Y02676*
Y02673*
X01011*
Y02671*
Y02669*
Y02667*
X01014*
Y02665*
Y02663*
Y0266*
X01016*
Y02658*
Y02656*
Y02654*
X01018*
Y02652*
X01016*
Y02649*
X01018*
Y02647*
X0102*
Y02645*
Y02643*
Y02641*
Y02638*
Y02636*
X01022*
Y02634*
Y02632*
Y0263*
Y02628*
X01025*
Y02625*
Y02623*
X01027*
Y02621*
Y02619*
Y02617*
X01029*
Y02614*
Y02612*
Y0261*
X01031*
Y02608*
Y02606*
X01033*
Y02604*
Y02601*
Y02599*
X01036*
Y02597*
Y02595*
Y02593*
X01038*
Y0259*
Y02588*
Y02586*
X0104*
Y02584*
Y02582*
X01042*
Y02579*
Y02577*
Y02575*
X00911*
Y02577*
X00909*
Y02579*
Y02582*
Y02584*
X00907*
Y02586*
Y02588*
Y0259*
X00904*
Y02593*
Y02595*
X00902*
Y02597*
Y02599*
Y02601*
X009*
Y02604*
Y02606*
Y02608*
X00898*
Y0261*
Y02612*
X00896*
Y02614*
Y02617*
Y02619*
Y02621*
Y02623*
Y02625*
X00891*
Y02628*
X00893*
Y0263*
Y02632*
X00891*
Y02634*
Y02636*
Y02638*
X00889*
Y02641*
Y02643*
Y02645*
X00887*
Y02647*
Y02649*
Y02652*
X00885*
Y02654*
Y02656*
Y02658*
X00883*
Y0266*
Y02663*
X0088*
Y02665*
Y02667*
Y02669*
X00878*
Y02671*
Y02673*
Y02676*
X00876*
Y02678*
Y0268*
Y02682*
Y02684*
Y02687*
X00872*
Y02689*
X00874*
Y02691*
Y02693*
X00872*
Y02695*
Y02698*
Y027*
X00869*
Y02702*
Y02704*
X00867*
Y02706*
Y02708*
X00738*
Y02706*
Y02704*
Y02702*
Y027*
Y02698*
X00743*
Y02695*
X0074*
Y02693*
Y02691*
X00743*
Y02689*
Y02687*
Y02684*
X00745*
Y02682*
Y0268*
Y02678*
X00747*
Y02676*
Y02673*
X00749*
Y02671*
Y02669*
Y02667*
X00751*
Y02665*
Y02663*
Y0266*
X00754*
Y02658*
Y02656*
Y02654*
X00756*
Y02652*
Y02649*
Y02647*
X00758*
Y02645*
Y02643*
X0076*
Y02641*
Y02638*
Y02636*
X00762*
Y02634*
X0076*
Y02632*
Y0263*
X00764*
Y02628*
X00762*
Y02625*
X00764*
Y02623*
Y02621*
Y02619*
X00767*
Y02617*
Y02614*
Y02612*
Y0261*
X00769*
Y02608*
Y02606*
X00771*
Y02604*
Y02601*
Y02599*
X00773*
Y02597*
Y02595*
Y02593*
X00775*
Y0259*
Y02588*
Y02586*
X00778*
Y02584*
Y02582*
X0078*
Y02579*
Y02577*
Y02575*
X00649*
Y02577*
X00646*
Y02579*
Y02582*
Y02584*
X00644*
Y02586*
Y02588*
Y0259*
X00642*
Y02593*
Y02595*
X0064*
Y02597*
Y02599*
Y02601*
X00638*
Y02604*
X0064*
Y02606*
Y02608*
X00636*
Y0261*
Y02612*
Y02614*
Y02617*
Y02619*
Y02621*
X00633*
Y02623*
Y02625*
Y02628*
X00631*
Y0263*
Y02632*
X00629*
Y02634*
Y02636*
Y02638*
X00627*
Y02641*
Y02643*
Y02645*
X00625*
Y02647*
Y02649*
Y02652*
X00622*
Y02654*
Y02656*
Y02658*
X0062*
Y0266*
Y02663*
X00618*
Y02665*
Y02667*
Y02669*
X00616*
Y02671*
X00618*
Y02673*
X00616*
Y02676*
X00614*
Y02678*
Y0268*
Y02682*
Y02684*
Y02687*
X00609*
Y02689*
X00611*
Y02691*
Y02693*
Y02695*
X00609*
Y02698*
Y027*
X00607*
Y02702*
Y02704*
Y02706*
X00605*
Y02708*
X00736*
Y02711*
Y02713*
Y02715*
Y02717*
X00734*
Y02719*
Y02722*
X00732*
Y02724*
Y02726*
Y02728*
X0073*
Y0273*
Y02732*
Y02735*
X00727*
Y02737*
Y02739*
Y02741*
X00725*
Y02743*
Y02746*
Y02748*
X00723*
Y0275*
Y02752*
Y02754*
Y02757*
Y02759*
X00719*
Y02761*
X00721*
Y02763*
X00719*
Y02765*
Y02767*
Y0277*
X00716*
Y02772*
Y02774*
Y02776*
Y02778*
X00714*
Y02781*
Y02783*
Y02785*
X00712*
Y02787*
Y02789*
X0071*
Y02792*
Y02794*
Y02796*
X00708*
Y02798*
Y028*
Y02802*
X00705*
Y02805*
Y02807*
Y02809*
X00703*
Y02811*
Y02813*
Y02816*
Y02818*
Y0282*
X00699*
Y02822*
X00701*
Y02824*
Y02826*
X00699*
Y02829*
Y02831*
X00697*
Y02833*
Y02835*
Y02837*
X00695*
Y0284*
X00561*
Y02842*
Y02844*
Y02846*
X00559*
Y02848*
Y02851*
Y02853*
X00557*
Y02855*
Y02857*
Y02859*
X00555*
Y02861*
Y02864*
Y02866*
X00552*
Y02868*
Y0287*
Y02872*
X0055*
Y02875*
Y02877*
Y02879*
Y02881*
Y02883*
X00546*
Y02886*
X00548*
Y02888*
Y0289*
X00546*
Y02892*
Y02894*
X00544*
Y02896*
Y02899*
Y02901*
X00542*
Y02903*
Y02905*
Y02907*
X00539*
Y0291*
Y02912*
Y02914*
X00537*
Y02916*
Y02918*
Y0292*
X00535*
Y02923*
Y02925*
X00533*
Y02927*
Y02929*
Y02931*
Y02934*
X00531*
Y02936*
Y02938*
Y0294*
Y02942*
Y02945*
X00526*
Y02947*
X00528*
Y02949*
Y02951*
X00526*
Y02953*
Y02955*
Y02958*
X00524*
Y0296*
Y02962*
X00522*
Y02964*
Y02966*
Y02969*
X0052*
Y02971*
Y02973*
X00653*
Y02971*
Y02969*
Y02966*
X00655*
Y02964*
Y02962*
Y0296*
Y02958*
Y02955*
X00657*
Y02953*
Y02951*
Y02949*
X0066*
Y02947*
Y02945*
Y02942*
X00662*
Y0294*
Y02938*
Y02936*
X00664*
Y02934*
Y02931*
Y02929*
X00666*
Y02927*
Y02925*
Y02923*
X00668*
Y0292*
Y02918*
Y02916*
X0067*
Y02914*
Y02912*
Y0291*
Y02907*
Y02905*
X00675*
Y02903*
Y02901*
Y02899*
Y02896*
Y02894*
Y02892*
X00677*
Y0289*
Y02888*
X00679*
Y02886*
Y02883*
Y02881*
X00681*
Y02879*
Y02877*
Y02875*
X00684*
Y02872*
Y0287*
Y02868*
X00686*
Y02866*
Y02864*
X00688*
Y02861*
Y02859*
Y02857*
X0069*
Y02855*
Y02853*
Y02851*
Y02848*
X00692*
Y02846*
Y02844*
X00695*
Y02842*
Y0284*
X00826*
Y02842*
Y02844*
Y02846*
Y02848*
X00824*
Y02851*
Y02853*
X00821*
Y02855*
Y02857*
Y02859*
Y02861*
X00819*
Y02864*
Y02866*
Y02868*
X00817*
Y0287*
Y02872*
X00815*
Y02875*
Y02877*
Y02879*
X00813*
Y02881*
Y02883*
Y02886*
X0081*
Y02888*
X00813*
Y0289*
Y02892*
X00808*
Y02894*
Y02896*
Y02899*
Y02901*
Y02903*
X00806*
Y02905*
Y02907*
Y0291*
X00804*
Y02912*
Y02914*
Y02916*
X00802*
Y02918*
Y0292*
X00799*
Y02923*
Y02925*
Y02927*
X00797*
Y02929*
Y02931*
Y02934*
X00795*
Y02936*
Y02938*
Y0294*
X00793*
Y02942*
Y02945*
Y02947*
X00791*
Y02949*
Y02951*
Y02953*
X00789*
Y02955*
Y02958*
Y0296*
X00786*
Y02962*
Y02964*
Y02966*
Y02969*
Y02971*
X00784*
Y02973*
X00915*
Y02971*
G37*
G36*
X01842D02*
Y02969D01*
Y02966*
Y02964*
Y02962*
X01844*
Y0296*
Y02958*
Y02955*
X01847*
Y02953*
Y02951*
X01849*
Y02949*
Y02947*
Y02945*
Y02942*
X01851*
Y0294*
Y02938*
Y02936*
X01853*
Y02934*
Y02931*
Y02929*
X01855*
Y02927*
Y02925*
X01857*
Y02923*
Y0292*
Y02918*
Y02916*
Y02914*
X01862*
Y02912*
X0186*
Y0291*
Y02907*
X01862*
Y02905*
Y02903*
Y02901*
X01864*
Y02899*
Y02896*
Y02894*
X01866*
Y02892*
Y0289*
Y02888*
X01868*
Y02886*
Y02883*
X01871*
Y02881*
Y02879*
Y02877*
X01873*
Y02875*
Y02872*
Y0287*
X01875*
Y02868*
Y02866*
Y02864*
X01877*
Y02861*
Y02859*
Y02857*
X01879*
Y02855*
Y02853*
Y02851*
X01881*
Y02848*
X01879*
Y02846*
X01884*
Y02844*
Y02842*
Y0284*
Y02837*
Y02835*
Y02833*
X01886*
Y02831*
Y02829*
Y02826*
X01888*
Y02824*
Y02822*
X0189*
Y0282*
Y02818*
Y02816*
X01892*
Y02813*
Y02811*
Y02809*
X01895*
Y02807*
Y02805*
Y02802*
X01897*
Y028*
Y02798*
X01899*
Y02796*
Y02794*
Y02792*
X01901*
Y02789*
Y02787*
Y02785*
Y02783*
X01903*
Y02781*
Y02778*
X01906*
Y02776*
Y02774*
Y02772*
Y0277*
Y02767*
Y02765*
X0191*
Y02763*
X01908*
Y02761*
X0191*
Y02759*
Y02757*
Y02754*
X01912*
Y02752*
Y0275*
Y02748*
X01914*
Y02746*
Y02743*
Y02741*
X01916*
Y02739*
Y02737*
X01919*
Y02735*
Y02732*
Y0273*
X01921*
Y02728*
Y02726*
Y02724*
X01923*
Y02722*
X01921*
Y02719*
X01923*
Y02717*
X01925*
Y02715*
Y02713*
Y02711*
Y02708*
Y02706*
Y02704*
X01927*
Y02702*
Y027*
Y02698*
X0193*
Y02695*
Y02693*
Y02691*
Y02689*
X01932*
Y02687*
Y02684*
Y02682*
Y0268*
Y02678*
Y02676*
X01934*
Y02673*
Y02671*
Y02669*
Y02667*
Y02665*
Y02663*
Y0266*
Y02658*
Y02656*
Y02654*
X01932*
Y02652*
Y02649*
Y02647*
Y02645*
Y02643*
X0193*
Y02641*
Y02638*
Y02636*
X01927*
Y02634*
Y02632*
X01925*
Y0263*
Y02628*
Y02625*
Y02623*
X01921*
Y02621*
X01923*
Y02619*
X01921*
Y02617*
Y02614*
X01919*
Y02612*
X01914*
Y0261*
Y02608*
X01912*
Y02606*
X0191*
Y02604*
Y02601*
X01908*
Y02599*
X01906*
Y02597*
X01901*
Y02595*
X01899*
Y02593*
X01897*
Y0259*
X0189*
Y02588*
X01888*
Y02586*
X01884*
Y02584*
X01879*
Y02582*
X01875*
Y02579*
X01868*
Y02577*
X01862*
Y02575*
X01855*
Y02573*
X01847*
Y02571*
X01781*
Y02573*
X0177*
Y02575*
X01759*
Y02577*
X01755*
Y02579*
X01748*
Y02582*
X01742*
Y02584*
X01735*
Y02586*
X01728*
Y02588*
X01726*
Y0259*
X01718*
Y02593*
X01713*
Y02595*
X01709*
Y02597*
X01707*
Y02599*
X01702*
Y02601*
X01698*
Y02604*
X01696*
Y02606*
X01691*
Y02608*
X01689*
Y0261*
X01687*
Y02612*
X0168*
Y02614*
X01678*
Y02617*
X01676*
Y02619*
X01672*
Y02621*
Y02623*
X01667*
Y02625*
Y02628*
X01663*
Y0263*
Y02632*
X01659*
Y02634*
X01656*
Y02636*
Y02638*
X01652*
Y02641*
X0165*
Y02643*
Y02645*
X01645*
Y02647*
Y02649*
X01643*
Y02652*
Y02654*
X01639*
Y02656*
Y02658*
X01637*
Y0266*
X01634*
Y02663*
X01632*
Y02665*
Y02667*
X0163*
Y02669*
Y02671*
Y02673*
X01628*
Y02676*
X01626*
Y02678*
Y0268*
X01624*
Y02682*
Y02684*
X01621*
Y02687*
Y02689*
X01619*
Y02691*
Y02693*
X01617*
Y02695*
X01615*
Y02698*
Y027*
Y02702*
X01613*
Y02704*
Y02706*
Y02708*
X0161*
Y02711*
Y02713*
Y02715*
X01608*
Y02717*
Y02719*
Y02722*
Y02724*
Y02726*
X01604*
Y02728*
X01606*
Y0273*
Y02732*
X01604*
Y02735*
Y02737*
Y02739*
Y02741*
X01602*
Y02743*
Y02746*
X016*
Y02748*
Y0275*
Y02752*
X01597*
Y02754*
Y02757*
Y02759*
X01595*
Y02761*
Y02763*
X01593*
Y02765*
Y02767*
Y0277*
X01591*
Y02772*
Y02774*
Y02776*
X01589*
Y02778*
Y02781*
Y02783*
X01586*
Y02785*
Y02787*
Y02789*
Y02792*
Y02794*
X01582*
Y02796*
X01584*
Y02798*
Y028*
X01582*
Y02802*
Y02805*
X0158*
Y02807*
Y02809*
Y02811*
X01578*
Y02813*
Y02816*
Y02818*
Y0282*
X01575*
Y02822*
Y02824*
Y02826*
X01573*
Y02829*
Y02831*
X01571*
Y02833*
Y02835*
Y02837*
X01569*
Y0284*
Y02842*
Y02844*
X01567*
Y02846*
Y02848*
Y02851*
Y02853*
Y02855*
X01565*
Y02857*
Y02859*
Y02861*
X01562*
Y02864*
Y02866*
Y02868*
X0156*
Y0287*
Y02872*
X01558*
Y02875*
Y02877*
Y02879*
X01556*
Y02881*
Y02883*
Y02886*
X01554*
Y02888*
Y0289*
Y02892*
X01551*
Y02894*
Y02896*
Y02899*
X01549*
Y02901*
Y02903*
Y02905*
X01547*
Y02907*
Y0291*
Y02912*
X01545*
Y02914*
Y02916*
Y02918*
Y0292*
Y02923*
X0154*
Y02925*
Y02927*
Y02929*
Y02931*
Y02934*
Y02936*
X01538*
Y02938*
Y0294*
X01536*
Y02942*
Y02945*
Y02947*
X01534*
Y02949*
Y02951*
Y02953*
X01532*
Y02955*
Y02958*
Y0296*
X0153*
Y02962*
Y02964*
X01527*
Y02966*
Y02969*
Y02971*
X01525*
Y02973*
X01621*
Y02971*
X01626*
Y02969*
X01624*
Y02966*
Y02964*
X01628*
Y02962*
X01626*
Y0296*
X01628*
Y02958*
Y02955*
Y02953*
X0163*
Y02951*
Y02949*
Y02947*
X01632*
Y02945*
Y02942*
Y0294*
X01634*
Y02938*
Y02936*
Y02934*
X01637*
Y02931*
Y02929*
Y02927*
X01639*
Y02925*
Y02923*
Y0292*
X01641*
Y02918*
Y02916*
Y02914*
X01643*
Y02912*
Y0291*
Y02907*
Y02905*
Y02903*
X01648*
Y02901*
X01645*
Y02899*
Y02896*
X01648*
Y02894*
Y02892*
Y0289*
X0165*
Y02888*
Y02886*
X01652*
Y02883*
Y02881*
Y02879*
X01654*
Y02877*
Y02875*
Y02872*
X01656*
Y0287*
Y02868*
Y02866*
X01659*
Y02864*
Y02861*
X01661*
Y02859*
Y02857*
Y02855*
Y02853*
X01663*
Y02851*
Y02848*
Y02846*
X01665*
Y02844*
Y02842*
X01667*
Y0284*
X01665*
Y02837*
Y02835*
X01669*
Y02833*
Y02831*
Y02829*
Y02826*
Y02824*
X01672*
Y02822*
Y0282*
Y02818*
X01674*
Y02816*
Y02813*
Y02811*
X01676*
Y02809*
Y02807*
Y02805*
X01678*
Y02802*
Y028*
Y02798*
X0168*
Y02796*
Y02794*
X01683*
Y02792*
Y02789*
Y02787*
X01685*
Y02785*
Y02783*
Y02781*
Y02778*
Y02776*
Y02774*
X01689*
Y02772*
X01687*
Y0277*
Y02767*
X01689*
Y02765*
Y02763*
Y02761*
X01691*
Y02759*
Y02757*
X01694*
Y02754*
Y02752*
Y0275*
X01696*
Y02748*
Y02746*
Y02743*
X01698*
Y02741*
Y02739*
Y02737*
X017*
Y02735*
Y02732*
X01702*
Y0273*
Y02728*
Y02726*
X01704*
Y02724*
Y02722*
Y02719*
X01707*
Y02717*
Y02715*
X01709*
Y02713*
X01707*
Y02711*
Y02708*
X01711*
Y02706*
Y02704*
Y02702*
Y027*
Y02698*
X01713*
Y02695*
Y02693*
X01718*
Y02691*
X0172*
Y02689*
Y02687*
X01722*
Y02684*
X01724*
Y02682*
X01726*
Y0268*
X01731*
Y02678*
X01733*
Y02676*
X01735*
Y02673*
X01742*
Y02671*
X01744*
Y02669*
X0175*
Y02667*
X01757*
Y02665*
X01761*
Y02663*
X01772*
Y0266*
X01796*
Y02663*
X01805*
Y02665*
X01812*
Y02667*
X01816*
Y02669*
X0182*
Y02671*
X01822*
Y02673*
X01825*
Y02676*
X01827*
Y02678*
Y0268*
X01829*
Y02682*
Y02684*
X01831*
Y02687*
Y02689*
Y02691*
Y02693*
Y02695*
Y02698*
Y027*
Y02702*
Y02704*
Y02706*
X01829*
Y02708*
Y02711*
Y02713*
X01827*
Y02715*
Y02717*
Y02719*
X01825*
Y02722*
Y02724*
X01822*
Y02726*
Y02728*
Y0273*
Y02732*
Y02735*
Y02737*
X0182*
Y02739*
Y02741*
Y02743*
X01818*
Y02746*
Y02748*
Y0275*
X01816*
Y02752*
Y02754*
Y02757*
X01814*
Y02759*
Y02761*
Y02763*
X01812*
Y02765*
Y02767*
X01809*
Y0277*
Y02772*
Y02774*
X01807*
Y02776*
Y02778*
Y02781*
X01805*
Y02783*
X01807*
Y02785*
X01803*
Y02787*
Y02789*
Y02792*
Y02794*
Y02796*
Y02798*
X01801*
Y028*
Y02802*
Y02805*
X01796*
Y02807*
X01798*
Y02809*
X01796*
Y02811*
Y02813*
Y02816*
X01794*
Y02818*
Y0282*
Y02822*
X01792*
Y02824*
Y02826*
Y02829*
Y02831*
X0179*
Y02833*
Y02835*
X01788*
Y02837*
Y0284*
Y02842*
X01785*
Y02844*
Y02846*
Y02848*
X01783*
Y02851*
Y02853*
X01781*
Y02855*
Y02857*
Y02859*
Y02861*
Y02864*
Y02866*
X01777*
Y02868*
X01779*
Y0287*
Y02872*
X01777*
Y02875*
Y02877*
Y02879*
X01774*
Y02881*
Y02883*
X01772*
Y02886*
Y02888*
Y0289*
X0177*
Y02892*
Y02894*
X01768*
Y02896*
Y02899*
Y02901*
X01766*
Y02903*
Y02905*
Y02907*
Y0291*
X01763*
Y02912*
Y02914*
Y02916*
X01761*
Y02918*
Y0292*
X01759*
Y02923*
Y02925*
Y02927*
Y02929*
Y02931*
Y02934*
X01755*
Y02936*
X01757*
Y02938*
X01755*
Y0294*
Y02942*
Y02945*
X01753*
Y02947*
Y02949*
Y02951*
X0175*
Y02953*
Y02955*
Y02958*
X01748*
Y0296*
Y02962*
X01746*
Y02964*
Y02966*
Y02969*
X01744*
Y02971*
Y02973*
X01842*
Y02971*
G37*
G36*
X0151D02*
Y02969D01*
X01512*
Y02966*
Y02964*
Y02962*
Y0296*
Y02958*
Y02955*
X01516*
Y02953*
X01514*
Y02951*
Y02949*
X01516*
Y02947*
Y02945*
Y02942*
X01519*
Y0294*
Y02938*
Y02936*
X01521*
Y02934*
Y02931*
X01523*
Y02929*
Y02927*
Y02925*
X01525*
Y02923*
Y0292*
Y02918*
X01527*
Y02916*
Y02914*
X0153*
Y02912*
Y0291*
Y02907*
X01532*
Y02905*
Y02903*
Y02901*
X01534*
Y02899*
Y02896*
Y02894*
X01536*
Y02892*
X01534*
Y0289*
Y02888*
X01538*
Y02886*
Y02883*
Y02881*
X01442*
Y02879*
Y02877*
Y02875*
X01444*
Y02872*
Y0287*
Y02868*
X01446*
Y02866*
Y02864*
X01449*
Y02861*
Y02859*
Y02857*
X01451*
Y02855*
Y02853*
Y02851*
Y02848*
Y02846*
X01455*
Y02844*
X01453*
Y02842*
Y0284*
X01455*
Y02837*
Y02835*
Y02833*
X01457*
Y02831*
Y02829*
Y02826*
Y02824*
X0146*
Y02822*
Y0282*
X01462*
Y02818*
Y02816*
Y02813*
X01464*
Y02811*
Y02809*
Y02807*
X01466*
Y02805*
Y02802*
X01468*
Y028*
Y02798*
Y02796*
X01471*
Y02794*
Y02792*
Y02789*
Y02787*
Y02785*
Y02783*
X01475*
Y02781*
X01473*
Y02778*
X01475*
Y02776*
Y02774*
Y02772*
X01477*
Y0277*
Y02767*
Y02765*
X01479*
Y02763*
Y02761*
Y02759*
X01481*
Y02757*
Y02754*
X01484*
Y02752*
Y0275*
Y02748*
X01486*
Y02746*
Y02743*
Y02741*
Y02739*
X01488*
Y02737*
Y02735*
X0149*
Y02732*
Y0273*
Y02728*
X01492*
Y02726*
Y02724*
Y02722*
Y02719*
Y02717*
Y02715*
X01497*
Y02713*
Y02711*
Y02708*
Y02706*
Y02704*
X01499*
Y02702*
Y027*
Y02698*
X01501*
Y02695*
Y02693*
X01503*
Y02691*
Y02689*
Y02687*
X01506*
Y02684*
Y02682*
Y0268*
X01508*
Y02678*
Y02676*
Y02673*
X0151*
Y02671*
Y02669*
X01512*
Y02667*
Y02665*
Y02663*
Y0266*
X01514*
Y02658*
X01512*
Y02656*
Y02654*
X01516*
Y02652*
X01514*
Y02649*
X01516*
Y02647*
Y02645*
Y02643*
X01519*
Y02641*
Y02638*
Y02636*
X01521*
Y02634*
Y02632*
Y0263*
X01523*
Y02628*
Y02625*
X01525*
Y02623*
Y02621*
Y02619*
X01527*
Y02617*
Y02614*
Y02612*
X0153*
Y0261*
Y02608*
Y02606*
X01532*
Y02604*
Y02601*
X01534*
Y02599*
Y02597*
Y02595*
X01536*
Y02593*
X01534*
Y0259*
Y02588*
X01538*
Y02586*
Y02584*
Y02582*
Y02579*
Y02577*
X0154*
Y02575*
X0144*
Y02577*
Y02579*
X01438*
Y02582*
Y02584*
Y02586*
X01436*
Y02588*
Y0259*
Y02593*
Y02595*
Y02597*
X01431*
Y02599*
X01433*
Y02601*
Y02604*
X01431*
Y02606*
Y02608*
Y0261*
X01429*
Y02612*
Y02614*
X01427*
Y02617*
Y02619*
Y02621*
X01425*
Y02623*
Y02625*
Y02628*
X01422*
Y0263*
Y02632*
Y02634*
X0142*
Y02636*
Y02638*
Y02641*
X01418*
Y02643*
Y02645*
Y02647*
X01416*
Y02649*
Y02652*
Y02654*
X01414*
Y02656*
Y02658*
Y0266*
Y02663*
Y02665*
X01409*
Y02667*
X01412*
Y02669*
Y02671*
X01409*
Y02673*
Y02676*
Y02678*
X01407*
Y0268*
Y02682*
X01405*
Y02684*
Y02687*
Y02689*
X01403*
Y02691*
Y02693*
Y02695*
X01401*
Y02698*
Y027*
X01398*
Y02702*
Y02704*
Y02706*
Y02708*
X01396*
Y02711*
Y02713*
Y02715*
X01394*
Y02717*
Y02719*
Y02722*
Y02724*
Y02726*
X0139*
Y02728*
X01392*
Y0273*
Y02732*
X0139*
Y02735*
Y02737*
Y02739*
X01387*
Y02741*
Y02743*
X01385*
Y02746*
Y02748*
Y0275*
X01383*
Y02752*
Y02754*
Y02757*
X01381*
Y02759*
Y02761*
Y02763*
X01379*
Y02765*
Y02767*
X01377*
Y0277*
Y02772*
Y02774*
X01374*
Y02776*
Y02778*
Y02781*
X01372*
Y02783*
Y02785*
Y02787*
Y02789*
Y02792*
Y02794*
X01368*
Y02796*
Y02798*
Y028*
Y02802*
Y02805*
X01366*
Y02807*
Y02809*
Y02811*
X01363*
Y02813*
Y02816*
Y02818*
X01361*
Y0282*
Y02822*
Y02824*
X01359*
Y02826*
Y02829*
Y02831*
X01357*
Y02833*
Y02835*
X01355*
Y02837*
Y0284*
Y02842*
X01353*
Y02844*
Y02846*
Y02848*
Y02851*
Y02853*
X01348*
Y02855*
X0135*
Y02857*
Y02859*
X01346*
Y02861*
Y02864*
Y02866*
Y02868*
Y0287*
Y02872*
X01344*
Y02875*
Y02877*
Y02879*
X01342*
Y02881*
X01243*
Y02883*
Y02886*
X01241*
Y02888*
Y0289*
Y02892*
Y02894*
Y02896*
X01239*
Y02899*
Y02901*
Y02903*
Y02905*
X01237*
Y02907*
Y0291*
Y02912*
X01234*
Y02914*
Y02916*
X01232*
Y02918*
Y0292*
Y02923*
X0123*
Y02925*
Y02927*
Y02929*
X01228*
Y02931*
Y02934*
Y02936*
X01226*
Y02938*
Y0294*
X01224*
Y02942*
Y02945*
Y02947*
X01221*
Y02949*
Y02951*
Y02953*
Y02955*
Y02958*
Y0296*
X01219*
Y02962*
Y02964*
X01217*
Y02966*
Y02969*
Y02971*
X01215*
Y02973*
X0151*
Y02971*
G37*
G36*
X01263Y02706D02*
Y02704D01*
X01265*
Y02702*
Y027*
Y02698*
X01267*
Y02695*
Y02693*
X01269*
Y02691*
Y02689*
Y02687*
X01272*
Y02684*
Y02682*
Y0268*
X01274*
Y02678*
Y02676*
Y02673*
X01276*
Y02671*
Y02669*
X01278*
Y02667*
Y02665*
Y02663*
Y0266*
Y02658*
Y02656*
X01283*
Y02654*
X0128*
Y02652*
X01283*
Y02649*
Y02647*
Y02645*
X01285*
Y02643*
Y02641*
Y02638*
Y02636*
X01287*
Y02634*
Y02632*
Y0263*
X01289*
Y02628*
Y02625*
X01291*
Y02623*
Y02621*
Y02619*
X01293*
Y02617*
Y02614*
Y02612*
X01296*
Y0261*
Y02608*
Y02606*
X01298*
Y02604*
Y02601*
Y02599*
Y02597*
Y02595*
X01302*
Y02593*
X013*
Y0259*
Y02588*
X01302*
Y02586*
Y02584*
X01304*
Y02582*
Y02579*
Y02577*
X01307*
Y02575*
X01173*
Y02577*
Y02579*
Y02582*
Y02584*
Y02586*
X01171*
Y02588*
Y0259*
X01169*
Y02593*
Y02595*
Y02597*
X01167*
Y02599*
Y02601*
Y02604*
X01165*
Y02606*
Y02608*
Y0261*
X01162*
Y02612*
Y02614*
X0116*
Y02617*
Y02619*
Y02621*
X01158*
Y02623*
Y02625*
Y02628*
X01156*
Y0263*
X01158*
Y02632*
X01154*
Y02634*
Y02636*
Y02638*
Y02641*
Y02643*
Y02645*
Y02647*
X01151*
Y02649*
Y02652*
Y02654*
X01149*
Y02656*
Y02658*
X01147*
Y0266*
Y02663*
Y02665*
X01145*
Y02667*
Y02669*
Y02671*
X01143*
Y02673*
Y02676*
Y02678*
X0114*
Y0268*
Y02682*
X01138*
Y02684*
Y02687*
Y02689*
X01136*
Y02691*
Y02693*
Y02695*
X01134*
Y02698*
Y027*
X01132*
Y02702*
Y02704*
Y02706*
Y02708*
X01263*
Y02706*
G37*
G36*
X02098Y02977D02*
Y02975D01*
X02124*
Y02973*
X02133*
Y02971*
X02139*
Y02969*
X02146*
Y02966*
X02155*
Y02964*
X02159*
Y02962*
X02166*
Y0296*
X02172*
Y02958*
X02174*
Y02955*
X02183*
Y02953*
X02188*
Y02951*
X02192*
Y02949*
X02196*
Y02947*
X02201*
Y02945*
X02205*
Y02942*
X02209*
Y0294*
X02212*
Y02938*
X02216*
Y02936*
X02218*
Y02934*
X02225*
Y02931*
Y02929*
X02229*
Y02927*
X02233*
Y02925*
X02236*
Y02923*
X02238*
Y0292*
X0224*
Y02918*
X02244*
Y02916*
X02247*
Y02914*
X02251*
Y02912*
Y0291*
X02255*
Y02907*
X02257*
Y02905*
X0226*
Y02903*
X02262*
Y02901*
X02264*
Y02899*
X02266*
Y02896*
X02268*
Y02894*
X02271*
Y02892*
X02273*
Y0289*
X02275*
Y02888*
X02277*
Y02886*
X02279*
Y02883*
X02282*
Y02881*
X02284*
Y02879*
X02286*
Y02877*
X02288*
Y02875*
Y02872*
X0229*
Y0287*
X02292*
Y02868*
X02295*
Y02866*
Y02864*
X02297*
Y02861*
X02299*
Y02859*
X02301*
Y02857*
Y02855*
X02303*
Y02853*
X02306*
Y02851*
Y02848*
X02308*
Y02846*
X0231*
Y02844*
X02312*
Y02842*
Y0284*
Y02837*
X02317*
Y02835*
X02319*
Y02833*
X02317*
Y02831*
X02319*
Y02829*
Y02826*
X02321*
Y02824*
X02323*
Y02822*
Y0282*
X02325*
Y02818*
Y02816*
X02327*
Y02813*
Y02811*
X0233*
Y02809*
Y02807*
X02332*
Y02805*
Y02802*
X02334*
Y028*
Y02798*
Y02796*
Y02794*
X02338*
Y02792*
X02336*
Y02789*
X02338*
Y02787*
Y02785*
Y02783*
X02341*
Y02781*
Y02778*
X02343*
Y02776*
Y02774*
Y02772*
X02345*
Y0277*
Y02767*
Y02765*
X02347*
Y02763*
Y02761*
Y02759*
X02349*
Y02757*
Y02754*
Y02752*
X02351*
Y0275*
Y02748*
Y02746*
Y02743*
Y02741*
X02354*
Y02739*
Y02737*
Y02735*
Y02732*
X02356*
Y0273*
Y02728*
Y02726*
Y02724*
Y02722*
Y02719*
Y02717*
Y02715*
Y02713*
Y02711*
Y02708*
Y02706*
Y02704*
Y02702*
Y027*
Y02698*
Y02695*
Y02693*
Y02691*
Y02689*
Y02687*
Y02684*
Y02682*
Y0268*
Y02678*
Y02676*
Y02673*
X02354*
Y02671*
Y02669*
Y02667*
Y02665*
X02351*
Y02663*
Y0266*
Y02658*
X02349*
Y02656*
Y02654*
Y02652*
X02347*
Y02649*
Y02647*
X02345*
Y02645*
Y02643*
Y02641*
X02343*
Y02638*
Y02636*
X02341*
Y02634*
X02338*
Y02632*
X02336*
Y0263*
X02338*
Y02628*
X02336*
Y02625*
X02334*
Y02623*
Y02621*
X02332*
Y02619*
X0233*
Y02617*
X02327*
Y02614*
X02325*
Y02612*
X02323*
Y0261*
X02321*
Y02608*
X02319*
Y02606*
X02317*
Y02604*
X02312*
Y02601*
Y02599*
X02308*
Y02597*
X02306*
Y02595*
X02303*
Y02593*
X02299*
Y0259*
X02295*
Y02588*
X0229*
Y02586*
X02286*
Y02584*
X02279*
Y02582*
X02275*
Y02579*
X02271*
Y02577*
X02264*
Y02575*
X02257*
Y02573*
X02249*
Y02571*
X02168*
Y02573*
X02157*
Y02575*
X02146*
Y02577*
X02142*
Y02579*
X02133*
Y02582*
X02126*
Y02584*
X02122*
Y02586*
X02115*
Y02588*
X02111*
Y0259*
X02098*
Y02588*
Y02586*
Y02584*
Y02582*
Y02579*
Y02577*
X02096*
Y02575*
X01991*
Y02577*
X01993*
Y02579*
X01991*
Y02582*
Y02584*
Y02586*
X01989*
Y02588*
Y0259*
X01991*
Y02593*
Y02595*
Y02597*
Y02599*
X01993*
Y02601*
Y02604*
Y02606*
X01995*
Y02608*
Y0261*
Y02612*
Y02614*
Y02617*
Y02619*
X01997*
Y02621*
Y02623*
Y02625*
X02*
Y02628*
Y0263*
Y02632*
X02002*
Y02634*
Y02636*
Y02638*
Y02641*
X02004*
Y02643*
Y02645*
Y02647*
X02006*
Y02649*
Y02652*
Y02654*
Y02656*
Y02658*
X02004*
Y0266*
X02002*
Y02663*
X02*
Y02665*
X01997*
Y02667*
X01995*
Y02669*
X01993*
Y02671*
X01991*
Y02673*
X01993*
Y02676*
X01989*
Y02678*
X01986*
Y0268*
X01984*
Y02682*
Y02684*
X01982*
Y02687*
X0198*
Y02689*
X01978*
Y02691*
Y02693*
X01975*
Y02695*
Y02698*
Y027*
X01969*
Y02702*
X01971*
Y02704*
X01969*
Y02706*
Y02708*
X01965*
Y02711*
Y02713*
Y02715*
X01962*
Y02717*
Y02719*
X0196*
Y02722*
X01958*
Y02724*
X01956*
Y02726*
Y02728*
X01954*
Y0273*
Y02732*
Y02735*
Y02737*
X01949*
Y02739*
X01951*
Y02741*
Y02743*
X01949*
Y02746*
X01947*
Y02748*
Y0275*
X01945*
Y02752*
Y02754*
Y02757*
X01943*
Y02759*
Y02761*
X01941*
Y02763*
Y02765*
X01938*
Y02767*
Y0277*
Y02772*
X01936*
Y02774*
Y02776*
Y02778*
X01934*
Y02781*
Y02783*
Y02785*
X01932*
Y02787*
Y02789*
Y02792*
Y02794*
Y02796*
Y02798*
Y028*
Y02802*
X01927*
Y02805*
X0193*
Y02807*
Y02809*
Y02811*
X01927*
Y02813*
Y02816*
Y02818*
Y0282*
Y02822*
Y02824*
Y02826*
Y02829*
X01925*
Y02831*
Y02833*
Y02835*
Y02837*
Y0284*
Y02842*
Y02844*
Y02846*
Y02848*
Y02851*
Y02853*
Y02855*
Y02857*
Y02859*
Y02861*
Y02864*
X01927*
Y02866*
Y02868*
Y0287*
Y02872*
Y02875*
Y02877*
X0193*
Y02879*
Y02881*
Y02883*
X01927*
Y02886*
X01932*
Y02888*
Y0289*
Y02892*
Y02894*
Y02896*
X01934*
Y02899*
Y02901*
X01936*
Y02903*
Y02905*
Y02907*
X01938*
Y0291*
X01941*
Y02912*
Y02914*
X01943*
Y02916*
X01945*
Y02918*
Y0292*
Y02923*
X01949*
Y02925*
X01951*
Y02927*
X01949*
Y02929*
X01954*
Y02931*
Y02934*
X01958*
Y02936*
X0196*
Y02938*
X01962*
Y0294*
X01965*
Y02942*
X01967*
Y02945*
X01969*
Y02947*
X01971*
Y02949*
X01975*
Y02951*
Y02953*
X0198*
Y02955*
X01986*
Y02958*
X01989*
Y0296*
X01993*
Y02962*
X01997*
Y02964*
X02002*
Y02966*
X02008*
Y02969*
X02013*
Y02971*
X02021*
Y02973*
X02028*
Y02975*
X0205*
Y02977*
Y02979*
X02098*
Y02977*
G37*
G36*
X02419Y02536D02*
X02417D01*
Y02534*
Y02531*
X02421*
Y02529*
Y02527*
Y02525*
X02424*
Y02523*
Y0252*
Y02518*
Y02516*
Y02514*
X02426*
Y02512*
Y0251*
Y02507*
X02428*
Y02505*
Y02503*
Y02501*
X0243*
Y02499*
Y02496*
X02432*
Y02494*
Y02492*
Y0249*
X02435*
Y02488*
Y02485*
Y02483*
X02437*
Y02481*
Y02479*
Y02477*
X02439*
Y02475*
Y02472*
Y0247*
X02441*
Y02468*
X02439*
Y02466*
Y02464*
X02443*
Y02461*
Y02459*
Y02457*
Y02455*
Y02453*
X02445*
Y0245*
Y02448*
Y02446*
X02448*
Y02444*
Y02442*
Y0244*
X0245*
Y02437*
Y02435*
Y02433*
X02452*
Y02431*
Y02429*
X02454*
Y02426*
Y02424*
Y02422*
X02456*
Y0242*
Y02418*
Y02416*
X02459*
Y02413*
Y02411*
X02461*
Y02409*
Y02407*
Y02405*
X02463*
Y02402*
Y024*
Y02398*
X02465*
Y02396*
Y02394*
Y02391*
Y02389*
Y02387*
Y02385*
X02467*
Y02383*
Y02381*
Y02378*
X0247*
Y02376*
Y02374*
Y02372*
X02472*
Y0237*
Y02367*
Y02365*
X02474*
Y02363*
Y02361*
X02476*
Y02359*
Y02357*
Y02354*
X02478*
Y02352*
Y0235*
Y02348*
X0248*
Y02346*
Y02343*
X02483*
Y02341*
Y02339*
Y02337*
X02485*
Y02335*
Y02332*
Y0233*
Y02328*
Y02326*
Y02324*
X02489*
Y02322*
Y02319*
X00727*
Y02322*
Y02324*
Y02326*
X00725*
Y02328*
Y0233*
X00723*
Y02332*
Y02335*
Y02337*
Y02339*
Y02341*
Y02343*
X00719*
Y02346*
X00721*
Y02348*
X00719*
Y0235*
Y02352*
Y02354*
X00716*
Y02357*
Y02359*
Y02361*
X00714*
Y02363*
Y02365*
Y02367*
X00712*
Y0237*
Y02372*
X0071*
Y02374*
Y02376*
Y02378*
X00708*
Y02381*
Y02383*
Y02385*
Y02387*
X00705*
Y02389*
Y02391*
Y02394*
X00703*
Y02396*
Y02398*
Y024*
Y02402*
Y02405*
X00699*
Y02407*
X00701*
Y02409*
Y02411*
X00699*
Y02413*
Y02416*
Y02418*
X00697*
Y0242*
Y02422*
X00695*
Y02424*
Y02426*
Y02429*
X00692*
Y02431*
Y02433*
Y02435*
X0069*
Y02437*
Y0244*
X00688*
Y02442*
Y02444*
Y02446*
X00686*
Y02448*
Y0245*
Y02453*
X00684*
Y02455*
Y02457*
Y02459*
X00681*
Y02461*
Y02464*
Y02466*
X00679*
Y02468*
X00681*
Y0247*
Y02472*
X00677*
Y02475*
X00679*
Y02477*
X00677*
Y02479*
Y02481*
Y02483*
X00675*
Y02485*
Y02488*
Y0249*
X00673*
Y02492*
Y02494*
Y02496*
X0067*
Y02499*
Y02501*
Y02503*
X00668*
Y02505*
Y02507*
X00666*
Y0251*
Y02512*
Y02514*
X00664*
Y02516*
Y02518*
Y0252*
X00662*
Y02523*
Y02525*
Y02527*
Y02529*
Y02531*
X00657*
Y02534*
X0066*
Y02536*
X00657*
Y02538*
X02419*
Y02536*
G37*
%LNstrwl-p01-v01-2*%
%LPC*%
G36*
X02133Y02879D02*
X0208D01*
Y02877*
X02078*
Y02875*
X02074*
Y02872*
X02065*
Y0287*
X02063*
Y02868*
X02061*
Y02866*
X02059*
Y02864*
X02054*
Y02861*
X02052*
Y02859*
X0205*
Y02857*
Y02855*
X02048*
Y02853*
X02043*
Y02851*
Y02848*
X02041*
Y02846*
Y02844*
X02039*
Y02842*
Y0284*
Y02837*
X02037*
Y02835*
Y02833*
Y02831*
X02035*
Y02829*
Y02826*
Y02824*
Y02822*
Y0282*
Y02818*
X02032*
Y02816*
Y02813*
Y02811*
Y02809*
X02035*
Y02807*
Y02805*
Y02802*
Y028*
Y02798*
Y02796*
Y02794*
Y02792*
X02037*
Y02789*
Y02787*
Y02785*
Y02783*
X02039*
Y02781*
Y02778*
Y02776*
X02041*
Y02774*
Y02772*
Y0277*
X02043*
Y02767*
Y02765*
Y02763*
X02045*
Y02761*
Y02759*
X02048*
Y02757*
X02124*
Y02754*
X02126*
Y02752*
Y0275*
Y02748*
X02129*
Y02746*
Y02743*
Y02741*
Y02739*
Y02737*
Y02735*
Y02732*
X02126*
Y0273*
Y02728*
Y02726*
Y02724*
Y02722*
X02124*
Y02719*
Y02717*
Y02715*
Y02713*
X02122*
Y02711*
Y02708*
Y02706*
Y02704*
Y02702*
X0212*
Y027*
Y02698*
Y02695*
Y02693*
Y02691*
Y02689*
Y02687*
Y02684*
X02118*
Y02682*
Y0268*
X0212*
Y02678*
X02124*
Y02676*
X02126*
Y02673*
X02137*
Y02671*
Y02669*
X0215*
Y02667*
X02163*
Y02665*
X0219*
Y02667*
X02198*
Y02669*
X02209*
Y02671*
Y02673*
X02218*
Y02676*
X0222*
Y02678*
X02223*
Y0268*
X02227*
Y02682*
Y02684*
X02231*
Y02687*
Y02689*
X02236*
Y02691*
Y02693*
X02238*
Y02695*
Y02698*
X0224*
Y027*
Y02702*
X02242*
Y02704*
Y02706*
Y02708*
X02244*
Y02711*
Y02713*
Y02715*
X02247*
Y02717*
Y02719*
Y02722*
Y02724*
Y02726*
Y02728*
Y0273*
Y02732*
Y02735*
Y02737*
Y02739*
Y02741*
Y02743*
Y02746*
Y02748*
Y0275*
Y02752*
X02244*
Y02754*
Y02757*
Y02759*
Y02761*
Y02763*
X02242*
Y02765*
Y02767*
Y0277*
X0224*
Y02772*
Y02774*
Y02776*
X02238*
Y02778*
Y02781*
X02236*
Y02783*
Y02785*
Y02787*
Y02789*
X02231*
Y02792*
Y02794*
Y02796*
Y02798*
X02229*
Y028*
Y02802*
X02227*
Y02805*
X02225*
Y02807*
Y02809*
Y02811*
X0222*
Y02813*
Y02816*
X02218*
Y02818*
X02216*
Y0282*
Y02822*
X02214*
Y02824*
X02212*
Y02826*
X02209*
Y02829*
Y02831*
X02207*
Y02833*
X02205*
Y02835*
X02203*
Y02837*
X02201*
Y0284*
X02198*
Y02842*
X02196*
Y02844*
X02194*
Y02846*
X02192*
Y02848*
X02188*
Y02851*
X02185*
Y02853*
X02181*
Y02855*
X02179*
Y02857*
X02174*
Y02859*
X02172*
Y02861*
X02168*
Y02864*
X02163*
Y02866*
X02161*
Y02868*
X02155*
Y0287*
X02153*
Y02872*
X02142*
Y02875*
X02135*
Y02877*
X02133*
Y02879*
G37*
G36*
X02382Y02503D02*
X02365D01*
Y02501*
Y02499*
X02362*
Y02496*
Y02494*
Y02492*
X0236*
Y0249*
Y02488*
X02356*
Y02485*
Y02483*
Y02481*
X02354*
Y02479*
X02351*
Y02477*
Y02475*
X02349*
Y02472*
Y0247*
X02347*
Y02468*
X02345*
Y02466*
Y02464*
X02343*
Y02461*
Y02459*
X02341*
Y02457*
Y02455*
X02336*
Y02453*
X02338*
Y0245*
X02334*
Y02448*
Y02446*
Y02444*
Y02442*
X02332*
Y0244*
X02327*
Y02442*
X02323*
Y02444*
X02321*
Y02446*
X02319*
Y02448*
X02317*
Y0245*
X02312*
Y02453*
X0231*
Y02455*
X02308*
Y02457*
Y02459*
X02301*
Y02461*
X02299*
Y02464*
Y02466*
X02295*
Y02468*
X02292*
Y0247*
X0229*
Y02472*
X02288*
Y02475*
X02284*
Y02477*
X02279*
Y02479*
Y02481*
X02277*
Y02483*
X02273*
Y02485*
X02271*
Y02488*
X02268*
Y0249*
X02266*
Y02492*
X02262*
Y02494*
X0226*
Y02496*
X02257*
Y02499*
X02255*
Y02501*
X02253*
Y02503*
X02238*
Y02501*
Y02499*
Y02496*
X0224*
Y02494*
Y02492*
Y0249*
X02242*
Y02488*
Y02485*
Y02483*
X02244*
Y02481*
Y02479*
Y02477*
X02247*
Y02475*
Y02472*
X02249*
Y0247*
Y02468*
Y02466*
X02251*
Y02464*
Y02461*
Y02459*
Y02457*
Y02455*
Y02453*
X02253*
Y0245*
Y02448*
X02255*
Y02446*
Y02444*
Y02442*
X02257*
Y0244*
Y02437*
Y02435*
X0226*
Y02433*
Y02431*
X02262*
Y02429*
Y02426*
Y02424*
Y02422*
X02264*
Y0242*
Y02418*
Y02416*
X02266*
Y02413*
Y02411*
Y02409*
Y02407*
Y02405*
X02271*
Y02402*
Y024*
Y02398*
Y02396*
Y02394*
Y02391*
X02273*
Y02389*
Y02387*
Y02385*
X02275*
Y02383*
Y02381*
X02277*
Y02378*
Y02376*
Y02374*
X02279*
Y02372*
Y0237*
Y02367*
X02282*
Y02365*
Y02363*
X02284*
Y02361*
Y02359*
Y02357*
X02286*
Y02354*
X02323*
Y02357*
Y02359*
X02321*
Y02361*
Y02363*
Y02365*
Y02367*
Y0237*
Y02372*
X02319*
Y02374*
Y02376*
X02314*
Y02378*
X02317*
Y02381*
Y02383*
X02314*
Y02385*
Y02387*
Y02389*
X02312*
Y02391*
Y02394*
X0231*
Y02396*
Y02398*
Y024*
X02308*
Y02402*
Y02405*
Y02407*
X02306*
Y02409*
Y02411*
Y02413*
X02303*
Y02416*
Y02418*
X02306*
Y02416*
X0231*
Y02413*
X02312*
Y02411*
X02317*
Y02409*
X02319*
Y02407*
X02321*
Y02405*
X02323*
Y02402*
X02327*
Y024*
X0233*
Y02398*
X02332*
Y02396*
X02334*
Y02394*
X02338*
Y02391*
X02341*
Y02389*
X02343*
Y02387*
X02349*
Y02389*
Y02391*
X02351*
Y02394*
X02354*
Y02396*
Y02398*
X02356*
Y024*
X02358*
Y02402*
Y02405*
X0236*
Y02407*
X02362*
Y02409*
Y02411*
Y02413*
X02365*
Y02416*
X02367*
Y02418*
Y0242*
X02369*
Y02418*
Y02416*
X02371*
Y02413*
Y02411*
X02373*
Y02409*
Y02407*
Y02405*
X02376*
Y02402*
Y024*
Y02398*
Y02396*
Y02394*
Y02391*
X02378*
Y02389*
Y02387*
Y02385*
X0238*
Y02383*
Y02381*
Y02378*
X02382*
Y02376*
Y02374*
Y02372*
X02384*
Y0237*
Y02367*
Y02365*
X02386*
Y02363*
Y02361*
X02389*
Y02359*
Y02357*
Y02354*
X02428*
Y02357*
Y02359*
Y02361*
Y02363*
X02426*
Y02365*
Y02367*
Y0237*
X02424*
Y02372*
Y02374*
X02421*
Y02376*
Y02378*
Y02381*
X02419*
Y02383*
Y02385*
Y02387*
X02417*
Y02389*
Y02391*
Y02394*
X02415*
Y02396*
Y02398*
X02413*
Y024*
Y02402*
Y02405*
X0241*
Y02407*
Y02409*
Y02411*
Y02413*
X02408*
Y02416*
Y02418*
X02406*
Y0242*
X02408*
Y02422*
Y02424*
X02404*
Y02426*
Y02429*
Y02431*
Y02433*
Y02435*
Y02437*
X02402*
Y0244*
Y02442*
X024*
Y02444*
Y02446*
Y02448*
X02397*
Y0245*
Y02453*
Y02455*
X02395*
Y02457*
Y02459*
X02393*
Y02461*
Y02464*
Y02466*
X02391*
Y02468*
Y0247*
Y02472*
X02389*
Y02475*
Y02477*
Y02479*
Y02481*
Y02483*
X02384*
Y02485*
Y02488*
X02386*
Y0249*
X02384*
Y02492*
X02382*
Y02494*
Y02496*
Y02499*
Y02501*
Y02503*
G37*
G36*
X02004D02*
X01895D01*
Y02501*
Y02499*
Y02496*
X01897*
Y02494*
Y02492*
X01899*
Y0249*
Y02488*
Y02485*
X01901*
Y02483*
Y02481*
Y02479*
X01903*
Y02477*
Y02475*
X01906*
Y02472*
Y0247*
Y02468*
X01943*
Y02466*
Y02464*
Y02461*
X01945*
Y02459*
Y02457*
Y02455*
X01947*
Y02453*
Y0245*
Y02448*
Y02446*
Y02444*
X01951*
Y02442*
X01949*
Y0244*
Y02437*
X01951*
Y02435*
Y02433*
Y02431*
X01954*
Y02429*
Y02426*
Y02424*
X01956*
Y02422*
Y0242*
Y02418*
X01958*
Y02416*
Y02413*
Y02411*
X0196*
Y02409*
Y02407*
X01962*
Y02405*
Y02402*
Y024*
X01965*
Y02398*
Y02396*
Y02394*
X01967*
Y02391*
Y02389*
Y02387*
Y02385*
Y02383*
X01969*
Y02381*
Y02378*
Y02376*
X01973*
Y02374*
X01971*
Y02372*
Y0237*
X01973*
Y02367*
Y02365*
X01975*
Y02363*
Y02361*
Y02359*
X01978*
Y02357*
Y02354*
X02015*
Y02357*
Y02359*
Y02361*
Y02363*
X02013*
Y02365*
Y02367*
Y0237*
X0201*
Y02372*
Y02374*
X02008*
Y02376*
Y02378*
Y02381*
X02006*
Y02383*
Y02385*
Y02387*
X02004*
Y02389*
Y02391*
Y02394*
X02002*
Y02396*
Y02398*
X02*
Y024*
Y02402*
Y02405*
X01997*
Y02407*
Y02409*
Y02411*
X01995*
Y02413*
Y02416*
Y02418*
Y0242*
Y02422*
X01991*
Y02424*
X01993*
Y02426*
Y02429*
X01991*
Y02431*
Y02433*
Y02435*
Y02437*
X01989*
Y0244*
Y02442*
X01986*
Y02444*
Y02446*
Y02448*
X01984*
Y0245*
Y02453*
Y02455*
X01982*
Y02457*
Y02459*
X0198*
Y02461*
Y02464*
Y02466*
X01978*
Y02468*
X02015*
Y0247*
Y02472*
X02013*
Y02475*
Y02477*
Y02479*
X0201*
Y02481*
Y02483*
Y02485*
X02008*
Y02488*
Y0249*
Y02492*
X02006*
Y02494*
Y02496*
Y02499*
X02004*
Y02501*
Y02503*
G37*
G36*
X01661D02*
X01584D01*
Y02501*
X01578*
Y02499*
X01573*
Y02496*
X01569*
Y02494*
Y02492*
X01565*
Y0249*
X01562*
Y02488*
X01565*
Y02485*
X0156*
Y02483*
Y02481*
Y02479*
Y02477*
X01558*
Y02475*
Y02472*
Y0247*
Y02468*
Y02466*
Y02464*
Y02461*
Y02459*
Y02457*
X0156*
Y02455*
Y02453*
Y0245*
Y02448*
Y02446*
Y02444*
X01565*
Y02442*
X01562*
Y0244*
X01565*
Y02437*
Y02435*
X01567*
Y02433*
X01569*
Y02431*
X01571*
Y02429*
X01573*
Y02426*
Y02424*
X01575*
Y02422*
X01578*
Y0242*
X0158*
Y02418*
Y02416*
X01584*
Y02413*
X01586*
Y02411*
X01593*
Y02409*
Y02407*
X01595*
Y02405*
Y02402*
Y024*
X01593*
Y02398*
Y02396*
Y02394*
X01591*
Y02391*
Y02389*
Y02387*
X01589*
Y02385*
Y02383*
Y02381*
X01586*
Y02378*
Y02376*
Y02374*
X01584*
Y02372*
Y0237*
Y02367*
X01582*
Y02365*
Y02363*
Y02361*
Y02359*
Y02357*
Y02354*
X01628*
Y02357*
Y02359*
Y02361*
Y02363*
X0163*
Y02365*
Y02367*
Y0237*
Y02372*
Y02374*
Y02376*
Y02378*
X01634*
Y02381*
Y02383*
X01632*
Y02385*
X01634*
Y02387*
Y02389*
Y02391*
Y02394*
X01637*
Y02396*
Y02398*
X01656*
Y02396*
Y02394*
X01659*
Y02391*
Y02389*
Y02387*
X01661*
Y02385*
Y02383*
X01663*
Y02381*
Y02378*
Y02376*
X01665*
Y02374*
Y02372*
Y0237*
Y02367*
Y02365*
X01669*
Y02363*
Y02361*
Y02359*
Y02357*
Y02354*
X01707*
Y02357*
Y02359*
Y02361*
Y02363*
X01704*
Y02365*
Y02367*
Y0237*
X01702*
Y02372*
Y02374*
X017*
Y02376*
Y02378*
Y02381*
Y02383*
X01698*
Y02385*
Y02387*
Y02389*
Y02391*
Y02394*
X01696*
Y02396*
X01694*
Y02398*
X01696*
Y024*
X01691*
Y02402*
Y02405*
Y02407*
Y02409*
Y02411*
Y02413*
X01689*
Y02416*
Y02418*
X01687*
Y0242*
Y02422*
Y02424*
X01685*
Y02426*
Y02429*
Y02431*
X01683*
Y02433*
Y02435*
Y02437*
X0168*
Y0244*
Y02442*
X01678*
Y02444*
Y02446*
Y02448*
X01676*
Y0245*
Y02453*
Y02455*
Y02457*
Y02459*
Y02461*
X01672*
Y02464*
Y02466*
Y02468*
Y0247*
Y02472*
Y02475*
X01669*
Y02477*
Y02479*
Y02481*
X01667*
Y02483*
Y02485*
X01665*
Y02488*
Y0249*
Y02492*
X01663*
Y02494*
Y02496*
Y02499*
X01661*
Y02501*
Y02503*
G37*
G36*
X01337D02*
X01261D01*
Y02501*
X01254*
Y02499*
X0125*
Y02496*
X01248*
Y02494*
X01245*
Y02492*
X01241*
Y0249*
X01239*
Y02488*
Y02485*
X01237*
Y02483*
Y02481*
X01234*
Y02479*
Y02477*
Y02475*
Y02472*
Y0247*
Y02468*
Y02466*
Y02464*
Y02461*
Y02459*
Y02457*
Y02455*
Y02453*
Y0245*
Y02448*
X01239*
Y02446*
X01237*
Y02444*
Y02442*
X01239*
Y0244*
Y02437*
X01241*
Y02435*
Y02433*
X01243*
Y02431*
X01245*
Y02429*
X01248*
Y02426*
Y02424*
X0125*
Y02422*
X01252*
Y0242*
X01254*
Y02418*
Y02416*
X01256*
Y02413*
X01259*
Y02411*
X01263*
Y02409*
X01265*
Y02407*
X01267*
Y02405*
X01272*
Y02402*
X01274*
Y024*
X01278*
Y02398*
X01283*
Y02396*
X01289*
Y02394*
X01298*
Y02391*
X01335*
Y02389*
Y02387*
Y02385*
X01337*
Y02383*
Y02381*
X01339*
Y02378*
Y02376*
Y02374*
Y02372*
Y0237*
X01342*
Y02367*
X01344*
Y02365*
X01342*
Y02363*
X01344*
Y02361*
Y02359*
Y02357*
X01348*
Y02354*
X01383*
Y02357*
Y02359*
Y02361*
Y02363*
X01381*
Y02365*
Y02367*
Y0237*
X01379*
Y02372*
Y02374*
X01377*
Y02376*
Y02378*
Y02381*
X01374*
Y02383*
Y02385*
Y02387*
X01372*
Y02389*
Y02391*
Y02394*
Y02396*
Y02398*
X01368*
Y024*
Y02402*
Y02405*
Y02407*
Y02409*
Y02411*
X01366*
Y02413*
Y02416*
Y02418*
X01363*
Y0242*
Y02422*
X01361*
Y02424*
Y02426*
Y02429*
Y02431*
X01359*
Y02433*
Y02435*
Y02437*
X01357*
Y0244*
Y02442*
X01355*
Y02444*
Y02446*
Y02448*
X01353*
Y0245*
Y02453*
Y02455*
Y02457*
Y02459*
X01348*
Y02461*
X0135*
Y02464*
Y02466*
X01346*
Y02468*
Y0247*
Y02472*
Y02475*
Y02477*
Y02479*
X01344*
Y02481*
Y02483*
X01342*
Y02485*
Y02488*
Y0249*
X01339*
Y02492*
Y02494*
Y02496*
X01337*
Y02499*
Y02501*
Y02503*
G37*
G36*
X00981D02*
X00904D01*
Y02501*
X00898*
Y02499*
X00893*
Y02496*
X00891*
Y02494*
X00887*
Y02492*
X00885*
Y0249*
Y02488*
X00883*
Y02485*
X0088*
Y02483*
Y02481*
X00878*
Y02479*
Y02477*
Y02475*
X00876*
Y02472*
Y0247*
Y02468*
Y02466*
Y02464*
Y02461*
Y02459*
X00878*
Y02457*
Y02455*
Y02453*
X0088*
Y0245*
Y02448*
Y02446*
X00883*
Y02444*
Y02442*
Y0244*
X00885*
Y02437*
X00887*
Y02435*
Y02433*
X00889*
Y02431*
Y02429*
X00893*
Y02426*
Y02424*
X00896*
Y02422*
Y0242*
X009*
Y02418*
Y02416*
X00904*
Y02413*
X00907*
Y02411*
X00911*
Y02409*
X00913*
Y02407*
X00915*
Y02405*
X00913*
Y02402*
X00915*
Y024*
X00911*
Y02398*
Y02396*
Y02394*
Y02391*
Y02389*
Y02387*
X00909*
Y02385*
Y02383*
Y02381*
Y02378*
X00907*
Y02376*
Y02374*
Y02372*
X00904*
Y0237*
Y02367*
Y02365*
X00902*
Y02363*
Y02361*
Y02359*
Y02357*
X00904*
Y02354*
X00946*
Y02357*
Y02359*
Y02361*
X00948*
Y02363*
Y02365*
Y02367*
X0095*
Y0237*
Y02372*
Y02374*
Y02376*
X00952*
Y02378*
Y02381*
Y02383*
Y02385*
X00955*
Y02387*
Y02389*
Y02391*
X00957*
Y02394*
Y02396*
Y02398*
X00977*
Y02396*
X00979*
Y02394*
Y02391*
Y02389*
Y02387*
Y02385*
X00981*
Y02383*
Y02381*
Y02378*
X00983*
Y02376*
Y02374*
Y02372*
X00985*
Y0237*
Y02367*
Y02365*
X00987*
Y02363*
Y02361*
X0099*
Y02359*
Y02357*
Y02354*
X01027*
Y02357*
Y02359*
Y02361*
Y02363*
Y02365*
X01022*
Y02367*
X01025*
Y0237*
X01022*
Y02372*
Y02374*
Y02376*
X0102*
Y02378*
Y02381*
Y02383*
X01018*
Y02385*
Y02387*
Y02389*
X01016*
Y02391*
Y02394*
X01014*
Y02396*
Y02398*
Y024*
Y02402*
X01011*
Y02405*
Y02407*
Y02409*
X01009*
Y02411*
Y02413*
X01007*
Y02416*
Y02418*
Y0242*
Y02422*
Y02424*
Y02426*
X01003*
Y02429*
X01005*
Y02431*
Y02433*
X01001*
Y02435*
Y02437*
Y0244*
Y02442*
Y02444*
X00998*
Y02446*
Y02448*
Y0245*
X00996*
Y02453*
Y02455*
Y02457*
X00994*
Y02459*
Y02461*
X00992*
Y02464*
Y02466*
Y02468*
X0099*
Y0247*
Y02472*
Y02475*
X00987*
Y02477*
Y02479*
Y02481*
X00985*
Y02483*
Y02485*
Y02488*
X00983*
Y0249*
X00985*
Y02492*
Y02494*
X00981*
Y02496*
Y02499*
Y02501*
Y02503*
G37*
G36*
X00826D02*
X00719D01*
Y02501*
Y02499*
Y02496*
Y02494*
X00721*
Y02492*
Y0249*
Y02488*
X00723*
Y02485*
Y02483*
Y02481*
X00725*
Y02479*
Y02477*
Y02475*
X00727*
Y02472*
Y0247*
X0073*
Y02468*
X00764*
Y02466*
Y02464*
X00767*
Y02461*
Y02459*
Y02457*
X00769*
Y02455*
Y02453*
X00771*
Y0245*
Y02448*
Y02446*
X00773*
Y02444*
Y02442*
Y0244*
Y02437*
X00775*
Y02435*
Y02433*
X00778*
Y02431*
Y02429*
Y02426*
X0078*
Y02424*
Y02422*
Y0242*
Y02418*
Y02416*
Y02413*
X00784*
Y02411*
X00782*
Y02409*
X00784*
Y02407*
Y02405*
Y02402*
X00786*
Y024*
Y02398*
Y02396*
X00789*
Y02394*
Y02391*
X00791*
Y02389*
Y02387*
Y02385*
X00793*
Y02383*
Y02381*
Y02378*
X00795*
Y02376*
Y02374*
Y02372*
X00797*
Y0237*
Y02367*
Y02365*
X00799*
Y02363*
Y02361*
Y02359*
X00802*
Y02357*
Y02354*
X00837*
Y02357*
Y02359*
Y02361*
Y02363*
X00834*
Y02365*
Y02367*
Y0237*
Y02372*
Y02374*
Y02376*
X0083*
Y02378*
X00832*
Y02381*
Y02383*
X0083*
Y02385*
Y02387*
Y02389*
X00828*
Y02391*
Y02394*
X00826*
Y02396*
Y02398*
Y024*
X00824*
Y02402*
Y02405*
Y02407*
X00821*
Y02409*
Y02411*
Y02413*
X00819*
Y02416*
Y02418*
X00817*
Y0242*
Y02422*
Y02424*
X00815*
Y02426*
Y02429*
Y02431*
X00813*
Y02433*
Y02435*
Y02437*
Y0244*
Y02442*
Y02444*
X00808*
Y02446*
Y02448*
Y0245*
Y02453*
Y02455*
Y02457*
X00806*
Y02459*
Y02461*
X00804*
Y02464*
Y02466*
Y02468*
X00837*
Y0247*
Y02472*
Y02475*
X00834*
Y02477*
Y02479*
Y02481*
Y02483*
Y02485*
Y02488*
X0083*
Y0249*
X00832*
Y02492*
Y02494*
X0083*
Y02496*
Y02499*
Y02501*
X00826*
Y02503*
G37*
G36*
X02137D02*
X02089D01*
Y02501*
X02087*
Y02499*
X02083*
Y02496*
X02078*
Y02494*
X02076*
Y02492*
X02072*
Y0249*
X02069*
Y02488*
X02067*
Y02485*
Y02483*
X02065*
Y02481*
X02063*
Y02479*
X02061*
Y02477*
Y02475*
X02059*
Y02472*
Y0247*
Y02468*
Y02466*
X02056*
Y02464*
Y02461*
Y02459*
Y02457*
Y02455*
Y02453*
Y0245*
Y02448*
Y02446*
Y02444*
Y02442*
X02059*
Y0244*
Y02437*
Y02435*
Y02433*
X02061*
Y02431*
Y02429*
Y02426*
X02063*
Y02424*
Y02422*
X02065*
Y0242*
Y02418*
Y02416*
X02067*
Y02413*
Y02411*
X02069*
Y02409*
Y02407*
X02072*
Y02405*
X02074*
Y02402*
X02076*
Y024*
Y02398*
X02078*
Y02396*
X0208*
Y02394*
Y02391*
X02083*
Y02389*
X02085*
Y02387*
Y02385*
X02089*
Y02383*
X02091*
Y02381*
X02094*
Y02378*
X02096*
Y02376*
X021*
Y02374*
X02102*
Y02372*
Y0237*
X02109*
Y02367*
Y02365*
X02118*
Y02363*
X0212*
Y02361*
X02124*
Y02359*
X02131*
Y02357*
X02137*
Y02354*
X02146*
Y02352*
X02177*
Y02354*
X02185*
Y02357*
X0219*
Y02359*
X02194*
Y02361*
X02196*
Y02363*
X02201*
Y02365*
X02205*
Y02367*
Y0237*
X02209*
Y02372*
Y02374*
Y02376*
X02212*
Y02378*
Y02381*
Y02383*
X02216*
Y02385*
Y02387*
Y02389*
Y02391*
Y02394*
Y02396*
Y02398*
Y024*
Y02402*
Y02405*
Y02407*
Y02409*
Y02411*
Y02413*
Y02416*
Y02418*
Y0242*
Y02422*
Y02424*
X02212*
Y02426*
X02214*
Y02429*
X02212*
Y02431*
X02209*
Y02433*
Y02435*
Y02437*
Y0244*
X02207*
Y02442*
Y02444*
X02205*
Y02446*
Y02448*
X02203*
Y0245*
Y02453*
X02201*
Y02455*
Y02457*
X02198*
Y02459*
X02194*
Y02461*
Y02464*
Y02466*
X0219*
Y02468*
Y0247*
X02185*
Y02472*
Y02475*
X02183*
Y02477*
X02179*
Y02479*
Y02481*
X02174*
Y02483*
X0217*
Y02485*
X02168*
Y02488*
X02163*
Y0249*
X02161*
Y02492*
X02159*
Y02494*
X02155*
Y02496*
X02148*
Y02499*
X02144*
Y02501*
X02137*
Y02503*
G37*
G36*
X01809D02*
X01759D01*
Y02501*
X01757*
Y02499*
X01753*
Y02496*
X01748*
Y02494*
X01746*
Y02492*
X01744*
Y0249*
X01742*
Y02488*
X01739*
Y02485*
X01737*
Y02483*
X01735*
Y02481*
X01733*
Y02479*
Y02477*
Y02475*
Y02472*
X01731*
Y0247*
Y02468*
Y02466*
Y02464*
X01728*
Y02461*
Y02459*
Y02457*
Y02455*
Y02453*
Y0245*
Y02448*
Y02446*
X01731*
Y02444*
Y02442*
Y0244*
Y02437*
Y02435*
X01733*
Y02433*
Y02431*
Y02429*
Y02426*
Y02424*
Y02422*
X01737*
Y0242*
X01735*
Y02418*
X01737*
Y02416*
Y02413*
X01739*
Y02411*
X01742*
Y02409*
Y02407*
X01744*
Y02405*
Y02402*
X01746*
Y024*
X01748*
Y02398*
Y02396*
X0175*
Y02394*
X01753*
Y02391*
X01755*
Y02389*
Y02387*
Y02385*
X01759*
Y02383*
X01761*
Y02381*
X01763*
Y02378*
X01768*
Y02376*
X0177*
Y02374*
X01772*
Y02372*
X01774*
Y0237*
X01779*
Y02367*
X01783*
Y02365*
X01788*
Y02363*
X01792*
Y02361*
X01796*
Y02359*
X01801*
Y02357*
X01807*
Y02354*
X01818*
Y02352*
X01849*
Y02354*
X01855*
Y02357*
X0186*
Y02359*
X01864*
Y02361*
X01866*
Y02363*
X01871*
Y02365*
X01875*
Y02367*
Y0237*
X01879*
Y02372*
X01881*
Y02374*
Y02376*
X01884*
Y02378*
Y02381*
X01886*
Y02383*
Y02385*
Y02387*
Y02389*
Y02391*
Y02394*
Y02396*
X0189*
Y02398*
Y024*
Y02402*
Y02405*
Y02407*
X01886*
Y02409*
Y02411*
Y02413*
Y02416*
Y02418*
Y0242*
Y02422*
Y02424*
Y02426*
X01884*
Y02429*
Y02431*
Y02433*
X01881*
Y02435*
Y02437*
Y0244*
X01879*
Y02442*
X01877*
Y02444*
Y02446*
X01875*
Y02448*
Y0245*
X01873*
Y02453*
X01871*
Y02455*
Y02457*
Y02459*
X01866*
Y02461*
X01864*
Y02464*
Y02466*
X0186*
Y02468*
Y0247*
Y02472*
X01855*
Y02475*
Y02477*
X01851*
Y02479*
X01849*
Y02481*
X01844*
Y02483*
X01842*
Y02485*
X0184*
Y02488*
X01836*
Y0249*
X01833*
Y02492*
X01829*
Y02494*
X01825*
Y02496*
X0182*
Y02499*
X01814*
Y02501*
X01809*
Y02503*
G37*
G36*
X01468D02*
X01422D01*
Y02501*
X0142*
Y02499*
X01414*
Y02496*
X01412*
Y02494*
Y02492*
X01407*
Y0249*
Y02488*
X01405*
Y02485*
Y02483*
X01403*
Y02481*
Y02479*
Y02477*
X01401*
Y02475*
Y02472*
Y0247*
Y02468*
Y02466*
X01403*
Y02464*
Y02461*
Y02459*
Y02457*
X01405*
Y02455*
X01438*
Y02457*
Y02459*
Y02461*
Y02464*
X0144*
Y02466*
X01442*
Y02468*
X01444*
Y0247*
X01453*
Y02472*
X01455*
Y0247*
X01466*
Y02468*
X01471*
Y02466*
X01475*
Y02464*
X01477*
Y02461*
X01479*
Y02459*
Y02457*
Y02455*
Y02453*
Y0245*
Y02448*
Y02446*
X01475*
Y02444*
X01466*
Y02442*
X01451*
Y0244*
X01433*
Y02437*
X01431*
Y02435*
X01427*
Y02433*
X01422*
Y02431*
X0142*
Y02429*
X01418*
Y02426*
Y02424*
X01416*
Y02422*
Y0242*
Y02418*
Y02416*
Y02413*
Y02411*
Y02409*
Y02407*
Y02405*
Y02402*
X01418*
Y024*
Y02398*
Y02396*
Y02394*
X0142*
Y02391*
X01422*
Y02389*
Y02387*
Y02385*
X01427*
Y02383*
Y02381*
X01429*
Y02378*
X01431*
Y02376*
X01433*
Y02374*
X01436*
Y02372*
Y0237*
X0144*
Y02367*
X01442*
Y02365*
X01449*
Y02363*
X01453*
Y02361*
X01455*
Y02359*
X0146*
Y02357*
X01466*
Y02354*
X01475*
Y02352*
X0151*
Y02354*
X01514*
Y02357*
X01519*
Y02359*
X01523*
Y02361*
X01527*
Y02363*
X0153*
Y02365*
X01534*
Y02367*
Y0237*
X01536*
Y02372*
X01538*
Y02374*
Y02376*
Y02378*
Y02381*
X0154*
Y02383*
Y02385*
Y02387*
Y02389*
Y02391*
X01538*
Y02394*
Y02396*
Y02398*
X01536*
Y024*
X01499*
Y02398*
Y02396*
Y02394*
X01497*
Y02391*
Y02389*
X01492*
Y02387*
X01466*
Y02389*
X01464*
Y02391*
X0146*
Y02394*
X01457*
Y02396*
X01455*
Y02398*
Y024*
Y02402*
Y02405*
Y02407*
X0146*
Y02409*
X01462*
Y02411*
X01488*
Y02413*
X01497*
Y02416*
X01501*
Y02418*
X01506*
Y0242*
X0151*
Y02422*
X01512*
Y02424*
X01514*
Y02426*
X01516*
Y02429*
Y02431*
X01519*
Y02433*
Y02435*
Y02437*
Y0244*
Y02442*
Y02444*
Y02446*
Y02448*
Y0245*
Y02453*
Y02455*
X01516*
Y02457*
Y02459*
X01514*
Y02461*
Y02464*
X01512*
Y02466*
Y02468*
X0151*
Y0247*
Y02472*
X01508*
Y02475*
X01506*
Y02477*
Y02479*
X01503*
Y02481*
X01499*
Y02483*
Y02485*
X01495*
Y02488*
X01492*
Y0249*
X0149*
Y02492*
X01486*
Y02494*
X01484*
Y02496*
X01477*
Y02499*
X01473*
Y02501*
X01468*
Y02503*
G37*
G36*
X01127D02*
X01081D01*
Y02501*
X01077*
Y02499*
X01073*
Y02496*
X01066*
Y02494*
Y02492*
X01062*
Y0249*
Y02488*
X0106*
Y02485*
X01057*
Y02483*
X01055*
Y02481*
X01053*
Y02479*
Y02477*
X01051*
Y02475*
Y02472*
Y0247*
X01049*
Y02468*
Y02466*
Y02464*
Y02461*
Y02459*
X01046*
Y02457*
Y02455*
Y02453*
Y0245*
Y02448*
X01049*
Y02446*
Y02444*
Y02442*
Y0244*
Y02437*
X01051*
Y02435*
Y02433*
Y02431*
X01053*
Y02429*
Y02426*
Y02424*
X01055*
Y02422*
Y0242*
Y02418*
X01057*
Y02416*
Y02413*
X0106*
Y02411*
X01062*
Y02409*
Y02407*
Y02405*
X01064*
Y02402*
Y024*
X01066*
Y02398*
X01068*
Y02396*
Y02394*
X01073*
Y02391*
X01075*
Y02389*
Y02387*
X01077*
Y02385*
X01081*
Y02383*
X01084*
Y02381*
X01086*
Y02378*
X01088*
Y02376*
Y02374*
X01092*
Y02372*
X01095*
Y0237*
X01099*
Y02367*
X01101*
Y02365*
X01108*
Y02363*
X0111*
Y02361*
X01116*
Y02359*
X01121*
Y02357*
X0113*
Y02354*
X01136*
Y02352*
X01169*
Y02354*
X01175*
Y02357*
X0118*
Y02359*
X01184*
Y02361*
X01189*
Y02363*
X01191*
Y02365*
X01193*
Y02367*
X01195*
Y0237*
X01197*
Y02372*
X01199*
Y02374*
X01202*
Y02376*
Y02378*
X01204*
Y02381*
Y02383*
Y02385*
X01206*
Y02387*
Y02389*
Y02391*
X01208*
Y02394*
Y02396*
Y02398*
Y024*
Y02402*
Y02405*
Y02407*
Y02409*
Y02411*
Y02413*
X01206*
Y02416*
Y02418*
Y0242*
Y02422*
X01204*
Y02424*
Y02426*
Y02429*
X01202*
Y02431*
Y02433*
Y02435*
X01199*
Y02437*
Y0244*
Y02442*
X01195*
Y02444*
Y02446*
Y02448*
Y0245*
X01193*
Y02453*
Y02455*
X01189*
Y02457*
Y02459*
X01186*
Y02461*
X01184*
Y02464*
X01182*
Y02466*
Y02468*
X0118*
Y0247*
X01178*
Y02472*
X01175*
Y02475*
X01173*
Y02477*
X01171*
Y02479*
X01169*
Y02481*
X01165*
Y02483*
X01162*
Y02485*
X01158*
Y02488*
X01156*
Y0249*
X01154*
Y02492*
X01149*
Y02494*
X01145*
Y02496*
X0114*
Y02499*
X01134*
Y02501*
X01127*
Y02503*
G37*
%LNstrwl-p01-v01-3*%
%LPD*%
G36*
X01634Y02466D02*
Y02464D01*
Y02461*
X01637*
Y02459*
Y02457*
Y02455*
X01639*
Y02453*
Y0245*
Y02448*
X01641*
Y02446*
Y02444*
X01643*
Y02442*
Y0244*
Y02437*
Y02435*
Y02433*
X0161*
Y02435*
X01606*
Y02437*
X01604*
Y0244*
X01602*
Y02442*
Y02444*
X016*
Y02446*
Y02448*
X01597*
Y0245*
Y02453*
Y02455*
Y02457*
X01595*
Y02459*
X01597*
Y02461*
Y02464*
X016*
Y02466*
X01602*
Y02468*
X01634*
Y02466*
G37*
G36*
X01309D02*
X01311D01*
Y02464*
Y02461*
Y02459*
X01313*
Y02457*
Y02455*
Y02453*
X01315*
Y0245*
Y02448*
X01318*
Y02446*
Y02444*
Y02442*
X0132*
Y0244*
Y02437*
Y02435*
Y02433*
Y02431*
X01324*
Y02429*
Y02426*
X01291*
Y02429*
X01287*
Y02431*
X01285*
Y02433*
X01283*
Y02435*
X0128*
Y02437*
Y0244*
X01278*
Y02442*
X01276*
Y02444*
Y02446*
X01274*
Y02448*
Y0245*
Y02453*
Y02455*
X01272*
Y02457*
Y02459*
X01274*
Y02461*
Y02464*
X01276*
Y02466*
X01278*
Y02468*
X01309*
Y02466*
G37*
G36*
X00952D02*
Y02464D01*
X00957*
Y02461*
X00955*
Y02459*
Y02457*
X00957*
Y02455*
Y02453*
X00959*
Y0245*
Y02448*
Y02446*
X00961*
Y02444*
Y02442*
Y0244*
Y02437*
X00963*
Y02435*
Y02433*
X00933*
Y02435*
X00926*
Y02437*
Y0244*
X00922*
Y02442*
X0092*
Y02444*
X00918*
Y02446*
Y02448*
Y0245*
Y02453*
Y02455*
Y02457*
Y02459*
Y02461*
Y02464*
Y02466*
X0092*
Y02468*
X00952*
Y02466*
G37*
G36*
X02133D02*
X02139D01*
Y02464*
X02146*
Y02461*
X0215*
Y02459*
Y02457*
X02155*
Y02455*
X02157*
Y02453*
X02161*
Y0245*
Y02448*
X02166*
Y02446*
X02163*
Y02444*
X02166*
Y02442*
X02168*
Y0244*
Y02437*
X0217*
Y02435*
Y02433*
X02172*
Y02431*
Y02429*
X02174*
Y02426*
Y02424*
Y02422*
Y0242*
X02177*
Y02418*
Y02416*
Y02413*
Y02411*
Y02409*
Y02407*
X02174*
Y02405*
Y02402*
Y024*
X02172*
Y02398*
X0217*
Y02396*
X02168*
Y02394*
X02166*
Y02391*
X02159*
Y02389*
X02142*
Y02391*
X02135*
Y02394*
X02126*
Y02396*
X02124*
Y02398*
X02122*
Y024*
X02118*
Y02402*
X02115*
Y02405*
X02113*
Y02407*
X02111*
Y02409*
Y02411*
X02109*
Y02413*
X02107*
Y02416*
Y02418*
X02104*
Y0242*
Y02422*
X021*
Y02424*
X02102*
Y02426*
Y02429*
X021*
Y02431*
Y02433*
Y02435*
Y02437*
X02098*
Y0244*
Y02442*
Y02444*
Y02446*
Y02448*
X021*
Y0245*
Y02453*
Y02455*
Y02457*
X02102*
Y02459*
X02104*
Y02461*
X02107*
Y02464*
X02111*
Y02466*
X02118*
Y02468*
X02133*
Y02466*
G37*
G36*
X01805D02*
X01812D01*
Y02464*
X01816*
Y02461*
X0182*
Y02459*
X01822*
Y02457*
X01827*
Y02455*
Y02453*
X01831*
Y0245*
X01833*
Y02448*
X01836*
Y02446*
X01838*
Y02444*
Y02442*
X0184*
Y0244*
X01838*
Y02437*
X01842*
Y02435*
Y02433*
Y02431*
X01844*
Y02429*
Y02426*
Y02424*
X01847*
Y02422*
Y0242*
Y02418*
Y02416*
Y02413*
Y02411*
Y02409*
Y02407*
Y02405*
X01844*
Y02402*
Y024*
X01842*
Y02398*
Y02396*
Y02394*
X01836*
Y02391*
X01829*
Y02389*
X01812*
Y02391*
X01805*
Y02394*
X01798*
Y02396*
X01796*
Y02398*
X01792*
Y024*
X0179*
Y02402*
X01785*
Y02405*
Y02407*
X01783*
Y02409*
X01781*
Y02411*
X01779*
Y02413*
X01777*
Y02416*
Y02418*
Y0242*
X01774*
Y02422*
Y02424*
X01772*
Y02426*
Y02429*
Y02431*
X0177*
Y02433*
Y02435*
Y02437*
Y0244*
Y02442*
Y02444*
Y02446*
Y02448*
Y0245*
Y02453*
X01772*
Y02455*
Y02457*
X01774*
Y02459*
X01777*
Y02461*
Y02464*
X01781*
Y02466*
X01788*
Y02468*
X01805*
Y02466*
G37*
G36*
X01125D02*
X0113D01*
Y02464*
X01134*
Y02461*
X01138*
Y02459*
X01143*
Y02457*
X01145*
Y02455*
X01147*
Y02453*
X01151*
Y0245*
Y02448*
X01154*
Y02446*
X01156*
Y02444*
X01158*
Y02442*
Y0244*
X0116*
Y02437*
Y02435*
X01162*
Y02433*
X01165*
Y02431*
Y02429*
Y02426*
X01167*
Y02424*
Y02422*
Y0242*
Y02418*
Y02416*
Y02413*
Y02411*
Y02409*
Y02407*
Y02405*
Y02402*
X01165*
Y024*
Y02398*
X0116*
Y02396*
Y02394*
X01156*
Y02391*
X01149*
Y02389*
X0113*
Y02391*
X01125*
Y02394*
X01116*
Y02396*
Y02398*
X01112*
Y024*
X01108*
Y02402*
Y02405*
X01103*
Y02407*
Y02409*
X01101*
Y02411*
X01099*
Y02413*
X01097*
Y02416*
Y02418*
X01095*
Y0242*
X01092*
Y02422*
Y02424*
Y02426*
X0109*
Y02429*
Y02431*
Y02433*
Y02435*
Y02437*
Y0244*
Y02442*
Y02444*
Y02446*
Y02448*
Y0245*
Y02453*
Y02455*
X01092*
Y02457*
Y02459*
X01095*
Y02461*
X01099*
Y02464*
X01101*
Y02466*
X01108*
Y02468*
X01125*
Y02466*
G37*
G54D12*
X0248Y03039D02*
Y0301D01*
X0246*
X02435Y03039D02*
X02445D01*
X0245Y03034*
Y03015*
X02445Y0301*
X02435*
X0243Y03015*
Y03034*
X02435Y03039*
X024Y03034D02*
X02405Y03039D01*
X02415*
X0242Y03034*
Y03015*
X02415Y0301*
X02405*
X024Y03015*
Y03024*
X0241*
X02375Y03039D02*
X02385D01*
X0239Y03034*
Y03015*
X02385Y0301*
X02375*
X0237Y03015*
Y03034*
X02375Y03039*
X0236Y0301D02*
X0235D01*
X02355*
Y03039*
X0236Y03034*
G54D15*
X0243Y02254D02*
Y02294D01*
X0244Y02304*
X0246*
X0247Y02294*
Y02254*
X0246Y02244*
X0244*
X0245Y02264D02*
X0243Y02244D01*
X0244D02*
X0243Y02254D01*
X0241Y02304D02*
Y02254D01*
X024Y02244*
X0238*
X0237Y02254*
Y02304*
X0235D02*
X0231D01*
X0233*
Y02244*
X0229D02*
Y02304D01*
X0227Y02284*
X0225Y02304*
Y02244*
X0219Y02294D02*
X022Y02304D01*
X0222*
X0223Y02294*
Y02284*
X0222Y02274*
X022*
X0219Y02264*
Y02254*
X022Y02244*
X0222*
X0223Y02254*
X0207Y02294D02*
X0208Y02304D01*
X021*
X0211Y02294*
Y02284*
X021Y02274*
X0208*
X0207Y02264*
Y02254*
X0208Y02244*
X021*
X0211Y02254*
X0204Y02294D02*
Y02284D01*
X0205*
X0203*
X0204*
Y02254*
X0203Y02244*
X0197D02*
X0199D01*
X02Y02254*
Y02274*
X0199Y02284*
X0197*
X0196Y02274*
Y02264*
X02*
X0191Y02244D02*
X0193D01*
X0194Y02254*
Y02274*
X0193Y02284*
X0191*
X019Y02274*
Y02264*
X0194*
X0188Y02284D02*
Y02244D01*
Y02264*
X0187Y02274*
X0186Y02284*
X0185*
X0182Y02244D02*
X018D01*
X0181*
Y02284*
X0182*
X0177Y02244D02*
Y02284D01*
X0174*
X0173Y02274*
Y02244*
X0169Y02224D02*
X0168D01*
X0167Y02234*
Y02284*
X017*
X0171Y02274*
Y02254*
X017Y02244*
X0167*
X0159Y02304D02*
Y02244D01*
X0157Y02264*
X0155Y02244*
Y02304*
X0153D02*
Y02244D01*
Y02274*
X0152Y02284*
X015*
X0149Y02274*
Y02244*
X0144D02*
X0146D01*
X0147Y02254*
Y02274*
X0146Y02284*
X0144*
X0143Y02274*
Y02264*
X0147*
X0138Y02244D02*
X014D01*
X0141Y02254*
Y02274*
X014Y02284*
X0138*
X0137Y02274*
Y02264*
X0141*
X0135Y02244D02*
X0133D01*
X0134*
Y02304*
X0135*
X0124D02*
Y02244D01*
X0121*
X012Y02254*
Y02264*
X0121Y02274*
X0124*
X0121*
X012Y02284*
Y02294*
X0121Y02304*
X0124*
X0117Y02244D02*
X0115D01*
X0114Y02254*
Y02274*
X0115Y02284*
X0117*
X0118Y02274*
Y02254*
X0117Y02244*
X0111Y02284D02*
X0109D01*
X0108Y02274*
Y02244*
X0111*
X0112Y02254*
X0111Y02264*
X0108*
X0106Y02284D02*
Y02244D01*
Y02264*
X0105Y02274*
X0104Y02284*
X0103*
X0096Y02304D02*
Y02244D01*
X0099*
X01Y02254*
Y02274*
X0099Y02284*
X0096*
X0088Y02304D02*
Y02264D01*
X0086Y02244*
X0084Y02264*
Y02304*
X0082Y02294D02*
X0081Y02304D01*
X0079*
X0078Y02294*
Y02254*
X0079Y02244*
X0081*
X0082Y02254*
Y02294*
X0076Y02244D02*
X0074D01*
X0075*
Y02304*
X0076Y02294*
X0247Y02176D02*
Y02116D01*
X0244*
X0243Y02126*
Y02166*
X0244Y02176*
X0247*
X0238Y02116D02*
X024D01*
X0241Y02126*
Y02146*
X024Y02156*
X0238*
X0237Y02146*
Y02136*
X0241*
X0235Y02116D02*
X0232D01*
X0231Y02126*
X0232Y02136*
X0234*
X0235Y02146*
X0234Y02156*
X0231*
X0229Y02116D02*
X0227D01*
X0228*
Y02156*
X0229*
X0222Y02097D02*
X0221D01*
X022Y02106*
Y02156*
X0223*
X0224Y02146*
Y02126*
X0223Y02116*
X022*
X0218D02*
Y02156D01*
X0215*
X0214Y02146*
Y02116*
X0209D02*
X0211D01*
X0212Y02126*
Y02146*
X0211Y02156*
X0209*
X0208Y02146*
Y02136*
X0212*
X0202Y02176D02*
Y02116D01*
X0205*
X0206Y02126*
Y02146*
X0205Y02156*
X0202*
X0194Y02176D02*
Y02116D01*
X0191*
X019Y02126*
Y02136*
Y02146*
X0191Y02156*
X0194*
X0188D02*
Y02126D01*
X0187Y02116*
X0184*
Y02106*
X0185Y02097*
X0186*
X0184Y02116D02*
Y02156D01*
X0172Y02176D02*
X0174D01*
X0173*
Y02126*
X0174Y02116*
X0175*
X0176Y02126*
X0169Y02156D02*
X0167D01*
X0166Y02146*
Y02116*
X0169*
X017Y02126*
X0169Y02136*
X0166*
X0164Y02156D02*
Y02116D01*
Y02136*
X0163Y02146*
X0162Y02156*
X0161*
X0158D02*
Y02116D01*
Y02136*
X0157Y02146*
X0156Y02156*
X0155*
X0151Y02116D02*
X0149D01*
X0148Y02126*
Y02146*
X0149Y02156*
X0151*
X0152Y02146*
Y02126*
X0151Y02116*
X0142Y02176D02*
Y02116D01*
X0145*
X0146Y02126*
Y02146*
X0145Y02156*
X0142*
X013Y02176D02*
X0134D01*
Y02146*
X0132*
X0134*
Y02116*
X0128D02*
X0126D01*
X0127*
Y02156*
X0128*
X0123Y02116D02*
X012D01*
X0119Y02126*
X012Y02136*
X0122*
X0123Y02146*
X0122Y02156*
X0119*
X0117Y02176D02*
Y02116D01*
Y02146*
X0116Y02156*
X0114*
X0113Y02146*
Y02116*
X0108D02*
X011D01*
X0111Y02126*
Y02146*
X011Y02156*
X0108*
X0107Y02146*
Y02136*
X0111*
X0105Y02156D02*
Y02116D01*
Y02136*
X0104Y02146*
X0103Y02156*
X0102*
M02*