%FSTAX23Y23*%
%MOIN*%
%SFA1B1*%

%IPPOS*%
%ADD13C,0.007874*%
%LNstrwl-p01-v01-1*%
%LPD*%
G36*
X01756Y01122D02*
X01741D01*
X01741*
X01741*
X01741*
X01741*
X0174Y01122*
X0174*
X0174Y01122*
X01739Y01122*
X01739Y01122*
X01738Y01122*
X01737Y01122*
X01737Y01122*
X01736Y01121*
X01736*
X01736Y01121*
X01736Y01121*
X01736Y01121*
X01736Y01121*
X01736Y01121*
X01735Y01121*
X01735Y0112*
X01734Y0112*
X01734Y01119*
Y01119*
X01734Y01119*
X01734Y01119*
X01734Y01119*
X01734Y01119*
X01734Y01119*
X01734Y01119*
X01734Y01118*
X01733Y01118*
X01733Y01117*
X01733Y01117*
X01733Y01116*
Y01115*
X01733Y01115*
X01733Y01115*
X01733Y01115*
X01733Y01114*
X01733Y01114*
X01734Y01113*
X01734Y01112*
X01734Y01112*
X01734Y01112*
X01734Y01111*
X01735Y01111*
X01735Y01111*
X01735Y0111*
X01735Y0111*
X01735Y0111*
X01735Y0111*
X01735Y0111*
X01736Y0111*
X01736Y0111*
X01736Y0111*
X01737Y0111*
X01737Y01109*
X01738Y01109*
X01738Y01109*
X01739Y01109*
X0174Y01109*
X0174Y01109*
X01741Y01109*
X01756*
Y01106*
X01741*
X01741*
X01741*
X01741*
X01741*
X0174Y01106*
X0174Y01106*
X01739Y01106*
X01739Y01106*
X01738Y01106*
X01737Y01106*
X01736Y01106*
X01736Y01106*
X01735Y01106*
X01735*
X01735Y01107*
X01735Y01107*
X01735Y01107*
X01735Y01107*
X01734Y01107*
X01734Y01107*
X01734Y01107*
X01733Y01108*
X01733Y01108*
X01733Y01108*
X01732Y01108*
X01732Y01109*
X01732Y01109*
X01732Y0111*
X01732Y0111*
X01731Y0111*
X01731Y0111*
X01731Y0111*
X01731Y0111*
X01731Y0111*
X01731Y01111*
X01731Y01111*
X01731Y01112*
X01731Y01112*
X0173Y01112*
X0173Y01113*
X0173Y01114*
X0173Y01114*
X0173Y01115*
X0173Y01115*
Y01116*
X0173Y01116*
Y01116*
X0173Y01117*
X0173Y01117*
X0173Y01118*
X0173Y01118*
X01731Y01119*
X01731Y0112*
X01731Y01121*
X01731Y01121*
X01731Y01121*
X01731Y01121*
X01731Y01121*
X01732Y01122*
X01732Y01122*
X01732Y01122*
X01732Y01122*
X01732Y01123*
X01733Y01123*
X01733Y01124*
X01734Y01124*
X01734Y01124*
X01735Y01124*
X01735*
X01735Y01124*
X01735Y01125*
X01735Y01125*
X01736Y01125*
X01736Y01125*
X01736Y01125*
X01737Y01125*
X01737Y01125*
X01737Y01125*
X01738Y01125*
X01739Y01125*
X01739Y01125*
X0174Y01125*
X0174Y01125*
X01741*
X01756*
Y01122*
G37*
G36*
X01737Y01098D02*
X01737D01*
X01737Y01098*
X01737Y01098*
X01737Y01098*
X01737Y01098*
X01737Y01098*
X01736Y01098*
X01736Y01097*
X01735Y01097*
X01734Y01097*
X01734Y01097*
X01734Y01096*
Y01096*
X01734Y01096*
X01734Y01096*
X01734Y01096*
X01733Y01096*
X01733Y01096*
X01733Y01095*
X01733Y01094*
X01733Y01094*
X01733Y01094*
X01733Y01093*
Y01093*
X01733Y01093*
X01733Y01093*
X01733Y01092*
X01733Y01092*
X01733Y01091*
X01733Y01091*
X01733Y01091*
X01734Y0109*
X01734Y0109*
X01734Y0109*
X01734Y01089*
X01734Y01089*
X01734Y01089*
X01735Y01089*
X01735Y01089*
X01735Y01089*
X01735Y01089*
X01735Y01089*
X01736Y01089*
X01736Y01089*
X01736Y01088*
X01737Y01088*
X01737Y01088*
X01737Y01088*
X01738Y01088*
X01738Y01088*
X01739Y01088*
X01739*
X01739*
X01739*
X01739Y01088*
X01739Y01088*
X0174Y01088*
X0174Y01088*
X0174Y01088*
X01741Y01088*
X01742Y01089*
X01742Y01089*
X01742Y01089*
X01743Y01089*
X01743Y01089*
X01743Y01089*
X01743Y01089*
X01743Y0109*
X01743Y0109*
X01743Y0109*
X01744Y0109*
X01744Y0109*
X01744Y0109*
X01744Y01091*
X01744Y01091*
X01744Y01092*
X01744Y01092*
X01745Y01092*
X01745Y01093*
X01745Y01093*
Y01094*
X01745Y01094*
X01744Y01094*
X01744Y01095*
X01744Y01095*
X01744Y01096*
X01744Y01096*
X01744Y01096*
X01744Y01096*
X01744Y01096*
X01743Y01097*
X01743Y01097*
X01743Y01097*
X01742Y01098*
X01742Y01098*
X01742Y01101*
X01755Y01098*
Y01086*
X01752*
Y01096*
X01746Y01097*
X01746Y01097*
X01746Y01097*
X01746Y01097*
X01746Y01097*
X01746Y01097*
X01746Y01096*
X01746Y01096*
X01747Y01096*
X01747Y01095*
X01747Y01095*
X01747Y01094*
X01747Y01094*
X01747Y01093*
X01747Y01093*
X01747Y01092*
Y01092*
X01747Y01092*
Y01092*
X01747Y01092*
X01747Y01091*
X01747Y01091*
X01747Y01091*
X01747Y0109*
X01747Y0109*
X01747Y01089*
X01746Y01089*
X01746Y01088*
X01746Y01088*
X01745Y01087*
X01745Y01087*
X01745Y01087*
X01745Y01087*
X01745Y01087*
X01745Y01087*
X01744Y01086*
X01744Y01086*
X01744Y01086*
X01743Y01086*
X01743Y01086*
X01743Y01085*
X01742Y01085*
X01742Y01085*
X01741Y01085*
X0174Y01085*
X0174Y01085*
X01739Y01085*
X01739*
X01739*
X01739*
X01739Y01085*
X01738Y01085*
X01738Y01085*
X01738Y01085*
X01737Y01085*
X01737Y01085*
X01736Y01085*
X01736Y01085*
X01735Y01085*
X01735Y01086*
X01734Y01086*
X01734Y01086*
X01733Y01087*
X01733Y01087*
X01733Y01087*
X01733Y01087*
X01733Y01087*
X01733Y01087*
X01732Y01088*
X01732Y01088*
X01732Y01088*
X01731Y01089*
X01731Y01089*
X01731Y0109*
X01731Y0109*
X0173Y01091*
X0173Y01092*
X0173Y01092*
X0173Y01093*
Y01094*
X0173Y01094*
X0173Y01094*
X0173Y01094*
X0173Y01095*
X0173Y01095*
X0173Y01096*
X01731Y01096*
X01731Y01097*
X01731Y01097*
X01731Y01097*
X01731Y01098*
X01732Y01098*
X01732Y01099*
X01732Y01099*
X01732Y01099*
X01732Y01099*
X01732Y01099*
X01733Y01099*
X01733Y011*
X01733Y011*
X01733Y011*
X01734Y011*
X01734Y011*
X01735Y01101*
X01735Y01101*
X01736Y01101*
X01736Y01101*
X01737Y01101*
X01737Y01101*
X01737Y01098*
G37*
G36*
X00396Y01209D02*
X00396D01*
X00396Y01209*
X00397Y01209*
X00397Y01209*
X00398Y01209*
X00398Y01209*
X00399Y01209*
X004Y01208*
X004*
X004Y01208*
X004Y01208*
X004Y01208*
X004Y01208*
X00401Y01208*
X00401Y01207*
X00402Y01207*
X00402Y01207*
X00403Y01206*
X00403Y01205*
Y01205*
X00403Y01205*
X00403Y01205*
X00403Y01205*
X00403Y01205*
X00403Y01205*
X00403Y01204*
X00404Y01204*
X00404Y01204*
X00404Y01203*
X00404Y01202*
X00404Y01201*
Y01201*
X00404Y01201*
X00404Y01201*
X00404Y012*
X00404Y012*
X00404Y01199*
X00404Y01199*
X00404Y01199*
X00403Y01198*
X00403Y01198*
X00403Y01197*
X00403Y01196*
X00402Y01196*
X00402Y01195*
X00401Y01195*
X00401Y01195*
X00401Y01195*
X00401Y01195*
X00401Y01195*
X004Y01194*
X004Y01194*
X004Y01194*
X00399Y01194*
X00398Y01194*
X00398Y01193*
X00397Y01193*
X00396Y01193*
X00395Y01193*
X00394Y01193*
X00393Y01193*
X00392Y01193*
X00392*
X00392*
X00392*
X00392*
X00391*
X00391Y01193*
X00391*
X00391Y01193*
X0039Y01193*
X00389Y01193*
X00389Y01193*
X00388Y01193*
X00387Y01193*
X00386Y01193*
X00385Y01193*
X00384Y01194*
X00383Y01194*
X00383Y01194*
X00382Y01195*
X00381Y01195*
X00381Y01195*
X00381Y01195*
X00381Y01195*
X00381Y01196*
X00381Y01196*
X0038Y01196*
X0038Y01197*
X0038Y01197*
X0038Y01197*
X00379Y01198*
X00379Y01198*
X00379Y01199*
X00379Y012*
X00378Y012*
X00378Y01201*
X00378Y01202*
Y01202*
X00378Y01202*
X00378Y01202*
X00378Y01203*
X00378Y01203*
X00379Y01203*
X00379Y01204*
X00379Y01204*
X00379Y01205*
X00379Y01205*
X0038Y01206*
X0038Y01206*
X0038Y01206*
X0038Y01207*
X0038Y01207*
X0038Y01207*
X0038Y01207*
X00381Y01207*
X00381Y01207*
X00381Y01207*
X00381Y01207*
X00382Y01208*
X00382Y01208*
X00382Y01208*
X00383Y01208*
X00383Y01208*
X00384Y01209*
X00384Y01209*
X00385Y01209*
X00385Y01206*
X00385*
X00385Y01206*
X00385Y01206*
X00385Y01206*
X00384Y01206*
X00384Y01205*
X00383Y01205*
X00383Y01205*
X00383Y01205*
X00382Y01205*
X00382Y01204*
X00382Y01204*
X00382Y01204*
X00382Y01204*
X00382Y01204*
X00382Y01204*
X00381Y01203*
X00381Y01203*
X00381Y01202*
X00381Y01202*
X00381Y01201*
Y01201*
X00381Y01201*
X00381Y01201*
X00381Y012*
X00381Y012*
X00381Y01199*
X00382Y01199*
Y01199*
X00382Y01199*
X00382Y01199*
X00382Y01199*
X00382Y01198*
X00383Y01198*
X00383Y01198*
X00384Y01197*
X00384Y01197*
X00385Y01196*
X00385*
X00385Y01196*
X00385Y01196*
X00385Y01196*
X00385Y01196*
X00386Y01196*
X00386Y01196*
X00386Y01196*
X00387Y01196*
X00387Y01196*
X00388Y01196*
X00388Y01196*
X00389Y01196*
X00389Y01196*
X0039Y01196*
X00391Y01196*
X00391*
X00391*
X00391*
X00391Y01196*
X0039Y01196*
X0039Y01196*
X0039Y01196*
X0039Y01196*
X00389Y01197*
X00389Y01197*
X00388Y01198*
X00388Y01198*
Y01198*
X00388Y01198*
X00388Y01198*
X00388Y01199*
X00388Y01199*
X00388Y01199*
X00388Y01199*
X00388Y012*
X00387Y012*
X00387Y01201*
X00387Y01202*
Y01202*
X00387Y01202*
Y01202*
X00387Y01203*
X00387Y01203*
X00387Y01203*
X00388Y01204*
X00388Y01204*
X00388Y01204*
X00388Y01205*
X00388Y01205*
X00389Y01206*
X00389Y01206*
X00389Y01207*
X0039Y01207*
X0039Y01207*
X0039Y01207*
X0039Y01207*
X0039Y01207*
X0039Y01208*
X0039Y01208*
X00391Y01208*
X00391Y01208*
X00392Y01208*
X00392Y01209*
X00393Y01209*
X00393Y01209*
X00394Y01209*
X00394Y01209*
X00395Y01209*
X00395Y01209*
X00395*
X00396*
X00396*
X00396Y01209*
G37*
G36*
X00396Y01188D02*
X00397D01*
X00397Y01188*
X00397Y01188*
X00398Y01188*
X00399Y01188*
X004Y01188*
X004Y01188*
X00401Y01188*
X00401*
X00401Y01188*
X00401Y01188*
X00401Y01188*
X00401Y01187*
X00402Y01187*
X00402Y01187*
X00402Y01186*
X00403Y01186*
X00403Y01185*
Y01185*
X00403Y01185*
X00403Y01185*
X00403Y01185*
X00403Y01185*
X00403Y01185*
X00404Y01184*
X00404Y01184*
X00404Y01184*
X00404Y01183*
X00404Y01182*
X00404Y01181*
Y01181*
X00404Y01181*
X00404Y01181*
X00404Y0118*
X00404Y0118*
X00404Y0118*
X00404Y01179*
X00404Y01179*
X00403Y01178*
X00403Y01178*
X00403Y01177*
X00403Y01177*
X00402Y01177*
X00402Y01176*
X00402Y01176*
X00402Y01176*
X00402Y01176*
X00402Y01176*
X00402Y01176*
X00401Y01176*
X00401Y01176*
X00401Y01175*
X004Y01175*
X004Y01175*
X00399Y01175*
X00399Y01175*
X00398Y01175*
X00398Y01175*
X00397Y01175*
X00397*
X00396Y01178*
X00396*
X00396*
X00396Y01178*
X00397*
X00397Y01178*
X00397Y01178*
X00398Y01178*
X00398Y01178*
X00399Y01178*
X00399Y01178*
X004Y01178*
X004Y01179*
X004Y01179*
X004Y01179*
X004Y01179*
X004Y01179*
X00401Y01179*
X00401Y0118*
X00401Y0118*
X00401Y01181*
X00401Y01181*
Y01182*
X00401Y01182*
X00401Y01182*
X00401Y01182*
X00401Y01183*
X00401Y01183*
X00401Y01184*
X004Y01184*
X004Y01184*
X004Y01184*
X004Y01184*
X004Y01184*
X004Y01184*
X00399Y01185*
X00399Y01185*
X00399Y01185*
X00399Y01185*
X00399Y01185*
X00398Y01185*
X00398Y01185*
X00397Y01185*
X00397Y01185*
X00396Y01185*
X00396*
X00378*
Y01188*
X00396*
X00396*
X00396*
X00396*
X00396*
X00396Y01188*
G37*
G36*
X01962Y0038D02*
Y0038D01*
Y0038*
Y0038*
Y0038*
X01962Y00379*
Y00379*
X01962Y00379*
X01962Y00378*
X01962Y00378*
X01962Y00377*
X01962Y00376*
X01962Y00376*
X01961Y00375*
Y00375*
X01961Y00375*
X01961Y00375*
X01961Y00375*
X01961Y00375*
X01961Y00374*
X0196Y00374*
X0196Y00373*
X0196Y00373*
X01959Y00373*
X01959*
X01959Y00373*
X01959Y00373*
X01959Y00372*
X01959Y00372*
X01958Y00372*
X01958Y00372*
X01958Y00372*
X01957Y00372*
X01957Y00372*
X01956Y00372*
X01955Y00372*
X01955*
X01955Y00372*
X01954Y00372*
X01954Y00372*
X01954Y00372*
X01953Y00372*
X01953Y00372*
X01952Y00372*
X01952Y00372*
X01952Y00372*
X01951Y00373*
X01951Y00373*
X0195Y00373*
X0195Y00374*
X0195Y00374*
X0195Y00374*
X0195Y00374*
X0195Y00374*
X0195Y00374*
X01949Y00374*
X01949Y00375*
X01949Y00375*
X01949Y00375*
X01949Y00376*
X01949Y00376*
X01949Y00377*
X01948Y00377*
X01948Y00378*
X01948Y00379*
Y00379*
X01951Y0038*
Y0038*
Y0038*
X01951Y00379*
Y00379*
X01951Y00379*
X01951Y00379*
X01951Y00378*
X01952Y00377*
X01952Y00377*
X01952Y00376*
X01952Y00376*
X01952Y00376*
X01952Y00376*
X01952Y00376*
X01953Y00376*
X01953Y00375*
X01953Y00375*
X01953Y00375*
X01954Y00375*
X01954Y00375*
X01955Y00375*
X01955*
X01955Y00375*
X01956Y00375*
X01956Y00375*
X01957Y00375*
X01957Y00375*
X01957Y00375*
X01957Y00375*
X01957Y00375*
X01958Y00375*
X01958Y00376*
X01958Y00376*
X01958Y00376*
X01958Y00376*
X01958Y00377*
X01959Y00377*
X01959Y00377*
X01959Y00377*
X01959Y00378*
X01959Y00378*
X01959Y00379*
X01959Y00379*
X01959Y0038*
Y0038*
Y00397*
X01962*
Y0038*
G37*
G36*
X01983Y00395D02*
X01983Y00395D01*
X01983Y00394*
X01983Y00394*
X01982Y00394*
X01982Y00394*
X01982Y00394*
X01982Y00393*
X01981Y00393*
X01981Y00392*
X01981Y00392*
X0198Y00391*
X0198Y00391*
X01979Y0039*
X01979Y00389*
X01979Y00389*
X01978Y00388*
X01978Y00388*
X01978Y00388*
X01978Y00387*
X01978Y00387*
X01977Y00387*
X01977Y00386*
X01977Y00386*
X01977Y00385*
X01976Y00384*
X01976Y00384*
X01976Y00383*
X01976Y00382*
X01975Y00381*
X01975Y00381*
X01974Y00379*
Y00379*
X01974Y00379*
X01974Y00379*
X01974Y00378*
X01974Y00378*
X01974Y00378*
X01974Y00377*
X01974Y00377*
X01974Y00376*
X01974Y00376*
X01974Y00375*
X01974Y00375*
X01973Y00374*
X01973Y00373*
X01973Y00372*
X0197*
Y00372*
Y00372*
Y00372*
X0197Y00373*
X0197Y00373*
X0197Y00373*
X0197Y00374*
X0197Y00374*
X0197Y00375*
X0197Y00375*
X0197Y00376*
X01971Y00376*
X01971Y00377*
X01971Y00378*
X01971Y00378*
X01971Y00379*
X01971Y00379*
X01971Y00379*
X01971Y0038*
X01971Y0038*
X01972Y0038*
X01972Y00381*
X01972Y00381*
X01972Y00382*
X01972Y00382*
X01973Y00383*
X01973Y00384*
X01973Y00384*
X01974Y00386*
X01974Y00387*
X01974Y00387*
X01975Y00388*
X01975Y00388*
X01975Y00388*
X01975Y00388*
X01975Y00389*
X01976Y00389*
X01976Y0039*
X01976Y0039*
X01976Y00391*
X01977Y00392*
X01978Y00393*
X01978Y00393*
X01979Y00394*
X01967*
Y00397*
X01983*
Y00395*
G37*
G36*
X01527Y0038D02*
Y0038D01*
Y0038*
Y0038*
Y0038*
X01526Y00379*
Y00379*
X01526Y00379*
X01526Y00378*
X01526Y00378*
X01526Y00377*
X01526Y00376*
X01526Y00376*
X01526Y00375*
Y00375*
X01526Y00375*
X01526Y00375*
X01526Y00375*
X01525Y00375*
X01525Y00374*
X01525Y00374*
X01524Y00373*
X01524Y00373*
X01523Y00373*
X01523*
X01523Y00373*
X01523Y00373*
X01523Y00372*
X01523Y00372*
X01523Y00372*
X01522Y00372*
X01522Y00372*
X01522Y00372*
X01521Y00372*
X0152Y00372*
X01519Y00372*
X01519*
X01519Y00372*
X01519Y00372*
X01518Y00372*
X01518Y00372*
X01518Y00372*
X01517Y00372*
X01517Y00372*
X01516Y00372*
X01516Y00372*
X01515Y00373*
X01515Y00373*
X01515Y00373*
X01514Y00374*
X01514Y00374*
X01514Y00374*
X01514Y00374*
X01514Y00374*
X01514Y00374*
X01514Y00374*
X01514Y00375*
X01513Y00375*
X01513Y00375*
X01513Y00376*
X01513Y00376*
X01513Y00377*
X01513Y00377*
X01513Y00378*
X01513Y00379*
Y00379*
X01516Y0038*
Y0038*
Y0038*
X01516Y00379*
Y00379*
X01516Y00379*
X01516Y00379*
X01516Y00378*
X01516Y00377*
X01516Y00377*
X01516Y00376*
X01516Y00376*
X01517Y00376*
X01517Y00376*
X01517Y00376*
X01517Y00376*
X01517Y00375*
X01517Y00375*
X01518Y00375*
X01518Y00375*
X01519Y00375*
X01519Y00375*
X0152*
X0152Y00375*
X0152Y00375*
X0152Y00375*
X01521Y00375*
X01521Y00375*
X01522Y00375*
X01522Y00375*
X01522Y00375*
X01522Y00375*
X01522Y00376*
X01522Y00376*
X01522Y00376*
X01523Y00376*
X01523Y00377*
X01523Y00377*
X01523Y00377*
X01523Y00377*
X01523Y00378*
X01523Y00378*
X01523Y00379*
X01523Y00379*
X01523Y0038*
Y0038*
Y00397*
X01527*
Y0038*
G37*
G36*
X01539Y00397D02*
X0154Y00397D01*
X0154Y00397*
X0154Y00397*
X01541Y00397*
X01541Y00397*
X01542Y00397*
X01542Y00397*
X01543Y00397*
X01543Y00396*
X01543Y00396*
X01544Y00396*
X01544Y00395*
X01544Y00395*
X01544Y00395*
X01544Y00395*
X01545Y00395*
X01545Y00395*
X01545Y00395*
X01545Y00394*
X01545Y00394*
X01545Y00394*
X01546Y00393*
X01546Y00393*
X01546Y00393*
X01546Y00392*
X01546Y00392*
X01546Y00391*
X01546Y00391*
Y00391*
Y00391*
Y00391*
Y00391*
X01546Y0039*
X01546Y0039*
X01546Y0039*
X01546Y00389*
X01546Y00389*
X01546Y00388*
X01545Y00388*
Y00388*
X01545Y00388*
X01545Y00388*
X01545Y00387*
X01545Y00387*
X01544Y00387*
X01544Y00386*
X01543Y00386*
X01543Y00386*
X01543*
X01543Y00386*
X01543Y00386*
X01543Y00386*
X01543Y00386*
X01543Y00385*
X01544Y00385*
X01544Y00385*
X01545Y00384*
X01546Y00384*
X01546Y00383*
X01546Y00383*
X01546Y00383*
X01546Y00383*
X01546Y00383*
X01546Y00383*
X01546Y00383*
X01547Y00382*
X01547Y00382*
X01547Y00382*
X01547Y00381*
X01547Y0038*
X01547Y0038*
Y00379*
Y00379*
Y00379*
X01547Y00379*
Y00379*
X01547Y00378*
X01547Y00378*
X01547Y00378*
X01547Y00377*
X01547Y00377*
X01547Y00377*
X01547Y00376*
X01546Y00376*
X01546Y00375*
X01546Y00375*
X01545Y00374*
X01545Y00374*
X01545Y00374*
X01545Y00374*
X01545Y00374*
X01545Y00374*
X01544Y00373*
X01544Y00373*
X01544Y00373*
X01543Y00373*
X01543Y00373*
X01542Y00372*
X01542Y00372*
X01541Y00372*
X01541Y00372*
X0154Y00372*
X0154Y00372*
X01539Y00372*
X01539*
X01539Y00372*
X01538*
X01538Y00372*
X01538Y00372*
X01537Y00372*
X01537Y00372*
X01536Y00372*
X01536Y00372*
X01535Y00372*
X01535Y00373*
X01534Y00373*
X01534Y00373*
X01533Y00374*
X01533Y00374*
X01533Y00374*
X01533Y00374*
X01533Y00374*
X01533Y00374*
X01532Y00375*
X01532Y00375*
X01532Y00375*
X01532Y00375*
X01532Y00376*
X01531Y00376*
X01531Y00377*
X01531Y00377*
X01531Y00378*
X01531Y00378*
X01531Y00379*
X01531Y00379*
Y00379*
Y0038*
Y0038*
X01531Y0038*
Y0038*
X01531Y0038*
X01531Y00381*
X01531Y00381*
X01531Y00381*
X01531Y00382*
X01531Y00383*
X01532Y00383*
X01532Y00383*
X01532Y00384*
X01532Y00384*
X01532Y00384*
X01532Y00384*
X01532Y00384*
X01532Y00384*
X01533Y00384*
X01533Y00384*
X01533Y00385*
X01534Y00385*
X01535Y00385*
X01535Y00386*
X01535*
X01535Y00386*
X01535Y00386*
X01535Y00386*
X01535Y00386*
X01535Y00386*
X01534Y00386*
X01534Y00387*
X01533Y00387*
X01533Y00387*
X01533Y00388*
Y00388*
X01533Y00388*
X01533Y00388*
X01532Y00388*
X01532Y00388*
X01532Y00389*
X01532Y00389*
X01532Y0039*
X01532Y0039*
X01532Y00391*
Y00391*
Y00391*
X01532Y00391*
Y00391*
X01532Y00392*
X01532Y00392*
X01532Y00392*
X01532Y00393*
X01532Y00393*
X01532Y00393*
X01532Y00394*
X01532Y00394*
X01533Y00394*
X01533Y00395*
X01533Y00395*
X01534Y00396*
X01534Y00396*
X01534Y00396*
X01534Y00396*
X01534Y00396*
X01534Y00396*
X01534Y00396*
X01535Y00396*
X01535Y00396*
X01535Y00397*
X01536Y00397*
X01536Y00397*
X01537Y00397*
X01537Y00397*
X01538Y00397*
X01538Y00397*
X01539Y00397*
X01539*
X01539Y00397*
G37*
G36*
X01091Y0038D02*
Y0038D01*
Y0038*
Y0038*
Y0038*
X01091Y00379*
Y00379*
X01091Y00379*
X01091Y00378*
X01091Y00378*
X01091Y00377*
X0109Y00376*
X0109Y00376*
X0109Y00375*
Y00375*
X0109Y00375*
X0109Y00375*
X0109Y00375*
X0109Y00375*
X01089Y00374*
X01089Y00374*
X01089Y00373*
X01088Y00373*
X01088Y00373*
X01088*
X01088Y00373*
X01087Y00373*
X01087Y00372*
X01087Y00372*
X01087Y00372*
X01087Y00372*
X01087Y00372*
X01086Y00372*
X01085Y00372*
X01085Y00372*
X01084Y00372*
X01083*
X01083Y00372*
X01083Y00372*
X01083Y00372*
X01082Y00372*
X01082Y00372*
X01081Y00372*
X01081Y00372*
X01081Y00372*
X0108Y00372*
X0108Y00373*
X01079Y00373*
X01079Y00373*
X01079Y00374*
X01079Y00374*
X01079Y00374*
X01078Y00374*
X01078Y00374*
X01078Y00374*
X01078Y00374*
X01078Y00375*
X01078Y00375*
X01078Y00375*
X01077Y00376*
X01077Y00376*
X01077Y00377*
X01077Y00377*
X01077Y00378*
X01077Y00379*
Y00379*
X0108Y0038*
Y0038*
Y0038*
X0108Y00379*
Y00379*
X0108Y00379*
X0108Y00379*
X0108Y00378*
X0108Y00377*
X0108Y00377*
X01081Y00376*
X01081Y00376*
X01081Y00376*
X01081Y00376*
X01081Y00376*
X01081Y00376*
X01081Y00375*
X01082Y00375*
X01082Y00375*
X01083Y00375*
X01083Y00375*
X01084Y00375*
X01084*
X01084Y00375*
X01084Y00375*
X01085Y00375*
X01085Y00375*
X01086Y00375*
X01086Y00375*
X01086Y00375*
X01086Y00375*
X01086Y00375*
X01086Y00376*
X01087Y00376*
X01087Y00376*
X01087Y00376*
X01087Y00377*
X01087Y00377*
X01087Y00377*
X01087Y00377*
X01087Y00378*
X01087Y00378*
X01087Y00379*
X01087Y00379*
X01088Y0038*
Y0038*
Y00397*
X01091*
Y0038*
G37*
G36*
X01103Y00397D02*
X01104D01*
X01104Y00397*
X01104Y00397*
X01104Y00397*
X01105Y00397*
X01106Y00397*
X01106Y00397*
X01107Y00396*
X01107Y00396*
X01107Y00396*
X01107Y00396*
X01107Y00396*
X01108Y00396*
X01108Y00396*
X01108Y00396*
X01108Y00396*
X01108Y00395*
X01109Y00395*
X01109Y00395*
X01109Y00395*
X01109Y00394*
X0111Y00394*
X0111Y00394*
X0111Y00393*
X0111Y00393*
X01111Y00392*
Y00392*
X01111Y00392*
X01111Y00392*
X01111Y00392*
X01111Y00392*
X01111Y00391*
X01111Y00391*
X01111Y0039*
X01111Y0039*
X01111Y00389*
X01111Y00389*
X01111Y00388*
X01111Y00388*
X01112Y00387*
X01112Y00386*
Y00385*
Y00385*
Y00385*
Y00385*
X01112Y00384*
Y00384*
X01112Y00384*
X01112Y00383*
X01111Y00382*
X01111Y00382*
X01111Y00381*
X01111Y0038*
X01111Y00379*
X01111Y00378*
X01111Y00378*
Y00377*
X0111Y00377*
X0111Y00377*
X0111Y00377*
X0111Y00377*
X0111Y00377*
X0111Y00376*
X0111Y00376*
X01109Y00375*
X01109Y00374*
X01108Y00374*
X01108Y00373*
X01107Y00373*
X01107Y00373*
X01107Y00373*
X01107Y00373*
X01107Y00373*
X01107Y00373*
X01107Y00373*
X01106Y00373*
X01106Y00372*
X01106Y00372*
X01105Y00372*
X01105Y00372*
X01104Y00372*
X01104Y00372*
X01103Y00372*
X01103Y00372*
X01102*
X01102Y00372*
X01102Y00372*
X01102Y00372*
X01101Y00372*
X01101Y00372*
X011Y00372*
X011Y00372*
X01099Y00372*
X01099Y00373*
X01098Y00373*
X01098Y00373*
X01098Y00373*
X01098Y00373*
X01098Y00373*
X01098Y00374*
X01097Y00374*
X01097Y00374*
X01097Y00374*
X01097Y00374*
X01097Y00375*
X01097Y00375*
X01096Y00375*
X01096Y00376*
X01096Y00376*
X01096Y00376*
X01096Y00377*
X01096Y00377*
X01096Y00378*
X01098Y00378*
Y00378*
X01099Y00378*
Y00378*
X01099Y00378*
X01099Y00378*
X01099Y00377*
X01099Y00377*
X01099Y00377*
X01099Y00376*
X011Y00376*
X011Y00375*
X011Y00375*
X011Y00375*
X011Y00375*
X011Y00375*
X01101Y00375*
X01101Y00375*
X01102Y00374*
X01102Y00374*
X01103Y00374*
X01103*
X01103Y00374*
X01103Y00374*
X01104Y00374*
X01104Y00375*
X01105Y00375*
X01105Y00375*
X01105Y00375*
X01105Y00375*
X01105Y00375*
X01106Y00375*
X01106Y00376*
X01106Y00376*
X01107Y00376*
X01107Y00377*
X01107Y00377*
X01107Y00377*
X01107Y00377*
X01107Y00377*
X01107Y00378*
X01108Y00378*
X01108Y00379*
X01108Y0038*
Y0038*
X01108Y0038*
X01108Y0038*
X01108Y0038*
X01108Y0038*
X01108Y0038*
X01108Y0038*
X01108Y00381*
X01108Y00381*
X01108Y00382*
X01108Y00383*
X01109Y00383*
Y00383*
Y00383*
Y00384*
Y00384*
X01108Y00384*
X01108Y00384*
X01108Y00384*
X01108Y00383*
X01108Y00383*
X01107Y00383*
X01107Y00382*
X01107Y00382*
X01106Y00382*
X01106*
X01106Y00382*
X01106Y00381*
X01106Y00381*
X01106Y00381*
X01105Y00381*
X01105Y00381*
X01104Y00381*
X01104Y00381*
X01103Y00381*
X01102Y00381*
X01102*
X01102Y00381*
X01102*
X01102Y00381*
X01101Y00381*
X01101Y00381*
X01101Y00381*
X011Y00381*
X011Y00381*
X01099Y00381*
X01099Y00382*
X01098Y00382*
X01098Y00382*
X01098Y00383*
X01097Y00383*
X01097Y00383*
X01097Y00383*
X01097Y00383*
X01097Y00383*
X01097Y00384*
X01097Y00384*
X01096Y00384*
X01096Y00385*
X01096Y00385*
X01096Y00385*
X01096Y00386*
X01095Y00386*
X01095Y00387*
X01095Y00388*
X01095Y00388*
X01095Y00389*
Y00389*
Y00389*
X01095Y00389*
Y00389*
X01095Y0039*
X01095Y0039*
X01095Y00391*
X01095Y00391*
X01095Y00392*
X01096Y00392*
X01096Y00393*
X01096Y00393*
X01096Y00394*
X01097Y00394*
X01097Y00395*
X01097Y00395*
X01097Y00395*
X01097Y00395*
X01098Y00395*
X01098Y00395*
X01098Y00396*
X01098Y00396*
X01098Y00396*
X01099Y00396*
X01099Y00396*
X011Y00397*
X011Y00397*
X01101Y00397*
X01101Y00397*
X01102Y00397*
X01102Y00397*
X01103Y00397*
X01103*
X01103Y00397*
G37*
G36*
X0159Y02751D02*
X01586D01*
Y02774*
X01574*
Y02777*
X0159*
Y02751*
G37*
G36*
X01572Y02777D02*
Y02776D01*
Y02776*
X01572Y02776*
X01572Y02776*
X01572Y02775*
X01571Y02775*
X01571Y02775*
Y02775*
X01571Y02774*
X01571Y02774*
X01571Y02774*
X01571Y02774*
X01571Y02774*
X01571Y02773*
X01571Y02773*
X0157Y02772*
X0157Y02772*
X01569Y02771*
X01569Y02771*
X01569Y02771*
X01569Y02771*
X01569Y02771*
X01569Y02771*
X01569Y02771*
X01569Y0277*
X01568Y0277*
X01568Y0277*
X01568Y0277*
X01567Y02769*
X01567Y02769*
X01567Y02769*
X01566Y02768*
X01566Y02768*
X01565Y02767*
X01565Y02767*
X01565Y02767*
X01565Y02767*
X01565Y02767*
X01564Y02767*
X01564Y02766*
X01563Y02766*
X01563Y02765*
X01562Y02765*
X01561Y02764*
X01561Y02763*
X0156Y02763*
X0156Y02762*
X0156Y02762*
X0156Y02762*
X0156Y02762*
X0156Y02762*
X01559Y02762*
X01559Y02762*
X01559Y02761*
X01559Y02761*
X01559Y0276*
X01558Y0276*
X01558Y02759*
X01558Y02759*
X01558Y02758*
Y02758*
Y02758*
Y02758*
X01558Y02758*
Y02758*
X01558Y02758*
X01558Y02757*
X01559Y02757*
X01559Y02756*
X01559Y02756*
X01559Y02756*
X01559Y02755*
X0156Y02755*
X0156Y02755*
X0156Y02755*
X0156Y02755*
X0156Y02755*
X0156Y02755*
X0156Y02755*
X0156Y02755*
X01561Y02754*
X01562Y02754*
X01562Y02754*
X01563Y02754*
X01563*
X01563Y02754*
X01564*
X01564Y02754*
X01564Y02754*
X01565Y02754*
X01565Y02755*
X01566Y02755*
X01566Y02755*
X01566Y02755*
X01567Y02755*
X01567Y02755*
X01567Y02755*
X01567Y02755*
X01567Y02756*
X01567Y02756*
X01567Y02756*
X01567Y02756*
X01567Y02756*
X01567Y02757*
X01568Y02757*
X01568Y02757*
X01568Y02758*
X01568Y02759*
X01568Y02759*
X01571Y02759*
Y02759*
X01571Y02759*
X01571Y02758*
X01571Y02758*
X01571Y02758*
X01571Y02757*
X01571Y02757*
X01571Y02757*
X01571Y02756*
X0157Y02756*
X0157Y02755*
X0157Y02755*
X0157Y02754*
X01569Y02754*
X01569Y02754*
X01569Y02753*
X01569Y02753*
X01569Y02753*
X01568Y02753*
X01568Y02753*
X01568Y02753*
X01568Y02753*
X01568Y02753*
X01567Y02752*
X01567Y02752*
X01566Y02752*
X01566Y02752*
X01565Y02752*
X01565Y02752*
X01564Y02751*
X01564Y02751*
X01563Y02751*
X01563*
X01562Y02751*
X01562Y02751*
X01562Y02752*
X01561Y02752*
X01561Y02752*
X0156Y02752*
X0156Y02752*
X01559Y02752*
X01559Y02752*
X01558Y02752*
X01558Y02753*
X01558Y02753*
X01557Y02753*
X01557Y02753*
X01557Y02753*
X01557Y02754*
X01557Y02754*
X01557Y02754*
X01557Y02754*
X01556Y02754*
X01556Y02755*
X01556Y02755*
X01556Y02756*
X01556Y02756*
X01555Y02756*
X01555Y02757*
X01555Y02757*
X01555Y02758*
X01555Y02758*
Y02758*
Y02758*
Y02759*
Y02759*
X01555Y02759*
X01555Y02759*
X01555Y0276*
X01555Y0276*
X01555Y02761*
X01556Y02761*
Y02761*
X01556Y02761*
X01556Y02762*
X01556Y02762*
X01556Y02762*
X01556Y02762*
X01556Y02763*
X01557Y02763*
X01557Y02764*
X01558Y02764*
X01558Y02764*
X01558Y02765*
X01558Y02765*
X01558Y02765*
X01558Y02765*
X01558Y02765*
X01559Y02765*
X01559Y02766*
X01559Y02766*
X0156Y02766*
X0156Y02767*
X0156Y02767*
X01561Y02767*
X01561Y02768*
X01562Y02768*
X01563Y02769*
X01563Y02769*
X01563Y02769*
X01563Y02769*
X01563Y02769*
X01563Y02769*
X01563Y0277*
X01564Y0277*
X01565Y02771*
X01565Y02771*
X01565Y02771*
X01566Y02772*
X01566Y02772*
X01566Y02772*
X01566Y02772*
X01566Y02772*
X01566Y02772*
X01567Y02773*
X01567Y02773*
X01567Y02773*
X01567Y02774*
X01555*
Y02777*
X01572*
Y02777*
G37*
G36*
X01436Y0277D02*
X01436Y0277D01*
X01436Y0277*
X01436Y0277*
X01436Y0277*
X01437Y02771*
X01437Y02771*
X01438Y02772*
X01439Y02772*
X01439*
X01439Y02772*
X01439Y02772*
X01439Y02772*
X01439Y02772*
X01439Y02772*
X0144Y02773*
X0144Y02773*
X01441Y02773*
X01441Y02773*
X01442Y02774*
Y02771*
X01442Y02771*
X01442Y02771*
X01442Y0277*
X01441Y0277*
X01441Y0277*
X01441Y0277*
X01441Y0277*
X0144Y0277*
X0144Y02769*
X01439Y02769*
X01438Y02768*
X01437Y02768*
X01437Y02768*
X01437Y02768*
X01437Y02767*
X01437Y02767*
X01437Y02767*
X01437Y02767*
X01436Y02767*
X01436Y02766*
X01435Y02765*
X01435Y02765*
X01435Y02764*
X01433*
Y0279*
X01436*
Y0277*
G37*
G36*
X01448Y02791D02*
X01448Y02791D01*
X01448Y02791*
X01449Y02791*
X01449Y02791*
X01449Y02791*
X0145Y02791*
X0145Y0279*
X0145Y0279*
X01451Y0279*
X01452Y02789*
X01453Y02788*
X01453Y02788*
X01453Y02788*
X01454Y02789*
X01454Y02789*
X01454Y02789*
X01454Y02789*
X01455Y02789*
X01455Y02789*
X01456Y02789*
X01456Y02789*
X01457Y0279*
X01457Y0279*
X01458Y0279*
X01459Y0279*
X0146Y0279*
X0146*
X0146Y0279*
X0146Y0279*
X01461Y0279*
X01461Y0279*
X01462Y0279*
X01462Y0279*
X01463Y0279*
X01463Y02789*
X01464Y02789*
X01464Y02789*
X01465Y02789*
X01465Y02789*
X01466Y02788*
X01466Y02788*
X01466Y02788*
X01466Y02788*
X01466Y02788*
X01466Y02788*
X01467Y02788*
X01467Y02787*
X01467Y02787*
X01468Y02787*
X01468Y02786*
X01468Y02786*
X01469Y02786*
X01469Y02785*
X01469Y02785*
X0147Y02784*
X0147Y02784*
X0147Y02784*
X0147Y02784*
X0147Y02783*
X0147Y02783*
X0147Y02783*
X0147Y02783*
X01471Y02782*
X01471Y02782*
X01471Y02781*
X01471Y02781*
X01471Y0278*
X01471Y0278*
X01471Y02779*
X01471Y02778*
X01471Y02778*
X01472Y02777*
Y02777*
Y02777*
Y02777*
X01471Y02776*
X01471Y02776*
X01471Y02776*
X01471Y02775*
X01471Y02775*
X01471Y02774*
X01471Y02774*
X01471Y02772*
X01471Y02772*
X0147Y02771*
X0147Y02771*
X0147Y0277*
X0147Y0277*
X0147Y0277*
X0147Y0277*
X0147Y0277*
X0147Y02769*
X01469Y02769*
X01469Y02769*
X01469Y02768*
X01469Y02768*
X01468Y02768*
X01468Y02767*
X01468Y02767*
X01467Y02766*
X01467Y02766*
X01466Y02766*
X01466Y02765*
X01466Y02765*
X01466Y02765*
X01465Y02765*
X01465Y02765*
X01465Y02765*
X01465Y02765*
X01464Y02765*
X01464Y02765*
X01463Y02765*
X01463Y02764*
X01462Y02764*
X01462Y02764*
X01461Y02764*
X01461Y02764*
X0146Y02764*
X01459Y02764*
X01459*
X01459Y02764*
X01459Y02764*
X01458Y02764*
X01458Y02764*
X01457Y02764*
X01457Y02764*
X01456Y02764*
X01456Y02764*
X01455Y02765*
X01455Y02765*
X01454Y02765*
X01454Y02765*
X01453Y02766*
X01453Y02766*
X01453Y02766*
X01453Y02766*
X01453Y02766*
X01452Y02766*
X01452Y02766*
X01452Y02766*
X01452Y02767*
X01451Y02767*
X01451Y02767*
X01451Y02768*
X0145Y02768*
X0145Y02769*
X01449Y02769*
X01449Y0277*
X01449Y0277*
X01449Y0277*
X01449Y0277*
X01449Y0277*
X01449Y02771*
X01449Y02771*
X01448Y02771*
X01448Y02772*
X01448Y02772*
X01448Y02773*
X01448Y02773*
X01448Y02774*
X01448Y02774*
X01448Y02775*
X01447Y02776*
X01447Y02776*
X01447Y02777*
Y02777*
Y02777*
Y02777*
X01447Y02777*
Y02778*
X01447Y02778*
X01447Y02778*
X01448Y02779*
X01448Y02779*
X01448Y0278*
X01448Y02781*
X01448Y02782*
X01448Y02782*
Y02783*
X01448Y02783*
X01448Y02783*
X01449Y02783*
X01449Y02783*
X01449Y02783*
X01449Y02784*
X01449Y02784*
X01449Y02785*
X0145Y02785*
X01451Y02786*
X01451Y02787*
X01451Y02787*
X01451Y02787*
X01451Y02787*
X01451Y02787*
X01451Y02787*
X0145Y02787*
X0145Y02788*
X0145Y02788*
X01449Y02788*
X01448Y02788*
X01448Y02789*
X01447Y02789*
X01448Y02791*
X01448*
X01448Y02791*
G37*
%LNstrwl-p01-v01-2*%
%LPC*%
G36*
X00396Y01206D02*
X00396D01*
X00396*
X00395*
X00395Y01206*
X00395Y01206*
X00395Y01206*
X00394Y01206*
X00394Y01206*
X00394Y01206*
X00393Y01205*
X00392Y01205*
X00392Y01205*
X00392Y01205*
X00392Y01205*
X00392Y01205*
X00391Y01205*
X00391Y01204*
X00391Y01204*
X00391Y01204*
X00391Y01204*
X00391Y01204*
X00391Y01203*
X0039Y01203*
X0039Y01202*
X0039Y01201*
X0039Y01201*
Y01201*
X0039Y01201*
X0039Y01201*
X0039Y012*
X0039Y012*
X0039Y01199*
X00391Y01199*
X00391Y01198*
X00391Y01198*
X00391Y01198*
X00392Y01198*
X00392Y01198*
X00392Y01197*
X00392Y01197*
X00392Y01197*
X00392Y01197*
X00392Y01197*
X00392Y01197*
X00393Y01197*
X00393Y01197*
X00393Y01197*
X00394Y01196*
X00395Y01196*
X00395Y01196*
X00395Y01196*
X00396*
X00396*
X00396*
X00396*
X00396Y01196*
X00396*
X00396Y01196*
X00397Y01196*
X00397Y01196*
X00398Y01197*
X00399Y01197*
X00399*
X00399Y01197*
X00399Y01197*
X00399Y01197*
X00399Y01197*
X00399Y01197*
X004Y01198*
X004Y01198*
X004Y01198*
X00401Y01199*
Y01199*
X00401Y01199*
X00401Y01199*
X00401Y01199*
X00401Y01199*
X00401Y012*
X00401Y012*
X00401Y01201*
X00402Y01201*
Y01201*
X00401Y01202*
X00401Y01202*
X00401Y01202*
X00401Y01202*
X00401Y01203*
X00401Y01203*
X00401Y01203*
X00401Y01204*
X004Y01204*
X004Y01204*
X004Y01205*
X004Y01205*
X004Y01205*
X004Y01205*
X004Y01205*
X00399Y01205*
X00399Y01205*
X00399Y01205*
X00399Y01205*
X00399Y01205*
X00398Y01206*
X00398Y01206*
X00397Y01206*
X00397Y01206*
X00397Y01206*
X00396Y01206*
X00396Y01206*
G37*
G36*
X01539Y00395D02*
X01539D01*
X01539Y00395*
X01538*
X01538Y00395*
X01538Y00395*
X01537Y00395*
X01537Y00394*
X01536Y00394*
X01536Y00394*
X01536Y00394*
X01536Y00394*
X01536Y00393*
X01535Y00393*
X01535Y00393*
X01535Y00392*
X01535Y00392*
X01535Y00391*
Y00391*
Y00391*
Y00391*
X01535Y00391*
Y00391*
X01535Y0039*
X01535Y0039*
X01535Y00389*
X01535Y00389*
X01536Y00389*
X01536Y00388*
X01536Y00388*
X01536Y00388*
X01536Y00388*
X01537Y00388*
X01537Y00387*
X01538Y00387*
X01538Y00387*
X01539Y00387*
X01539*
X01539Y00387*
X01539*
X0154Y00387*
X0154Y00387*
X0154Y00387*
X01541Y00387*
X01541Y00388*
X01542Y00388*
X01542Y00388*
X01542Y00388*
X01542Y00389*
X01542Y00389*
X01543Y00389*
X01543Y0039*
X01543Y0039*
X01543Y00391*
Y00391*
Y00391*
Y00391*
X01543Y00391*
X01543Y00391*
X01543Y00392*
X01543Y00392*
X01543Y00393*
X01542Y00393*
X01542Y00393*
X01542Y00394*
Y00394*
X01542Y00394*
X01542Y00394*
X01541Y00394*
X01541Y00394*
X01541Y00394*
X0154Y00395*
X0154Y00395*
X01539Y00395*
G37*
G36*
X01539Y00384D02*
X01539D01*
X01539Y00384*
X01538Y00384*
X01538Y00384*
X01538Y00384*
X01537Y00384*
X01536Y00384*
X01536Y00384*
X01536Y00383*
X01536Y00383*
X01535Y00383*
X01535Y00383*
X01535Y00383*
X01535Y00383*
X01535Y00383*
X01535Y00383*
X01535Y00382*
X01535Y00382*
X01535Y00382*
X01534Y00381*
X01534Y00381*
X01534Y0038*
X01534Y0038*
X01534Y00379*
Y00379*
Y00379*
Y00379*
X01534Y00379*
X01534Y00379*
X01534Y00378*
X01534Y00378*
X01534Y00377*
X01534Y00377*
X01534Y00377*
X01535Y00377*
X01535Y00376*
X01535Y00376*
X01535Y00376*
X01535Y00375*
X01536Y00375*
X01536Y00375*
X01536*
X01536Y00375*
X01537Y00375*
X01537Y00375*
X01537Y00375*
X01537Y00374*
X01538Y00374*
X01538Y00374*
X01539Y00374*
X01539*
X01539Y00374*
X0154Y00374*
X0154Y00374*
X0154Y00374*
X01541Y00375*
X01541Y00375*
X01542Y00375*
X01542Y00375*
X01542Y00375*
X01543Y00376*
X01543Y00376*
X01543Y00376*
X01543Y00376*
X01543Y00376*
X01543Y00376*
X01543Y00376*
X01543Y00376*
X01543Y00377*
X01544Y00377*
X01544Y00378*
X01544Y00378*
X01544Y00379*
X01544Y00379*
Y00379*
Y00379*
Y00379*
X01544Y0038*
X01544Y0038*
X01544Y0038*
X01544Y00381*
X01544Y00381*
X01543Y00382*
X01543Y00382*
X01543Y00382*
X01543Y00383*
X01543Y00383*
X01543Y00383*
X01543Y00383*
X01542Y00383*
X01542Y00383*
X01542Y00383*
X01542Y00383*
X01542Y00384*
X01542Y00384*
X01541Y00384*
X0154Y00384*
X0154Y00384*
X01539Y00384*
X01539Y00384*
G37*
G36*
X01103Y00395D02*
X01103D01*
X01103Y00395*
X01103Y00395*
X01103Y00395*
X01102Y00395*
X01102Y00394*
X01101Y00394*
X01101Y00394*
X01101Y00394*
X011Y00394*
X011Y00393*
X011Y00393*
X011Y00393*
X011Y00393*
X011Y00393*
X01099Y00393*
X01099Y00393*
X01099Y00392*
X01099Y00392*
X01099Y00392*
X01099Y00392*
X01099Y00391*
X01099Y00391*
X01098Y00391*
X01098Y0039*
X01098Y00389*
X01098Y00389*
Y00389*
Y00389*
Y00389*
X01098Y00388*
X01098Y00388*
X01098Y00388*
X01098Y00387*
X01099Y00387*
X01099Y00386*
X01099Y00386*
X01099Y00385*
X01099Y00385*
X011Y00385*
X011Y00385*
X011Y00385*
X011Y00385*
X011Y00385*
X011Y00385*
X011Y00384*
X011Y00384*
X01101Y00384*
X01101Y00384*
X01102Y00384*
X01102Y00383*
X01103Y00383*
X01103Y00383*
X01103*
X01104Y00383*
X01104Y00383*
X01104Y00383*
X01104Y00384*
X01105Y00384*
X01106Y00384*
X01106Y00384*
X01106Y00384*
X01106Y00385*
X01107Y00385*
X01107Y00385*
X01107Y00385*
X01107Y00385*
X01107Y00385*
X01107Y00385*
X01107Y00385*
X01107Y00386*
X01107Y00386*
X01108Y00386*
X01108Y00387*
X01108Y00387*
X01108Y00387*
X01108Y00388*
X01108Y00388*
X01108Y00389*
X01108Y00389*
Y00389*
Y00389*
Y00389*
X01108Y00389*
X01108Y0039*
X01108Y0039*
X01108Y0039*
X01108Y00391*
X01108Y00391*
X01108Y00392*
X01107Y00392*
X01107Y00393*
X01107Y00393*
X01107Y00393*
X01107Y00393*
X01107Y00393*
X01107Y00393*
X01106Y00393*
X01106Y00394*
X01106Y00394*
X01106Y00394*
X01105Y00394*
X01105Y00395*
X01104Y00395*
X01104Y00395*
X01104Y00395*
X01103Y00395*
G37*
G36*
X01459Y02787D02*
X01459D01*
X01459Y02787*
X01459*
X01458Y02787*
X01458Y02787*
X01457Y02787*
X01457Y02787*
X01456Y02786*
X01456*
X01456Y02786*
X01456Y02786*
X01456Y02786*
X01456Y02786*
X01457Y02786*
X01457Y02786*
X01458Y02786*
X01458Y02785*
X01459Y02785*
X01459Y02785*
X01459Y02783*
X01459*
X01458Y02783*
X01458Y02783*
X01458Y02783*
X01458Y02783*
X01458Y02783*
X01457Y02783*
X01457Y02783*
X01456Y02783*
X01455Y02784*
X01455Y02784*
X01454Y02785*
X01454Y02785*
X01454Y02785*
X01454Y02785*
X01453Y02784*
X01453Y02784*
X01453Y02784*
X01453Y02783*
X01452Y02783*
X01452Y02782*
X01452Y02782*
X01452Y02781*
X01451Y0278*
X01451Y0278*
X01451Y02779*
X01451Y02778*
X01451Y02777*
Y02777*
Y02777*
Y02777*
X01451Y02776*
Y02776*
X01451Y02776*
X01451Y02775*
X01451Y02775*
X01451Y02774*
X01451Y02773*
X01452Y02772*
X01452Y02772*
Y02772*
X01452Y02771*
X01452Y02771*
X01452Y02771*
X01452Y02771*
X01452Y02771*
X01453Y0277*
X01453Y0277*
X01454Y02769*
X01454Y02769*
X01455Y02768*
X01455Y02768*
X01455Y02768*
X01455Y02768*
X01455Y02768*
X01455Y02768*
X01456Y02768*
X01456Y02767*
X01456Y02767*
X01457Y02767*
X01457Y02767*
X01458Y02767*
X01459Y02767*
X01459Y02767*
X0146*
X0146Y02767*
X0146*
X0146Y02767*
X01461Y02767*
X01461Y02767*
X01462Y02767*
X01462Y02767*
X01463Y02767*
X01463Y02768*
X01464Y02768*
X01464Y02768*
X01465Y02768*
X01465Y02769*
X01466Y02769*
X01466Y02769*
X01466Y02769*
X01466Y0277*
X01466Y0277*
X01466Y0277*
X01466Y0277*
X01467Y02771*
X01467Y02771*
X01467Y02772*
X01467Y02772*
X01467Y02773*
X01468Y02774*
X01468Y02774*
X01468Y02775*
X01468Y02776*
X01468Y02777*
Y02777*
Y02777*
X01468Y02777*
Y02778*
X01468Y02778*
X01468Y02779*
X01468Y02779*
X01468Y0278*
X01468Y0278*
X01467Y02781*
X01467Y02782*
X01467Y02782*
X01467Y02783*
X01466Y02783*
X01466Y02784*
X01466Y02784*
X01466Y02784*
X01466Y02785*
X01465Y02785*
X01465Y02785*
X01465Y02785*
X01465Y02785*
X01464Y02786*
X01464Y02786*
X01464Y02786*
X01463Y02786*
X01463Y02786*
X01462Y02787*
X01461Y02787*
X01461Y02787*
X0146Y02787*
X01459Y02787*
G37*
%LNstrwl-p01-v01-3*%
%LPD*%
G54D13*
X01807Y01024D02*
Y01227D01*
X01654Y01024D02*
X01807D01*
X01654D02*
Y01227D01*
X01807*
X00219Y0093D02*
X00589D01*
Y01419*
X00219D02*
X00589D01*
X00219Y0093D02*
Y01419D01*
X01744Y00187D02*
Y00557D01*
Y00187D02*
X02153D01*
Y00557*
X01744D02*
X02153D01*
X01308Y00187D02*
Y00557D01*
Y00187D02*
X01717D01*
Y00557*
X01308D02*
X01717D01*
X00872Y00187D02*
Y00557D01*
Y00187D02*
X01282D01*
Y00557*
X00872D02*
X01282D01*
X01536Y02752D02*
X01643D01*
X01536D02*
Y02817D01*
X01643*
Y02752D02*
Y02817D01*
X01519Y02736D02*
Y02843D01*
X01424Y02736D02*
X01519D01*
X01424D02*
Y02843D01*
X01519*
M02*