%FSTAX23Y23*%
%MOIN*%
%SFA1B1*%

%IPPOS*%
%ADD95C,0.002000*%
%LNstrwl-p01-v01-1*%
%LPD*%
G54D95*
X00296Y02636D02*
X00321D01*
X00309Y02623D02*
Y02648D01*
X00346Y02636D02*
X00371D01*
X00359Y02623D02*
Y02648D01*
X00346Y02586D02*
X00371D01*
X00359Y02573D02*
Y02598D01*
X00296Y02586D02*
X00321D01*
X00309Y02573D02*
Y02598D01*
X00296Y02536D02*
X00321D01*
X00309Y02523D02*
Y02548D01*
X00346Y02536D02*
X00371D01*
X00359Y02523D02*
Y02548D01*
X00346Y02686D02*
X00371D01*
X00359Y02673D02*
Y02698D01*
X00296Y02686D02*
X00321D01*
X00309Y02673D02*
Y02698D01*
X00296Y02736D02*
X00321D01*
X00309Y02723D02*
Y02748D01*
X00346Y02736D02*
X00371D01*
X00359Y02723D02*
Y02748D01*
X02367Y02632D02*
X02403D01*
X02385Y02614D02*
Y0265D01*
X02367Y02732D02*
X02403D01*
X02385Y02714D02*
Y0275D01*
X02367Y02832D02*
X02403D01*
X02385Y02814D02*
Y0285D01*
X00328Y03083D02*
X00454D01*
X00391Y0302D02*
Y03146D01*
X02562Y03083D02*
X02688D01*
X02625Y0302D02*
Y03146D01*
X00668Y00319D02*
X00793D01*
X00731Y00256D02*
Y00381D01*
X02261Y00319D02*
X02386D01*
X02324Y00256D02*
Y00381D01*
X01591Y01964D02*
X01599D01*
X01595Y0196D02*
Y01968D01*
X01527Y02003D02*
X01535D01*
X01531Y01999D02*
Y02006D01*
X01505Y01878D02*
X01513D01*
X01509Y01874D02*
Y01882D01*
X01739Y02202D02*
X01746D01*
X01743Y02198D02*
Y02206D01*
X01739Y0214D02*
X01746D01*
X01743Y02136D02*
Y02143D01*
X01451Y01939D02*
X01459D01*
X01455Y01936D02*
Y01943D01*
X01393Y0188D02*
X01401D01*
X01397Y01876D02*
Y01884D01*
X00663Y00518D02*
X00671D01*
X00667Y00514D02*
Y00521D01*
X00475Y00518D02*
X00482D01*
X00479Y00514D02*
Y00521D01*
X00435Y00313D02*
X00442D01*
X00439Y00309D02*
Y00316D01*
X01128Y01188D02*
X01135D01*
X01132Y01184D02*
Y01191D01*
X01161Y01515D02*
X01168D01*
X01165Y01511D02*
Y01518D01*
X02042Y01115D02*
X0205D01*
X02046Y01111D02*
Y01119D01*
X02042Y01255D02*
X0205D01*
X02046Y01251D02*
Y01259D01*
X01674Y00826D02*
X01681D01*
X01678Y00822D02*
Y0083D01*
X01617Y01226D02*
X01625D01*
X01621Y01222D02*
Y0123D01*
X01727Y0122D02*
X01735D01*
X01731Y01216D02*
Y01224D01*
X01864Y01711D02*
X01872D01*
X01868Y01707D02*
Y01715D01*
X01907Y01653D02*
X01915D01*
X01911Y01649D02*
Y01657D01*
X01179Y01016D02*
X01187D01*
X01183Y01012D02*
Y0102D01*
X01757Y01698D02*
X01764D01*
X01761Y01694D02*
Y01701D01*
X01697Y01731D02*
X01705D01*
X01701Y01727D02*
Y01735D01*
X02098Y0199D02*
X02106D01*
X02102Y01986D02*
Y01993D01*
X01988Y01866D02*
X01996D01*
X01992Y01862D02*
Y0187D01*
X01008Y02508D02*
X01015D01*
X01012Y02504D02*
Y02511D01*
X01008Y02392D02*
X01016D01*
X01012Y02388D02*
Y02396D01*
X01309Y02281D02*
X01316D01*
X01312Y02277D02*
Y02285D01*
X00415Y02315D02*
X00423D01*
X00419Y02311D02*
Y02319D01*
X00501Y02666D02*
X00509D01*
X00505Y02662D02*
Y0267D01*
X01543Y02364D02*
X01551D01*
X01547Y0236D02*
Y02368D01*
X01166Y02489D02*
X01174D01*
X0117Y02485D02*
Y02493D01*
X01434Y02202D02*
X01442D01*
X01438Y02198D02*
Y02206D01*
X01436Y0218D02*
X01444D01*
X0144Y02176D02*
Y02184D01*
X01195Y02166D02*
X01202D01*
X01199Y02162D02*
Y02169D01*
X01195Y02186D02*
X01202D01*
X01199Y02182D02*
Y0219D01*
X02597Y00744D02*
X02605D01*
X02601Y0074D02*
Y00748D01*
X00436Y01293D02*
X00444D01*
X0044Y01289D02*
Y01297D01*
X01828Y0199D02*
X01836D01*
X01832Y01986D02*
Y01993D01*
X01876Y02003D02*
X01883D01*
X0188Y01999D02*
Y02006D01*
X01058Y01514D02*
X01066D01*
X01062Y01511D02*
Y01518D01*
X00425Y00665D02*
X00433D01*
X00429Y00661D02*
Y00669D01*
X01789Y02636D02*
X01797D01*
X01793Y02632D02*
Y02639D01*
X01817Y02784D02*
X01824D01*
X01821Y0278D02*
Y02788D01*
X01072Y01188D02*
X01079D01*
X01076Y01184D02*
Y01191D01*
X01283Y01361D02*
X01291D01*
X01287Y01357D02*
Y01364D01*
X01369Y01215D02*
X01377D01*
X01373Y01211D02*
Y01218D01*
X01498Y00823D02*
X01506D01*
X01502Y00819D02*
Y00827D01*
X01411Y00858D02*
X01419D01*
X01415Y00854D02*
Y00862D01*
X01226Y00858D02*
X01234D01*
X0123Y00854D02*
Y00862D01*
X01034Y01158D02*
X01042D01*
X01038Y01154D02*
Y01162D01*
X00661Y01177D02*
X00669D01*
X00665Y01174D02*
Y01181D01*
X00432Y02012D02*
X00439D01*
X00436Y02008D02*
Y02016D01*
X01817Y01757D02*
X01825D01*
X01821Y01753D02*
Y01761D01*
X01585Y02859D02*
X01593D01*
X01589Y02856D02*
Y02863D01*
X01376Y02829D02*
X01384D01*
X0138Y02825D02*
Y02833D01*
X00807Y02877D02*
X00815D01*
X00811Y02873D02*
Y0288D01*
X01231Y02318D02*
X01238D01*
X01235Y02314D02*
Y02321D01*
X00916Y02599D02*
X00924D01*
X0092Y02595D02*
Y02603D01*
X00904Y02781D02*
X00912D01*
X00908Y02777D02*
Y02785D01*
X01025Y02783D02*
X01033D01*
X01029Y02779D02*
Y02787D01*
X01085Y02783D02*
X01093D01*
X01089Y02779D02*
Y02787D01*
X01145Y02781D02*
X01153D01*
X01149Y02777D02*
Y02785D01*
X00965Y02781D02*
X00972D01*
X00969Y02777D02*
Y02785D01*
X00384Y02146D02*
X00391D01*
X00388Y02142D02*
Y02149D01*
X00708Y0215D02*
X00715D01*
X00712Y02146D02*
Y02153D01*
X00709Y01697D02*
X00716D01*
X00713Y01693D02*
Y017D01*
X0169Y02615D02*
X01698D01*
X01694Y02611D02*
Y02618D01*
X02124Y02336D02*
X02131D01*
X02128Y02332D02*
Y02339D01*
X01068Y02968D02*
X01075D01*
X01072Y02964D02*
Y02971D01*
X02005Y02603D02*
X02013D01*
X02009Y02599D02*
Y02606D01*
X02026Y02594D02*
X02033D01*
X0203Y0259D02*
Y02597D01*
X01908Y02503D02*
X01916D01*
X01912Y02499D02*
Y02507D01*
X01939Y02506D02*
X01947D01*
X01943Y02503D02*
Y0251D01*
X01813Y02578D02*
X01821D01*
X01817Y02574D02*
Y02582D01*
X01828Y02562D02*
X01836D01*
X01832Y02558D02*
Y02566D01*
X01334Y02041D02*
X01342D01*
X01338Y02037D02*
Y02045D01*
X01271Y02078D02*
X01278D01*
X01275Y02074D02*
Y02081D01*
X01065Y01881D02*
X01072D01*
X01069Y01877D02*
Y01885D01*
X01274Y019D02*
X01282D01*
X01278Y01896D02*
Y01904D01*
X01245Y01987D02*
X01253D01*
X01249Y01983D02*
Y01991D01*
X01271Y02032D02*
X01278D01*
X01275Y02028D02*
Y02035D01*
X01527Y02898D02*
X01535D01*
X01531Y02895D02*
Y02902D01*
X01736Y01716D02*
X01744D01*
X0174Y01712D02*
Y0172D01*
X01551Y02058D02*
X01559D01*
X01555Y02054D02*
Y02062D01*
X01537Y02043D02*
X01545D01*
X01541Y02039D02*
Y02047D01*
X01061Y02857D02*
X01068D01*
X01065Y02853D02*
Y02861D01*
X01096Y02898D02*
X01103D01*
X01099Y02895D02*
Y02902D01*
X0105Y01968D02*
X01058D01*
X01054Y01964D02*
Y01971D01*
X00904Y01968D02*
X00912D01*
X00908Y01964D02*
Y01971D01*
X00383Y01697D02*
X0039D01*
X00387Y01693D02*
Y017D01*
X01272Y0271D02*
X01279D01*
X01276Y02706D02*
Y02713D01*
X01245Y02737D02*
X01253D01*
X01249Y02733D02*
Y0274D01*
X01303Y02692D02*
X01311D01*
X01307Y02688D02*
Y02696D01*
X01331Y02658D02*
X01338D01*
X01335Y02654D02*
Y02661D01*
X01965Y02121D02*
X01972D01*
X01969Y02117D02*
Y02124D01*
X02016Y02194D02*
X02024D01*
X0202Y0219D02*
Y02198D01*
X01271Y02866D02*
X01279D01*
X01275Y02862D02*
Y0287D01*
X0133Y02817D02*
X01338D01*
X01334Y02813D02*
Y02821D01*
X01245Y02892D02*
X01253D01*
X01249Y02888D02*
Y02896D01*
X01303Y02844D02*
X0131D01*
X01307Y0284D02*
Y02847D01*
X01351Y01015D02*
X01359D01*
X01355Y01011D02*
Y01019D01*
X0129Y01016D02*
X01298D01*
X01294Y01012D02*
Y0102D01*
X02602Y00393D02*
X02609D01*
X02606Y00389D02*
Y00396D01*
X01866Y00405D02*
X01873D01*
X0187Y00401D02*
Y00408D01*
X0143Y00405D02*
X01437D01*
X01434Y00401D02*
Y00408D01*
X00994Y00405D02*
X01001D01*
X00998Y00401D02*
Y00408D01*
X00977Y01968D02*
X00985D01*
X00981Y01964D02*
Y01971D01*
X0081Y02818D02*
X00818D01*
X00814Y02814D02*
Y02822D01*
M02*