%FSTAX23Y23*%
%MOIN*%
%SFA1B1*%

%IPPOS*%
%AMD39*
4,1,4,-0.020200,0.003500,0.003500,-0.020200,0.020200,-0.003500,-0.003500,0.020200,-0.020200,0.003500,0.0*
%
%AMD50*
4,1,4,0.020900,-0.034900,0.034900,-0.020900,-0.020900,0.034900,-0.034900,0.020900,0.020900,-0.034900,0.0*
%
%AMD51*
4,1,4,-0.034900,-0.020900,-0.020900,-0.034900,0.034900,0.020900,0.020900,0.034900,-0.034900,-0.020900,0.0*
%
%AMD62*
4,1,4,-0.030400,-0.003500,-0.003500,-0.030400,0.030400,0.003500,0.003500,0.030400,-0.030400,-0.003500,0.0*
%
%AMD66*
4,1,4,-0.003500,0.030400,-0.030400,0.003500,0.003500,-0.030400,0.030400,-0.003500,-0.003500,0.030400,0.0*
%
%AMD71*
4,1,4,-0.025700,-0.002100,-0.002100,-0.025700,0.025700,0.002100,0.002100,0.025700,-0.025700,-0.002100,0.0*
%
%ADD20R,0.133858X0.059055*%
%ADD21R,0.137795X0.039370*%
%ADD27R,0.024098X0.073008*%
G04~CAMADD=39~9~0.0~0.0~334.6~236.2~0.0~0.0~0~0.0~0.0~0.0~0.0~0~0.0~0.0~0.0~0.0~0~0.0~0.0~0.0~135.0~404.0~403.0*
%ADD39D39*%
%ADD43R,0.059055X0.133858*%
%ADD44R,0.039370X0.137795*%
%ADD45R,0.045449X0.053394*%
%ADD46R,0.018504X0.023622*%
%ADD49R,0.060000X0.095094*%
G04~CAMADD=50~9~0.0~0.0~198.1~788.7~0.0~0.0~0~0.0~0.0~0.0~0.0~0~0.0~0.0~0.0~0.0~0~0.0~0.0~0.0~225.0~698.0~697.0*
%ADD50D50*%
G04~CAMADD=51~9~0.0~0.0~198.1~788.7~0.0~0.0~0~0.0~0.0~0.0~0.0~0~0.0~0.0~0.0~0.0~0~0.0~0.0~0.0~135.0~698.0~697.0*
%ADD51D51*%
%ADD52C,0.118110*%
%ADD53R,0.141858X0.067055*%
%ADD54R,0.145795X0.047370*%
%ADD55R,0.079000X0.055000*%
%ADD56R,0.078866X0.232409*%
%ADD57R,0.074929X0.106425*%
%ADD58R,0.059181X0.118236*%
%ADD59R,0.038000X0.048000*%
%ADD60R,0.048000X0.038000*%
%ADD61R,0.043000X0.043000*%
G04~CAMADD=62~9~0.0~0.0~380.0~480.0~0.0~0.0~0~0.0~0.0~0.0~0.0~0~0.0~0.0~0.0~0.0~0~0.0~0.0~0.0~135.0~608.0~607.0*
%ADD62D62*%
%ADD63R,0.043000X0.078000*%
%ADD64R,0.069023X0.031622*%
%ADD65R,0.043000X0.043000*%
G04~CAMADD=66~9~0.0~0.0~380.0~480.0~0.0~0.0~0~0.0~0.0~0.0~0.0~0~0.0~0.0~0.0~0.0~0~0.0~0.0~0.0~45.0~608.0~607.0*
%ADD66D66*%
%ADD67R,0.019811X0.037527*%
%ADD68R,0.102488X0.070992*%
%ADD69R,0.067055X0.039496*%
%ADD70R,0.086740X0.065086*%
G04~CAMADD=71~9~0.0~0.0~334.6~393.7~0.0~0.0~0~0.0~0.0~0.0~0.0~0~0.0~0.0~0.0~0.0~0~0.0~0.0~0.0~135.0~514.0~513.0*
%ADD71D71*%
%ADD72R,0.058000X0.038000*%
%ADD73R,0.019811X0.039496*%
%ADD74R,0.047370X0.047370*%
%ADD75R,0.043433X0.039496*%
%ADD76R,0.068000X0.048000*%
%ADD77C,0.048000*%
%ADD78R,0.067055X0.067055*%
%ADD79C,0.067055*%
%ADD80C,0.204724*%
%LNstrwl-p01-v01-1*%
%LPD*%
G36*
X00884Y0308D02*
X00885Y03079D01*
X00885Y03079*
X00886Y03079*
X00886Y03079*
X00887Y03078*
X00887Y03078*
X00887Y03078*
X00888Y03077*
X00888Y03077*
X00888Y03076*
X00888Y03076*
Y02955*
X00888Y02955*
X00888Y02954*
X00888Y02954*
X00887Y02953*
X00887Y02953*
X00887Y02953*
X00886Y02952*
X00886Y02952*
X00885Y02952*
X00885Y02952*
X00884Y02952*
X00884Y02951*
X00789*
X00789Y02952*
X00788Y02952*
X00788Y02952*
X00787Y02952*
X00787Y02952*
X00787Y02953*
X00786Y02953*
X00786Y02953*
X00786Y02954*
X00786Y02954*
X00785Y02955*
X00785Y02955*
Y03042*
X00785Y03043*
X00786Y03043*
X00786Y03044*
X00786Y03044*
X00786Y03045*
X00787Y03045*
X00787Y03045*
X00787Y03046*
X00788Y03046*
X00788Y03046*
X00789Y03046*
X00789Y03046*
X00829*
Y03076*
X00829Y03076*
X00829Y03077*
X00829Y03077*
X00829Y03078*
X0083Y03078*
X0083Y03078*
X0083Y03079*
X00831Y03079*
X00831Y03079*
X00832Y03079*
X00832Y0308*
X00833Y0308*
X00884*
X00884Y0308*
G37*
G36*
X01487D02*
X01487Y03079D01*
X01488Y03079*
X01488Y03079*
X01489Y03079*
X01489Y03078*
X01489Y03078*
X0149Y03078*
X0149Y03077*
X0149Y03077*
X0149Y03076*
X0149Y03076*
Y03046*
X0153*
X0153Y03046*
X01531Y03046*
X01531Y03046*
X01532Y03046*
X01532Y03045*
X01532Y03045*
X01533Y03045*
X01533Y03044*
X01533Y03044*
X01533Y03043*
X01534Y03043*
X01534Y03042*
Y02955*
X01534Y02955*
X01533Y02954*
X01533Y02954*
X01533Y02953*
X01533Y02953*
X01532Y02953*
X01532Y02952*
X01532Y02952*
X01531Y02952*
X01531Y02952*
X0153Y02952*
X0153Y02951*
X01435*
X01435Y02952*
X01434Y02952*
X01434Y02952*
X01433Y02952*
X01433Y02952*
X01432Y02953*
X01432Y02953*
X01432Y02953*
X01431Y02954*
X01431Y02954*
X01431Y02955*
X01431Y02955*
Y03076*
X01431Y03076*
X01431Y03077*
X01431Y03077*
X01432Y03078*
X01432Y03078*
X01432Y03078*
X01433Y03079*
X01433Y03079*
X01434Y03079*
X01434Y03079*
X01435Y0308*
X01435Y0308*
X01486*
X01487Y0308*
G37*
G54D20*
X00289Y01385D03*
Y00964D03*
G54D21*
X00516Y01056D03*
Y01135D03*
Y01214D03*
Y01293D03*
G54D27*
X01768Y01171D03*
X01731D03*
X01693D03*
Y0108D03*
X01731D03*
X01768D03*
G54D39*
X01982Y01816D03*
X01938Y01861D03*
G54D43*
X01777Y00258D03*
X02119D03*
X01341D03*
X01684D03*
X00906D03*
X01248D03*
G54D44*
X02027Y00484D03*
X01948D03*
X01869D03*
X01591D03*
X01513D03*
X01434D03*
X01156D03*
X01077D03*
X00998D03*
G54D45*
X01616Y02784D03*
X01563D03*
G54D46*
X01497Y02827D03*
X01446D03*
X01472Y02752D03*
G54D49*
X00678Y01366D03*
X00928Y01006D03*
G54D50*
X01745Y01804D03*
X01759Y01818D03*
X01772Y01832D03*
X01786Y01846D03*
X018Y0186D03*
X01814Y01874D03*
X01828Y01888D03*
X01842Y01902D03*
X01856Y01916D03*
X0187Y0193D03*
X01884Y01943D03*
X01898Y01957D03*
X01912Y01971D03*
X01926Y01985D03*
X0194Y01999D03*
X01953Y02013D03*
X01967Y02027D03*
X01981Y02041D03*
X01995Y02055D03*
X02009Y02069D03*
X02023Y02083D03*
X02037Y02097D03*
X02051Y02111D03*
X02065Y02124D03*
X02079Y02138D03*
X01658Y02559D03*
X01644Y02545D03*
X01631Y02531D03*
X01617Y02517D03*
X01603Y02503D03*
X01589Y02489D03*
X01575Y02475D03*
X01561Y02461D03*
X01547Y02447D03*
X01533Y02433D03*
X01519Y0242D03*
X01505Y02406D03*
X01491Y02392D03*
X01477Y02378D03*
X01463Y02364D03*
X0145Y0235D03*
X01436Y02336D03*
X01422Y02322D03*
X01408Y02308D03*
X01394Y02294D03*
X0138Y0228D03*
X01366Y02266D03*
X01352Y02252D03*
X01338Y02239D03*
X01324Y02225D03*
G54D51*
X02079Y02225D03*
X02065Y02239D03*
X02051Y02252D03*
X02037Y02266D03*
X02023Y0228D03*
X02009Y02294D03*
X01995Y02308D03*
X01981Y02322D03*
X01967Y02336D03*
X01953Y0235D03*
X0194Y02364D03*
X01926Y02378D03*
X01912Y02392D03*
X01898Y02406D03*
X01884Y0242D03*
X0187Y02433D03*
X01856Y02447D03*
X01842Y02461D03*
X01828Y02475D03*
X01814Y02489D03*
X018Y02503D03*
X01786Y02517D03*
X01772Y02531D03*
X01759Y02545D03*
X01745Y02559D03*
X01324Y02138D03*
X01338Y02124D03*
X01352Y02111D03*
X01366Y02097D03*
X0138Y02083D03*
X01394Y02069D03*
X01408Y02055D03*
X01422Y02041D03*
X01436Y02027D03*
X0145Y02013D03*
X01463Y01999D03*
X01477Y01985D03*
X01491Y01971D03*
X01505Y01957D03*
X01519Y01943D03*
X01533Y0193D03*
X01547Y01916D03*
X01561Y01902D03*
X01575Y01888D03*
X01589Y01874D03*
X01603Y0186D03*
X01617Y01846D03*
X01631Y01832D03*
X01644Y01818D03*
X01658Y01804D03*
G54D52*
X01038Y00893D03*
X02713Y01018D03*
X02364Y031D03*
X00582Y03166D03*
G54D53*
X0029Y00221D03*
Y00484D03*
X02745Y00836D03*
Y00573D03*
Y00221D03*
Y00484D03*
X0029Y00836D03*
Y00573D03*
G54D54*
X00516Y00313D03*
Y00392D03*
X02519Y00744D03*
Y00665D03*
Y00313D03*
Y00392D03*
X00516Y00744D03*
Y00665D03*
G54D55*
X01617Y00844D03*
Y00976D03*
Y01176D03*
Y01044D03*
G54D56*
X01852Y00911D03*
X02067D03*
G54D57*
X01733Y00826D03*
Y00983D03*
X01181Y00957D03*
Y01114D03*
G54D58*
X01954Y01255D03*
X02082D03*
X01954Y01115D03*
X02082D03*
X00716Y01006D03*
X00843D03*
G54D59*
X01626Y0127D03*
X01689D03*
X01754Y01271D03*
X01817D03*
X01754Y0134D03*
X01816D03*
X01259Y00798D03*
X01321D03*
X00542Y02668D03*
X0048D03*
X00542Y02738D03*
X0048D03*
X01441Y00858D03*
X01378D03*
X0089Y01397D03*
X00952D03*
X00952Y01337D03*
X0089D03*
X01259Y00858D03*
X01321D03*
X01378Y00798D03*
X01441D03*
X01665Y02614D03*
X01728D03*
X01558Y02859D03*
X01621D03*
X01501Y02883D03*
X01438D03*
X00837Y00644D03*
X00775D03*
X02337Y00525D03*
X02274D03*
X0085Y02878D03*
X00787D03*
X00849Y02817D03*
X00787D03*
G54D60*
X01834Y01143D03*
Y01081D03*
X01989Y02885D03*
Y02947D03*
X02199D03*
Y02885D03*
X01373Y01179D03*
Y01242D03*
X01294Y01107D03*
Y01044D03*
X01069Y01151D03*
Y01214D03*
X01029Y02757D03*
Y02819D03*
X01149Y02757D03*
Y02819D03*
X01089Y02757D03*
Y02819D03*
X02377Y00665D03*
Y00728D03*
X01701Y01705D03*
Y01768D03*
X00909Y01927D03*
Y0199D03*
X00981Y01927D03*
Y0199D03*
X01054Y01927D03*
Y0199D03*
X01439Y01369D03*
Y01306D03*
X01499Y01369D03*
Y01306D03*
X01379Y01369D03*
Y01306D03*
X01313Y01179D03*
Y01242D03*
X01502Y00859D03*
Y00797D03*
X00662Y00804D03*
Y00742D03*
X01294Y00987D03*
Y00924D03*
X0138Y02864D03*
Y02801D03*
X00757Y02677D03*
Y02614D03*
X00908Y02819D03*
Y02756D03*
X00969Y02819D03*
Y02756D03*
G54D61*
X01694Y01331D03*
X01634D03*
X00807Y01336D03*
X00747D03*
Y01397D03*
X00807D03*
G54D62*
X02124Y01969D03*
X0208Y02013D03*
X01216Y02336D03*
X01261Y02291D03*
G54D63*
X0046Y02315D03*
X00295D03*
G54D64*
X00993Y01108D03*
Y01158D03*
Y01208D03*
Y01258D03*
X0078Y01108D03*
Y01158D03*
Y01208D03*
Y01258D03*
G54D65*
X0213Y02952D03*
Y02892D03*
X0206Y02952D03*
Y02892D03*
X01436Y01244D03*
Y01184D03*
X01489Y01244D03*
Y01184D03*
X01315Y01361D03*
Y01301D03*
X0126Y01361D03*
Y01301D03*
G54D66*
X01848Y01687D03*
X01893Y01731D03*
X01942Y01684D03*
X01897Y01639D03*
X01845Y0178D03*
X018Y01735D03*
X01421Y01905D03*
X01377Y01861D03*
X02164Y02343D03*
X02119Y02298D03*
G54D67*
X01379Y00956D03*
X01399D03*
X01418D03*
X01438D03*
X01458D03*
Y01074D03*
X01438D03*
X01418D03*
X01399D03*
X01379D03*
G54D68*
X01418Y01015D03*
G54D69*
X00489Y02097D03*
Y02054D03*
Y02011D03*
Y01968D03*
Y01924D03*
Y01881D03*
Y01838D03*
Y01794D03*
G54D70*
X00386Y0165D03*
Y02191D03*
X00713Y0165D03*
Y02191D03*
G54D71*
X01953Y01787D03*
X02011Y01846D03*
X01967Y0189D03*
X01908Y01832D03*
G54D72*
X00678Y01339D03*
Y01394D03*
X00928Y00979D03*
Y01034D03*
G54D73*
X00973Y0294D03*
X01386D03*
X01366D03*
X01347D03*
X01327D03*
X01307D03*
X01287D03*
X01268D03*
X01248D03*
X01228D03*
X01209D03*
X01189D03*
X01169D03*
X0115D03*
X0113D03*
X0111D03*
X01091D03*
X01071D03*
X01051D03*
X01032D03*
X01012D03*
X00992D03*
X00953D03*
X00933D03*
G54D74*
X01484Y03003D03*
X00835D03*
G54D75*
X00634Y01179D03*
X00713Y01141D03*
Y01216D03*
G54D76*
X0101Y02673D03*
Y02543D03*
X0092Y02562D03*
Y02692D03*
X00832Y02622D03*
Y02752D03*
G54D77*
X00309Y02636D03*
X00359D03*
Y02586D03*
X00309D03*
Y02536D03*
X00359D03*
Y02686D03*
X00309D03*
Y02736D03*
X00359D03*
G54D78*
X02385Y02632D03*
G54D79*
X02385Y02732D03*
Y02832D03*
G54D80*
X00391Y03083D03*
X02625D03*
X00731Y00319D03*
X02324D03*
M02*