%FSTAX23Y23*%
%MOIN*%
%SFA1B1*%

%IPPOS*%
%ADD13C,0.007874*%
%ADD86C,0.003937*%
%ADD90C,0.001969*%
%ADD91C,0.006000*%
%LNstrwl-p01-v01-1*%
%LPD*%
G36*
X02052Y01847D02*
D01*
X01952Y01746*
X0195Y01745*
X01866Y01829*
X01868Y0183*
X01968Y01931*
X0197Y01932*
X02053Y01848*
X02052Y01847*
G37*
G54D13*
X01807Y01024D02*
Y01227D01*
X01654Y01024D02*
X01807D01*
X01654D02*
Y01227D01*
X01807*
X00219Y0093D02*
X00589D01*
Y01419*
X00219D02*
X00589D01*
X00219Y0093D02*
Y01419D01*
X01744Y00187D02*
Y00557D01*
Y00187D02*
X02153D01*
Y00557*
X01744D02*
X02153D01*
X01308Y00187D02*
Y00557D01*
Y00187D02*
X01717D01*
Y00557*
X01308D02*
X01717D01*
X00872Y00187D02*
Y00557D01*
Y00187D02*
X01282D01*
Y00557*
X00872D02*
X01282D01*
X01536Y02752D02*
X01643D01*
X01536D02*
Y02817D01*
X01643*
Y02752D02*
Y02817D01*
X01519Y02736D02*
Y02843D01*
X01424Y02736D02*
X01519D01*
X01424D02*
Y02843D01*
X01519*
G54D86*
X01688Y02195D02*
X01715Y02168D01*
X01688D02*
X01715Y02195D01*
X0038Y00333D02*
Y00372D01*
X0036Y00352D02*
X004D01*
X01733Y00885D02*
Y00924D01*
X01714Y00905D02*
X01753D01*
X01731Y01106D02*
Y01145D01*
X01711Y01125D02*
X0175D01*
X01181Y01016D02*
Y01055D01*
X01161Y01036D02*
X012D01*
X02655Y00685D02*
Y00724D01*
X02635Y00705D02*
X02674D01*
X02635Y00352D02*
X02674D01*
X02655Y00333D02*
Y00372D01*
X0116Y02952D02*
Y02991D01*
X0114Y02971D02*
X01179D01*
X00325Y01175D02*
X00436D01*
X0038Y01119D02*
Y0123D01*
X01948Y00329D02*
Y00368D01*
X01929Y00348D02*
X01968D01*
X01513Y00329D02*
Y00368D01*
X01493Y00348D02*
X01532D01*
X01077Y00329D02*
Y00368D01*
X01057Y00348D02*
X01097D01*
X0036Y00705D02*
X004D01*
X0038Y00685D02*
Y00724D01*
X0157Y02784D02*
X01609D01*
X0159Y02764D02*
Y02804D01*
X01452Y0279D02*
X01491D01*
X01472Y0277D02*
Y02809D01*
G54D90*
X01702Y01697D02*
X02186Y02182D01*
X01217D02*
X01702Y02666D01*
X01217Y02182D02*
X01702Y01697D01*
Y02666D02*
X02186Y02182D01*
X00219Y00518D02*
X00589D01*
Y00187D02*
Y00518D01*
X00219Y00187D02*
X00589D01*
X00219D02*
Y00518D01*
X02446Y00539D02*
X02816D01*
X02446D02*
Y0087D01*
X02816*
Y00539D02*
Y0087D01*
X01347Y00931D02*
Y01098D01*
X01489*
Y00931D02*
Y01098D01*
X01347Y00931D02*
X01489D01*
X02816Y00187D02*
Y00518D01*
X02446D02*
X02816D01*
X02446Y00187D02*
Y00518D01*
Y00187D02*
X02816D01*
X00785Y0292D02*
Y03207D01*
X01534D01*
Y0292D02*
Y03207D01*
X00785Y0292D02*
X01534D01*
X00219Y00539D02*
Y0087D01*
Y00539D02*
X00589D01*
Y0087*
X00219D02*
X00589D01*
G54D91*
X01952Y01746D02*
X02052Y01847D01*
X01868Y0183D02*
X01968Y01931D01*
X02052Y01847D02*
X02053Y01848D01*
X0195Y01745D02*
X01952Y01746D01*
X01866Y01829D02*
X0195Y01745D01*
X01866Y01829D02*
X01868Y0183D01*
X01968Y01931D02*
X0197Y01932D01*
X02053Y01848*
M02*