%FSTAX23Y23*%
%MOIN*%
%SFA1B1*%

%IPPOS*%
%ADD12C,0.010000*%
%ADD15C,0.015000*%
%ADD19C,0.039370*%
%ADD82C,0.040000*%
%ADD83R,0.059055X0.059055*%
%ADD84C,0.059055*%
%ADD85C,0.015748*%
%LNstrwl-p01-v01-1*%
%LPD*%
G36*
X02804Y00201D02*
X00231D01*
Y03228*
X00549*
X0055Y03223*
X00546Y0322*
X00536Y03212*
X00528Y03202*
X00522Y03191*
X00518Y03179*
X00517Y03166*
X00518Y03153*
X00522Y03141*
X00528Y0313*
X00536Y0312*
X00546Y03112*
X00557Y03106*
X0057Y03102*
X00582Y03101*
X00595Y03102*
X00607Y03106*
X00619Y03112*
X00629Y0312*
X00637Y0313*
X00643Y03141*
X00646Y03153*
X00648Y03166*
X00646Y03179*
X00643Y03191*
X00637Y03202*
X00629Y03212*
X00619Y0322*
X00615Y03223*
X00616Y03228*
X02804*
Y00201*
G37*
%LNstrwl-p01-v01-2*%
%LPC*%
G36*
X02364Y03165D02*
X02351Y03164D01*
X02339Y0316*
X02327Y03154*
X02317Y03146*
X02309Y03136*
X02303Y03124*
X02299Y03112*
X02298Y031*
X02299Y03087*
X02303Y03075*
X02309Y03063*
X02317Y03053*
X02327Y03045*
X02339Y03039*
X02351Y03035*
X02364Y03034*
X02376Y03035*
X02388Y03039*
X024Y03045*
X0241Y03053*
X02418Y03063*
X02424Y03075*
X02428Y03087*
X02429Y031*
X02428Y03112*
X02424Y03124*
X02418Y03136*
X0241Y03146*
X024Y03154*
X02388Y0316*
X02376Y03164*
X02364Y03165*
G37*
G36*
X02625Y03191D02*
X02608Y0319D01*
X02592Y03186*
X02576Y03179*
X02561Y03171*
X02549Y0316*
X02538Y03147*
X02529Y03132*
X02522Y03117*
X02518Y031*
X02517Y03083*
X02518Y03066*
X02522Y0305*
X02529Y03034*
X02538Y0302*
X02549Y03007*
X02561Y02996*
X02576Y02987*
X02592Y02981*
X02608Y02977*
X02625Y02976*
X02642Y02977*
X02658Y02981*
X02674Y02987*
X02688Y02996*
X02701Y03007*
X02712Y0302*
X02721Y03034*
X02727Y0305*
X02731Y03066*
X02733Y03083*
X02731Y031*
X02727Y03117*
X02721Y03132*
X02712Y03147*
X02701Y0316*
X02688Y03171*
X02674Y03179*
X02658Y03186*
X02642Y0319*
X02625Y03191*
G37*
G36*
X00391D02*
X00374Y0319D01*
X00357Y03186*
X00342Y03179*
X00327Y03171*
X00314Y0316*
X00303Y03147*
X00295Y03132*
X00288Y03117*
X00284Y031*
X00283Y03083*
X00284Y03066*
X00288Y0305*
X00295Y03034*
X00303Y0302*
X00314Y03007*
X00327Y02996*
X00342Y02987*
X00357Y02981*
X00374Y02977*
X00391Y02976*
X00408Y02977*
X00424Y02981*
X0044Y02987*
X00454Y02996*
X00467Y03007*
X00478Y0302*
X00487Y03034*
X00493Y0305*
X00497Y03066*
X00499Y03083*
X00497Y031*
X00493Y03117*
X00487Y03132*
X00478Y03147*
X00467Y0316*
X00454Y03171*
X0044Y03179*
X00424Y03186*
X00408Y0319*
X00391Y03191*
G37*
G36*
X01435Y03034D02*
X01404D01*
X014Y03032*
X01398Y03028*
Y02977*
X014Y02973*
X01404Y02972*
X01435*
X01439Y02973*
X01441Y02977*
Y03028*
X01439Y03032*
X01435Y03034*
G37*
G36*
X00915D02*
X00884D01*
X0088Y03032*
X00879Y03028*
Y02977*
X0088Y02973*
X00884Y02972*
X00915*
X00919Y02973*
X00921Y02977*
Y03028*
X00919Y03032*
X00915Y03034*
G37*
G36*
X01099Y02912D02*
X01094Y02911D01*
X0109Y02908*
X01087Y02903*
X01086Y02898*
X01087Y02894*
X01063Y0287*
X01059Y02869*
X01055Y02866*
X01052Y02862*
X01051Y02857*
X01052Y02852*
X01055Y02848*
X01059Y02845*
X01065Y02844*
X0107Y02845*
X01074Y02848*
X01077Y02852*
X01077Y02856*
X01106Y02884*
X01108Y02887*
X01108Y02889*
X01109Y02889*
X01112Y02893*
X01113Y02898*
X01112Y02903*
X01109Y02908*
X01104Y02911*
X01099Y02912*
G37*
G36*
X0239Y02871D02*
Y02837D01*
X02424*
X02423Y02842*
X02419Y02852*
X02413Y0286*
X02405Y02867*
X02395Y02871*
X0239Y02871*
G37*
G36*
X0238D02*
X02375Y02871D01*
X02365Y02867*
X02357Y0286*
X0235Y02852*
X02346Y02842*
X02346Y02837*
X0238*
Y02871*
G37*
G36*
X02424Y02827D02*
X0239D01*
Y02793*
X02395Y02794*
X02405Y02798*
X02413Y02804*
X02419Y02812*
X02423Y02822*
X02424Y02827*
G37*
G36*
X0238D02*
X02346D01*
X02346Y02822*
X0235Y02812*
X02357Y02804*
X02365Y02798*
X02375Y02794*
X0238Y02793*
Y02827*
G37*
G36*
X00354Y02765D02*
X00351Y02765D01*
X00343Y02762*
X00337Y02757*
X00333Y02752*
X00328Y02752*
X00327Y02754*
X00318Y02759*
X00309Y02761*
X00299Y02759*
X0029Y02754*
X00285Y02745*
X00283Y02736*
X00285Y02726*
X0029Y02718*
X00297Y02714*
Y02708*
X0029Y02704*
X00285Y02695*
X00283Y02686*
X00285Y02676*
X0029Y02668*
X00297Y02664*
Y02658*
X0029Y02654*
X00285Y02645*
X00283Y02636*
X00285Y02626*
X0029Y02618*
X00297Y02614*
Y02608*
X0029Y02604*
X00285Y02595*
X00283Y02586*
X00285Y02576*
X0029Y02568*
X00297Y02564*
Y02558*
X0029Y02554*
X00285Y02545*
X00283Y02536*
X00285Y02526*
X0029Y02518*
X00299Y02512*
X00309Y0251*
X00318Y02512*
X00327Y02518*
X00331Y02524*
X00336*
X0034Y02518*
X00349Y02512*
X00359Y0251*
X00368Y02512*
X00377Y02518*
X00382Y02526*
X00392*
X00395Y02526*
X00399Y02529*
X00424Y02554*
X00427Y02558*
X00427Y02561*
Y02666*
X00487Y02726*
X00489Y02729*
X0049Y02733*
X00489Y02737*
X00487Y0274*
X00484Y02743*
X0048Y02743*
X00476Y02743*
X00473Y0274*
X0041Y02678*
X00408Y02674*
X00407Y0267*
Y02566*
X00387Y02546*
X00382*
X00377Y02554*
X00375Y02555*
X00375Y02561*
X0038Y02564*
X00385Y02571*
X00388Y02578*
X00388Y02581*
X00359*
Y02591*
X00388*
X00388Y02594*
X00385Y02601*
X0038Y02607*
X00378Y02608*
Y02613*
X0038Y02614*
X00385Y02621*
X00388Y02628*
X00388Y02631*
X00359*
Y02641*
X00388*
X00388Y02644*
X00385Y02651*
X0038Y02657*
X00375Y02661*
X00375Y02666*
X00377Y02668*
X00382Y02676*
X00384Y02686*
X00382Y02695*
X00377Y02704*
X00375Y02705*
X00375Y02711*
X0038Y02714*
X00385Y02721*
X00388Y02728*
X00388Y02731*
X00359*
Y02736*
X00354*
Y02765*
G37*
G36*
X00364D02*
Y02741D01*
X00388*
X00388Y02744*
X00385Y02751*
X0038Y02757*
X00374Y02762*
X00366Y02765*
X00364Y02765*
G37*
G36*
X02385Y02767D02*
X02376Y02766D01*
X02367Y02762*
X0236Y02757*
X02355Y02749*
X02352Y02742*
X01972*
X01968Y02741*
X01965Y02739*
X01816Y02591*
X01812Y0259*
X01808Y02587*
X01805Y02583*
X01804Y02578*
X01805Y02573*
X01808Y02568*
X01812Y02566*
X01814Y02565*
X01818Y02563*
X01819Y0256*
X01819Y02557*
X01822Y02553*
X01827Y0255*
X01832Y02549*
X01837Y0255*
X01841Y02553*
X01844Y02557*
X01844Y02561*
X01906Y02622*
X0235*
Y02598*
X02419*
Y02667*
X0235*
Y02642*
X01904*
X01902Y02647*
X01976Y02722*
X02352*
X02355Y02715*
X0236Y02707*
X02367Y02702*
X02376Y02698*
X02385Y02697*
X02394Y02698*
X02402Y02702*
X02409Y02707*
X02415Y02715*
X02419Y02723*
X0242Y02732*
X02419Y02741*
X02415Y02749*
X02409Y02757*
X02402Y02762*
X02394Y02766*
X02385Y02767*
G37*
G36*
X01249Y02905D02*
X01244Y02904D01*
X0124Y02901*
X01237Y02897*
X01236Y02892*
X01237Y02887*
X01239Y02884*
Y02744*
X01237Y02742*
X01236Y02737*
X01237Y02731*
X0124Y02727*
X01244Y02724*
X01249Y02723*
X01254Y02724*
X01258Y02727*
X0126Y0273*
X01265Y02728*
Y02717*
X01263Y02715*
X01262Y0271*
X01263Y02704*
X01266Y027*
X0127Y02697*
X01276Y02696*
X01281Y02697*
X01285Y027*
X01288Y02704*
X01289Y0271*
X01288Y02715*
X01286Y02718*
Y02859*
X01287Y02861*
X01288Y02866*
X01287Y02871*
X01284Y02875*
X0128Y02878*
X01275Y02879*
X0127Y02878*
X01266Y02875*
X01264Y02873*
X01259Y02874*
Y02884*
X01261Y02887*
X01262Y02892*
X01261Y02897*
X01258Y02901*
X01254Y02904*
X01249Y02905*
G37*
G36*
X01307Y02857D02*
X01301Y02856D01*
X01297Y02853*
X01294Y02849*
X01293Y02844*
X01294Y02838*
X01296Y02836*
Y02699*
X01295Y02697*
X01294Y02692*
X01295Y02687*
X01298Y02683*
X01302Y0268*
X01307Y02679*
X01312Y0268*
X01316Y02683*
X01323Y02684*
X01324Y02683*
Y02665*
X01322Y02663*
X01321Y02658*
X01322Y02652*
X01325Y02648*
X01329Y02645*
X01335Y02644*
X0134Y02645*
X01344Y02648*
X01347Y02652*
X01348Y02658*
X01347Y02663*
X01344Y02666*
Y02809*
X01346Y02812*
X01347Y02817*
X01346Y02822*
X01343Y02827*
X01339Y0283*
X01334Y02831*
X01329Y0283*
X01325Y02827*
X01322Y02822*
X01322Y02821*
X01317Y02821*
Y02836*
X01319Y02838*
X0132Y02844*
X01319Y02849*
X01316Y02853*
X01312Y02856*
X01307Y02857*
G37*
G36*
X01821Y02797D02*
X01815Y02796D01*
X01811Y02793*
X01808Y02789*
X01808Y02786*
X01786Y02764*
X01784Y02761*
X01783Y02757*
Y02643*
X01781Y02641*
X0178Y02636*
X01781Y0263*
X01784Y02626*
X01788Y02623*
X01793Y02622*
X01798Y02623*
X01803Y02626*
X01805Y0263*
X01806Y02636*
X01805Y02641*
X01804Y02643*
Y02753*
X01822Y02771*
X01826Y02772*
X0183Y02775*
X01833Y02779*
X01834Y02784*
X01833Y02789*
X0183Y02793*
X01826Y02796*
X01821Y02797*
G37*
G36*
X02009Y02616D02*
X02004Y02615D01*
X02Y02612*
X01997Y02608*
X01996Y02603*
X01909Y02516*
X01907Y02515*
X01902Y02512*
X019Y02508*
X01899Y02503*
X019Y02498*
X01902Y02494*
X01907Y02491*
X01912Y0249*
X01917Y02491*
X01921Y02494*
X01924Y02498*
X01924Y02498*
X0193Y02502*
X01931Y02501*
X01933Y02497*
X01938Y02494*
X01943Y02493*
X01948Y02494*
X01952Y02497*
X01955Y02501*
X01955Y02505*
X02031Y02581*
X02035Y02581*
X02039Y02584*
X02042Y02588*
X02043Y02594*
X02042Y02599*
X02039Y02603*
X02035Y02606*
X0203Y02607*
X02024Y02606*
X0202Y02609*
X02018Y02612*
X02014Y02615*
X02009Y02616*
G37*
G36*
X01012Y02521D02*
X01006Y0252D01*
X01002Y02517*
X00999Y02513*
X00998Y02508*
X00999Y02502*
X01002Y02499*
Y024*
X01Y02397*
X00999Y02392*
X01Y02387*
X01003Y02382*
X01007Y0238*
X01012Y02379*
X01017Y0238*
X01021Y02382*
X01024Y02387*
X01025Y02392*
X01024Y02397*
X01022Y024*
Y025*
X01024Y02502*
X01025Y02508*
X01024Y02513*
X01021Y02517*
X01017Y0252*
X01012Y02521*
G37*
G36*
X0117Y02502D02*
X01165Y02501D01*
X01161Y02498*
X01158Y02494*
X01157Y02489*
X01158Y02484*
X01161Y0248*
X01165Y02477*
X0117Y02476*
X01175Y02477*
X01178Y02479*
X01417*
X01534Y02362*
X01535Y02359*
X01538Y02355*
X01542Y02352*
X01547Y02351*
X01552Y02352*
X01556Y02355*
X01559Y02359*
X0156Y02364*
X01559Y02369*
X01556Y02373*
X01552Y02376*
X01549Y02377*
X01429Y02496*
X01426Y02499*
X01422Y02499*
X01178*
X01175Y02501*
X0117Y02502*
G37*
G36*
X01438Y02215D02*
X01433Y02214D01*
X01429Y02212*
X01426Y02207*
X01426Y02206*
X01416Y02196*
X01206*
X01204Y02198*
X01199Y02199*
X01193Y02198*
X01189Y02196*
X01186Y02191*
X01185Y02186*
X01186Y02181*
X01189Y02177*
Y02175*
X01186Y02171*
X01185Y02166*
X01186Y0216*
X01189Y02156*
X01193Y02153*
X01199Y02152*
X01204Y02153*
X01206Y02155*
X01424*
X01428Y02156*
X01431Y02158*
X01439Y02167*
X0144Y02167*
X01445Y02168*
X01449Y02171*
X01452Y02175*
X01453Y0218*
X01452Y02185*
X01449Y02189*
X01449Y02195*
X0145Y02197*
X01451Y02202*
X0145Y02207*
X01447Y02212*
X01443Y02214*
X01438Y02215*
G37*
G36*
X01743D02*
X01737Y02214D01*
X01733Y02212*
X0173Y02207*
X01729Y02202*
X0173Y02197*
X01732Y02194*
Y02147*
X0173Y02145*
X01729Y0214*
X0173Y02134*
X01733Y0213*
X01737Y02127*
X01743Y02126*
X01748Y02127*
X01752Y0213*
X01755Y02134*
X01756Y0214*
X01755Y02145*
X01753Y02147*
Y02194*
X01755Y02197*
X01756Y02202*
X01755Y02207*
X01752Y02212*
X01748Y02214*
X01743Y02215*
G37*
G36*
X01275Y02091D02*
X01269Y0209D01*
X01265Y02087*
X01262Y02083*
X01261Y02078*
X01262Y02072*
X01265Y02068*
X01269Y02065*
X01273Y02065*
X01304Y02034*
X01307Y02031*
X01311Y02031*
X0133*
X01333Y02029*
X01338Y02028*
X01343Y02029*
X01347Y02032*
X0135Y02036*
X01351Y02041*
X0135Y02046*
X01347Y0205*
X01343Y02053*
X01338Y02054*
X01333Y02053*
X0133Y02051*
X01315*
X01287Y02079*
X01287Y02083*
X01284Y02087*
X0128Y0209*
X01275Y02091*
G37*
G36*
X01531Y02016D02*
X01526Y02015D01*
X01521Y02012*
X01521Y02012*
X01517*
X01513Y02011*
X0151Y02009*
X01453Y01952*
X0145Y01952*
X01446Y01949*
X01443Y01944*
X01442Y01939*
X01443Y01934*
X01446Y0193*
X0145Y01927*
X01455Y01926*
X0146Y01927*
X01464Y0193*
X01467Y01934*
X01468Y01938*
X01521Y01991*
X01524*
X01526Y0199*
X01531Y01989*
X01536Y0199*
X0154Y01993*
X01543Y01997*
X01544Y02003*
X01543Y02008*
X0154Y02012*
X01536Y02015*
X01531Y02016*
G37*
G36*
X01275Y02045D02*
X01269Y02044D01*
X01265Y02041*
X01262Y02037*
X01261Y02032*
X01262Y02026*
X01263Y02025*
Y02016*
X01247Y02*
X01244Y01999*
X0124Y01996*
X01237Y01992*
X01236Y01987*
X01237Y01982*
X0124Y01978*
X01244Y01975*
X01249Y01974*
X01254Y01975*
X01259Y01978*
X01261Y01982*
X01262Y01986*
X01281Y02005*
X01283Y02008*
X01284Y02012*
Y02022*
X01284Y02022*
X01287Y02026*
X01288Y02032*
X01287Y02037*
X01284Y02041*
X0128Y02044*
X01275Y02045*
G37*
G36*
X01278Y01913D02*
X01273Y01912D01*
X01268Y01909*
X01266Y01905*
X01265Y01901*
X01255Y01891*
X01076*
X01074Y01893*
X01069Y01894*
X01063Y01893*
X01059Y0189*
X01056Y01886*
X01055Y01881*
X01056Y01876*
X01059Y01872*
X01063Y01869*
X01069Y01868*
X01074Y01869*
X01076Y01871*
X01259*
X01263Y01872*
X01266Y01874*
X01279Y01887*
X01283Y01888*
X01287Y0189*
X0129Y01895*
X01291Y019*
X0129Y01905*
X01287Y01909*
X01283Y01912*
X01278Y01913*
G37*
G36*
X01555Y02071D02*
X0155Y0207D01*
X01546Y02067*
X01543Y02063*
X01543Y02061*
X01541Y02056*
X01536Y02055*
X01531Y02053*
X01529Y02048*
X01528Y02043*
X01529Y02038*
X01531Y02034*
X01536Y02031*
X01541Y0203*
X01543Y02031*
X01592Y01981*
X01591Y01976*
X0159Y01976*
X01586Y01973*
X01583Y01969*
X01582Y01965*
X01508Y01891*
X01504Y0189*
X015Y01887*
X01497Y01883*
X01496Y01878*
X01497Y01873*
X015Y01868*
X01504Y01866*
X01509Y01865*
X01514Y01866*
X01518Y01868*
X01521Y01873*
X01522Y01876*
X01597Y01951*
X016Y01952*
X01604Y01954*
X01607Y01959*
X01607Y01959*
X01613Y01961*
X01684Y0189*
Y01763*
X01685Y01759*
X01687Y01756*
X01727Y01716*
X01728Y01711*
X01731Y01707*
X01735Y01704*
X0174Y01703*
X01743Y01703*
X01747Y01701*
X01748Y017*
X01747Y01698*
X01748Y01692*
X01751Y01688*
X01755Y01685*
X01761Y01684*
X01766Y01685*
X0177Y01688*
X01773Y01692*
X01774Y01698*
X01773Y01703*
X01771Y01705*
Y01721*
X0177Y01724*
X01768Y01728*
X01719Y01776*
Y019*
X01719Y01904*
X01716Y01907*
X01568Y02056*
X01568Y02058*
X01567Y02063*
X01565Y02067*
X0156Y0207*
X01555Y02071*
G37*
G36*
X01165Y01528D02*
X01163Y01527D01*
X01064*
X01062Y01528*
X01057Y01527*
X01053Y01524*
X0105Y0152*
X01049Y01514*
X0105Y01509*
X01053Y01505*
X01057Y01502*
X01062Y01501*
X01064Y01502*
X01163*
X01165Y01501*
X0117Y01502*
X01174Y01505*
X01177Y01509*
X01178Y01515*
X01177Y0152*
X01174Y01524*
X0117Y01527*
X01165Y01528*
G37*
G36*
X01132Y01201D02*
X01126Y012D01*
X01124Y01198*
X01083*
X01081Y012*
X01076Y01201*
X0107Y012*
X01066Y01197*
X01063Y01193*
X01062Y01188*
X01063Y01182*
X01066Y01178*
X0107Y01175*
X01076Y01174*
X01081Y01175*
X01083Y01177*
X01124*
X01126Y01175*
X01132Y01174*
X01137Y01175*
X01141Y01178*
X01144Y01182*
X01145Y01188*
X01144Y01193*
X01141Y01197*
X01137Y012*
X01132Y01201*
G37*
G36*
X02713Y01083D02*
X027Y01082D01*
X02688Y01078*
X02676Y01072*
X02666Y01064*
X02658Y01054*
X02652Y01042*
X02648Y0103*
X02647Y01018*
X02648Y01005*
X02652Y00993*
X02658Y00981*
X02666Y00971*
X02676Y00963*
X02688Y00957*
X027Y00953*
X02713Y00952*
X02725Y00953*
X02737Y00957*
X02749Y00963*
X02759Y00971*
X02767Y00981*
X02773Y00993*
X02777Y01005*
X02778Y01018*
X02777Y0103*
X02773Y01042*
X02767Y01054*
X02759Y01064*
X02749Y01072*
X02737Y01078*
X02725Y01082*
X02713Y01083*
G37*
G36*
X01038Y00958D02*
X01025Y00957D01*
X01013Y00953*
X01001Y00947*
X00991Y00939*
X00983Y00929*
X00977Y00918*
X00974Y00905*
X00972Y00893*
X00974Y0088*
X00977Y00868*
X00983Y00856*
X00991Y00847*
X01001Y00838*
X01013Y00832*
X01025Y00829*
X01038Y00827*
X0105Y00829*
X01063Y00832*
X01074Y00838*
X01084Y00847*
X01092Y00856*
X01098Y00868*
X01102Y0088*
X01103Y00893*
X01102Y00905*
X01098Y00918*
X01092Y00929*
X01084Y00939*
X01074Y00947*
X01063Y00953*
X0105Y00957*
X01038Y00958*
G37*
G36*
X00667Y00531D02*
X00665Y0053D01*
X0048*
X00479Y00531*
X00473Y0053*
X00469Y00527*
X00466Y00523*
X00465Y00518*
X00466Y00512*
X00469Y00508*
X00473Y00505*
X00479Y00504*
X0048Y00505*
X00665*
X00667Y00504*
X00672Y00505*
X00677Y00508*
X00679Y00512*
X0068Y00518*
X00679Y00523*
X00677Y00527*
X00672Y0053*
X00667Y00531*
G37*
G36*
X02324Y00426D02*
X02307Y00425D01*
X0229Y00421*
X02275Y00415*
X0226Y00406*
X02247Y00395*
X02236Y00382*
X02227Y00367*
X02221Y00352*
X02217Y00335*
X02216Y00319*
X02217Y00302*
X02221Y00285*
X02227Y0027*
X02236Y00255*
X02247Y00242*
X0226Y00231*
X02275Y00222*
X0229Y00216*
X02307Y00212*
X02324Y00211*
X0234Y00212*
X02357Y00216*
X02372Y00222*
X02387Y00231*
X024Y00242*
X02411Y00255*
X0242Y0027*
X02426Y00285*
X0243Y00302*
X02431Y00319*
X0243Y00335*
X02426Y00352*
X0242Y00367*
X02411Y00382*
X024Y00395*
X02387Y00406*
X02372Y00415*
X02357Y00421*
X0234Y00425*
X02324Y00426*
G37*
G36*
X00731D02*
X00714Y00425D01*
X00697Y00421*
X00682Y00415*
X00667Y00406*
X00654Y00395*
X00643Y00382*
X00634Y00367*
X00628Y00352*
X00624Y00335*
X00623Y00319*
X00624Y00302*
X00628Y00285*
X00634Y0027*
X00643Y00255*
X00654Y00242*
X00667Y00231*
X00682Y00222*
X00697Y00216*
X00714Y00212*
X00731Y00211*
X00747Y00212*
X00764Y00216*
X00779Y00222*
X00794Y00231*
X00807Y00242*
X00818Y00255*
X00827Y0027*
X00833Y00285*
X00837Y00302*
X00838Y00319*
X00837Y00335*
X00833Y00352*
X00827Y00367*
X00818Y00382*
X00807Y00395*
X00794Y00406*
X00779Y00415*
X00764Y00421*
X00747Y00425*
X00731Y00426*
G37*
%LNstrwl-p01-v01-3*%
%LPD*%
G54D12*
X01509Y01878D02*
X01595Y01964D01*
X01544Y02045D02*
X01694Y01894D01*
X01554Y02055D02*
X01709Y019D01*
X01517Y02001D02*
X0153D01*
X01455Y01939D02*
X01517Y02001D01*
X0153D02*
X01531Y02003D01*
X01743Y0214D02*
Y02202D01*
X01164Y01514D02*
X01165Y01515D01*
X01098Y02897D02*
X01099Y02898D01*
X01098Y02891D02*
Y02897D01*
X01065Y02857D02*
X01098Y02891D01*
X01793Y02757D02*
X01821Y02784D01*
X01793Y02636D02*
Y02757D01*
X00417Y0267D02*
X0048Y02733D01*
X01012Y02508D02*
X01012Y02507D01*
Y02392D02*
Y02507D01*
X00392Y02536D02*
X00417Y02561D01*
X00359Y02536D02*
X00392D01*
X00417Y02561D02*
Y0267D01*
X01076Y01188D02*
X01132D01*
X01761Y01698D02*
Y01721D01*
X01709Y01772D02*
X01761Y01721D01*
X0117Y02489D02*
X01422D01*
X01547Y02364*
X01437Y02202D02*
X01438D01*
X01421Y02186D02*
X01437Y02202D01*
X01424Y02166D02*
X01438Y0218D01*
X01199Y02166D02*
X01424D01*
X01438Y0218D02*
X0144D01*
X01199Y02186D02*
X01421D01*
X01901Y02632D02*
X02385D01*
X01832Y02562D02*
X01901Y02632D01*
X01972Y02732D02*
X02385D01*
X01818Y02578D02*
X01972Y02732D01*
X01912Y02503D02*
Y02504D01*
X02009Y02601D02*
Y02603D01*
X01912Y02504D02*
X02009Y02601D01*
X0203Y02593D02*
Y02594D01*
X01943Y02506D02*
X0203Y02593D01*
X01817Y02578D02*
X01818D01*
X01275Y02078D02*
X01311Y02041D01*
X01338*
X01069Y01881D02*
X01259D01*
X01278Y019*
X01249Y01988D02*
X01273Y02012D01*
X01249Y01987D02*
Y01988D01*
X01273Y02012D02*
Y0203D01*
X01275Y02032*
X01694Y01763D02*
X0174Y01717D01*
X01709Y01772D02*
Y019D01*
X0174Y01716D02*
Y01717D01*
X01694Y01763D02*
Y01894D01*
X01554Y02057D02*
X01555Y02058D01*
X01554Y02055D02*
Y02057D01*
X01541Y02043D02*
X01542Y02045D01*
X01544*
X01334Y02658D02*
Y02817D01*
Y02658D02*
X01335Y02658D01*
X01249Y02737D02*
Y02892D01*
X01275Y02866D02*
X01275Y02866D01*
Y0271D02*
Y02866D01*
Y0271D02*
X01276Y0271D01*
X01307Y02692D02*
Y02844D01*
Y02692D02*
X01307Y02692D01*
G54D15*
X00479Y00518D02*
X00667D01*
X01062Y01514D02*
X01164D01*
G54D19*
X01038Y00893D03*
X02713Y01018D03*
X02364Y031D03*
X00582Y03166D03*
G54D82*
X00309Y02636D03*
X00359D03*
Y02586D03*
X00309D03*
Y02536D03*
X00359D03*
Y02686D03*
X00309D03*
Y02736D03*
X00359D03*
G54D83*
X02385Y02632D03*
G54D84*
X02385Y02732D03*
Y02832D03*
G54D85*
X01595Y01964D03*
X01531Y02003D03*
X01509Y01878D03*
X01743Y02202D03*
Y0214D03*
X01455Y01939D03*
X01397Y0188D03*
X00667Y00518D03*
X00479D03*
X00439Y00313D03*
X01132Y01188D03*
X01165Y01515D03*
X02046Y01115D03*
Y01255D03*
X01678Y00826D03*
X01621Y01226D03*
X01731Y0122D03*
X01868Y01711D03*
X01911Y01653D03*
X01183Y01016D03*
X01761Y01698D03*
X01701Y01731D03*
X02102Y0199D03*
X01992Y01866D03*
X01012Y02508D03*
X01012Y02392D03*
X01312Y02281D03*
X00419Y02315D03*
X00505Y02666D03*
X01547Y02364D03*
X0117Y02489D03*
X01438Y02202D03*
X0144Y0218D03*
X01199Y02166D03*
Y02186D03*
X02601Y00744D03*
X0044Y01293D03*
X01832Y0199D03*
X0188Y02003D03*
X01062Y01514D03*
X00429Y00665D03*
X01793Y02636D03*
X01821Y02784D03*
X01076Y01188D03*
X01287Y01361D03*
X01373Y01215D03*
X01502Y00823D03*
X01415Y00858D03*
X0123D03*
X01038Y01158D03*
X00665Y01177D03*
X00436Y02012D03*
X01821Y01757D03*
X01589Y02859D03*
X0138Y02829D03*
X00811Y02877D03*
X01235Y02318D03*
X0092Y02599D03*
X00908Y02781D03*
X01029Y02783D03*
X01089D03*
X01149Y02781D03*
X00969Y02781D03*
X00388Y02146D03*
X00712Y0215D03*
X00713Y01697D03*
X01694Y02615D03*
X02128Y02336D03*
X01072Y02968D03*
X02009Y02603D03*
X0203Y02594D03*
X01912Y02503D03*
X01943Y02506D03*
X01817Y02578D03*
X01832Y02562D03*
X01338Y02041D03*
X01275Y02078D03*
X01069Y01881D03*
X01278Y019D03*
X01249Y01987D03*
X01275Y02032D03*
X01531Y02898D03*
X0174Y01716D03*
X01555Y02058D03*
X01541Y02043D03*
X01065Y02857D03*
X01099Y02898D03*
X01054Y01968D03*
X00908D03*
X00387Y01697D03*
X01276Y0271D03*
X01249Y02737D03*
X01307Y02692D03*
X01335Y02658D03*
X01969Y02121D03*
X0202Y02194D03*
X01275Y02866D03*
X01334Y02817D03*
X01249Y02892D03*
X01307Y02844D03*
X01355Y01015D03*
X01294Y01016D03*
X02606Y00393D03*
X0187Y00405D03*
X01434D03*
X00998D03*
X00981Y01968D03*
X00814Y02818D03*
M02*