M48
;Layer_Color=9474304
;FILE_FORMAT=4:4
METRIC,LZ
;TYPE=PLATED
T1F00S00C0.2000
T2F00S00C0.6350
T3F00S00C0.9000
;TYPE=NON_PLATED
T4F00S00C3.2000
%
T01
X00111506Y00079502
X00121666Y00131572
X00169626
X00109115Y0016907
X00111982Y0032845
X00169037Y00299208
X00263698Y00294149
X00273304Y00301752
X00287528
X00300542Y00258122
X00328736
X00344349Y00257868
X0035953Y00217992
X00381671Y00209206
X0031248Y00217992
X00348802Y0030861
X00327085Y00345694
X0029591Y0038481
X0026996Y00384808
X00253492Y0010287
X00364236
X0047498
X00426227Y00209911
X00439886Y00310103
X00411876Y00311423
X00519898Y00318944
Y00283384
X00660686Y0018907
X00661924Y00099822
X00485598Y00420038
X00474709Y00434639
X00462671Y00446502
X00447294Y00431292
X00442052Y00435956
X00432079Y00439832
X00405256Y00498892
X00465346Y00505474
X0047752Y00508762
X00500126Y00538734
X00513238Y00557352
X00540512Y00593344
X00493558Y00636764
X00485695Y00635899
X00465346Y0065094
X00461737Y00654847
X00455642Y00669544
X00430443Y0066421
X00462534Y00707284
X0040367Y00726433
X00510443Y00661162
X0051562Y00658876
X00534046Y00505474
X0050603Y00474179
X00442722Y0054356
Y00559507
X00365434
X00365811Y00553859
X00333501Y00579492
X0031369Y00588772
X00304546Y00555434
Y00550164
X0032385Y00527812
Y00516128
X00317462Y00504844
X00324678Y00482663
X00354876Y004776
X00383446Y00477082
X00369658Y00492752
X00388919Y00508762
X00391463Y00519111
X00395189Y00522837
X00340031Y00518519
X00267734Y00499884
X00249225
X00230743
X00271526Y00477884
X00181102Y00431038
X00098298
X00110744Y00511104
X00098552Y00545084
X00106523Y00588226
X00128366Y00677275
X0020684Y00715944
X00206121Y00730758
X00230743Y00706479
X00246126
X00261508Y00706951
X00276741
X00292009Y00706567
X00317386Y00695198
X00324104Y0068834
X00332142Y00683852
X0033909Y00675132
X00339003Y00715744
X00331978Y00722376
X00324002Y00728093
X00317386Y00734708
X00279387Y00736333
X0027051Y00725847
X00272288Y00753872
X00350637Y00718727
X00388919Y00736333
X00393064Y00600544
X00297372Y00632363
X00257048Y00637032
X00257143Y00607615
X00233796Y0066023
X00180848Y005461
T02
X00078486Y00644204
Y00656904
Y00669604
X00091186
Y00656904
Y00644204
Y00682304
X00078486
Y00695004
X00091186
T03
X00605882Y00668674
Y00694074
Y00719474
T04
X00185674Y00081026
X00590296
X00666842Y00783302
X00099365
M30
