G04*
G04 #@! TF.GenerationSoftware,Altium Limited,Altium Designer,21.5.1 (32)*
G04*
G04 Layer_Color=255*
%FSLAX44Y44*%
%MOMM*%
G71*
G04*
G04 #@! TF.SameCoordinates,291158CD-1CAE-4BE2-80A8-EAB606698AEE*
G04*
G04*
G04 #@! TF.FilePolarity,Positive*
G04*
G01*
G75*
G04:AMPARAMS|DCode=17|XSize=0.3mm|YSize=1.8mm|CornerRadius=0mm|HoleSize=0mm|Usage=FLASHONLY|Rotation=225.000|XOffset=0mm|YOffset=0mm|HoleType=Round|Shape=Rectangle|*
%AMROTATEDRECTD17*
4,1,4,-0.5303,0.7425,0.7425,-0.5303,0.5303,-0.7425,-0.7425,0.5303,-0.5303,0.7425,0.0*
%
%ADD17ROTATEDRECTD17*%

G04:AMPARAMS|DCode=18|XSize=0.3mm|YSize=1.8mm|CornerRadius=0mm|HoleSize=0mm|Usage=FLASHONLY|Rotation=135.000|XOffset=0mm|YOffset=0mm|HoleType=Round|Shape=Rectangle|*
%AMROTATEDRECTD18*
4,1,4,0.7425,0.5303,-0.5303,-0.7425,-0.7425,-0.5303,0.5303,0.7425,0.7425,0.5303,0.0*
%
%ADD18ROTATEDRECTD18*%

%ADD19C,1.0000*%
%ADD20R,3.4000X1.5000*%
%ADD21R,3.5000X1.0000*%
%ADD22R,1.8034X1.1938*%
%ADD23R,1.8000X5.7000*%
%ADD24R,1.7000X2.5000*%
%ADD25R,1.3000X2.8000*%
%ADD26R,0.7620X1.0160*%
%ADD27R,0.6121X1.8544*%
%ADD28R,1.0160X0.7620*%
%ADD29R,0.8890X0.8890*%
G04:AMPARAMS|DCode=30|XSize=0.762mm|YSize=1.016mm|CornerRadius=0mm|HoleSize=0mm|Usage=FLASHONLY|Rotation=135.000|XOffset=0mm|YOffset=0mm|HoleType=Round|Shape=Rectangle|*
%AMROTATEDRECTD30*
4,1,4,0.6286,0.0898,-0.0898,-0.6286,-0.6286,-0.0898,0.0898,0.6286,0.6286,0.0898,0.0*
%
%ADD30ROTATEDRECTD30*%

%ADD31R,0.8890X1.7780*%
%ADD32R,1.5500X0.6000*%
%ADD33R,0.8890X0.8890*%
G04:AMPARAMS|DCode=34|XSize=0.762mm|YSize=1.016mm|CornerRadius=0mm|HoleSize=0mm|Usage=FLASHONLY|Rotation=45.000|XOffset=0mm|YOffset=0mm|HoleType=Round|Shape=Rectangle|*
%AMROTATEDRECTD34*
4,1,4,0.0898,-0.6286,-0.6286,0.0898,-0.0898,0.6286,0.6286,-0.0898,0.0898,-0.6286,0.0*
%
%ADD34ROTATEDRECTD34*%

%ADD35R,0.3000X0.7500*%
%ADD36R,2.4000X1.6000*%
%ADD37R,1.5000X0.8000*%
%ADD38R,2.0000X1.4500*%
G04:AMPARAMS|DCode=39|XSize=0.85mm|YSize=0.6mm|CornerRadius=0mm|HoleSize=0mm|Usage=FLASHONLY|Rotation=135.000|XOffset=0mm|YOffset=0mm|HoleType=Round|Shape=Rectangle|*
%AMROTATEDRECTD39*
4,1,4,0.5127,-0.0884,0.0884,-0.5127,-0.5127,0.0884,-0.0884,0.5127,0.5127,-0.0884,0.0*
%
%ADD39ROTATEDRECTD39*%

%ADD40R,1.2700X0.7620*%
%ADD41R,0.3000X0.8000*%
%ADD42R,1.0000X1.0000*%
%ADD43R,1.5000X3.4000*%
%ADD44R,1.0000X3.5000*%
%ADD45R,1.1544X1.3562*%
%ADD46R,0.4700X0.6000*%
%ADD47R,0.9000X0.8000*%
%ADD48R,1.5240X1.0160*%
G04:AMPARAMS|DCode=71|XSize=0.85mm|YSize=1mm|CornerRadius=0mm|HoleSize=0mm|Usage=FLASHONLY|Rotation=135.000|XOffset=0mm|YOffset=0mm|HoleType=Round|Shape=Rectangle|*
%AMROTATEDRECTD71*
4,1,4,0.6541,0.0530,-0.0530,-0.6541,-0.6541,-0.0530,0.0530,0.6541,0.6541,0.0530,0.0*
%
%ADD71ROTATEDRECTD71*%

%ADD83C,1.0160*%
%ADD84R,1.5000X1.5000*%
%ADD85C,1.5000*%
D17*
X443268Y458415D02*
D03*
X446804Y461951D02*
D03*
X450339Y465486D02*
D03*
X453875Y469022D02*
D03*
X457410Y472557D02*
D03*
X460946Y476093D02*
D03*
X464481Y479628D02*
D03*
X468017Y483164D02*
D03*
X471552Y486699D02*
D03*
X475088Y490235D02*
D03*
X478624Y493770D02*
D03*
X482159Y497306D02*
D03*
X485695Y500841D02*
D03*
X489230Y504377D02*
D03*
X492766Y507912D02*
D03*
X496301Y511448D02*
D03*
X499837Y514984D02*
D03*
X503372Y518519D02*
D03*
X506908Y522055D02*
D03*
X510443Y525590D02*
D03*
X513979Y529126D02*
D03*
X517514Y532661D02*
D03*
X521050Y536197D02*
D03*
X524585Y539732D02*
D03*
X528121Y543268D02*
D03*
X421348Y650041D02*
D03*
X417812Y646505D02*
D03*
X414277Y642970D02*
D03*
X410741Y639434D02*
D03*
X407206Y635899D02*
D03*
X403670Y632363D02*
D03*
X400135Y628828D02*
D03*
X396599Y625292D02*
D03*
X393064Y621757D02*
D03*
X389528Y618221D02*
D03*
X385993Y614686D02*
D03*
X382457Y611150D02*
D03*
X378921Y607615D02*
D03*
X375386Y604079D02*
D03*
X371850Y600544D02*
D03*
X368315Y597008D02*
D03*
X364779Y593472D02*
D03*
X361244Y589937D02*
D03*
X357708Y586401D02*
D03*
X354173Y582866D02*
D03*
X350637Y579330D02*
D03*
X347102Y575795D02*
D03*
X343566Y572259D02*
D03*
X340031Y568724D02*
D03*
X336495Y565188D02*
D03*
D18*
X528121D02*
D03*
X524585Y568724D02*
D03*
X521050Y572259D02*
D03*
X517514Y575795D02*
D03*
X513979Y579330D02*
D03*
X510443Y582866D02*
D03*
X506908Y586401D02*
D03*
X503372Y589937D02*
D03*
X499837Y593472D02*
D03*
X496301Y597008D02*
D03*
X492766Y600544D02*
D03*
X489230Y604079D02*
D03*
X485695Y607615D02*
D03*
X482159Y611150D02*
D03*
X478624Y614686D02*
D03*
X475088Y618221D02*
D03*
X471552Y621757D02*
D03*
X468017Y625292D02*
D03*
X464481Y628828D02*
D03*
X460946Y632363D02*
D03*
X457410Y635899D02*
D03*
X453875Y639434D02*
D03*
X450339Y642970D02*
D03*
X446804Y646505D02*
D03*
X443268Y650041D02*
D03*
X336495Y543268D02*
D03*
X340031Y539732D02*
D03*
X343566Y536197D02*
D03*
X347102Y532661D02*
D03*
X350637Y529126D02*
D03*
X354173Y525590D02*
D03*
X357708Y522055D02*
D03*
X361244Y518519D02*
D03*
X364779Y514984D02*
D03*
X368315Y511448D02*
D03*
X371850Y507912D02*
D03*
X375386Y504377D02*
D03*
X378921Y500841D02*
D03*
X382457Y497306D02*
D03*
X385993Y493770D02*
D03*
X389528Y490235D02*
D03*
X393064Y486699D02*
D03*
X396599Y483164D02*
D03*
X400135Y479628D02*
D03*
X403670Y476093D02*
D03*
X407206Y472557D02*
D03*
X410741Y469022D02*
D03*
X414277Y465486D02*
D03*
X417812Y461951D02*
D03*
X421348Y458415D02*
D03*
D19*
X263698Y226882D02*
D03*
X689102Y258572D02*
D03*
X600456Y787400D02*
D03*
X148048Y804322D02*
D03*
D20*
X73667Y56158D02*
D03*
Y123158D02*
D03*
X697370Y212570D02*
D03*
Y145570D02*
D03*
Y56158D02*
D03*
Y123158D02*
D03*
X73651Y351961D02*
D03*
Y244961D02*
D03*
X73667Y212570D02*
D03*
Y145570D02*
D03*
D21*
X131167Y79658D02*
D03*
Y99658D02*
D03*
X639870Y189070D02*
D03*
Y169070D02*
D03*
Y79658D02*
D03*
Y99658D02*
D03*
X131151Y268461D02*
D03*
Y288461D02*
D03*
Y308461D02*
D03*
Y328461D02*
D03*
X131167Y189070D02*
D03*
Y169070D02*
D03*
D22*
X410928Y214529D02*
D03*
Y248099D02*
D03*
Y298765D02*
D03*
Y265196D02*
D03*
D23*
X470618Y231434D02*
D03*
X525228D02*
D03*
D24*
X440392Y209911D02*
D03*
Y249910D02*
D03*
X300034Y243144D02*
D03*
Y283144D02*
D03*
D25*
X496528Y318944D02*
D03*
X529036D02*
D03*
X496528Y283384D02*
D03*
X529036D02*
D03*
X181866Y255524D02*
D03*
X214374D02*
D03*
D26*
X413214Y322814D02*
D03*
X429082D02*
D03*
X445726Y323069D02*
D03*
X461594D02*
D03*
X445634Y340594D02*
D03*
X461502D02*
D03*
X319824Y202752D02*
D03*
X335692D02*
D03*
X137884Y677860D02*
D03*
X122016D02*
D03*
X137884Y695603D02*
D03*
X122016D02*
D03*
X366084Y217992D02*
D03*
X350216D02*
D03*
X226127Y355056D02*
D03*
X241995D02*
D03*
X242002Y339804D02*
D03*
X226134D02*
D03*
X319824Y217992D02*
D03*
X335692D02*
D03*
X350216Y202752D02*
D03*
X366084D02*
D03*
X423104Y663956D02*
D03*
X438972D02*
D03*
X395922Y726433D02*
D03*
X411790D02*
D03*
X381301Y732341D02*
D03*
X365433D02*
D03*
X212718Y163576D02*
D03*
X196850D02*
D03*
X593658Y133350D02*
D03*
X577790D02*
D03*
X215960Y731012D02*
D03*
X200092D02*
D03*
X215768Y715744D02*
D03*
X199900D02*
D03*
D27*
X449190Y297487D02*
D03*
X439690D02*
D03*
X430190D02*
D03*
Y274482D02*
D03*
X439690D02*
D03*
X449190D02*
D03*
D28*
X466046Y290557D02*
D03*
Y274688D02*
D03*
X505329Y732887D02*
D03*
Y748755D02*
D03*
X558707D02*
D03*
Y732887D02*
D03*
X348802Y299660D02*
D03*
Y315528D02*
D03*
X328736Y281296D02*
D03*
Y265428D02*
D03*
X271526Y292548D02*
D03*
Y308416D02*
D03*
X261508Y700319D02*
D03*
Y716187D02*
D03*
X292009Y700319D02*
D03*
Y716187D02*
D03*
X276741Y700319D02*
D03*
Y716187D02*
D03*
X603826Y169129D02*
D03*
Y184997D02*
D03*
X432131Y433257D02*
D03*
Y449125D02*
D03*
X230999Y489605D02*
D03*
Y505474D02*
D03*
X249225Y489605D02*
D03*
Y505474D02*
D03*
X267734Y489605D02*
D03*
Y505474D02*
D03*
X365604Y347784D02*
D03*
Y331916D02*
D03*
X380909Y347784D02*
D03*
Y331916D02*
D03*
X350326Y347786D02*
D03*
Y331918D02*
D03*
X333562Y299660D02*
D03*
Y315528D02*
D03*
X381671Y218306D02*
D03*
Y202438D02*
D03*
X168351Y204410D02*
D03*
Y188542D02*
D03*
X328736Y250816D02*
D03*
Y234948D02*
D03*
X350637Y727487D02*
D03*
Y711620D02*
D03*
X192278Y680018D02*
D03*
Y664150D02*
D03*
X230743Y716095D02*
D03*
Y700227D02*
D03*
X246126Y716086D02*
D03*
Y700218D02*
D03*
D29*
X430426Y338308D02*
D03*
X415186D02*
D03*
X205009Y339502D02*
D03*
X189769D02*
D03*
Y355056D02*
D03*
X205009D02*
D03*
D30*
X539616Y500228D02*
D03*
X528395Y511448D02*
D03*
X309096Y593366D02*
D03*
X320316Y582146D02*
D03*
D31*
X117012Y588226D02*
D03*
X75012D02*
D03*
D32*
X252293Y281450D02*
D03*
Y294149D02*
D03*
Y306849D02*
D03*
Y319550D02*
D03*
X198293Y281450D02*
D03*
Y294149D02*
D03*
Y306849D02*
D03*
Y319550D02*
D03*
D33*
X541072Y749816D02*
D03*
Y734576D02*
D03*
X523279Y749816D02*
D03*
Y734576D02*
D03*
X364819Y315976D02*
D03*
Y300736D02*
D03*
X378266Y315976D02*
D03*
Y300736D02*
D03*
X334070Y345694D02*
D03*
Y330454D02*
D03*
X320100Y345694D02*
D03*
Y330454D02*
D03*
D34*
X469625Y428664D02*
D03*
X480845Y439884D02*
D03*
X493299Y427738D02*
D03*
X482079Y416518D02*
D03*
X468672Y452138D02*
D03*
X457451Y440918D02*
D03*
X360983Y484107D02*
D03*
X349762Y472887D02*
D03*
X549678Y595144D02*
D03*
X538458Y583924D02*
D03*
D35*
X350351Y242868D02*
D03*
X355351D02*
D03*
X360351D02*
D03*
X365351D02*
D03*
X370351D02*
D03*
Y272868D02*
D03*
X365351D02*
D03*
X360351D02*
D03*
X355351D02*
D03*
X350351D02*
D03*
D36*
X360351Y257868D02*
D03*
D37*
X124264Y532884D02*
D03*
Y521884D02*
D03*
Y510884D02*
D03*
Y499884D02*
D03*
Y488884D02*
D03*
Y477884D02*
D03*
Y466884D02*
D03*
Y455884D02*
D03*
D38*
X98264Y419184D02*
D03*
Y556684D02*
D03*
X181264Y419184D02*
D03*
Y556684D02*
D03*
D39*
X503610Y461470D02*
D03*
X492296Y472783D02*
D03*
D40*
X172212Y340106D02*
D03*
Y354076D02*
D03*
X235712Y248666D02*
D03*
Y262636D02*
D03*
D41*
X247143Y746820D02*
D03*
X352142D02*
D03*
X347142D02*
D03*
X342142D02*
D03*
X337142D02*
D03*
X332142D02*
D03*
X327142D02*
D03*
X322142D02*
D03*
X317143D02*
D03*
X312143D02*
D03*
X307143D02*
D03*
X302143D02*
D03*
X297143D02*
D03*
X292143D02*
D03*
X287143D02*
D03*
X282143D02*
D03*
X277143D02*
D03*
X272143D02*
D03*
X267143D02*
D03*
X262143D02*
D03*
X257143D02*
D03*
X252143D02*
D03*
X242143D02*
D03*
X237143D02*
D03*
D42*
X377137Y762820D02*
D03*
X212143D02*
D03*
D43*
X451477Y65642D02*
D03*
X538477D02*
D03*
X340816D02*
D03*
X427817D02*
D03*
X230156D02*
D03*
X317156D02*
D03*
D44*
X514977Y123142D02*
D03*
X494977D02*
D03*
X474977D02*
D03*
X404316D02*
D03*
X384316D02*
D03*
X364316D02*
D03*
X293656D02*
D03*
X273656D02*
D03*
X253656D02*
D03*
D45*
X410683Y707284D02*
D03*
X397165D02*
D03*
D46*
X380388Y718160D02*
D03*
X367388D02*
D03*
X373888Y699160D02*
D03*
D47*
X161196Y299466D02*
D03*
X181196Y289966D02*
D03*
Y308966D02*
D03*
D48*
X256636Y679071D02*
D03*
Y646051D02*
D03*
X233796Y650832D02*
D03*
Y683852D02*
D03*
X211328Y665988D02*
D03*
Y699008D02*
D03*
D71*
X496185Y454045D02*
D03*
X511035Y468894D02*
D03*
X499721Y480208D02*
D03*
X484872Y465359D02*
D03*
D83*
X78486Y669604D02*
D03*
X91186D02*
D03*
Y656904D02*
D03*
X78486D02*
D03*
Y644204D02*
D03*
X91186D02*
D03*
Y682304D02*
D03*
X78486D02*
D03*
Y695004D02*
D03*
X91186D02*
D03*
D84*
X605882Y668674D02*
D03*
D85*
Y694074D02*
D03*
Y719474D02*
D03*
M02*
