G04*
G04 #@! TF.GenerationSoftware,Altium Limited,Altium Designer,21.5.1 (32)*
G04*
G04 Layer_Color=32896*
%FSLAX44Y44*%
%MOMM*%
G71*
G04*
G04 #@! TF.SameCoordinates,B68859E6-8F99-4948-AC01-CAA0BB4B992E*
G04*
G04*
G04 #@! TF.FilePolarity,Positive*
G04*
G01*
G75*
%ADD12C,0.2540*%
%ADD15C,0.3810*%
G36*
X299800Y754697D02*
X300355D01*
Y754142D01*
Y753587D01*
Y753032D01*
X300910D01*
Y752477D01*
Y751921D01*
Y751366D01*
X301465D01*
Y750811D01*
Y750256D01*
X302021D01*
Y749700D01*
Y749145D01*
Y748590D01*
Y748035D01*
X302576D01*
Y747480D01*
X302021D01*
Y746924D01*
Y746369D01*
X303131D01*
Y745814D01*
Y745259D01*
Y744703D01*
Y744148D01*
Y743593D01*
X303686D01*
Y743038D01*
Y742483D01*
Y741927D01*
X304242D01*
Y741372D01*
Y740817D01*
Y740262D01*
X304797D01*
Y739706D01*
Y739151D01*
Y738596D01*
X305352D01*
Y738041D01*
Y737486D01*
X305907D01*
Y736930D01*
Y736375D01*
Y735820D01*
X306462D01*
Y735265D01*
Y734709D01*
Y734154D01*
X307018D01*
Y733599D01*
Y733044D01*
X307573D01*
Y732488D01*
Y731933D01*
Y731378D01*
X308128D01*
Y730823D01*
Y730267D01*
Y729712D01*
Y729157D01*
X308683D01*
Y728602D01*
Y728047D01*
Y727491D01*
Y726936D01*
Y726381D01*
X309794D01*
Y725826D01*
X309238D01*
Y725270D01*
Y724715D01*
X309794D01*
Y724160D01*
Y723605D01*
Y723050D01*
X310349D01*
Y722494D01*
Y721939D01*
X310904D01*
Y721384D01*
X277035D01*
Y721939D01*
Y722494D01*
Y723050D01*
Y723605D01*
Y724160D01*
X276480D01*
Y724715D01*
Y725270D01*
X275925D01*
Y725826D01*
Y726381D01*
Y726936D01*
X275370D01*
Y727491D01*
Y728047D01*
Y728602D01*
Y729157D01*
X274814D01*
Y729712D01*
Y730267D01*
X274259D01*
Y730823D01*
Y731378D01*
Y731933D01*
X273704D01*
Y732488D01*
Y733044D01*
Y733599D01*
X273149D01*
Y734154D01*
Y734709D01*
Y735265D01*
X272593D01*
Y735820D01*
Y736375D01*
X272038D01*
Y736930D01*
Y737486D01*
Y738041D01*
X271483D01*
Y738596D01*
Y739151D01*
Y739706D01*
Y740262D01*
Y740817D01*
X270928D01*
Y741372D01*
Y741927D01*
Y742483D01*
X270373D01*
Y743038D01*
Y743593D01*
Y744148D01*
X269817D01*
Y744703D01*
Y745259D01*
Y745814D01*
X269262D01*
Y746369D01*
Y746924D01*
X268707D01*
Y747480D01*
Y748035D01*
Y748590D01*
Y749145D01*
X268152D01*
Y749700D01*
Y750256D01*
Y750811D01*
X267596D01*
Y751366D01*
Y751921D01*
Y752477D01*
X267041D01*
Y753032D01*
Y753587D01*
X266486D01*
Y754142D01*
Y754697D01*
Y755253D01*
X299800D01*
Y754697D01*
D02*
G37*
G36*
X232617D02*
Y754142D01*
X233172D01*
Y753587D01*
Y753032D01*
Y752477D01*
X233728D01*
Y751921D01*
Y751366D01*
Y750811D01*
X234283D01*
Y750256D01*
Y749700D01*
X234838D01*
Y749145D01*
Y748590D01*
Y748035D01*
X235393D01*
Y747480D01*
Y746924D01*
Y746369D01*
Y745814D01*
X235949D01*
Y745259D01*
Y744703D01*
Y744148D01*
X236504D01*
Y743593D01*
Y743038D01*
X237059D01*
Y742483D01*
Y741927D01*
Y741372D01*
Y740817D01*
Y740262D01*
X238169D01*
Y739706D01*
Y739151D01*
X237614D01*
Y738596D01*
X238169D01*
Y738041D01*
Y737486D01*
Y736930D01*
X238725D01*
Y736375D01*
Y735820D01*
Y735265D01*
X239280D01*
Y734709D01*
Y734154D01*
Y733599D01*
X239835D01*
Y733044D01*
Y732488D01*
X240390D01*
Y731933D01*
Y731378D01*
Y730823D01*
X240946D01*
Y730267D01*
Y729712D01*
Y729157D01*
X241501D01*
Y728602D01*
Y728047D01*
X242056D01*
Y727491D01*
Y726936D01*
Y726381D01*
Y725826D01*
Y725270D01*
Y724715D01*
Y724160D01*
X243167D01*
Y723605D01*
X242611D01*
Y723050D01*
X243167D01*
Y722494D01*
Y721939D01*
Y721384D01*
X276480D01*
Y720829D01*
Y720274D01*
X277035D01*
Y719718D01*
Y719163D01*
Y718608D01*
X277591D01*
Y718053D01*
Y717497D01*
X278146D01*
Y716942D01*
Y716387D01*
Y715832D01*
X278701D01*
Y715276D01*
Y714721D01*
Y714166D01*
X279256D01*
Y713611D01*
Y713055D01*
Y712500D01*
X279811D01*
Y711945D01*
Y711390D01*
Y710835D01*
X280367D01*
Y710279D01*
Y709724D01*
Y709169D01*
X280922D01*
Y708614D01*
Y708058D01*
Y707503D01*
Y706948D01*
Y706393D01*
X281477D01*
Y705838D01*
X282032D01*
Y705282D01*
X281477D01*
Y704727D01*
X282032D01*
Y704172D01*
Y703617D01*
Y703061D01*
X282588D01*
Y702506D01*
Y701951D01*
Y701396D01*
X283143D01*
Y700841D01*
Y700285D01*
X283698D01*
Y699730D01*
Y699175D01*
Y698620D01*
X284253D01*
Y698064D01*
Y697509D01*
Y696954D01*
X284809D01*
Y696399D01*
Y695844D01*
Y695288D01*
X285364D01*
Y694733D01*
Y694178D01*
X285919D01*
Y693623D01*
Y693067D01*
Y692512D01*
Y691957D01*
Y691402D01*
Y690846D01*
X287029D01*
Y690291D01*
X286474D01*
Y689736D01*
Y689181D01*
X287029D01*
Y688625D01*
Y688070D01*
X253716D01*
Y688625D01*
Y689181D01*
Y689736D01*
Y690291D01*
X253161D01*
Y690846D01*
Y691402D01*
X252605D01*
Y691957D01*
Y692512D01*
Y693067D01*
X252050D01*
Y693623D01*
Y694178D01*
Y694733D01*
X251495D01*
Y695288D01*
Y695844D01*
Y696399D01*
X250940D01*
Y696954D01*
Y697509D01*
Y698064D01*
X250384D01*
Y698620D01*
Y699175D01*
X249829D01*
Y699730D01*
X250384D01*
Y700285D01*
Y700841D01*
X249274D01*
Y701396D01*
Y701951D01*
Y702506D01*
Y703061D01*
Y703617D01*
X248719D01*
Y704172D01*
Y704727D01*
Y705282D01*
X248164D01*
Y705838D01*
Y706393D01*
Y706948D01*
X247608D01*
Y707503D01*
Y708058D01*
Y708614D01*
X247053D01*
Y709169D01*
Y709724D01*
Y710279D01*
X246498D01*
Y710835D01*
Y711390D01*
Y711945D01*
X245943D01*
Y712500D01*
Y713055D01*
Y713611D01*
X245387D01*
Y714166D01*
Y714721D01*
X244832D01*
Y715276D01*
Y715832D01*
Y716387D01*
X244277D01*
Y716942D01*
Y717497D01*
Y718053D01*
X243722D01*
Y718608D01*
Y719163D01*
Y719718D01*
Y720274D01*
Y720829D01*
X242611D01*
Y721384D01*
X210408D01*
Y720829D01*
Y720274D01*
Y719718D01*
Y719163D01*
Y718608D01*
X210963D01*
Y718053D01*
Y717497D01*
X211519D01*
Y716942D01*
Y716387D01*
Y715832D01*
X212074D01*
Y715276D01*
Y714721D01*
Y714166D01*
X212629D01*
Y713611D01*
Y713055D01*
Y712500D01*
X213184D01*
Y711945D01*
Y711390D01*
Y710835D01*
X213739D01*
Y710279D01*
Y709724D01*
X214295D01*
Y709169D01*
Y708614D01*
Y708058D01*
X214850D01*
Y707503D01*
X214295D01*
Y706948D01*
X215405D01*
Y706393D01*
Y705838D01*
Y705282D01*
Y704727D01*
Y704172D01*
Y703617D01*
Y703061D01*
X215960D01*
Y702506D01*
Y701951D01*
Y701396D01*
X216516D01*
Y700841D01*
Y700285D01*
X217071D01*
Y699730D01*
Y699175D01*
Y698620D01*
X217626D01*
Y698064D01*
Y697509D01*
Y696954D01*
X218181D01*
Y696399D01*
Y695844D01*
Y695288D01*
X218736D01*
Y694733D01*
Y694178D01*
X219292D01*
Y693623D01*
Y693067D01*
Y692512D01*
X219847D01*
Y691957D01*
Y691402D01*
Y690846D01*
X220402D01*
Y690291D01*
Y689736D01*
X220957D01*
Y689181D01*
Y688625D01*
Y688070D01*
X253716D01*
Y687515D01*
Y686960D01*
Y686405D01*
X254271D01*
Y685849D01*
Y685294D01*
Y684739D01*
X254826D01*
Y684184D01*
Y683628D01*
X255382D01*
Y683073D01*
Y682518D01*
Y681963D01*
X255937D01*
Y681408D01*
Y680852D01*
Y680297D01*
X256492D01*
Y679742D01*
Y679187D01*
X257047D01*
Y678632D01*
Y678076D01*
Y677521D01*
X257602D01*
Y676966D01*
Y676411D01*
Y675855D01*
X258158D01*
Y675300D01*
Y674745D01*
Y674190D01*
X258713D01*
Y673634D01*
X258158D01*
Y673079D01*
X258713D01*
Y672524D01*
X259268D01*
Y671969D01*
Y671413D01*
Y670858D01*
Y670303D01*
Y669748D01*
X259823D01*
Y669193D01*
Y668637D01*
Y668082D01*
Y667527D01*
X260378D01*
Y666972D01*
Y666416D01*
X260934D01*
Y665861D01*
Y665306D01*
Y664751D01*
X261489D01*
Y664195D01*
Y663640D01*
Y663085D01*
X262044D01*
Y662530D01*
Y661975D01*
X262599D01*
Y661419D01*
Y660864D01*
Y660309D01*
X263155D01*
Y659754D01*
Y659199D01*
Y658643D01*
X263710D01*
Y658088D01*
Y657533D01*
Y656978D01*
X264265D01*
Y656422D01*
Y655867D01*
X264820D01*
Y655312D01*
Y654757D01*
Y654202D01*
X231507D01*
Y654757D01*
X230951D01*
Y655312D01*
Y655867D01*
Y656422D01*
X230396D01*
Y656978D01*
Y657533D01*
Y658088D01*
X229841D01*
Y658643D01*
Y659199D01*
X229286D01*
Y659754D01*
Y660309D01*
Y660864D01*
X228731D01*
Y661419D01*
Y661975D01*
Y662530D01*
X228175D01*
Y663085D01*
Y663640D01*
X227620D01*
Y664195D01*
Y664751D01*
Y665306D01*
Y665861D01*
Y666416D01*
Y666972D01*
X226510D01*
Y667527D01*
X227065D01*
Y668082D01*
Y668637D01*
X226510D01*
Y669193D01*
Y669748D01*
Y670303D01*
X225954D01*
Y670858D01*
Y671413D01*
Y671969D01*
X225399D01*
Y672524D01*
Y673079D01*
Y673634D01*
X224844D01*
Y674190D01*
Y674745D01*
Y675300D01*
X224289D01*
Y675855D01*
Y676411D01*
X223734D01*
Y676966D01*
Y677521D01*
Y678076D01*
X223178D01*
Y678632D01*
Y679187D01*
Y679742D01*
X222623D01*
Y680297D01*
Y680852D01*
Y681408D01*
Y681963D01*
Y682518D01*
X221513D01*
Y683073D01*
X222068D01*
Y683628D01*
Y684184D01*
X221513D01*
Y684739D01*
Y685294D01*
Y685849D01*
X220957D01*
Y686405D01*
Y686960D01*
X220402D01*
Y687515D01*
Y688070D01*
X187644D01*
Y687515D01*
Y686960D01*
Y686405D01*
Y685849D01*
Y685294D01*
X188754D01*
Y684739D01*
X188199D01*
Y684184D01*
Y683628D01*
X188754D01*
Y683073D01*
Y682518D01*
Y681963D01*
X189310D01*
Y681408D01*
Y680852D01*
Y680297D01*
X189865D01*
Y679742D01*
Y679187D01*
X190420D01*
Y678632D01*
Y678076D01*
Y677521D01*
X190975D01*
Y676966D01*
Y676411D01*
Y675855D01*
X191530D01*
Y675300D01*
Y674745D01*
Y674190D01*
X192086D01*
Y673634D01*
Y673079D01*
Y672524D01*
X192641D01*
Y671969D01*
Y671413D01*
X193196D01*
Y670858D01*
Y670303D01*
Y669748D01*
X193751D01*
Y669193D01*
X193196D01*
Y668637D01*
Y668082D01*
X194307D01*
Y667527D01*
X193751D01*
Y666972D01*
X194307D01*
Y666416D01*
Y665861D01*
Y665306D01*
X194862D01*
Y664751D01*
Y664195D01*
Y663640D01*
Y663085D01*
X195417D01*
Y662530D01*
Y661975D01*
X195972D01*
Y661419D01*
Y660864D01*
Y660309D01*
X196527D01*
Y659754D01*
Y659199D01*
Y658643D01*
X197083D01*
Y658088D01*
Y657533D01*
Y656978D01*
X197638D01*
Y656422D01*
Y655867D01*
X198193D01*
Y655312D01*
Y654757D01*
Y654202D01*
X164879D01*
Y654757D01*
X164324D01*
Y655312D01*
Y655867D01*
Y656422D01*
X163769D01*
Y656978D01*
Y657533D01*
Y658088D01*
X163214D01*
Y658643D01*
Y659199D01*
X162659D01*
Y659754D01*
Y660309D01*
Y660864D01*
X162103D01*
Y661419D01*
X162659D01*
Y661975D01*
Y662530D01*
X161548D01*
Y663085D01*
Y663640D01*
Y664195D01*
Y664751D01*
Y665306D01*
Y665861D01*
X160993D01*
Y666416D01*
Y666972D01*
Y667527D01*
X160438D01*
Y668082D01*
Y668637D01*
X159882D01*
Y669193D01*
Y669748D01*
Y670303D01*
X159327D01*
Y670858D01*
Y671413D01*
Y671969D01*
X158772D01*
Y672524D01*
Y673079D01*
Y673634D01*
X158217D01*
Y674190D01*
Y674745D01*
Y675300D01*
X157662D01*
Y675855D01*
Y676411D01*
X157106D01*
Y676966D01*
Y677521D01*
Y678076D01*
X156551D01*
Y678632D01*
X157106D01*
Y679187D01*
X156551D01*
Y679742D01*
X155996D01*
Y680297D01*
Y680852D01*
Y681408D01*
Y681963D01*
Y682518D01*
X154885D01*
Y683073D01*
X155441D01*
Y683628D01*
Y684184D01*
Y684739D01*
X154885D01*
Y685294D01*
Y685849D01*
X154330D01*
Y686405D01*
Y686960D01*
Y687515D01*
X153775D01*
Y688070D01*
X187089D01*
Y688625D01*
Y689181D01*
Y689736D01*
Y690291D01*
X186533D01*
Y690846D01*
Y691402D01*
X185978D01*
Y691957D01*
Y692512D01*
Y693067D01*
X185423D01*
Y693623D01*
Y694178D01*
Y694733D01*
X184868D01*
Y695288D01*
Y695844D01*
Y696399D01*
X184312D01*
Y696954D01*
Y697509D01*
Y698064D01*
X183757D01*
Y698620D01*
Y699175D01*
Y699730D01*
Y700285D01*
Y700841D01*
X182647D01*
Y701396D01*
X183202D01*
Y701951D01*
X182647D01*
Y702506D01*
Y703061D01*
Y703617D01*
X182092D01*
Y704172D01*
Y704727D01*
Y705282D01*
Y705838D01*
X181536D01*
Y706393D01*
Y706948D01*
Y707503D01*
X180981D01*
Y708058D01*
Y708614D01*
X180426D01*
Y709169D01*
Y709724D01*
Y710279D01*
X179871D01*
Y710835D01*
Y711390D01*
Y711945D01*
X179315D01*
Y712500D01*
Y713055D01*
Y713611D01*
X178760D01*
Y714166D01*
Y714721D01*
Y715276D01*
Y715832D01*
Y716387D01*
X177650D01*
Y716942D01*
X178205D01*
Y717497D01*
Y718053D01*
X177650D01*
Y718608D01*
Y719163D01*
X177094D01*
Y719718D01*
Y720274D01*
Y720829D01*
X176539D01*
Y721384D01*
X142670D01*
Y721939D01*
Y722494D01*
Y723050D01*
X142115D01*
Y723605D01*
Y724160D01*
Y724715D01*
X141560D01*
Y725270D01*
Y725826D01*
Y726381D01*
X141005D01*
Y726936D01*
Y727491D01*
Y728047D01*
X140449D01*
Y728602D01*
Y729157D01*
Y729712D01*
X139894D01*
Y730267D01*
Y730823D01*
Y731378D01*
Y731933D01*
Y732488D01*
X138784D01*
Y733044D01*
X139339D01*
Y733599D01*
Y734154D01*
X138784D01*
Y734709D01*
Y735265D01*
X138229D01*
Y735820D01*
Y736375D01*
Y736930D01*
X137673D01*
Y737486D01*
Y738041D01*
Y738596D01*
X137118D01*
Y739151D01*
Y739706D01*
Y740262D01*
X136563D01*
Y740817D01*
Y741372D01*
Y741927D01*
X136008D01*
Y742483D01*
Y743038D01*
X135452D01*
Y743593D01*
Y744148D01*
Y744703D01*
Y745259D01*
X134897D01*
Y745814D01*
Y746369D01*
Y746924D01*
Y747480D01*
Y748035D01*
X133787D01*
Y748590D01*
X134342D01*
Y749145D01*
Y749700D01*
X133787D01*
Y750256D01*
Y750811D01*
Y751366D01*
X133232D01*
Y751921D01*
Y752477D01*
X132676D01*
Y753032D01*
Y753587D01*
Y754142D01*
X132121D01*
Y754697D01*
Y755253D01*
X165990D01*
Y754697D01*
Y754142D01*
Y753587D01*
X166545D01*
Y753032D01*
Y752477D01*
Y751921D01*
Y751366D01*
Y750811D01*
X167100D01*
Y750256D01*
Y749700D01*
Y749145D01*
X167656D01*
Y748590D01*
Y748035D01*
Y747480D01*
X168211D01*
Y746924D01*
Y746369D01*
Y745814D01*
X168766D01*
Y745259D01*
Y744703D01*
Y744148D01*
X169321D01*
Y743593D01*
Y743038D01*
Y742483D01*
X169876D01*
Y741927D01*
Y741372D01*
Y740817D01*
X170432D01*
Y740262D01*
Y739706D01*
Y739151D01*
Y738596D01*
Y738041D01*
X171542D01*
Y737486D01*
Y736930D01*
Y736375D01*
Y735820D01*
Y735265D01*
Y734709D01*
X172097D01*
Y734154D01*
Y733599D01*
X172653D01*
Y733044D01*
Y732488D01*
Y731933D01*
X173208D01*
Y731378D01*
Y730823D01*
Y730267D01*
X173763D01*
Y729712D01*
Y729157D01*
Y728602D01*
X174318D01*
Y728047D01*
Y727491D01*
X174874D01*
Y726936D01*
Y726381D01*
Y725826D01*
X175429D01*
Y725270D01*
Y724715D01*
Y724160D01*
Y723605D01*
X175984D01*
Y723050D01*
Y722494D01*
X176539D01*
Y721939D01*
Y721384D01*
X209853D01*
Y721939D01*
Y722494D01*
Y723050D01*
Y723605D01*
X209298D01*
Y724160D01*
Y724715D01*
X208742D01*
Y725270D01*
Y725826D01*
Y726381D01*
Y726936D01*
X208187D01*
Y727491D01*
Y728047D01*
Y728602D01*
X207632D01*
Y729157D01*
Y729712D01*
X207077D01*
Y730267D01*
Y730823D01*
Y731378D01*
X206521D01*
Y731933D01*
Y732488D01*
Y733044D01*
X205966D01*
Y733599D01*
X206521D01*
Y734154D01*
Y734709D01*
X205411D01*
Y735265D01*
Y735820D01*
Y736375D01*
Y736930D01*
Y737486D01*
X204856D01*
Y738041D01*
Y738596D01*
Y739151D01*
X204301D01*
Y739706D01*
Y740262D01*
Y740817D01*
X203745D01*
Y741372D01*
Y741927D01*
X203190D01*
Y742483D01*
Y743038D01*
Y743593D01*
X202635D01*
Y744148D01*
Y744703D01*
Y745259D01*
X202080D01*
Y745814D01*
Y746369D01*
Y746924D01*
X201525D01*
Y747480D01*
Y748035D01*
Y748590D01*
X200969D01*
Y749145D01*
Y749700D01*
Y750256D01*
X200414D01*
Y750811D01*
Y751366D01*
Y751921D01*
X199859D01*
Y752477D01*
Y753032D01*
Y753587D01*
Y754142D01*
Y754697D01*
X199304D01*
Y755253D01*
X232617D01*
Y754697D01*
D02*
G37*
G36*
X468033D02*
Y754142D01*
Y753587D01*
Y753032D01*
Y752477D01*
X468589D01*
Y751921D01*
Y751366D01*
Y750811D01*
X469144D01*
Y750256D01*
Y749700D01*
X469699D01*
Y749145D01*
Y748590D01*
Y748035D01*
Y747480D01*
X470254D01*
Y746924D01*
Y746369D01*
Y745814D01*
X470810D01*
Y745259D01*
Y744703D01*
Y744148D01*
X471365D01*
Y743593D01*
Y743038D01*
X471920D01*
Y742483D01*
Y741927D01*
Y741372D01*
Y740817D01*
Y740262D01*
X473030D01*
Y739706D01*
X472475D01*
Y739151D01*
Y738596D01*
X473030D01*
Y738041D01*
Y737486D01*
Y736930D01*
X473586D01*
Y736375D01*
Y735820D01*
Y735265D01*
X474141D01*
Y734709D01*
Y734154D01*
Y733599D01*
X474696D01*
Y733044D01*
Y732488D01*
X475251D01*
Y731933D01*
Y731378D01*
Y730823D01*
X475807D01*
Y730267D01*
Y729712D01*
Y729157D01*
X476362D01*
Y728602D01*
Y728047D01*
Y727491D01*
X476917D01*
Y726936D01*
Y726381D01*
Y725826D01*
X477472D01*
Y725270D01*
Y724715D01*
Y724160D01*
X478027D01*
Y723605D01*
X477472D01*
Y723050D01*
X478583D01*
Y722494D01*
Y721939D01*
Y721384D01*
Y720829D01*
Y720274D01*
Y719718D01*
X479138D01*
Y719163D01*
Y718608D01*
Y718053D01*
X479693D01*
Y717497D01*
Y716942D01*
X480248D01*
Y716387D01*
Y715832D01*
Y715276D01*
X480804D01*
Y714721D01*
Y714166D01*
Y713611D01*
X481359D01*
Y713055D01*
Y712500D01*
Y711945D01*
X481914D01*
Y711390D01*
Y710835D01*
X482469D01*
Y710279D01*
Y709724D01*
Y709169D01*
X483024D01*
Y708614D01*
Y708058D01*
Y707503D01*
Y706948D01*
X483580D01*
Y706393D01*
Y705838D01*
X484135D01*
Y705282D01*
Y704727D01*
Y704172D01*
Y703617D01*
Y703061D01*
Y702506D01*
X485245D01*
Y701951D01*
X484690D01*
Y701396D01*
X485245D01*
Y700841D01*
Y700285D01*
Y699730D01*
X485801D01*
Y699175D01*
Y698620D01*
Y698064D01*
X486356D01*
Y697509D01*
Y696954D01*
Y696399D01*
X486911D01*
Y695844D01*
Y695288D01*
X487466D01*
Y694733D01*
Y694178D01*
Y693623D01*
X488022D01*
Y693067D01*
Y692512D01*
Y691957D01*
X488577D01*
Y691402D01*
X488022D01*
Y690846D01*
X488577D01*
Y690291D01*
X489132D01*
Y689736D01*
Y689181D01*
Y688625D01*
Y688070D01*
Y687515D01*
Y686960D01*
X489687D01*
Y686405D01*
Y685849D01*
Y685294D01*
X490243D01*
Y684739D01*
Y684184D01*
Y683628D01*
Y683073D01*
X490798D01*
Y682518D01*
Y681963D01*
Y681408D01*
Y680852D01*
Y680297D01*
Y679742D01*
X491353D01*
Y679187D01*
Y678632D01*
Y678076D01*
Y677521D01*
Y676966D01*
Y676411D01*
Y675855D01*
Y675300D01*
Y674745D01*
Y674190D01*
X490798D01*
Y673634D01*
Y673079D01*
Y672524D01*
Y671969D01*
Y671413D01*
X490243D01*
Y670858D01*
Y670303D01*
Y669748D01*
X489687D01*
Y669193D01*
Y668637D01*
X489132D01*
Y668082D01*
Y667527D01*
Y666972D01*
Y666416D01*
X488022D01*
Y665861D01*
X488577D01*
Y665306D01*
X488022D01*
Y664751D01*
Y664195D01*
X487466D01*
Y663640D01*
X486356D01*
Y663085D01*
Y662530D01*
X485801D01*
Y661975D01*
X485245D01*
Y661419D01*
Y660864D01*
X484690D01*
Y660309D01*
X484135D01*
Y659754D01*
X483024D01*
Y659199D01*
X482469D01*
Y658643D01*
X481914D01*
Y658088D01*
X480248D01*
Y657533D01*
X479693D01*
Y656978D01*
X478583D01*
Y656422D01*
X477472D01*
Y655867D01*
X476362D01*
Y655312D01*
X474696D01*
Y654757D01*
X473030D01*
Y654202D01*
X471365D01*
Y653646D01*
X469144D01*
Y653091D01*
X452487D01*
Y653646D01*
X449711D01*
Y654202D01*
X446935D01*
Y654757D01*
X445824D01*
Y655312D01*
X444159D01*
Y655867D01*
X442493D01*
Y656422D01*
X440827D01*
Y656978D01*
X439162D01*
Y657533D01*
X438606D01*
Y658088D01*
X436385D01*
Y658643D01*
X435275D01*
Y659199D01*
X434165D01*
Y659754D01*
X433609D01*
Y660309D01*
X432499D01*
Y660864D01*
X431388D01*
Y661419D01*
X430833D01*
Y661975D01*
X429723D01*
Y662530D01*
X429168D01*
Y663085D01*
X428612D01*
Y663640D01*
X426947D01*
Y664195D01*
X426391D01*
Y664751D01*
X425836D01*
Y665306D01*
X424726D01*
Y665861D01*
Y666416D01*
X423615D01*
Y666972D01*
Y667527D01*
X422505D01*
Y668082D01*
Y668637D01*
X421394D01*
Y669193D01*
X420839D01*
Y669748D01*
Y670303D01*
X419729D01*
Y670858D01*
X419173D01*
Y671413D01*
Y671969D01*
X418063D01*
Y672524D01*
Y673079D01*
X417508D01*
Y673634D01*
Y674190D01*
X416397D01*
Y674745D01*
Y675300D01*
X415842D01*
Y675855D01*
X415287D01*
Y676411D01*
X414732D01*
Y676966D01*
Y677521D01*
X414176D01*
Y678076D01*
Y678632D01*
Y679187D01*
X413621D01*
Y679742D01*
X413066D01*
Y680297D01*
Y680852D01*
X412511D01*
Y681408D01*
Y681963D01*
X411955D01*
Y682518D01*
Y683073D01*
X411400D01*
Y683628D01*
Y684184D01*
X410845D01*
Y684739D01*
X410290D01*
Y685294D01*
Y685849D01*
Y686405D01*
X409735D01*
Y686960D01*
Y687515D01*
Y688070D01*
X409179D01*
Y688625D01*
Y689181D01*
Y689736D01*
X408624D01*
Y690291D01*
Y690846D01*
Y691402D01*
Y691957D01*
Y692512D01*
X407514D01*
Y693067D01*
X408069D01*
Y693623D01*
Y694178D01*
X407514D01*
Y694733D01*
Y695288D01*
Y695844D01*
Y696399D01*
X406958D01*
Y696954D01*
Y697509D01*
X406403D01*
Y698064D01*
Y698620D01*
Y699175D01*
X405848D01*
Y699730D01*
Y700285D01*
Y700841D01*
X405293D01*
Y701396D01*
Y701951D01*
X404738D01*
Y702506D01*
Y703061D01*
Y703617D01*
X404182D01*
Y704172D01*
Y704727D01*
Y705282D01*
X403627D01*
Y705838D01*
Y706393D01*
Y706948D01*
X403072D01*
Y707503D01*
Y708058D01*
Y708614D01*
Y709169D01*
Y709724D01*
X401961D01*
Y710279D01*
X402517D01*
Y710835D01*
Y711390D01*
X401961D01*
Y711945D01*
Y712500D01*
X401406D01*
Y713055D01*
Y713611D01*
Y714166D01*
X400851D01*
Y714721D01*
Y715276D01*
Y715832D01*
Y716387D01*
X400296D01*
Y716942D01*
Y717497D01*
Y718053D01*
X399740D01*
Y718608D01*
Y719163D01*
X399185D01*
Y719718D01*
Y720274D01*
Y720829D01*
X398630D01*
Y721384D01*
Y721939D01*
Y722494D01*
X398075D01*
Y723050D01*
Y723605D01*
Y724160D01*
Y724715D01*
Y725270D01*
X397520D01*
Y725826D01*
Y726381D01*
Y726936D01*
X396964D01*
Y727491D01*
Y728047D01*
Y728602D01*
X396409D01*
Y729157D01*
Y729712D01*
X395854D01*
Y730267D01*
Y730823D01*
Y731378D01*
X395299D01*
Y731933D01*
Y732488D01*
Y733044D01*
X394743D01*
Y733599D01*
Y734154D01*
Y734709D01*
X394188D01*
Y735265D01*
Y735820D01*
Y736375D01*
X393633D01*
Y736930D01*
Y737486D01*
Y738041D01*
X393078D01*
Y738596D01*
Y739151D01*
Y739706D01*
X392523D01*
Y740262D01*
Y740817D01*
Y741372D01*
Y741927D01*
Y742483D01*
X391412D01*
Y743038D01*
Y743593D01*
Y744148D01*
Y744703D01*
Y745259D01*
Y745814D01*
X390857D01*
Y746369D01*
Y746924D01*
X390302D01*
Y747480D01*
Y748035D01*
Y748590D01*
X389746D01*
Y749145D01*
Y749700D01*
Y750256D01*
X389191D01*
Y750811D01*
Y751366D01*
Y751921D01*
X388636D01*
Y752477D01*
Y753032D01*
X388081D01*
Y753587D01*
Y754142D01*
Y754697D01*
X387525D01*
Y755253D01*
X411955D01*
Y754697D01*
X413066D01*
Y754142D01*
X412511D01*
Y753587D01*
Y753032D01*
X413621D01*
Y752477D01*
X413066D01*
Y751921D01*
X413621D01*
Y751366D01*
Y750811D01*
Y750256D01*
X414176D01*
Y749700D01*
Y749145D01*
Y748590D01*
X414732D01*
Y748035D01*
Y747480D01*
Y746924D01*
X415287D01*
Y746369D01*
Y745814D01*
Y745259D01*
X415842D01*
Y744703D01*
Y744148D01*
Y743593D01*
X416397D01*
Y743038D01*
Y742483D01*
Y741927D01*
X416953D01*
Y741372D01*
Y740817D01*
Y740262D01*
X417508D01*
Y739706D01*
Y739151D01*
Y738596D01*
Y738041D01*
Y737486D01*
X418618D01*
Y736930D01*
X418063D01*
Y736375D01*
Y735820D01*
X418618D01*
Y735265D01*
Y734709D01*
Y734154D01*
X419173D01*
Y733599D01*
Y733044D01*
X419729D01*
Y732488D01*
Y731933D01*
Y731378D01*
X420284D01*
Y730823D01*
Y730267D01*
Y729712D01*
X420839D01*
Y729157D01*
Y728602D01*
Y728047D01*
X421394D01*
Y727491D01*
Y726936D01*
X421950D01*
Y726381D01*
Y725826D01*
Y725270D01*
Y724715D01*
X422505D01*
Y724160D01*
Y723605D01*
Y723050D01*
X423060D01*
Y722494D01*
Y721939D01*
X423615D01*
Y721384D01*
X423060D01*
Y720829D01*
Y720274D01*
X424170D01*
Y719718D01*
Y719163D01*
Y718608D01*
Y718053D01*
Y717497D01*
X424726D01*
Y716942D01*
Y716387D01*
Y715832D01*
X425281D01*
Y715276D01*
Y714721D01*
Y714166D01*
X425836D01*
Y713611D01*
Y713055D01*
Y712500D01*
X426391D01*
Y711945D01*
Y711390D01*
Y710835D01*
X426947D01*
Y710279D01*
Y709724D01*
X427502D01*
Y709169D01*
Y708614D01*
Y708058D01*
X428057D01*
Y707503D01*
Y706948D01*
Y706393D01*
Y705838D01*
Y705282D01*
Y704727D01*
X429168D01*
Y704172D01*
X428612D01*
Y703617D01*
Y703061D01*
X429168D01*
Y702506D01*
Y701951D01*
Y701396D01*
X429723D01*
Y700841D01*
Y700285D01*
X430278D01*
Y699730D01*
Y699175D01*
Y698620D01*
X430833D01*
Y698064D01*
Y697509D01*
Y696954D01*
X431388D01*
Y696399D01*
Y695844D01*
Y695288D01*
X431944D01*
Y694733D01*
Y694178D01*
X432499D01*
Y693623D01*
Y693067D01*
Y692512D01*
X433054D01*
Y691957D01*
Y691402D01*
Y690846D01*
X433609D01*
Y690291D01*
Y689736D01*
X434165D01*
Y689181D01*
X433609D01*
Y688625D01*
Y688070D01*
X434720D01*
Y687515D01*
Y686960D01*
Y686405D01*
Y685849D01*
Y685294D01*
X435275D01*
Y684739D01*
Y684184D01*
X436385D01*
Y683628D01*
X436941D01*
Y683073D01*
Y682518D01*
X437496D01*
Y681963D01*
X438051D01*
Y681408D01*
X438606D01*
Y680852D01*
X439717D01*
Y680297D01*
X440272D01*
Y679742D01*
X440827D01*
Y679187D01*
X442493D01*
Y678632D01*
X443048D01*
Y678076D01*
X444714D01*
Y677521D01*
X446380D01*
Y676966D01*
X447490D01*
Y676411D01*
X450266D01*
Y675855D01*
X456374D01*
Y676411D01*
X458595D01*
Y676966D01*
X460260D01*
Y677521D01*
X461371D01*
Y678076D01*
X462481D01*
Y678632D01*
X463036D01*
Y679187D01*
X463592D01*
Y679742D01*
X464147D01*
Y680297D01*
Y680852D01*
X464702D01*
Y681408D01*
Y681963D01*
X465257D01*
Y682518D01*
Y683073D01*
Y683628D01*
Y684184D01*
Y684739D01*
Y685294D01*
Y685849D01*
Y686405D01*
Y686960D01*
Y687515D01*
X464702D01*
Y688070D01*
Y688625D01*
Y689181D01*
X464147D01*
Y689736D01*
Y690291D01*
Y690846D01*
X463592D01*
Y691402D01*
Y691957D01*
X463036D01*
Y692512D01*
Y693067D01*
Y693623D01*
Y694178D01*
Y694733D01*
Y695288D01*
X462481D01*
Y695844D01*
Y696399D01*
Y696954D01*
X461926D01*
Y697509D01*
Y698064D01*
Y698620D01*
X461371D01*
Y699175D01*
Y699730D01*
Y700285D01*
X460815D01*
Y700841D01*
Y701396D01*
Y701951D01*
X460260D01*
Y702506D01*
Y703061D01*
X459705D01*
Y703617D01*
Y704172D01*
Y704727D01*
X459150D01*
Y705282D01*
Y705838D01*
Y706393D01*
X458595D01*
Y706948D01*
X459150D01*
Y707503D01*
X458039D01*
Y708058D01*
Y708614D01*
Y709169D01*
Y709724D01*
Y710279D01*
Y710835D01*
X457484D01*
Y711390D01*
Y711945D01*
Y712500D01*
X456374D01*
Y713055D01*
X456929D01*
Y713611D01*
X456374D01*
Y714166D01*
Y714721D01*
Y715276D01*
X455818D01*
Y715832D01*
Y716387D01*
Y716942D01*
X455263D01*
Y717497D01*
Y718053D01*
Y718608D01*
Y719163D01*
X454708D01*
Y719718D01*
Y720274D01*
X454153D01*
Y720829D01*
Y721384D01*
Y721939D01*
X453597D01*
Y722494D01*
Y723050D01*
Y723605D01*
X453042D01*
Y724160D01*
Y724715D01*
X452487D01*
Y725270D01*
Y725826D01*
Y726381D01*
Y726936D01*
Y727491D01*
Y728047D01*
X451377D01*
Y728602D01*
X451932D01*
Y729157D01*
Y729712D01*
X451377D01*
Y730267D01*
Y730823D01*
Y731378D01*
X450821D01*
Y731933D01*
Y732488D01*
X450266D01*
Y733044D01*
Y733599D01*
Y734154D01*
X449711D01*
Y734709D01*
Y735265D01*
X449156D01*
Y735820D01*
Y736375D01*
Y736930D01*
X448600D01*
Y737486D01*
Y738041D01*
Y738596D01*
Y739151D01*
X448045D01*
Y739706D01*
Y740262D01*
Y740817D01*
X447490D01*
Y741372D01*
Y741927D01*
X446935D01*
Y742483D01*
Y743038D01*
Y743593D01*
Y744148D01*
Y744703D01*
Y745259D01*
X445824D01*
Y745814D01*
X446380D01*
Y746369D01*
X445824D01*
Y746924D01*
Y747480D01*
Y748035D01*
X445269D01*
Y748590D01*
Y749145D01*
Y749700D01*
X444714D01*
Y750256D01*
Y750811D01*
Y751366D01*
X444159D01*
Y751921D01*
Y752477D01*
X443603D01*
Y753032D01*
Y753587D01*
Y754142D01*
X443048D01*
Y754697D01*
Y755253D01*
X468033D01*
Y754697D01*
D02*
G37*
G36*
X383639D02*
Y754142D01*
X384194D01*
Y753587D01*
Y753032D01*
Y752477D01*
Y751921D01*
Y751366D01*
Y750811D01*
X385305D01*
Y750256D01*
X384749D01*
Y749700D01*
Y749145D01*
X385305D01*
Y748590D01*
Y748035D01*
Y747480D01*
X385860D01*
Y746924D01*
Y746369D01*
Y745814D01*
X386415D01*
Y745259D01*
Y744703D01*
X386970D01*
Y744148D01*
Y743593D01*
Y743038D01*
X387525D01*
Y742483D01*
Y741927D01*
Y741372D01*
X388081D01*
Y740817D01*
Y740262D01*
X388636D01*
Y739706D01*
Y739151D01*
Y738596D01*
X389191D01*
Y738041D01*
Y737486D01*
Y736930D01*
X389746D01*
Y736375D01*
Y735820D01*
Y735265D01*
X390302D01*
Y734709D01*
X389746D01*
Y734154D01*
Y733599D01*
X390857D01*
Y733044D01*
Y732488D01*
Y731933D01*
X366427D01*
Y731378D01*
Y730823D01*
Y730267D01*
X366982D01*
Y729712D01*
Y729157D01*
Y728602D01*
X367537D01*
Y728047D01*
Y727491D01*
X368092D01*
Y726936D01*
Y726381D01*
Y725826D01*
X368648D01*
Y725270D01*
Y724715D01*
Y724160D01*
Y723605D01*
Y723050D01*
X369758D01*
Y722494D01*
X369203D01*
Y721939D01*
Y721384D01*
X369758D01*
Y720829D01*
Y720274D01*
Y719718D01*
X370313D01*
Y719163D01*
Y718608D01*
Y718053D01*
Y717497D01*
X370869D01*
Y716942D01*
Y716387D01*
X371424D01*
Y715832D01*
Y715276D01*
Y714721D01*
X371979D01*
Y714166D01*
Y713611D01*
Y713055D01*
X372534D01*
Y712500D01*
Y711945D01*
X373090D01*
Y711390D01*
Y710835D01*
Y710279D01*
X373645D01*
Y709724D01*
Y709169D01*
Y708614D01*
Y708058D01*
Y707503D01*
Y706948D01*
X374755D01*
Y706393D01*
X374200D01*
Y705838D01*
X374755D01*
Y705282D01*
Y704727D01*
Y704172D01*
X375311D01*
Y703617D01*
Y703061D01*
Y702506D01*
X375866D01*
Y701951D01*
Y701396D01*
Y700841D01*
X376421D01*
Y700285D01*
Y699730D01*
X376976D01*
Y699175D01*
Y698620D01*
Y698064D01*
X377531D01*
Y697509D01*
Y696954D01*
Y696399D01*
Y695844D01*
X378087D01*
Y695288D01*
Y694733D01*
X378642D01*
Y694178D01*
Y693623D01*
Y693067D01*
X379197D01*
Y692512D01*
Y691957D01*
Y691402D01*
Y690846D01*
Y690291D01*
Y689736D01*
X380308D01*
Y689181D01*
Y688625D01*
Y688070D01*
Y687515D01*
Y686960D01*
X380863D01*
Y686405D01*
Y685849D01*
Y685294D01*
X381418D01*
Y684739D01*
Y684184D01*
X381973D01*
Y683628D01*
Y683073D01*
Y682518D01*
X382528D01*
Y681963D01*
Y681408D01*
Y680852D01*
X383084D01*
Y680297D01*
Y679742D01*
Y679187D01*
X383639D01*
Y678632D01*
Y678076D01*
X384194D01*
Y677521D01*
Y676966D01*
Y676411D01*
Y675855D01*
X384749D01*
Y675300D01*
X384194D01*
Y674745D01*
Y674190D01*
X385305D01*
Y673634D01*
X384749D01*
Y673079D01*
X385305D01*
Y672524D01*
Y671969D01*
Y671413D01*
X385860D01*
Y670858D01*
Y670303D01*
Y669748D01*
X386415D01*
Y669193D01*
Y668637D01*
Y668082D01*
X386970D01*
Y667527D01*
Y666972D01*
X387525D01*
Y666416D01*
Y665861D01*
Y665306D01*
X388081D01*
Y664751D01*
Y664195D01*
Y663640D01*
X388636D01*
Y663085D01*
Y662530D01*
Y661975D01*
X389191D01*
Y661419D01*
Y660864D01*
X389746D01*
Y660309D01*
Y659754D01*
Y659199D01*
X390302D01*
Y658643D01*
X389746D01*
Y658088D01*
Y657533D01*
X390857D01*
Y656978D01*
Y656422D01*
Y655867D01*
Y655312D01*
Y654757D01*
X391412D01*
Y654202D01*
X365872D01*
Y654757D01*
Y655312D01*
X365316D01*
Y655867D01*
Y656422D01*
Y656978D01*
X364761D01*
Y657533D01*
Y658088D01*
Y658643D01*
Y659199D01*
Y659754D01*
X363651D01*
Y660309D01*
X364206D01*
Y660864D01*
Y661419D01*
X363651D01*
Y661975D01*
Y662530D01*
Y663085D01*
X363096D01*
Y663640D01*
Y664195D01*
X362540D01*
Y664751D01*
Y665306D01*
Y665861D01*
X361985D01*
Y666416D01*
Y666972D01*
Y667527D01*
X361430D01*
Y668082D01*
Y668637D01*
Y669193D01*
X360875D01*
Y669748D01*
Y670303D01*
Y670858D01*
X360319D01*
Y671413D01*
Y671969D01*
Y672524D01*
X359764D01*
Y673079D01*
Y673634D01*
Y674190D01*
X359209D01*
Y674745D01*
Y675300D01*
Y675855D01*
Y676411D01*
Y676966D01*
X358098D01*
Y677521D01*
X358654D01*
Y678076D01*
Y678632D01*
X358098D01*
Y679187D01*
Y679742D01*
Y680297D01*
X357543D01*
Y680852D01*
Y681408D01*
X356988D01*
Y681963D01*
Y682518D01*
Y683073D01*
X356433D01*
Y683628D01*
Y684184D01*
Y684739D01*
X355877D01*
Y685294D01*
Y685849D01*
X355322D01*
Y686405D01*
Y686960D01*
Y687515D01*
Y688070D01*
X354767D01*
Y688625D01*
Y689181D01*
Y689736D01*
X354212D01*
Y690291D01*
Y690846D01*
Y691402D01*
Y691957D01*
Y692512D01*
X353101D01*
Y693067D01*
X353657D01*
Y693623D01*
Y694178D01*
X353101D01*
Y694733D01*
Y695288D01*
Y695844D01*
X352546D01*
Y696399D01*
Y696954D01*
X351991D01*
Y697509D01*
Y698064D01*
Y698620D01*
X351436D01*
Y699175D01*
Y699730D01*
Y700285D01*
X350881D01*
Y700841D01*
Y701396D01*
Y701951D01*
X350325D01*
Y702506D01*
Y703061D01*
X349770D01*
Y703617D01*
Y704172D01*
Y704727D01*
X349215D01*
Y705282D01*
Y705838D01*
Y706393D01*
X348660D01*
Y706948D01*
Y707503D01*
Y708058D01*
Y708614D01*
Y709169D01*
Y709724D01*
X347549D01*
Y710279D01*
Y710835D01*
Y711390D01*
Y711945D01*
Y712500D01*
X346994D01*
Y713055D01*
Y713611D01*
Y714166D01*
X346439D01*
Y714721D01*
Y715276D01*
Y715832D01*
X345883D01*
Y716387D01*
Y716942D01*
Y717497D01*
X345328D01*
Y718053D01*
Y718608D01*
Y719163D01*
X344773D01*
Y719718D01*
Y720274D01*
X344218D01*
Y720829D01*
Y721384D01*
Y721939D01*
X343663D01*
Y722494D01*
Y723050D01*
Y723605D01*
Y724160D01*
Y724715D01*
X342552D01*
Y725270D01*
X343107D01*
Y725826D01*
Y726381D01*
X341997D01*
Y726936D01*
Y727491D01*
Y728047D01*
Y728602D01*
Y729157D01*
Y729712D01*
X341442D01*
Y730267D01*
Y730823D01*
Y731378D01*
X340886D01*
Y731933D01*
X315901D01*
Y732488D01*
Y733044D01*
X315346D01*
Y733599D01*
Y734154D01*
Y734709D01*
Y735265D01*
Y735820D01*
X314791D01*
Y736375D01*
Y736930D01*
Y737486D01*
Y738041D01*
X314235D01*
Y738596D01*
Y739151D01*
Y739706D01*
X313680D01*
Y740262D01*
Y740817D01*
X313125D01*
Y741372D01*
Y741927D01*
Y742483D01*
X312570D01*
Y743038D01*
Y743593D01*
Y744148D01*
X312015D01*
Y744703D01*
Y745259D01*
Y745814D01*
X311459D01*
Y746369D01*
Y746924D01*
X310904D01*
Y747480D01*
Y748035D01*
Y748590D01*
X310349D01*
Y749145D01*
Y749700D01*
Y750256D01*
Y750811D01*
Y751366D01*
Y751921D01*
X309794D01*
Y752477D01*
Y753032D01*
X309238D01*
Y753587D01*
Y754142D01*
Y754697D01*
X308683D01*
Y755253D01*
X383639D01*
Y754697D01*
D02*
G37*
G36*
X320898Y687515D02*
Y686960D01*
X321454D01*
Y686405D01*
Y685849D01*
Y685294D01*
X322009D01*
Y684739D01*
Y684184D01*
X322564D01*
Y683628D01*
Y683073D01*
Y682518D01*
X323119D01*
Y681963D01*
Y681408D01*
Y680852D01*
X323674D01*
Y680297D01*
Y679742D01*
Y679187D01*
X324230D01*
Y678632D01*
Y678076D01*
X324785D01*
Y677521D01*
Y676966D01*
Y676411D01*
Y675855D01*
Y675300D01*
Y674745D01*
X325895D01*
Y674190D01*
X325340D01*
Y673634D01*
X325895D01*
Y673079D01*
Y672524D01*
Y671969D01*
X326451D01*
Y671413D01*
Y670858D01*
Y670303D01*
Y669748D01*
X327006D01*
Y669193D01*
Y668637D01*
Y668082D01*
X327561D01*
Y667527D01*
Y666972D01*
X328116D01*
Y666416D01*
Y665861D01*
Y665306D01*
X328671D01*
Y664751D01*
Y664195D01*
Y663640D01*
X329227D01*
Y663085D01*
Y662530D01*
Y661975D01*
X329782D01*
Y661419D01*
Y660864D01*
Y660309D01*
Y659754D01*
Y659199D01*
X330892D01*
Y658643D01*
X330337D01*
Y658088D01*
Y657533D01*
X330892D01*
Y656978D01*
Y656422D01*
X331448D01*
Y655867D01*
Y655312D01*
Y654757D01*
X332003D01*
Y654202D01*
X298134D01*
Y654757D01*
Y655312D01*
Y655867D01*
Y656422D01*
Y656978D01*
X297579D01*
Y657533D01*
Y658088D01*
X297024D01*
Y658643D01*
Y659199D01*
Y659754D01*
X296468D01*
Y660309D01*
Y660864D01*
Y661419D01*
X295913D01*
Y661975D01*
Y662530D01*
Y663085D01*
X295358D01*
Y663640D01*
Y664195D01*
X294803D01*
Y664751D01*
Y665306D01*
Y665861D01*
X294247D01*
Y666416D01*
Y666972D01*
Y667527D01*
X293692D01*
Y668082D01*
X294247D01*
Y668637D01*
X293137D01*
Y669193D01*
Y669748D01*
Y670303D01*
Y670858D01*
Y671413D01*
Y671969D01*
Y672524D01*
X292582D01*
Y673079D01*
Y673634D01*
Y674190D01*
X292027D01*
Y674745D01*
Y675300D01*
X291471D01*
Y675855D01*
Y676411D01*
Y676966D01*
X290916D01*
Y677521D01*
Y678076D01*
Y678632D01*
X290361D01*
Y679187D01*
Y679742D01*
Y680297D01*
X289806D01*
Y680852D01*
Y681408D01*
X289250D01*
Y681963D01*
Y682518D01*
Y683073D01*
X288695D01*
Y683628D01*
Y684184D01*
Y684739D01*
X288140D01*
Y685294D01*
Y685849D01*
X287585D01*
Y686405D01*
Y686960D01*
Y687515D01*
Y688070D01*
X320898D01*
Y687515D01*
D02*
G37*
G36*
X532995Y756363D02*
Y755808D01*
X539658D01*
Y755253D01*
X541879D01*
Y754697D01*
X543544D01*
Y754142D01*
X545210D01*
Y753587D01*
X547431D01*
Y753032D01*
X548541D01*
Y752477D01*
X550207D01*
Y751921D01*
X551873D01*
Y751366D01*
X552428D01*
Y750811D01*
X554649D01*
Y750256D01*
X555759D01*
Y749700D01*
X556870D01*
Y749145D01*
X557980D01*
Y748590D01*
X559091D01*
Y748035D01*
X560201D01*
Y747480D01*
X561311D01*
Y746924D01*
X561867D01*
Y746369D01*
X562977D01*
Y745814D01*
X563532D01*
Y745259D01*
X565198D01*
Y744703D01*
Y744148D01*
X566309D01*
Y743593D01*
X567419D01*
Y743038D01*
X567974D01*
Y742483D01*
X568529D01*
Y741927D01*
X569085D01*
Y741372D01*
X570195D01*
Y740817D01*
X570750D01*
Y740262D01*
X571861D01*
Y739706D01*
Y739151D01*
X572971D01*
Y738596D01*
X573526D01*
Y738041D01*
X574082D01*
Y737486D01*
X574637D01*
Y736930D01*
X575192D01*
Y736375D01*
X575747D01*
Y735820D01*
X576303D01*
Y735265D01*
X576858D01*
Y734709D01*
X577413D01*
Y734154D01*
X577968D01*
Y733599D01*
X578523D01*
Y733044D01*
X579079D01*
Y732488D01*
X579634D01*
Y731933D01*
X580189D01*
Y731378D01*
X580744D01*
Y730823D01*
X581300D01*
Y730267D01*
Y729712D01*
X581855D01*
Y729157D01*
X582410D01*
Y728602D01*
X582965D01*
Y728047D01*
Y727491D01*
X583521D01*
Y726936D01*
X584076D01*
Y726381D01*
X584631D01*
Y725826D01*
Y725270D01*
X585186D01*
Y724715D01*
X585742D01*
Y724160D01*
Y723605D01*
X586297D01*
Y723050D01*
X586852D01*
Y722494D01*
X587407D01*
Y721939D01*
Y721384D01*
Y720829D01*
X588518D01*
Y720274D01*
X589073D01*
Y719718D01*
X588518D01*
Y719163D01*
X589073D01*
Y718608D01*
Y718053D01*
X589628D01*
Y717497D01*
X590183D01*
Y716942D01*
Y716387D01*
X590738D01*
Y715832D01*
Y715276D01*
X591294D01*
Y714721D01*
Y714166D01*
X591849D01*
Y713611D01*
Y713055D01*
X592404D01*
Y712500D01*
Y711945D01*
X592959D01*
Y711390D01*
Y710835D01*
Y710279D01*
Y709724D01*
X594070D01*
Y709169D01*
X593515D01*
Y708614D01*
X594070D01*
Y708058D01*
Y707503D01*
Y706948D01*
X594625D01*
Y706393D01*
Y705838D01*
X595180D01*
Y705282D01*
Y704727D01*
Y704172D01*
X595736D01*
Y703617D01*
Y703061D01*
Y702506D01*
X596291D01*
Y701951D01*
Y701396D01*
Y700841D01*
X596846D01*
Y700285D01*
Y699730D01*
Y699175D01*
X597401D01*
Y698620D01*
Y698064D01*
Y697509D01*
Y696954D01*
Y696399D01*
X597957D01*
Y695844D01*
Y695288D01*
Y694733D01*
Y694178D01*
X598512D01*
Y693623D01*
Y693067D01*
Y692512D01*
Y691957D01*
Y691402D01*
Y690846D01*
Y690291D01*
Y689736D01*
Y689181D01*
Y688625D01*
Y688070D01*
Y687515D01*
Y686960D01*
Y686405D01*
Y685849D01*
Y685294D01*
Y684739D01*
Y684184D01*
Y683628D01*
Y683073D01*
Y682518D01*
Y681963D01*
Y681408D01*
Y680852D01*
Y680297D01*
Y679742D01*
Y679187D01*
X597957D01*
Y678632D01*
Y678076D01*
Y677521D01*
Y676966D01*
X597401D01*
Y676411D01*
Y675855D01*
Y675300D01*
X596846D01*
Y674745D01*
Y674190D01*
Y673634D01*
X596291D01*
Y673079D01*
Y672524D01*
X595736D01*
Y671969D01*
Y671413D01*
Y670858D01*
X595180D01*
Y670303D01*
Y669748D01*
X594625D01*
Y669193D01*
X594070D01*
Y668637D01*
X593515D01*
Y668082D01*
X594070D01*
Y667527D01*
X593515D01*
Y666972D01*
X592959D01*
Y666416D01*
Y665861D01*
X592404D01*
Y665306D01*
X591849D01*
Y664751D01*
X591294D01*
Y664195D01*
X590738D01*
Y663640D01*
X590183D01*
Y663085D01*
X589628D01*
Y662530D01*
X589073D01*
Y661975D01*
X588518D01*
Y661419D01*
X587407D01*
Y660864D01*
Y660309D01*
X586297D01*
Y659754D01*
X585742D01*
Y659199D01*
X585186D01*
Y658643D01*
X584076D01*
Y658088D01*
X582965D01*
Y657533D01*
X581855D01*
Y656978D01*
X580744D01*
Y656422D01*
X579079D01*
Y655867D01*
X577968D01*
Y655312D01*
X576858D01*
Y654757D01*
X575192D01*
Y654202D01*
X573526D01*
Y653646D01*
X571306D01*
Y653091D01*
X550762D01*
Y653646D01*
X547986D01*
Y654202D01*
X545210D01*
Y654757D01*
X544099D01*
Y655312D01*
X541879D01*
Y655867D01*
X540213D01*
Y656422D01*
X539102D01*
Y656978D01*
X537437D01*
Y657533D01*
X536326D01*
Y658088D01*
X532995D01*
Y657533D01*
Y656978D01*
Y656422D01*
Y655867D01*
Y655312D01*
Y654757D01*
X532440D01*
Y654202D01*
X505789D01*
Y654757D01*
X506344D01*
Y655312D01*
X505789D01*
Y655867D01*
Y656422D01*
Y656978D01*
X505234D01*
Y657533D01*
Y658088D01*
X505789D01*
Y658643D01*
Y659199D01*
Y659754D01*
Y660309D01*
X506344D01*
Y660864D01*
Y661419D01*
Y661975D01*
X506899D01*
Y662530D01*
Y663085D01*
Y663640D01*
Y664195D01*
Y664751D01*
Y665306D01*
X507454D01*
Y665861D01*
Y666416D01*
Y666972D01*
X508010D01*
Y667527D01*
Y668082D01*
Y668637D01*
X508565D01*
Y669193D01*
Y669748D01*
Y670303D01*
Y670858D01*
X509120D01*
Y671413D01*
Y671969D01*
Y672524D01*
X509675D01*
Y673079D01*
Y673634D01*
Y674190D01*
Y674745D01*
Y675300D01*
X509120D01*
Y675855D01*
X508565D01*
Y676411D01*
X508010D01*
Y676966D01*
X507454D01*
Y677521D01*
X506899D01*
Y678076D01*
X506344D01*
Y678632D01*
X505789D01*
Y679187D01*
X506344D01*
Y679742D01*
X505234D01*
Y680297D01*
X504678D01*
Y680852D01*
X504123D01*
Y681408D01*
Y681963D01*
X503568D01*
Y682518D01*
X503013D01*
Y683073D01*
X502457D01*
Y683628D01*
Y684184D01*
X501902D01*
Y684739D01*
Y685294D01*
Y685849D01*
X500237D01*
Y686405D01*
X500792D01*
Y686960D01*
X500237D01*
Y687515D01*
Y688070D01*
X499126D01*
Y688625D01*
Y689181D01*
Y689736D01*
X498571D01*
Y690291D01*
Y690846D01*
X498016D01*
Y691402D01*
X497460D01*
Y691957D01*
X496905D01*
Y692512D01*
Y693067D01*
X496350D01*
Y693623D01*
Y694178D01*
Y694733D01*
Y695288D01*
X495239D01*
Y695844D01*
X495795D01*
Y696399D01*
Y696954D01*
X495239D01*
Y697509D01*
X494684D01*
Y698064D01*
Y698620D01*
X494129D01*
Y699175D01*
Y699730D01*
Y700285D01*
X493574D01*
Y700841D01*
Y701396D01*
X493019D01*
Y701951D01*
Y702506D01*
X492463D01*
Y703061D01*
Y703617D01*
Y704172D01*
X491908D01*
Y704727D01*
Y705282D01*
Y705838D01*
X491353D01*
Y706393D01*
Y706948D01*
Y707503D01*
X490798D01*
Y708058D01*
Y708614D01*
Y709169D01*
Y709724D01*
Y710279D01*
Y710835D01*
Y711390D01*
Y711945D01*
X489687D01*
Y712500D01*
X490243D01*
Y713055D01*
Y713611D01*
Y714166D01*
X489687D01*
Y714721D01*
Y715276D01*
Y715832D01*
Y716387D01*
Y716942D01*
Y717497D01*
Y718053D01*
Y718608D01*
X489132D01*
Y719163D01*
Y719718D01*
Y720274D01*
Y720829D01*
Y721384D01*
Y721939D01*
Y722494D01*
Y723050D01*
Y723605D01*
Y724160D01*
Y724715D01*
Y725270D01*
Y725826D01*
Y726381D01*
Y726936D01*
Y727491D01*
X489687D01*
Y728047D01*
Y728602D01*
Y729157D01*
Y729712D01*
Y730267D01*
Y730823D01*
X490243D01*
Y731378D01*
Y731933D01*
Y732488D01*
X489687D01*
Y733044D01*
X490798D01*
Y733599D01*
Y734154D01*
Y734709D01*
Y735265D01*
Y735820D01*
X491353D01*
Y736375D01*
Y736930D01*
X491908D01*
Y737486D01*
Y738041D01*
Y738596D01*
X492463D01*
Y739151D01*
X493019D01*
Y739706D01*
Y740262D01*
X493574D01*
Y740817D01*
X494129D01*
Y741372D01*
Y741927D01*
Y742483D01*
X495239D01*
Y743038D01*
X495795D01*
Y743593D01*
X495239D01*
Y744148D01*
X496350D01*
Y744703D01*
Y745259D01*
X497460D01*
Y745814D01*
X498016D01*
Y746369D01*
X498571D01*
Y746924D01*
X499126D01*
Y747480D01*
X499681D01*
Y748035D01*
X500237D01*
Y748590D01*
X500792D01*
Y749145D01*
X501902D01*
Y749700D01*
Y750256D01*
X503013D01*
Y750811D01*
X504678D01*
Y751366D01*
X505234D01*
Y751921D01*
X506344D01*
Y752477D01*
X507454D01*
Y753032D01*
X508565D01*
Y753587D01*
X510231D01*
Y754142D01*
X511341D01*
Y754697D01*
X513562D01*
Y755253D01*
X515228D01*
Y755808D01*
X520780D01*
Y756363D01*
Y756918D01*
X532995D01*
Y756363D01*
D02*
G37*
G36*
X614613Y644207D02*
X614058D01*
Y643652D01*
Y643097D01*
X615168D01*
Y642542D01*
Y641986D01*
Y641431D01*
X615724D01*
Y640876D01*
Y640321D01*
Y639766D01*
Y639210D01*
Y638655D01*
X616279D01*
Y638100D01*
Y637545D01*
Y636989D01*
X616834D01*
Y636434D01*
Y635879D01*
Y635324D01*
X617389D01*
Y634768D01*
Y634213D01*
X617945D01*
Y633658D01*
Y633103D01*
Y632548D01*
X618500D01*
Y631992D01*
Y631437D01*
Y630882D01*
X619055D01*
Y630327D01*
Y629771D01*
Y629216D01*
X619610D01*
Y628661D01*
Y628106D01*
Y627551D01*
X620165D01*
Y626995D01*
X619610D01*
Y626440D01*
Y625885D01*
X620721D01*
Y625330D01*
Y624774D01*
Y624219D01*
Y623664D01*
Y623109D01*
X621276D01*
Y622553D01*
Y621998D01*
Y621443D01*
X621831D01*
Y620888D01*
Y620333D01*
Y619777D01*
X622386D01*
Y619222D01*
Y618667D01*
Y618112D01*
X622942D01*
Y617556D01*
Y617001D01*
X623497D01*
Y616446D01*
Y615891D01*
Y615336D01*
X624052D01*
Y614780D01*
Y614225D01*
Y613670D01*
X624607D01*
Y613115D01*
Y612560D01*
X625163D01*
Y612004D01*
Y611449D01*
Y610894D01*
X625718D01*
Y610339D01*
Y609783D01*
Y609228D01*
X626273D01*
Y608673D01*
Y608118D01*
Y607562D01*
Y607007D01*
Y606452D01*
Y605897D01*
X626828D01*
Y605341D01*
Y604786D01*
Y604231D01*
X627383D01*
Y603676D01*
Y603121D01*
Y602565D01*
X627939D01*
Y602010D01*
Y601455D01*
Y600900D01*
X628494D01*
Y600344D01*
Y599789D01*
X629049D01*
Y599234D01*
Y598679D01*
Y598124D01*
X629604D01*
Y597568D01*
Y597013D01*
Y596458D01*
X630160D01*
Y595903D01*
Y595347D01*
X630715D01*
Y594792D01*
Y594237D01*
Y593682D01*
X631270D01*
Y593126D01*
Y592571D01*
Y592016D01*
Y591461D01*
Y590906D01*
Y590350D01*
X632380D01*
Y589795D01*
Y589240D01*
X184868D01*
Y589795D01*
Y590350D01*
Y590906D01*
X184312D01*
Y591461D01*
Y592016D01*
X183757D01*
Y592571D01*
Y593126D01*
Y593682D01*
Y594237D01*
Y594792D01*
Y595347D01*
X182647D01*
Y595903D01*
X183202D01*
Y596458D01*
X182647D01*
Y597013D01*
Y597568D01*
Y598124D01*
X182092D01*
Y598679D01*
Y599234D01*
Y599789D01*
X181536D01*
Y600344D01*
Y600900D01*
Y601455D01*
X180981D01*
Y602010D01*
Y602565D01*
X180426D01*
Y603121D01*
Y603676D01*
Y604231D01*
X179871D01*
Y604786D01*
Y605341D01*
Y605897D01*
Y606452D01*
X179315D01*
Y607007D01*
Y607562D01*
Y608118D01*
X178760D01*
Y608673D01*
Y609228D01*
Y609783D01*
Y610339D01*
Y610894D01*
X177650D01*
Y611449D01*
X178205D01*
Y612004D01*
Y612560D01*
X177650D01*
Y613115D01*
Y613670D01*
Y614225D01*
X177094D01*
Y614780D01*
Y615336D01*
X176539D01*
Y615891D01*
Y616446D01*
Y617001D01*
X175984D01*
Y617556D01*
Y618112D01*
Y618667D01*
X175429D01*
Y619222D01*
Y619777D01*
X174874D01*
Y620333D01*
Y620888D01*
Y621443D01*
X174318D01*
Y621998D01*
Y622553D01*
Y623109D01*
X173763D01*
Y623664D01*
Y624219D01*
Y624774D01*
X173208D01*
Y625330D01*
Y625885D01*
Y626440D01*
X172653D01*
Y626995D01*
X173208D01*
Y627551D01*
Y628106D01*
X172097D01*
Y628661D01*
X172653D01*
Y629216D01*
X172097D01*
Y629771D01*
Y630327D01*
Y630882D01*
X171542D01*
Y631437D01*
Y631992D01*
Y632548D01*
X170987D01*
Y633103D01*
Y633658D01*
Y634213D01*
X170432D01*
Y634768D01*
Y635324D01*
Y635879D01*
X169876D01*
Y636434D01*
Y636989D01*
X169321D01*
Y637545D01*
Y638100D01*
Y638655D01*
X168766D01*
Y639210D01*
Y639766D01*
Y640321D01*
X168211D01*
Y640876D01*
Y641431D01*
Y641986D01*
Y642542D01*
Y643097D01*
X167100D01*
Y643652D01*
X167656D01*
Y644207D01*
X167100D01*
Y644763D01*
X614613D01*
Y644207D01*
D02*
G37*
%LPC*%
G36*
X541879Y731378D02*
X528553D01*
Y730823D01*
X527998D01*
Y730267D01*
X526887D01*
Y729712D01*
X524666D01*
Y729157D01*
X524111D01*
Y728602D01*
X523556D01*
Y728047D01*
X523001D01*
Y727491D01*
X521890D01*
Y726936D01*
X521335D01*
Y726381D01*
X520780D01*
Y725826D01*
Y725270D01*
X520225D01*
Y724715D01*
X519114D01*
Y724160D01*
Y723605D01*
X518559D01*
Y723050D01*
Y722494D01*
X518004D01*
Y721939D01*
Y721384D01*
Y720829D01*
X517449D01*
Y720274D01*
Y719718D01*
Y719163D01*
X516893D01*
Y718608D01*
Y718053D01*
Y717497D01*
Y716942D01*
Y716387D01*
Y715832D01*
X516338D01*
Y715276D01*
Y714721D01*
Y714166D01*
Y713611D01*
X516893D01*
Y713055D01*
Y712500D01*
Y711945D01*
Y711390D01*
Y710835D01*
Y710279D01*
Y709724D01*
Y709169D01*
X517449D01*
Y708614D01*
Y708058D01*
Y707503D01*
Y706948D01*
X518004D01*
Y706393D01*
Y705838D01*
Y705282D01*
X518559D01*
Y704727D01*
Y704172D01*
Y703617D01*
X519114D01*
Y703061D01*
Y702506D01*
Y701951D01*
X519669D01*
Y701396D01*
Y700841D01*
X520225D01*
Y700285D01*
X539658D01*
Y699730D01*
X540213D01*
Y699175D01*
Y698620D01*
Y698064D01*
X540768D01*
Y697509D01*
Y696954D01*
Y696399D01*
Y695844D01*
Y695288D01*
Y694733D01*
Y694178D01*
X540213D01*
Y693623D01*
Y693067D01*
Y692512D01*
Y691957D01*
Y691402D01*
X539658D01*
Y690846D01*
Y690291D01*
Y689736D01*
Y689181D01*
X539102D01*
Y688625D01*
Y688070D01*
Y687515D01*
Y686960D01*
Y686405D01*
X538547D01*
Y685849D01*
Y685294D01*
Y684739D01*
Y684184D01*
Y683628D01*
Y683073D01*
Y682518D01*
Y681963D01*
X537992D01*
Y681408D01*
Y680852D01*
X538547D01*
Y680297D01*
X539658D01*
Y679742D01*
X540213D01*
Y679187D01*
X542989D01*
Y678632D01*
Y678076D01*
X546320D01*
Y677521D01*
X549652D01*
Y676966D01*
X556314D01*
Y677521D01*
X558535D01*
Y678076D01*
X561311D01*
Y678632D01*
Y679187D01*
X563532D01*
Y679742D01*
X564088D01*
Y680297D01*
X564643D01*
Y680852D01*
X565753D01*
Y681408D01*
Y681963D01*
X566864D01*
Y682518D01*
Y683073D01*
X567974D01*
Y683628D01*
Y684184D01*
X568529D01*
Y684739D01*
Y685294D01*
X569085D01*
Y685849D01*
Y686405D01*
X569640D01*
Y686960D01*
Y687515D01*
Y688070D01*
X570195D01*
Y688625D01*
Y689181D01*
Y689736D01*
X570750D01*
Y690291D01*
Y690846D01*
Y691402D01*
Y691957D01*
Y692512D01*
Y693067D01*
Y693623D01*
Y694178D01*
Y694733D01*
Y695288D01*
Y695844D01*
Y696399D01*
Y696954D01*
Y697509D01*
Y698064D01*
Y698620D01*
Y699175D01*
X570195D01*
Y699730D01*
Y700285D01*
Y700841D01*
Y701396D01*
Y701951D01*
X569640D01*
Y702506D01*
Y703061D01*
Y703617D01*
X569085D01*
Y704172D01*
Y704727D01*
Y705282D01*
X568529D01*
Y705838D01*
Y706393D01*
X567974D01*
Y706948D01*
Y707503D01*
Y708058D01*
Y708614D01*
X566864D01*
Y709169D01*
Y709724D01*
Y710279D01*
Y710835D01*
X566309D01*
Y711390D01*
Y711945D01*
X565753D01*
Y712500D01*
X565198D01*
Y713055D01*
Y713611D01*
Y714166D01*
X564088D01*
Y714721D01*
Y715276D01*
X563532D01*
Y715832D01*
X562977D01*
Y716387D01*
Y716942D01*
X562422D01*
Y717497D01*
X561867D01*
Y718053D01*
X561311D01*
Y718608D01*
Y719163D01*
X560756D01*
Y719718D01*
X560201D01*
Y720274D01*
X559646D01*
Y720829D01*
X559091D01*
Y721384D01*
X558535D01*
Y721939D01*
X557980D01*
Y722494D01*
X557425D01*
Y723050D01*
X556870D01*
Y723605D01*
X555759D01*
Y724160D01*
X555204D01*
Y724715D01*
X554094D01*
Y725270D01*
X553538D01*
Y725826D01*
X552428D01*
Y726381D01*
X551873D01*
Y726936D01*
X550762D01*
Y727491D01*
X549652D01*
Y728047D01*
X549096D01*
Y728602D01*
X547431D01*
Y729157D01*
X546876D01*
Y729712D01*
X544099D01*
Y730267D01*
X542434D01*
Y730823D01*
X541879D01*
Y731378D01*
D02*
G37*
G36*
X605174Y635879D02*
X600733D01*
Y635324D01*
Y634768D01*
X600177D01*
Y634213D01*
Y633658D01*
Y633103D01*
X599622D01*
Y632548D01*
Y631992D01*
X598512D01*
Y631437D01*
Y630882D01*
Y630327D01*
X597957D01*
Y629771D01*
X597401D01*
Y629216D01*
Y628661D01*
X596846D01*
Y628106D01*
Y627551D01*
X596291D01*
Y626995D01*
X595736D01*
Y626440D01*
Y625885D01*
X595180D01*
Y625330D01*
Y624774D01*
X594625D01*
Y624219D01*
Y623664D01*
X593515D01*
Y623109D01*
X594070D01*
Y622553D01*
X592959D01*
Y621998D01*
Y621443D01*
Y620888D01*
Y620333D01*
X592404D01*
Y619777D01*
X591294D01*
Y620333D01*
X590183D01*
Y620888D01*
X589628D01*
Y621443D01*
X589073D01*
Y621998D01*
X588518D01*
Y622553D01*
X587407D01*
Y623109D01*
X586852D01*
Y623664D01*
X586297D01*
Y624219D01*
Y624774D01*
X584631D01*
Y625330D01*
X584076D01*
Y625885D01*
Y626440D01*
X582965D01*
Y626995D01*
X582410D01*
Y627551D01*
X581855D01*
Y628106D01*
X581300D01*
Y628661D01*
X580189D01*
Y629216D01*
X579079D01*
Y629771D01*
Y630327D01*
X578523D01*
Y630882D01*
X577413D01*
Y631437D01*
X576858D01*
Y631992D01*
X576303D01*
Y632548D01*
X575747D01*
Y633103D01*
X574637D01*
Y633658D01*
X574082D01*
Y634213D01*
X573526D01*
Y634768D01*
X572971D01*
Y635324D01*
X572416D01*
Y635879D01*
X568529D01*
Y635324D01*
Y634768D01*
Y634213D01*
X569085D01*
Y633658D01*
Y633103D01*
Y632548D01*
X569640D01*
Y631992D01*
Y631437D01*
Y630882D01*
X570195D01*
Y630327D01*
Y629771D01*
Y629216D01*
X570750D01*
Y628661D01*
Y628106D01*
X571306D01*
Y627551D01*
Y626995D01*
Y626440D01*
X571861D01*
Y625885D01*
Y625330D01*
Y624774D01*
Y624219D01*
Y623664D01*
Y623109D01*
X572416D01*
Y622553D01*
Y621998D01*
X572971D01*
Y621443D01*
Y620888D01*
Y620333D01*
X573526D01*
Y619777D01*
Y619222D01*
Y618667D01*
X574082D01*
Y618112D01*
Y617556D01*
X574637D01*
Y617001D01*
Y616446D01*
Y615891D01*
Y615336D01*
X575192D01*
Y614780D01*
Y614225D01*
Y613670D01*
X575747D01*
Y613115D01*
Y612560D01*
Y612004D01*
Y611449D01*
Y610894D01*
X576858D01*
Y610339D01*
Y609783D01*
Y609228D01*
Y608673D01*
Y608118D01*
Y607562D01*
X577413D01*
Y607007D01*
Y606452D01*
Y605897D01*
X577968D01*
Y605341D01*
Y604786D01*
X578523D01*
Y604231D01*
Y603676D01*
Y603121D01*
X579079D01*
Y602565D01*
Y602010D01*
Y601455D01*
X579634D01*
Y600900D01*
Y600344D01*
X580189D01*
Y599789D01*
Y599234D01*
Y598679D01*
X580744D01*
Y598124D01*
X590183D01*
Y598679D01*
Y599234D01*
X589628D01*
Y599789D01*
Y600344D01*
Y600900D01*
Y601455D01*
Y602010D01*
Y602565D01*
X589073D01*
Y603121D01*
Y603676D01*
X587962D01*
Y604231D01*
X588518D01*
Y604786D01*
Y605341D01*
X587962D01*
Y605897D01*
Y606452D01*
Y607007D01*
X587407D01*
Y607562D01*
Y608118D01*
X586852D01*
Y608673D01*
Y609228D01*
Y609783D01*
X586297D01*
Y610339D01*
Y610894D01*
Y611449D01*
X585742D01*
Y612004D01*
Y612560D01*
Y613115D01*
X585186D01*
Y613670D01*
Y614225D01*
X585742D01*
Y613670D01*
X586852D01*
Y613115D01*
X587407D01*
Y612560D01*
X588518D01*
Y612004D01*
X589073D01*
Y611449D01*
X589628D01*
Y610894D01*
X590183D01*
Y610339D01*
X591294D01*
Y609783D01*
X591849D01*
Y609228D01*
X592404D01*
Y608673D01*
X592959D01*
Y608118D01*
X594070D01*
Y607562D01*
X594625D01*
Y607007D01*
X595180D01*
Y606452D01*
X596846D01*
Y607007D01*
Y607562D01*
X597401D01*
Y608118D01*
X597957D01*
Y608673D01*
Y609228D01*
X598512D01*
Y609783D01*
X599067D01*
Y610339D01*
Y610894D01*
X599622D01*
Y611449D01*
X600177D01*
Y612004D01*
Y612560D01*
Y613115D01*
X600733D01*
Y613670D01*
X601288D01*
Y614225D01*
Y614780D01*
X601843D01*
Y614225D01*
Y613670D01*
X602398D01*
Y613115D01*
Y612560D01*
X602953D01*
Y612004D01*
Y611449D01*
Y610894D01*
X603509D01*
Y610339D01*
Y609783D01*
Y609228D01*
Y608673D01*
Y608118D01*
Y607562D01*
X604064D01*
Y607007D01*
Y606452D01*
Y605897D01*
X604619D01*
Y605341D01*
Y604786D01*
Y604231D01*
X605174D01*
Y603676D01*
Y603121D01*
Y602565D01*
X605730D01*
Y602010D01*
Y601455D01*
Y600900D01*
X606285D01*
Y600344D01*
Y599789D01*
X606840D01*
Y599234D01*
Y598679D01*
Y598124D01*
X616834D01*
Y598679D01*
Y599234D01*
Y599789D01*
Y600344D01*
X616279D01*
Y600900D01*
Y601455D01*
Y602010D01*
X615724D01*
Y602565D01*
Y603121D01*
X615168D01*
Y603676D01*
Y604231D01*
Y604786D01*
X614613D01*
Y605341D01*
Y605897D01*
Y606452D01*
X614058D01*
Y607007D01*
Y607562D01*
Y608118D01*
X613503D01*
Y608673D01*
Y609228D01*
X612948D01*
Y609783D01*
Y610339D01*
Y610894D01*
X612392D01*
Y611449D01*
Y612004D01*
Y612560D01*
Y613115D01*
X611837D01*
Y613670D01*
Y614225D01*
X611282D01*
Y614780D01*
X611837D01*
Y615336D01*
Y615891D01*
X610727D01*
Y616446D01*
Y617001D01*
Y617556D01*
Y618112D01*
Y618667D01*
Y619222D01*
X610171D01*
Y619777D01*
Y620333D01*
X609616D01*
Y620888D01*
Y621443D01*
Y621998D01*
X609061D01*
Y622553D01*
Y623109D01*
Y623664D01*
X608506D01*
Y624219D01*
Y624774D01*
X607951D01*
Y625330D01*
Y625885D01*
Y626440D01*
X607395D01*
Y626995D01*
Y627551D01*
Y628106D01*
X606840D01*
Y628661D01*
Y629216D01*
Y629771D01*
Y630327D01*
Y630882D01*
X605730D01*
Y631437D01*
Y631992D01*
X606285D01*
Y632548D01*
X605730D01*
Y633103D01*
X605174D01*
Y633658D01*
Y634213D01*
Y634768D01*
Y635324D01*
Y635879D01*
D02*
G37*
G36*
X509120D02*
X481359D01*
Y635324D01*
Y634768D01*
Y634213D01*
X481914D01*
Y633658D01*
Y633103D01*
X482469D01*
Y632548D01*
Y631992D01*
Y631437D01*
X483024D01*
Y630882D01*
Y630327D01*
Y629771D01*
X483580D01*
Y629216D01*
Y628661D01*
X484135D01*
Y628106D01*
Y627551D01*
Y626995D01*
X493574D01*
Y626440D01*
Y625885D01*
Y625330D01*
X494129D01*
Y624774D01*
Y624219D01*
Y623664D01*
X494684D01*
Y623109D01*
Y622553D01*
Y621998D01*
Y621443D01*
Y620888D01*
X495795D01*
Y620333D01*
X495239D01*
Y619777D01*
Y619222D01*
X495795D01*
Y618667D01*
Y618112D01*
Y617556D01*
X496350D01*
Y617001D01*
Y616446D01*
Y615891D01*
X496905D01*
Y615336D01*
Y614780D01*
Y614225D01*
X497460D01*
Y613670D01*
Y613115D01*
Y612560D01*
X498016D01*
Y612004D01*
Y611449D01*
X498571D01*
Y610894D01*
Y610339D01*
Y609783D01*
X499126D01*
Y609228D01*
Y608673D01*
Y608118D01*
X499681D01*
Y607562D01*
Y607007D01*
Y606452D01*
Y605897D01*
Y605341D01*
X500237D01*
Y604786D01*
Y604231D01*
Y603676D01*
X501347D01*
Y603121D01*
X500792D01*
Y602565D01*
Y602010D01*
X501347D01*
Y601455D01*
Y600900D01*
X501902D01*
Y600344D01*
Y599789D01*
Y599234D01*
X502457D01*
Y598679D01*
Y598124D01*
X511896D01*
Y598679D01*
Y599234D01*
Y599789D01*
Y600344D01*
X511341D01*
Y600900D01*
Y601455D01*
Y602010D01*
X510786D01*
Y602565D01*
Y603121D01*
X510231D01*
Y603676D01*
Y604231D01*
Y604786D01*
X509675D01*
Y605341D01*
Y605897D01*
Y606452D01*
X509120D01*
Y607007D01*
Y607562D01*
Y608118D01*
X508565D01*
Y608673D01*
Y609228D01*
X508010D01*
Y609783D01*
Y610339D01*
Y610894D01*
X507454D01*
Y611449D01*
Y612004D01*
Y612560D01*
X506899D01*
Y613115D01*
Y613670D01*
Y614225D01*
Y614780D01*
Y615336D01*
X505789D01*
Y615891D01*
X506344D01*
Y616446D01*
Y617001D01*
X505789D01*
Y617556D01*
Y618112D01*
Y618667D01*
Y619222D01*
X505234D01*
Y619777D01*
Y620333D01*
X504678D01*
Y620888D01*
Y621443D01*
Y621998D01*
X504123D01*
Y622553D01*
Y623109D01*
Y623664D01*
X503568D01*
Y624219D01*
Y624774D01*
X503013D01*
Y625330D01*
Y625885D01*
Y626440D01*
X502457D01*
Y626995D01*
X511896D01*
Y627551D01*
Y628106D01*
X511341D01*
Y628661D01*
Y629216D01*
Y629771D01*
X510786D01*
Y630327D01*
Y630882D01*
Y631437D01*
X510231D01*
Y631992D01*
Y632548D01*
Y633103D01*
X509675D01*
Y633658D01*
Y634213D01*
Y634768D01*
X509120D01*
Y635324D01*
Y635879D01*
D02*
G37*
G36*
X421950D02*
X402517D01*
Y635324D01*
X400851D01*
Y634768D01*
X399740D01*
Y634213D01*
X398630D01*
Y633658D01*
Y633103D01*
X397520D01*
Y632548D01*
X396964D01*
Y631992D01*
X397520D01*
Y631437D01*
X396409D01*
Y630882D01*
Y630327D01*
Y629771D01*
Y629216D01*
X395854D01*
Y628661D01*
Y628106D01*
Y627551D01*
Y626995D01*
Y626440D01*
Y625885D01*
Y625330D01*
Y624774D01*
Y624219D01*
X396409D01*
Y623664D01*
Y623109D01*
Y622553D01*
Y621998D01*
Y621443D01*
Y620888D01*
X397520D01*
Y620333D01*
X396964D01*
Y619777D01*
X397520D01*
Y619222D01*
Y618667D01*
X398075D01*
Y618112D01*
X398630D01*
Y617556D01*
X399185D01*
Y617001D01*
X399740D01*
Y616446D01*
Y615891D01*
X400296D01*
Y615336D01*
X400851D01*
Y614780D01*
X401406D01*
Y614225D01*
Y613670D01*
X402517D01*
Y613115D01*
X403072D01*
Y612560D01*
X404738D01*
Y612004D01*
Y611449D01*
X405293D01*
Y610894D01*
Y610339D01*
Y609783D01*
X404738D01*
Y609228D01*
Y608673D01*
Y608118D01*
X404182D01*
Y607562D01*
Y607007D01*
Y606452D01*
X403627D01*
Y605897D01*
Y605341D01*
Y604786D01*
X403072D01*
Y604231D01*
Y603676D01*
Y603121D01*
X402517D01*
Y602565D01*
Y602010D01*
Y601455D01*
X401961D01*
Y600900D01*
Y600344D01*
Y599789D01*
Y599234D01*
Y598679D01*
Y598124D01*
X413621D01*
Y598679D01*
Y599234D01*
Y599789D01*
Y600344D01*
X414176D01*
Y600900D01*
Y601455D01*
Y602010D01*
Y602565D01*
Y603121D01*
Y603676D01*
Y604231D01*
X415287D01*
Y604786D01*
Y605341D01*
X414732D01*
Y605897D01*
X415287D01*
Y606452D01*
Y607007D01*
Y607562D01*
Y608118D01*
X415842D01*
Y608673D01*
Y609228D01*
X420839D01*
Y608673D01*
Y608118D01*
X421394D01*
Y607562D01*
Y607007D01*
Y606452D01*
X421950D01*
Y605897D01*
Y605341D01*
X422505D01*
Y604786D01*
Y604231D01*
Y603676D01*
X423060D01*
Y603121D01*
Y602565D01*
Y602010D01*
Y601455D01*
Y600900D01*
X424170D01*
Y600344D01*
Y599789D01*
Y599234D01*
Y598679D01*
Y598124D01*
X433609D01*
Y598679D01*
Y599234D01*
Y599789D01*
Y600344D01*
X433054D01*
Y600900D01*
Y601455D01*
Y602010D01*
X432499D01*
Y602565D01*
Y603121D01*
X431944D01*
Y603676D01*
Y604231D01*
Y604786D01*
Y605341D01*
X431388D01*
Y605897D01*
Y606452D01*
Y607007D01*
Y607562D01*
Y608118D01*
X430833D01*
Y608673D01*
X430278D01*
Y609228D01*
X430833D01*
Y609783D01*
X429723D01*
Y610339D01*
Y610894D01*
Y611449D01*
Y612004D01*
Y612560D01*
Y613115D01*
X429168D01*
Y613670D01*
Y614225D01*
X428612D01*
Y614780D01*
Y615336D01*
Y615891D01*
X428057D01*
Y616446D01*
Y617001D01*
Y617556D01*
X427502D01*
Y618112D01*
Y618667D01*
Y619222D01*
X426947D01*
Y619777D01*
Y620333D01*
X426391D01*
Y620888D01*
Y621443D01*
Y621998D01*
X425836D01*
Y622553D01*
Y623109D01*
Y623664D01*
Y624219D01*
Y624774D01*
Y625330D01*
X424726D01*
Y625885D01*
Y626440D01*
Y626995D01*
Y627551D01*
Y628106D01*
Y628661D01*
X424170D01*
Y629216D01*
Y629771D01*
Y630327D01*
X423615D01*
Y630882D01*
Y631437D01*
X423060D01*
Y631992D01*
Y632548D01*
Y633103D01*
X422505D01*
Y633658D01*
Y634213D01*
Y634768D01*
X421950D01*
Y635324D01*
Y635879D01*
D02*
G37*
G36*
X339776D02*
X320343D01*
Y635324D01*
X318677D01*
Y634768D01*
X317567D01*
Y634213D01*
X317012D01*
Y633658D01*
X316456D01*
Y633103D01*
X315346D01*
Y632548D01*
X314791D01*
Y631992D01*
Y631437D01*
X314235D01*
Y630882D01*
Y630327D01*
X313680D01*
Y629771D01*
Y629216D01*
Y628661D01*
Y628106D01*
Y627551D01*
Y626995D01*
Y626440D01*
Y625885D01*
Y625330D01*
Y624774D01*
Y624219D01*
Y623664D01*
Y623109D01*
Y622553D01*
Y621998D01*
X314791D01*
Y621443D01*
X314235D01*
Y620888D01*
Y620333D01*
X314791D01*
Y619777D01*
Y619222D01*
X315346D01*
Y618667D01*
Y618112D01*
X315901D01*
Y617556D01*
X316456D01*
Y617001D01*
X317012D01*
Y616446D01*
Y615891D01*
X317567D01*
Y615336D01*
X318122D01*
Y614780D01*
X318677D01*
Y614225D01*
Y613670D01*
X319233D01*
Y613115D01*
X319788D01*
Y612560D01*
X320898D01*
Y612004D01*
X321454D01*
Y611449D01*
X322009D01*
Y610894D01*
X323119D01*
Y610339D01*
X323674D01*
Y609783D01*
X324785D01*
Y609228D01*
X325895D01*
Y608673D01*
X327561D01*
Y608118D01*
X329782D01*
Y607562D01*
X339221D01*
Y607007D01*
Y606452D01*
Y605897D01*
X339776D01*
Y605341D01*
Y604786D01*
X340331D01*
Y604231D01*
Y603676D01*
Y603121D01*
Y602565D01*
Y602010D01*
X340886D01*
Y601455D01*
X341442D01*
Y600900D01*
X340886D01*
Y600344D01*
X341442D01*
Y599789D01*
Y599234D01*
Y598679D01*
X342552D01*
Y598124D01*
X351436D01*
Y598679D01*
Y599234D01*
Y599789D01*
Y600344D01*
X350881D01*
Y600900D01*
Y601455D01*
Y602010D01*
X350325D01*
Y602565D01*
Y603121D01*
X349770D01*
Y603676D01*
Y604231D01*
Y604786D01*
X349215D01*
Y605341D01*
Y605897D01*
Y606452D01*
X348660D01*
Y607007D01*
Y607562D01*
Y608118D01*
Y608673D01*
Y609228D01*
X347549D01*
Y609783D01*
Y610339D01*
Y610894D01*
Y611449D01*
Y612004D01*
Y612560D01*
X346994D01*
Y613115D01*
Y613670D01*
Y614225D01*
X346439D01*
Y614780D01*
Y615336D01*
X345883D01*
Y615891D01*
Y616446D01*
Y617001D01*
Y617556D01*
X345328D01*
Y618112D01*
Y618667D01*
Y619222D01*
X344773D01*
Y619777D01*
Y620333D01*
X344218D01*
Y620888D01*
Y621443D01*
Y621998D01*
X343663D01*
Y622553D01*
Y623109D01*
Y623664D01*
Y624219D01*
Y624774D01*
X342552D01*
Y625330D01*
X343107D01*
Y625885D01*
Y626440D01*
X341997D01*
Y626995D01*
Y627551D01*
Y628106D01*
Y628661D01*
Y629216D01*
Y629771D01*
X341442D01*
Y630327D01*
Y630882D01*
X340886D01*
Y631437D01*
Y631992D01*
Y632548D01*
X340331D01*
Y633103D01*
Y633658D01*
Y634213D01*
X339776D01*
Y634768D01*
Y635324D01*
Y635879D01*
D02*
G37*
G36*
X249274D02*
X229841D01*
Y635324D01*
X228175D01*
Y634768D01*
X227065D01*
Y634213D01*
X226510D01*
Y633658D01*
X225399D01*
Y633103D01*
X224844D01*
Y632548D01*
Y631992D01*
X224289D01*
Y631437D01*
X223734D01*
Y630882D01*
Y630327D01*
X223178D01*
Y629771D01*
Y629216D01*
Y628661D01*
X222623D01*
Y628106D01*
Y627551D01*
Y626995D01*
Y626440D01*
Y625885D01*
Y625330D01*
Y624774D01*
X223178D01*
Y624219D01*
Y623664D01*
Y623109D01*
X223734D01*
Y622553D01*
Y621998D01*
Y621443D01*
X224289D01*
Y620888D01*
Y620333D01*
Y619777D01*
X224844D01*
Y619222D01*
X225399D01*
Y618667D01*
Y618112D01*
X225954D01*
Y617556D01*
Y617001D01*
X227065D01*
Y616446D01*
Y615891D01*
X227620D01*
Y615336D01*
Y614780D01*
X228731D01*
Y614225D01*
Y613670D01*
X229841D01*
Y613115D01*
X230396D01*
Y612560D01*
X231507D01*
Y612004D01*
X232062D01*
Y611449D01*
X232617D01*
Y610894D01*
X232062D01*
Y610339D01*
X232617D01*
Y609783D01*
X231507D01*
Y609228D01*
Y608673D01*
Y608118D01*
Y607562D01*
Y607007D01*
Y606452D01*
X230951D01*
Y605897D01*
Y605341D01*
Y604786D01*
Y604231D01*
X230396D01*
Y603676D01*
Y603121D01*
Y602565D01*
X229841D01*
Y602010D01*
Y601455D01*
Y600900D01*
X229286D01*
Y600344D01*
Y599789D01*
Y599234D01*
Y598679D01*
X229841D01*
Y598124D01*
X240390D01*
Y598679D01*
Y599234D01*
Y599789D01*
X240946D01*
Y600344D01*
Y600900D01*
Y601455D01*
X241501D01*
Y602010D01*
Y602565D01*
Y603121D01*
Y603676D01*
X242056D01*
Y604231D01*
Y604786D01*
Y605341D01*
Y605897D01*
X242611D01*
Y606452D01*
Y607007D01*
Y607562D01*
X243167D01*
Y608118D01*
Y608673D01*
Y609228D01*
X248164D01*
Y608673D01*
X248719D01*
Y608118D01*
Y607562D01*
Y607007D01*
Y606452D01*
Y605897D01*
X249274D01*
Y605341D01*
Y604786D01*
Y604231D01*
X249829D01*
Y603676D01*
Y603121D01*
Y602565D01*
X250384D01*
Y602010D01*
Y601455D01*
Y600900D01*
X250940D01*
Y600344D01*
Y599789D01*
X251495D01*
Y599234D01*
Y598679D01*
Y598124D01*
X260934D01*
Y598679D01*
Y599234D01*
Y599789D01*
Y600344D01*
Y600900D01*
X259823D01*
Y601455D01*
X260378D01*
Y602010D01*
X259823D01*
Y602565D01*
Y603121D01*
Y603676D01*
X259268D01*
Y604231D01*
Y604786D01*
Y605341D01*
X258713D01*
Y605897D01*
Y606452D01*
Y607007D01*
X258158D01*
Y607562D01*
Y608118D01*
X257602D01*
Y608673D01*
Y609228D01*
Y609783D01*
Y610339D01*
X257047D01*
Y610894D01*
Y611449D01*
Y612004D01*
X256492D01*
Y612560D01*
Y613115D01*
X255937D01*
Y613670D01*
Y614225D01*
Y614780D01*
Y615336D01*
Y615891D01*
Y616446D01*
X254826D01*
Y617001D01*
X255382D01*
Y617556D01*
Y618112D01*
X254271D01*
Y618667D01*
Y619222D01*
Y619777D01*
Y620333D01*
Y620888D01*
X253716D01*
Y621443D01*
Y621998D01*
Y622553D01*
X253161D01*
Y623109D01*
Y623664D01*
Y624219D01*
X252605D01*
Y624774D01*
Y625330D01*
X252050D01*
Y625885D01*
Y626440D01*
Y626995D01*
X251495D01*
Y627551D01*
Y628106D01*
Y628661D01*
X250940D01*
Y629216D01*
Y629771D01*
Y630327D01*
X250384D01*
Y630882D01*
Y631437D01*
Y631992D01*
X249829D01*
Y632548D01*
X250384D01*
Y633103D01*
Y633658D01*
X249274D01*
Y634213D01*
Y634768D01*
Y635324D01*
Y635879D01*
D02*
G37*
G36*
X209853D02*
X182647D01*
Y635324D01*
Y634768D01*
Y634213D01*
Y633658D01*
X183202D01*
Y633103D01*
Y632548D01*
Y631992D01*
X183757D01*
Y631437D01*
Y630882D01*
Y630327D01*
X184312D01*
Y629771D01*
Y629216D01*
Y628661D01*
X184868D01*
Y628106D01*
Y627551D01*
X185423D01*
Y626995D01*
X194307D01*
Y626440D01*
Y625885D01*
X194862D01*
Y625330D01*
Y624774D01*
Y624219D01*
X195417D01*
Y623664D01*
Y623109D01*
X195972D01*
Y622553D01*
Y621998D01*
Y621443D01*
X196527D01*
Y620888D01*
Y620333D01*
Y619777D01*
Y619222D01*
X197083D01*
Y618667D01*
Y618112D01*
X197638D01*
Y617556D01*
Y617001D01*
Y616446D01*
X198193D01*
Y615891D01*
Y615336D01*
Y614780D01*
Y614225D01*
Y613670D01*
Y613115D01*
X199304D01*
Y612560D01*
X198748D01*
Y612004D01*
X199304D01*
Y611449D01*
Y610894D01*
Y610339D01*
X199859D01*
Y609783D01*
Y609228D01*
Y608673D01*
X200414D01*
Y608118D01*
Y607562D01*
X200969D01*
Y607007D01*
Y606452D01*
Y605897D01*
X201525D01*
Y605341D01*
Y604786D01*
Y604231D01*
X202080D01*
Y603676D01*
Y603121D01*
Y602565D01*
X202635D01*
Y602010D01*
Y601455D01*
Y600900D01*
X203190D01*
Y600344D01*
Y599789D01*
Y599234D01*
X203745D01*
Y598679D01*
Y598124D01*
X212629D01*
Y598679D01*
Y599234D01*
Y599789D01*
Y600344D01*
X212074D01*
Y600900D01*
Y601455D01*
Y602010D01*
Y602565D01*
Y603121D01*
Y603676D01*
X210963D01*
Y604231D01*
X211519D01*
Y604786D01*
Y605341D01*
X210963D01*
Y605897D01*
Y606452D01*
Y607007D01*
X210408D01*
Y607562D01*
Y608118D01*
X209853D01*
Y608673D01*
Y609228D01*
Y609783D01*
X209298D01*
Y610339D01*
Y610894D01*
Y611449D01*
X208742D01*
Y612004D01*
Y612560D01*
Y613115D01*
X208187D01*
Y613670D01*
Y614225D01*
X207632D01*
Y614780D01*
Y615336D01*
Y615891D01*
X207077D01*
Y616446D01*
Y617001D01*
Y617556D01*
X206521D01*
Y618112D01*
Y618667D01*
Y619222D01*
Y619777D01*
Y620333D01*
Y620888D01*
X205411D01*
Y621443D01*
Y621998D01*
Y622553D01*
Y623109D01*
Y623664D01*
Y624219D01*
X204856D01*
Y624774D01*
Y625330D01*
X204301D01*
Y625885D01*
Y626440D01*
Y626995D01*
X212629D01*
Y627551D01*
Y628106D01*
Y628661D01*
X212074D01*
Y629216D01*
Y629771D01*
Y630327D01*
Y630882D01*
Y631437D01*
Y631992D01*
X210963D01*
Y632548D01*
X211519D01*
Y633103D01*
Y633658D01*
X210963D01*
Y634213D01*
Y634768D01*
Y635324D01*
X209853D01*
Y635879D01*
D02*
G37*
G36*
X542989D02*
X530774D01*
Y635324D01*
X530219D01*
Y634768D01*
X529108D01*
Y634213D01*
X527998D01*
Y633658D01*
X527443D01*
Y633103D01*
X526332D01*
Y632548D01*
X525777D01*
Y631992D01*
X525222D01*
Y631437D01*
Y630882D01*
X524666D01*
Y630327D01*
X524111D01*
Y629771D01*
X523556D01*
Y629216D01*
Y628661D01*
X523001D01*
Y628106D01*
Y627551D01*
Y626995D01*
Y626440D01*
X522446D01*
Y625885D01*
Y625330D01*
Y624774D01*
Y624219D01*
Y623664D01*
Y623109D01*
Y622553D01*
Y621998D01*
Y621443D01*
Y620888D01*
Y620333D01*
X523001D01*
Y619777D01*
Y619222D01*
Y618667D01*
Y618112D01*
X523556D01*
Y617556D01*
Y617001D01*
Y616446D01*
X524111D01*
Y615891D01*
Y615336D01*
X524666D01*
Y614780D01*
Y614225D01*
Y613670D01*
X525222D01*
Y613115D01*
Y612560D01*
X525777D01*
Y612004D01*
Y611449D01*
X526332D01*
Y610894D01*
X526887D01*
Y610339D01*
X527443D01*
Y609783D01*
Y609228D01*
X527998D01*
Y608673D01*
X528553D01*
Y608118D01*
Y607562D01*
X529108D01*
Y607007D01*
X529664D01*
Y606452D01*
Y605897D01*
X530774D01*
Y605341D01*
X531329D01*
Y604786D01*
X531884D01*
Y604231D01*
X532440D01*
Y603676D01*
X533550D01*
Y603121D01*
X534105D01*
Y602565D01*
Y602010D01*
X535771D01*
Y601455D01*
Y600900D01*
X537992D01*
Y600344D01*
X538547D01*
Y599789D01*
X539658D01*
Y599234D01*
X541323D01*
Y598679D01*
X542989D01*
Y598124D01*
X545210D01*
Y597568D01*
X552983D01*
Y598124D01*
X555204D01*
Y598679D01*
X556314D01*
Y599234D01*
X557425D01*
Y599789D01*
X557980D01*
Y600344D01*
X559091D01*
Y600900D01*
X560201D01*
Y601455D01*
Y602010D01*
X561311D01*
Y602565D01*
Y603121D01*
Y603676D01*
X561867D01*
Y604231D01*
Y604786D01*
Y605341D01*
X562977D01*
Y605897D01*
Y606452D01*
Y607007D01*
Y607562D01*
Y608118D01*
Y608673D01*
Y609228D01*
Y609783D01*
Y610339D01*
Y610894D01*
Y611449D01*
Y612004D01*
Y612560D01*
Y613115D01*
Y613670D01*
Y614225D01*
Y614780D01*
Y615336D01*
Y615891D01*
X561867D01*
Y616446D01*
X562422D01*
Y617001D01*
X561867D01*
Y617556D01*
X561311D01*
Y618112D01*
Y618667D01*
Y619222D01*
Y619777D01*
X560756D01*
Y620333D01*
Y620888D01*
X560201D01*
Y621443D01*
Y621998D01*
X559646D01*
Y622553D01*
Y623109D01*
X559091D01*
Y623664D01*
Y624219D01*
X558535D01*
Y624774D01*
X557425D01*
Y625330D01*
Y625885D01*
Y626440D01*
X556314D01*
Y626995D01*
Y627551D01*
X555204D01*
Y628106D01*
Y628661D01*
X554649D01*
Y629216D01*
X553538D01*
Y629771D01*
Y630327D01*
X552428D01*
Y630882D01*
X551317D01*
Y631437D01*
X550762D01*
Y631992D01*
X549652D01*
Y632548D01*
X549096D01*
Y633103D01*
X548541D01*
Y633658D01*
X547431D01*
Y634213D01*
X545765D01*
Y634768D01*
X544655D01*
Y635324D01*
X542989D01*
Y635879D01*
D02*
G37*
G36*
X459705D02*
X446935D01*
Y635324D01*
X446380D01*
Y634768D01*
X445269D01*
Y634213D01*
X444159D01*
Y633658D01*
X443603D01*
Y633103D01*
X443048D01*
Y632548D01*
X442493D01*
Y631992D01*
X441938D01*
Y631437D01*
X441382D01*
Y630882D01*
X440827D01*
Y630327D01*
X440272D01*
Y629771D01*
Y629216D01*
Y628661D01*
Y628106D01*
X439717D01*
Y627551D01*
Y626995D01*
Y626440D01*
Y625885D01*
X439162D01*
Y625330D01*
Y624774D01*
Y624219D01*
Y623664D01*
Y623109D01*
Y622553D01*
Y621998D01*
Y621443D01*
X439717D01*
Y620888D01*
Y620333D01*
Y619777D01*
Y619222D01*
Y618667D01*
X440272D01*
Y618112D01*
Y617556D01*
Y617001D01*
Y616446D01*
Y615891D01*
Y615336D01*
X441382D01*
Y614780D01*
X440827D01*
Y614225D01*
X441382D01*
Y613670D01*
Y613115D01*
X441938D01*
Y612560D01*
X442493D01*
Y612004D01*
Y611449D01*
X443048D01*
Y610894D01*
Y610339D01*
X443603D01*
Y609783D01*
X444159D01*
Y609228D01*
Y608673D01*
X444714D01*
Y608118D01*
X445269D01*
Y607562D01*
X445824D01*
Y607007D01*
Y606452D01*
Y605897D01*
X446935D01*
Y605341D01*
X447490D01*
Y604786D01*
X448045D01*
Y604231D01*
X449156D01*
Y603676D01*
X449711D01*
Y603121D01*
X450266D01*
Y602565D01*
X450821D01*
Y602010D01*
X451932D01*
Y601455D01*
X453042D01*
Y600900D01*
X454153D01*
Y600344D01*
X455263D01*
Y599789D01*
X456374D01*
Y599234D01*
X457484D01*
Y598679D01*
X459150D01*
Y598124D01*
X461926D01*
Y597568D01*
X469699D01*
Y598124D01*
X471365D01*
Y598679D01*
X472475D01*
Y599234D01*
X473586D01*
Y599789D01*
X474141D01*
Y600344D01*
X475251D01*
Y600900D01*
X476362D01*
Y601455D01*
Y602010D01*
X477472D01*
Y602565D01*
X478027D01*
Y603121D01*
Y603676D01*
X478583D01*
Y604231D01*
Y604786D01*
X479138D01*
Y605341D01*
Y605897D01*
Y606452D01*
Y607007D01*
Y607562D01*
Y608118D01*
Y608673D01*
X480248D01*
Y609228D01*
Y609783D01*
Y610339D01*
Y610894D01*
Y611449D01*
X479138D01*
Y612004D01*
Y612560D01*
Y613115D01*
Y613670D01*
Y614225D01*
Y614780D01*
Y615336D01*
Y615891D01*
Y616446D01*
X478583D01*
Y617001D01*
Y617556D01*
Y618112D01*
X478027D01*
Y618667D01*
Y619222D01*
Y619777D01*
X477472D01*
Y620333D01*
X476917D01*
Y620888D01*
Y621443D01*
X476362D01*
Y621998D01*
Y622553D01*
X475807D01*
Y623109D01*
X475251D01*
Y623664D01*
Y624219D01*
Y624774D01*
X474141D01*
Y625330D01*
X473586D01*
Y625885D01*
Y626440D01*
X472475D01*
Y626995D01*
Y627551D01*
Y628106D01*
X471365D01*
Y628661D01*
Y629216D01*
X470254D01*
Y629771D01*
X469699D01*
Y630327D01*
X468589D01*
Y630882D01*
X468033D01*
Y631437D01*
X467478D01*
Y631992D01*
X466368D01*
Y632548D01*
X465812D01*
Y633103D01*
X464702D01*
Y633658D01*
X463592D01*
Y634213D01*
X462481D01*
Y634768D01*
X460815D01*
Y635324D01*
X459705D01*
Y635879D01*
D02*
G37*
G36*
X373090D02*
X361430D01*
Y635324D01*
X360875D01*
Y634768D01*
X359209D01*
Y634213D01*
X358654D01*
Y633658D01*
Y633103D01*
X357543D01*
Y632548D01*
Y631992D01*
X356988D01*
Y631437D01*
Y630882D01*
X356433D01*
Y630327D01*
Y629771D01*
Y629216D01*
X355877D01*
Y628661D01*
Y628106D01*
Y627551D01*
Y626995D01*
Y626440D01*
X356433D01*
Y625885D01*
Y625330D01*
Y624774D01*
Y624219D01*
X356988D01*
Y623664D01*
X365316D01*
Y624219D01*
Y624774D01*
Y625330D01*
Y625885D01*
X365872D01*
Y626440D01*
X366427D01*
Y626995D01*
X366982D01*
Y627551D01*
X369203D01*
Y628106D01*
X369758D01*
Y627551D01*
X372534D01*
Y626995D01*
X373645D01*
Y626440D01*
X374755D01*
Y625885D01*
X375311D01*
Y625330D01*
X375866D01*
Y624774D01*
Y624219D01*
Y623664D01*
Y623109D01*
Y622553D01*
Y621998D01*
Y621443D01*
X374755D01*
Y620888D01*
X372534D01*
Y620333D01*
X368648D01*
Y619777D01*
X364206D01*
Y619222D01*
X363651D01*
Y618667D01*
X362540D01*
Y618112D01*
X361430D01*
Y617556D01*
X360875D01*
Y617001D01*
X360319D01*
Y616446D01*
Y615891D01*
X359764D01*
Y615336D01*
Y614780D01*
Y614225D01*
Y613670D01*
Y613115D01*
Y612560D01*
Y612004D01*
Y611449D01*
Y610894D01*
Y610339D01*
X360319D01*
Y609783D01*
Y609228D01*
Y608673D01*
Y608118D01*
X360875D01*
Y607562D01*
X361430D01*
Y607007D01*
Y606452D01*
Y605897D01*
X362540D01*
Y605341D01*
Y604786D01*
X363096D01*
Y604231D01*
X363651D01*
Y603676D01*
X364206D01*
Y603121D01*
X364761D01*
Y602565D01*
Y602010D01*
X365872D01*
Y601455D01*
X366427D01*
Y600900D01*
X368092D01*
Y600344D01*
X369203D01*
Y599789D01*
X369758D01*
Y599234D01*
X370869D01*
Y598679D01*
X372534D01*
Y598124D01*
X374755D01*
Y597568D01*
X383639D01*
Y598124D01*
X384749D01*
Y598679D01*
X385860D01*
Y599234D01*
X386970D01*
Y599789D01*
X388081D01*
Y600344D01*
X388636D01*
Y600900D01*
X389746D01*
Y601455D01*
Y602010D01*
X390302D01*
Y602565D01*
X390857D01*
Y603121D01*
Y603676D01*
Y604231D01*
Y604786D01*
X391412D01*
Y605341D01*
Y605897D01*
Y606452D01*
Y607007D01*
Y607562D01*
X390857D01*
Y608118D01*
Y608673D01*
Y609228D01*
X390302D01*
Y609783D01*
X380863D01*
Y609228D01*
Y608673D01*
Y608118D01*
X380308D01*
Y607562D01*
Y607007D01*
X379197D01*
Y606452D01*
X372534D01*
Y607007D01*
X371979D01*
Y607562D01*
X370869D01*
Y608118D01*
X370313D01*
Y608673D01*
X369758D01*
Y609228D01*
Y609783D01*
Y610339D01*
Y610894D01*
Y611449D01*
X370869D01*
Y612004D01*
X371424D01*
Y612560D01*
X378087D01*
Y613115D01*
X380308D01*
Y613670D01*
X381418D01*
Y614225D01*
X382528D01*
Y614780D01*
X383639D01*
Y615336D01*
X384194D01*
Y615891D01*
X384749D01*
Y616446D01*
X385305D01*
Y617001D01*
Y617556D01*
X385860D01*
Y618112D01*
Y618667D01*
Y619222D01*
Y619777D01*
Y620333D01*
Y620888D01*
Y621443D01*
Y621998D01*
Y622553D01*
Y623109D01*
Y623664D01*
X385305D01*
Y624219D01*
Y624774D01*
X384749D01*
Y625330D01*
Y625885D01*
X384194D01*
Y626440D01*
Y626995D01*
X383639D01*
Y627551D01*
Y628106D01*
X383084D01*
Y628661D01*
X382528D01*
Y629216D01*
Y629771D01*
X381973D01*
Y630327D01*
X380863D01*
Y630882D01*
Y631437D01*
X379752D01*
Y631992D01*
X379197D01*
Y632548D01*
X378642D01*
Y633103D01*
X377531D01*
Y633658D01*
X376976D01*
Y634213D01*
X375311D01*
Y634768D01*
X374200D01*
Y635324D01*
X373090D01*
Y635879D01*
D02*
G37*
G36*
X286474D02*
X274814D01*
Y635324D01*
X273704D01*
Y634768D01*
X272593D01*
Y634213D01*
X270928D01*
Y633658D01*
Y633103D01*
X269817D01*
Y632548D01*
Y631992D01*
X269262D01*
Y631437D01*
X268707D01*
Y630882D01*
X268152D01*
Y630327D01*
X267596D01*
Y629771D01*
Y629216D01*
X267041D01*
Y628661D01*
Y628106D01*
Y627551D01*
X266486D01*
Y626995D01*
Y626440D01*
Y625885D01*
Y625330D01*
Y624774D01*
X265931D01*
Y624219D01*
Y623664D01*
Y623109D01*
Y622553D01*
Y621998D01*
X266486D01*
Y621443D01*
Y620888D01*
Y620333D01*
Y619777D01*
Y619222D01*
X267041D01*
Y618667D01*
Y618112D01*
Y617556D01*
X267596D01*
Y617001D01*
Y616446D01*
Y615891D01*
X268152D01*
Y615336D01*
Y614780D01*
Y614225D01*
X268707D01*
Y613670D01*
Y613115D01*
X269262D01*
Y612560D01*
X269817D01*
Y612004D01*
Y611449D01*
Y610894D01*
X270373D01*
Y610339D01*
Y609783D01*
X270928D01*
Y609228D01*
X271483D01*
Y608673D01*
Y608118D01*
X272593D01*
Y607562D01*
X273149D01*
Y607007D01*
Y606452D01*
X273704D01*
Y605897D01*
X274814D01*
Y605341D01*
X275370D01*
Y604786D01*
X275925D01*
Y604231D01*
X276480D01*
Y603676D01*
Y603121D01*
X277591D01*
Y602565D01*
X278146D01*
Y602010D01*
X279256D01*
Y601455D01*
X279811D01*
Y600900D01*
X281477D01*
Y600344D01*
X282032D01*
Y599789D01*
X283698D01*
Y599234D01*
X284809D01*
Y598679D01*
X287029D01*
Y598124D01*
X288695D01*
Y597568D01*
X297024D01*
Y598124D01*
X298689D01*
Y598679D01*
X299800D01*
Y599234D01*
X300910D01*
Y599789D01*
X302021D01*
Y600344D01*
X302576D01*
Y600900D01*
X303131D01*
Y601455D01*
X303686D01*
Y602010D01*
X304242D01*
Y602565D01*
X304797D01*
Y603121D01*
X305352D01*
Y603676D01*
Y604231D01*
X305907D01*
Y604786D01*
Y605341D01*
Y605897D01*
X306462D01*
Y606452D01*
Y607007D01*
Y607562D01*
X307018D01*
Y608118D01*
Y608673D01*
Y609228D01*
Y609783D01*
Y610339D01*
Y610894D01*
Y611449D01*
Y612004D01*
Y612560D01*
Y613115D01*
X306462D01*
Y613670D01*
Y614225D01*
Y614780D01*
Y615336D01*
X305907D01*
Y615891D01*
Y616446D01*
Y617001D01*
X305352D01*
Y617556D01*
Y618112D01*
Y618667D01*
X304797D01*
Y619222D01*
Y619777D01*
Y620333D01*
X303686D01*
Y620888D01*
Y621443D01*
Y621998D01*
Y622553D01*
X303131D01*
Y623109D01*
Y623664D01*
X302021D01*
Y624219D01*
Y624774D01*
X301465D01*
Y625330D01*
X300910D01*
Y625885D01*
X300355D01*
Y626440D01*
Y626995D01*
X299800D01*
Y627551D01*
X299244D01*
Y628106D01*
X298689D01*
Y628661D01*
X298134D01*
Y629216D01*
X297579D01*
Y629771D01*
X297024D01*
Y630327D01*
X295913D01*
Y630882D01*
X295358D01*
Y631437D01*
X294247D01*
Y631992D01*
X293692D01*
Y632548D01*
X293137D01*
Y633103D01*
X292027D01*
Y633658D01*
X290916D01*
Y634213D01*
X289806D01*
Y634768D01*
X288140D01*
Y635324D01*
X286474D01*
Y635879D01*
D02*
G37*
%LPD*%
G36*
X415287Y626440D02*
Y625885D01*
Y625330D01*
X415842D01*
Y624774D01*
Y624219D01*
Y623664D01*
X416397D01*
Y623109D01*
Y622553D01*
Y621998D01*
X416953D01*
Y621443D01*
Y620888D01*
X417508D01*
Y620333D01*
Y619777D01*
Y619222D01*
Y618667D01*
Y618112D01*
X409179D01*
Y618667D01*
X408069D01*
Y619222D01*
X407514D01*
Y619777D01*
X406958D01*
Y620333D01*
Y620888D01*
X406403D01*
Y621443D01*
Y621998D01*
X405848D01*
Y622553D01*
Y623109D01*
Y623664D01*
Y624219D01*
X405293D01*
Y624774D01*
X405848D01*
Y625330D01*
Y625885D01*
X406403D01*
Y626440D01*
X406958D01*
Y626995D01*
X415287D01*
Y626440D01*
D02*
G37*
G36*
X332558D02*
X333113D01*
Y625885D01*
Y625330D01*
Y624774D01*
X333669D01*
Y624219D01*
Y623664D01*
Y623109D01*
X334224D01*
Y622553D01*
Y621998D01*
X334779D01*
Y621443D01*
Y620888D01*
Y620333D01*
X335334D01*
Y619777D01*
Y619222D01*
Y618667D01*
Y618112D01*
Y617556D01*
X336445D01*
Y617001D01*
Y616446D01*
X328116D01*
Y617001D01*
X327006D01*
Y617556D01*
X326451D01*
Y618112D01*
X325895D01*
Y618667D01*
X325340D01*
Y619222D01*
Y619777D01*
X324785D01*
Y620333D01*
X324230D01*
Y620888D01*
Y621443D01*
X323674D01*
Y621998D01*
Y622553D01*
Y623109D01*
Y623664D01*
X323119D01*
Y624219D01*
Y624774D01*
X323674D01*
Y625330D01*
Y625885D01*
X324230D01*
Y626440D01*
X324785D01*
Y626995D01*
X332558D01*
Y626440D01*
D02*
G37*
G36*
X242056D02*
Y625885D01*
X243167D01*
Y625330D01*
X242611D01*
Y624774D01*
Y624219D01*
X243167D01*
Y623664D01*
Y623109D01*
X243722D01*
Y622553D01*
Y621998D01*
Y621443D01*
X244277D01*
Y620888D01*
Y620333D01*
Y619777D01*
Y619222D01*
X244832D01*
Y618667D01*
Y618112D01*
X237059D01*
Y618667D01*
X235393D01*
Y619222D01*
Y619777D01*
X234283D01*
Y620333D01*
X233728D01*
Y620888D01*
X233172D01*
Y621443D01*
Y621998D01*
Y622553D01*
Y623109D01*
Y623664D01*
Y624219D01*
Y624774D01*
Y625330D01*
Y625885D01*
Y626440D01*
X233728D01*
Y626995D01*
X242056D01*
Y626440D01*
D02*
G37*
G36*
X541879D02*
X543544D01*
Y625885D01*
X545210D01*
Y625330D01*
X546320D01*
Y624774D01*
Y624219D01*
X547431D01*
Y623664D01*
X547986D01*
Y623109D01*
X549096D01*
Y622553D01*
Y621998D01*
X550207D01*
Y621443D01*
X549652D01*
Y620888D01*
X550207D01*
Y620333D01*
X550762D01*
Y619777D01*
Y619222D01*
X551317D01*
Y618667D01*
Y618112D01*
X551873D01*
Y617556D01*
Y617001D01*
X552428D01*
Y616446D01*
Y615891D01*
Y615336D01*
Y614780D01*
X552983D01*
Y614225D01*
Y613670D01*
Y613115D01*
Y612560D01*
Y612004D01*
Y611449D01*
X552428D01*
Y610894D01*
Y610339D01*
Y609783D01*
X551873D01*
Y609228D01*
X551317D01*
Y608673D01*
X550762D01*
Y608118D01*
X550207D01*
Y607562D01*
X548541D01*
Y607007D01*
X544099D01*
Y607562D01*
X542434D01*
Y608118D01*
X540213D01*
Y608673D01*
X539658D01*
Y609228D01*
X539102D01*
Y609783D01*
X537992D01*
Y610339D01*
X537437D01*
Y610894D01*
X536881D01*
Y611449D01*
X536326D01*
Y612004D01*
Y612560D01*
X535771D01*
Y613115D01*
X535216D01*
Y613670D01*
Y614225D01*
X534661D01*
Y614780D01*
Y615336D01*
X533550D01*
Y615891D01*
X534105D01*
Y616446D01*
Y617001D01*
X533550D01*
Y617556D01*
Y618112D01*
Y618667D01*
Y619222D01*
X532995D01*
Y619777D01*
Y620333D01*
Y620888D01*
Y621443D01*
Y621998D01*
X533550D01*
Y622553D01*
Y623109D01*
Y623664D01*
Y624219D01*
X534105D01*
Y624774D01*
X534661D01*
Y625330D01*
X535216D01*
Y625885D01*
X536326D01*
Y626440D01*
X537992D01*
Y626995D01*
X541879D01*
Y626440D01*
D02*
G37*
G36*
X458595D02*
X460260D01*
Y625885D01*
X461371D01*
Y625330D01*
X462481D01*
Y624774D01*
X463036D01*
Y624219D01*
X464147D01*
Y623664D01*
Y623109D01*
X465257D01*
Y622553D01*
X465812D01*
Y621998D01*
X466368D01*
Y621443D01*
X466923D01*
Y620888D01*
Y620333D01*
X467478D01*
Y619777D01*
X466923D01*
Y619222D01*
X468033D01*
Y618667D01*
Y618112D01*
Y617556D01*
X468589D01*
Y617001D01*
Y616446D01*
Y615891D01*
X469144D01*
Y615336D01*
Y614780D01*
Y614225D01*
Y613670D01*
Y613115D01*
Y612560D01*
Y612004D01*
Y611449D01*
Y610894D01*
X468589D01*
Y610339D01*
Y609783D01*
X468033D01*
Y609228D01*
Y608673D01*
Y608118D01*
X466368D01*
Y607562D01*
X464702D01*
Y607007D01*
X460260D01*
Y607562D01*
X458595D01*
Y608118D01*
X456929D01*
Y608673D01*
X456374D01*
Y609228D01*
X455263D01*
Y609783D01*
X454708D01*
Y610339D01*
X453597D01*
Y610894D01*
Y611449D01*
X453042D01*
Y612004D01*
X452487D01*
Y612560D01*
X451932D01*
Y613115D01*
X451377D01*
Y613670D01*
Y614225D01*
Y614780D01*
X450821D01*
Y615336D01*
Y615891D01*
X450266D01*
Y616446D01*
Y617001D01*
Y617556D01*
X449711D01*
Y618112D01*
Y618667D01*
Y619222D01*
Y619777D01*
Y620333D01*
Y620888D01*
Y621443D01*
Y621998D01*
Y622553D01*
Y623109D01*
X450266D01*
Y623664D01*
Y624219D01*
X450821D01*
Y624774D01*
X451377D01*
Y625330D01*
Y625885D01*
X452487D01*
Y626440D01*
X454153D01*
Y626995D01*
X458595D01*
Y626440D01*
D02*
G37*
G36*
X285919D02*
X287029D01*
Y625885D01*
X288140D01*
Y625330D01*
X289250D01*
Y624774D01*
X290361D01*
Y624219D01*
X290916D01*
Y623664D01*
X291471D01*
Y623109D01*
X292582D01*
Y622553D01*
Y621998D01*
X293137D01*
Y621443D01*
X293692D01*
Y620888D01*
X294247D01*
Y620333D01*
Y619777D01*
X294803D01*
Y619222D01*
Y618667D01*
X295358D01*
Y618112D01*
X295913D01*
Y617556D01*
Y617001D01*
Y616446D01*
X296468D01*
Y615891D01*
Y615336D01*
Y614780D01*
Y614225D01*
Y613670D01*
Y613115D01*
Y612560D01*
Y612004D01*
Y611449D01*
Y610894D01*
Y610339D01*
X295913D01*
Y609783D01*
Y609228D01*
X294803D01*
Y608673D01*
Y608118D01*
X293692D01*
Y607562D01*
X292027D01*
Y607007D01*
X287029D01*
Y607562D01*
X285919D01*
Y608118D01*
X283698D01*
Y608673D01*
Y609228D01*
X282588D01*
Y609783D01*
X281477D01*
Y610339D01*
Y610894D01*
X280367D01*
Y611449D01*
Y612004D01*
X279811D01*
Y612560D01*
X279256D01*
Y613115D01*
X278701D01*
Y613670D01*
Y614225D01*
X278146D01*
Y614780D01*
X277591D01*
Y615336D01*
Y615891D01*
Y616446D01*
X277035D01*
Y617001D01*
Y617556D01*
Y618112D01*
Y618667D01*
Y619222D01*
Y619777D01*
Y620333D01*
Y620888D01*
Y621443D01*
Y621998D01*
Y622553D01*
Y623109D01*
Y623664D01*
X277591D01*
Y624219D01*
Y624774D01*
X278146D01*
Y625330D01*
X279256D01*
Y625885D01*
X279811D01*
Y626440D01*
X281477D01*
Y626995D01*
X285919D01*
Y626440D01*
D02*
G37*
D12*
X629920Y772158D02*
Y764540D01*
X624842D01*
X618494Y772158D02*
X621033D01*
X622303Y770888D01*
Y765810D01*
X621033Y764540D01*
X618494D01*
X617224Y765810D01*
Y770888D01*
X618494Y772158D01*
X609607Y770888D02*
X610876Y772158D01*
X613415D01*
X614685Y770888D01*
Y765810D01*
X613415Y764540D01*
X610876D01*
X609607Y765810D01*
Y768349D01*
X612146D01*
X603259Y772158D02*
X605798D01*
X607067Y770888D01*
Y765810D01*
X605798Y764540D01*
X603259D01*
X601989Y765810D01*
Y770888D01*
X603259Y772158D01*
X599450Y764540D02*
X596911D01*
X598180D01*
Y772158D01*
X599450Y770888D01*
D15*
X617291Y572760D02*
Y582917D01*
X619830Y585456D01*
X624908D01*
X627448Y582917D01*
Y572760D01*
X624908Y570221D01*
X619830D01*
X622369Y575299D02*
X617291Y570221D01*
X619830D02*
X617291Y572760D01*
X612212Y585456D02*
Y572760D01*
X609673Y570221D01*
X604595D01*
X602056Y572760D01*
Y585456D01*
X596977D02*
X586821D01*
X591899D01*
Y570221D01*
X581742D02*
Y585456D01*
X576664Y580378D01*
X571586Y585456D01*
Y570221D01*
X556351Y582917D02*
X558890Y585456D01*
X563968D01*
X566507Y582917D01*
Y580378D01*
X563968Y577838D01*
X558890D01*
X556351Y575299D01*
Y572760D01*
X558890Y570221D01*
X563968D01*
X566507Y572760D01*
X525880Y582917D02*
X528419Y585456D01*
X533498D01*
X536037Y582917D01*
Y580378D01*
X533498Y577838D01*
X528419D01*
X525880Y575299D01*
Y572760D01*
X528419Y570221D01*
X533498D01*
X536037Y572760D01*
X518263Y582917D02*
Y580378D01*
X520802D01*
X515724D01*
X518263D01*
Y572760D01*
X515724Y570221D01*
X500489D02*
X505567D01*
X508106Y572760D01*
Y577838D01*
X505567Y580378D01*
X500489D01*
X497949Y577838D01*
Y575299D01*
X508106D01*
X485253Y570221D02*
X490332D01*
X492871Y572760D01*
Y577838D01*
X490332Y580378D01*
X485253D01*
X482714Y577838D01*
Y575299D01*
X492871D01*
X477636Y580378D02*
Y570221D01*
Y575299D01*
X475097Y577838D01*
X472558Y580378D01*
X470018D01*
X462401Y570221D02*
X457323D01*
X459862D01*
Y580378D01*
X462401D01*
X449705Y570221D02*
Y580378D01*
X442088D01*
X439548Y577838D01*
Y570221D01*
X429392Y565142D02*
X426852D01*
X424313Y567682D01*
Y580378D01*
X431931D01*
X434470Y577838D01*
Y572760D01*
X431931Y570221D01*
X424313D01*
X404000Y585456D02*
Y570221D01*
X398922Y575299D01*
X393843Y570221D01*
Y585456D01*
X388765D02*
Y570221D01*
Y577838D01*
X386226Y580378D01*
X381147D01*
X378608Y577838D01*
Y570221D01*
X365912D02*
X370990D01*
X373530Y572760D01*
Y577838D01*
X370990Y580378D01*
X365912D01*
X363373Y577838D01*
Y575299D01*
X373530D01*
X350677Y570221D02*
X355755D01*
X358295Y572760D01*
Y577838D01*
X355755Y580378D01*
X350677D01*
X348138Y577838D01*
Y575299D01*
X358295D01*
X343060Y570221D02*
X337981D01*
X340520D01*
Y585456D01*
X343060D01*
X315129D02*
Y570221D01*
X307511D01*
X304972Y572760D01*
Y575299D01*
X307511Y577838D01*
X315129D01*
X307511D01*
X304972Y580378D01*
Y582917D01*
X307511Y585456D01*
X315129D01*
X297354Y570221D02*
X292276D01*
X289737Y572760D01*
Y577838D01*
X292276Y580378D01*
X297354D01*
X299893Y577838D01*
Y572760D01*
X297354Y570221D01*
X282119Y580378D02*
X277041D01*
X274502Y577838D01*
Y570221D01*
X282119D01*
X284658Y572760D01*
X282119Y575299D01*
X274502D01*
X269423Y580378D02*
Y570221D01*
Y575299D01*
X266884Y577838D01*
X264345Y580378D01*
X261806D01*
X244032Y585456D02*
Y570221D01*
X251649D01*
X254188Y572760D01*
Y577838D01*
X251649Y580378D01*
X244032D01*
X223718Y585456D02*
Y575299D01*
X218640Y570221D01*
X213561Y575299D01*
Y585456D01*
X208483Y582917D02*
X205944Y585456D01*
X200865D01*
X198326Y582917D01*
Y572760D01*
X200865Y570221D01*
X205944D01*
X208483Y572760D01*
Y582917D01*
X193248Y570221D02*
X188170D01*
X190709D01*
Y585456D01*
X193248Y582917D01*
X627448Y552951D02*
Y537716D01*
X619830D01*
X617291Y540256D01*
Y550412D01*
X619830Y552951D01*
X627448D01*
X604595Y537716D02*
X609673D01*
X612212Y540256D01*
Y545334D01*
X609673Y547873D01*
X604595D01*
X602056Y545334D01*
Y542795D01*
X612212D01*
X596977Y537716D02*
X589360D01*
X586821Y540256D01*
X589360Y542795D01*
X594438D01*
X596977Y545334D01*
X594438Y547873D01*
X586821D01*
X581742Y537716D02*
X576664D01*
X579203D01*
Y547873D01*
X581742D01*
X563968Y532638D02*
X561429D01*
X558890Y535177D01*
Y547873D01*
X566507D01*
X569046Y545334D01*
Y540256D01*
X566507Y537716D01*
X558890D01*
X553811D02*
Y547873D01*
X546194D01*
X543655Y545334D01*
Y537716D01*
X530959D02*
X536037D01*
X538576Y540256D01*
Y545334D01*
X536037Y547873D01*
X530959D01*
X528419Y545334D01*
Y542795D01*
X538576D01*
X513185Y552951D02*
Y537716D01*
X520802D01*
X523341Y540256D01*
Y545334D01*
X520802Y547873D01*
X513185D01*
X492871Y552951D02*
Y537716D01*
X485253D01*
X482714Y540256D01*
Y542795D01*
Y545334D01*
X485253Y547873D01*
X492871D01*
X477636D02*
Y540256D01*
X475097Y537716D01*
X467479D01*
Y535177D01*
X470018Y532638D01*
X472558D01*
X467479Y537716D02*
Y547873D01*
X437009Y552951D02*
X442088D01*
X439548D01*
Y540256D01*
X442088Y537716D01*
X444627D01*
X447166Y540256D01*
X429392Y547873D02*
X424313D01*
X421774Y545334D01*
Y537716D01*
X429392D01*
X431931Y540256D01*
X429392Y542795D01*
X421774D01*
X416696Y547873D02*
Y537716D01*
Y542795D01*
X414156Y545334D01*
X411617Y547873D01*
X409078D01*
X401461D02*
Y537716D01*
Y542795D01*
X398921Y545334D01*
X396382Y547873D01*
X393843D01*
X383686Y537716D02*
X378608D01*
X376069Y540256D01*
Y545334D01*
X378608Y547873D01*
X383686D01*
X386226Y545334D01*
Y540256D01*
X383686Y537716D01*
X360834Y552951D02*
Y537716D01*
X368451D01*
X370990Y540256D01*
Y545334D01*
X368451Y547873D01*
X360834D01*
X330364Y552951D02*
X340520D01*
Y545334D01*
X335442D01*
X340520D01*
Y537716D01*
X325285D02*
X320207D01*
X322746D01*
Y547873D01*
X325285D01*
X312589Y537716D02*
X304972D01*
X302433Y540256D01*
X304972Y542795D01*
X310050D01*
X312589Y545334D01*
X310050Y547873D01*
X302433D01*
X297354Y552951D02*
Y537716D01*
Y545334D01*
X294815Y547873D01*
X289737D01*
X287198Y545334D01*
Y537716D01*
X274502D02*
X279580D01*
X282119Y540256D01*
Y545334D01*
X279580Y547873D01*
X274502D01*
X271963Y545334D01*
Y542795D01*
X282119D01*
X266884Y547873D02*
Y537716D01*
Y542795D01*
X264345Y545334D01*
X261806Y547873D01*
X259267D01*
M02*
