G04*
G04 #@! TF.GenerationSoftware,Altium Limited,Altium Designer,21.5.1 (32)*
G04*
G04 Layer_Color=32768*
%FSLAX44Y44*%
%MOMM*%
G71*
G04*
G04 #@! TF.SameCoordinates,0E2919AE-DD84-4551-AE54-A21CBF32AF33*
G04*
G04*
G04 #@! TF.FilePolarity,Positive*
G04*
G01*
G75*
%ADD13C,0.2000*%
%ADD86C,0.1000*%
%ADD90C,0.0500*%
%ADD91C,0.1524*%
G36*
X521344Y469248D02*
D01*
X495832Y443735D01*
D01*
X495478Y443382D01*
X474209Y464652D01*
X474562Y465005D01*
D01*
X500075Y490518D01*
D01*
X500428Y490871D01*
X521698Y469601D01*
X521344Y469248D01*
D02*
G37*
D13*
X459190Y260210D02*
Y311759D01*
X420190Y260210D02*
X459190D01*
X420190D02*
Y311759D01*
X459190D01*
X55651Y236461D02*
X149651D01*
Y360461D01*
X55651D02*
X149651D01*
X55651Y236461D02*
Y360461D01*
X442977Y47642D02*
Y141642D01*
Y47642D02*
X546977D01*
Y141642D01*
X442977D02*
X546977D01*
X332317Y47642D02*
Y141642D01*
Y47642D02*
X436316D01*
Y141642D01*
X332317D02*
X436316D01*
X221656Y47642D02*
Y141642D01*
Y47642D02*
X325656D01*
Y141642D01*
X221656D02*
X325656D01*
X390393Y699034D02*
X417455D01*
X390393D02*
Y715534D01*
X417455D01*
Y699034D02*
Y715534D01*
X385888Y695160D02*
Y722160D01*
X361888Y695160D02*
X385888D01*
X361888D02*
Y722160D01*
X385888D01*
D86*
X428773Y557763D02*
X435844Y550692D01*
X428773D02*
X435844Y557763D01*
X96667Y84658D02*
Y94658D01*
X91667Y89658D02*
X101667D01*
X440392Y224910D02*
Y234911D01*
X435392Y229911D02*
X445392D01*
X439690Y280984D02*
Y290984D01*
X434690Y285984D02*
X444690D01*
X300034Y258144D02*
Y268144D01*
X295034Y263144D02*
X305034D01*
X674370Y174070D02*
Y184070D01*
X669370Y179070D02*
X679370D01*
X669370Y89658D02*
X679370D01*
X674370Y84658D02*
Y94658D01*
X294640Y749820D02*
Y759820D01*
X289640Y754820D02*
X299640D01*
X82551Y298461D02*
X110751D01*
X96651Y284361D02*
Y312561D01*
X494977Y83642D02*
Y93642D01*
X489977Y88642D02*
X499977D01*
X384316Y83642D02*
Y93642D01*
X379316Y88642D02*
X389316D01*
X273656Y83642D02*
Y93642D01*
X268656Y88642D02*
X278656D01*
X91667Y179070D02*
X101667D01*
X96667Y174070D02*
Y184070D01*
X398924Y707284D02*
X408924D01*
X403924Y702284D02*
Y712284D01*
X368888Y708660D02*
X378888D01*
X373888Y703660D02*
Y713660D01*
D90*
X432308Y431191D02*
X555345Y554228D01*
X309271D02*
X432308Y677265D01*
X309271Y554228D02*
X432308Y431191D01*
Y677265D02*
X555345Y554228D01*
X55667Y131658D02*
X149667D01*
Y47658D02*
Y131658D01*
X55667Y47658D02*
X149667D01*
X55667D02*
Y131658D01*
X621370Y137070D02*
X715370D01*
X621370D02*
Y221070D01*
X715370D01*
Y137070D02*
Y221070D01*
X342351Y236618D02*
Y279118D01*
X378351D01*
Y236618D02*
Y279118D01*
X342351Y236618D02*
X378351D01*
X715370Y47658D02*
Y131658D01*
X621370D02*
X715370D01*
X621370Y47658D02*
Y131658D01*
Y47658D02*
X715370D01*
X199643Y741820D02*
Y814820D01*
Y814820D02*
X389642D01*
Y741820D02*
Y814820D01*
X199643Y741820D02*
X389642D01*
X55667Y137070D02*
Y221070D01*
Y137070D02*
X149667D01*
Y221070D01*
X55667D02*
X149667D01*
D91*
X495832Y443735D02*
X521344Y469248D01*
X474562Y465005D02*
X500075Y490518D01*
X521344Y469248D02*
X521698Y469601D01*
X495478Y443382D02*
X495832Y443735D01*
X474209Y464652D02*
X495478Y443382D01*
X474209Y464652D02*
X474562Y465005D01*
X500075Y490518D02*
X500428Y490871D01*
X521698Y469601D01*
M02*
