G04*
G04 #@! TF.GenerationSoftware,Altium Limited,Altium Designer,21.5.1 (32)*
G04*
G04 Layer_Physical_Order=1*
G04 Layer_Color=255*
%FSLAX44Y44*%
%MOMM*%
G71*
G04*
G04 #@! TF.SameCoordinates,B68859E6-8F99-4948-AC01-CAA0BB4B992E*
G04*
G04*
G04 #@! TF.FilePolarity,Positive*
G04*
G01*
G75*
%ADD12C,0.2540*%
%ADD15C,0.3810*%
G04:AMPARAMS|DCode=17|XSize=0.3mm|YSize=1.8mm|CornerRadius=0mm|HoleSize=0mm|Usage=FLASHONLY|Rotation=225.000|XOffset=0mm|YOffset=0mm|HoleType=Round|Shape=Rectangle|*
%AMROTATEDRECTD17*
4,1,4,-0.5303,0.7425,0.7425,-0.5303,0.5303,-0.7425,-0.7425,0.5303,-0.5303,0.7425,0.0*
%
%ADD17ROTATEDRECTD17*%

G04:AMPARAMS|DCode=18|XSize=0.3mm|YSize=1.8mm|CornerRadius=0mm|HoleSize=0mm|Usage=FLASHONLY|Rotation=135.000|XOffset=0mm|YOffset=0mm|HoleType=Round|Shape=Rectangle|*
%AMROTATEDRECTD18*
4,1,4,0.7425,0.5303,-0.5303,-0.7425,-0.7425,-0.5303,0.5303,0.7425,0.7425,0.5303,0.0*
%
%ADD18ROTATEDRECTD18*%

%ADD19C,1.0000*%
%ADD20R,3.4000X1.5000*%
%ADD21R,3.5000X1.0000*%
%ADD22R,1.8034X1.1938*%
%ADD23R,1.8000X5.7000*%
%ADD24R,1.7000X2.5000*%
%ADD25R,1.3000X2.8000*%
%ADD26R,0.7620X1.0160*%
%ADD27R,0.6121X1.8544*%
%ADD28R,1.0160X0.7620*%
%ADD29R,0.8890X0.8890*%
G04:AMPARAMS|DCode=30|XSize=0.762mm|YSize=1.016mm|CornerRadius=0mm|HoleSize=0mm|Usage=FLASHONLY|Rotation=135.000|XOffset=0mm|YOffset=0mm|HoleType=Round|Shape=Rectangle|*
%AMROTATEDRECTD30*
4,1,4,0.6286,0.0898,-0.0898,-0.6286,-0.6286,-0.0898,0.0898,0.6286,0.6286,0.0898,0.0*
%
%ADD30ROTATEDRECTD30*%

%ADD31R,0.8890X1.7780*%
%ADD32R,1.5500X0.6000*%
%ADD33R,0.8890X0.8890*%
G04:AMPARAMS|DCode=34|XSize=0.762mm|YSize=1.016mm|CornerRadius=0mm|HoleSize=0mm|Usage=FLASHONLY|Rotation=45.000|XOffset=0mm|YOffset=0mm|HoleType=Round|Shape=Rectangle|*
%AMROTATEDRECTD34*
4,1,4,0.0898,-0.6286,-0.6286,0.0898,-0.0898,0.6286,0.6286,-0.0898,0.0898,-0.6286,0.0*
%
%ADD34ROTATEDRECTD34*%

%ADD35R,0.3000X0.7500*%
%ADD36R,2.4000X1.6000*%
%ADD37R,1.5000X0.8000*%
%ADD38R,2.0000X1.4500*%
G04:AMPARAMS|DCode=39|XSize=0.85mm|YSize=0.6mm|CornerRadius=0mm|HoleSize=0mm|Usage=FLASHONLY|Rotation=135.000|XOffset=0mm|YOffset=0mm|HoleType=Round|Shape=Rectangle|*
%AMROTATEDRECTD39*
4,1,4,0.5127,-0.0884,0.0884,-0.5127,-0.5127,0.0884,-0.0884,0.5127,0.5127,-0.0884,0.0*
%
%ADD39ROTATEDRECTD39*%

%ADD40R,1.2700X0.7620*%
%ADD41R,0.3000X0.8000*%
%ADD42R,1.0000X1.0000*%
%ADD43R,1.5000X3.4000*%
%ADD44R,1.0000X3.5000*%
%ADD45R,1.1544X1.3562*%
%ADD46R,0.4700X0.6000*%
%ADD47R,0.9000X0.8000*%
%ADD48R,1.5240X1.0160*%
G04:AMPARAMS|DCode=71|XSize=0.85mm|YSize=1mm|CornerRadius=0mm|HoleSize=0mm|Usage=FLASHONLY|Rotation=135.000|XOffset=0mm|YOffset=0mm|HoleType=Round|Shape=Rectangle|*
%AMROTATEDRECTD71*
4,1,4,0.6541,0.0530,-0.0530,-0.6541,-0.6541,-0.0530,0.0530,0.6541,0.6541,0.0530,0.0*
%
%ADD71ROTATEDRECTD71*%

%ADD81C,0.5080*%
%ADD82C,1.0160*%
%ADD83R,1.5000X1.5000*%
%ADD84C,1.5000*%
%ADD85C,0.4000*%
G36*
X377643Y772820D02*
X388643D01*
Y750820D01*
X364642D01*
Y781320D01*
X377643D01*
Y772820D01*
D02*
G37*
G36*
X224643Y750820D02*
X200643D01*
Y772820D01*
X211642D01*
Y781320D01*
X224643D01*
Y750820D01*
D02*
G37*
G36*
X178562Y346456D02*
X172212Y350266D01*
X165862Y346456D01*
Y357886D01*
X178562D01*
Y346456D01*
D02*
G37*
G36*
Y343916D02*
Y336296D01*
X165862D01*
Y343916D01*
X172212Y347726D01*
X178562Y343916D01*
D02*
G37*
G36*
X242062Y255016D02*
X235712Y258826D01*
X229362Y255016D01*
Y266446D01*
X242062D01*
Y255016D01*
D02*
G37*
G36*
Y252476D02*
Y244856D01*
X229362D01*
Y252476D01*
X235712Y256286D01*
X242062Y252476D01*
D02*
G37*
D12*
X442722Y536358D02*
Y543560D01*
X409847Y503483D02*
X409847D01*
X442722Y536358D01*
X405256Y498892D02*
X409847Y503483D01*
X388919Y508582D02*
Y508762D01*
Y508582D02*
X406564Y490937D01*
Y486383D02*
Y490937D01*
X400135Y479953D02*
X406564Y486383D01*
X347562Y441198D02*
X383446Y477082D01*
X344301Y445008D02*
X389528Y490235D01*
X306016Y445008D02*
X344301D01*
X421571Y458415D02*
X430861Y449125D01*
X421348Y458415D02*
X421571D01*
X73488Y588226D02*
Y589750D01*
X137884Y669081D02*
Y677860D01*
Y669081D02*
X174602Y632363D01*
X297372D01*
X124264Y488884D02*
X267013D01*
X86106Y636584D02*
X159345D01*
X73488Y589750D02*
X75012Y588226D01*
X67056Y596182D02*
X73488Y589750D01*
Y592671D01*
X67056Y683574D02*
X78486Y695004D01*
X67056Y596182D02*
Y683574D01*
X159345Y636584D02*
X180135Y615794D01*
X307102D01*
X155963Y632774D02*
X220013Y568724D01*
X79140Y632774D02*
X155963D01*
X220013Y568724D02*
X303498D01*
X70866Y641048D02*
X79140Y632774D01*
X70866Y647360D02*
X78486Y654980D01*
Y656904D01*
X70866Y641048D02*
Y647360D01*
X78486Y644204D02*
X86106Y636584D01*
X294386Y370100D02*
X309096Y384810D01*
X442722Y559507D02*
Y618123D01*
X432860Y627984D02*
Y631457D01*
X503369Y562864D02*
X511655D01*
X436839Y629394D02*
Y643287D01*
X432860Y627984D02*
X442722Y618123D01*
X436839Y629394D02*
X503369Y562864D01*
X417812Y646505D02*
X432860Y631457D01*
X400135Y479628D02*
Y479953D01*
X361634Y484728D02*
X369658Y492752D01*
X307594Y441198D02*
X347562D01*
X350162Y472887D02*
X354876Y477600D01*
X413214Y322814D02*
X415186Y324786D01*
X411876Y321477D02*
X413214Y322814D01*
X411876Y311423D02*
Y321477D01*
Y311028D02*
Y311423D01*
X180594Y556014D02*
X180848Y555760D01*
X300542Y241874D02*
Y258122D01*
X111982Y328450D02*
X133138D01*
X146410Y128120D02*
X181866Y163576D01*
X196850D01*
X146410Y114901D02*
Y128120D01*
X430861Y449125D02*
X432131D01*
X496528Y318944D02*
Y319109D01*
X294386Y308610D02*
Y370100D01*
X443268Y649716D02*
Y650041D01*
X436839Y643287D02*
X443268Y649716D01*
X511655Y562864D02*
X521050Y572259D01*
X495586Y533376D02*
X506908Y522055D01*
X495586Y546795D02*
X511655Y562864D01*
X495586Y533376D02*
Y546795D01*
X319418Y581248D02*
X320316Y582146D01*
X283509Y581248D02*
X319418D01*
X257143Y607615D02*
X283509Y581248D01*
X257048Y637032D02*
Y645640D01*
X256636Y646051D02*
X257048Y645640D01*
X478624Y493445D02*
Y493770D01*
X467375Y466202D02*
Y469338D01*
X478624Y493445D02*
X485053Y487016D01*
X467375Y466202D02*
X485053Y483879D01*
Y487016D01*
X467774Y453036D02*
X468672Y452138D01*
X454209Y453036D02*
X467375Y466202D01*
X449357Y448184D02*
X454209Y453036D01*
X467774D01*
X492991Y427738D02*
X493299D01*
X480845Y439884D02*
X492991Y427738D01*
X484341Y464828D02*
X484872Y465359D01*
X480845Y439884D02*
Y439964D01*
X495655Y449300D02*
X499257Y445699D01*
X495655Y449300D02*
Y453515D01*
X496185Y454045D01*
X468672Y452138D02*
X480845Y439964D01*
X499257Y435752D02*
Y445699D01*
X480845Y441564D02*
X484341Y445060D01*
X480845Y439964D02*
Y441564D01*
X484341Y445060D02*
Y464828D01*
X590042Y181356D02*
X593683Y184997D01*
X603826D01*
X590042Y163322D02*
Y181356D01*
X576834Y150114D02*
X590042Y163322D01*
X576834Y134306D02*
Y150114D01*
X122016Y695603D02*
Y696873D01*
X184658Y673668D02*
X191008Y680018D01*
X200734Y643212D02*
X242468D01*
X184658Y659288D02*
Y673668D01*
Y659288D02*
X200734Y643212D01*
X242468D02*
X245308Y646051D01*
X256636D01*
X273304Y301752D02*
Y307146D01*
X517514Y532491D02*
X529294Y520712D01*
X517514Y532491D02*
Y532661D01*
X433072Y448184D02*
X449357D01*
X478456Y707284D02*
X504059Y732887D01*
X462534Y707284D02*
X478456D01*
X450402Y664304D02*
X455642Y669544D01*
X410683Y707284D02*
X462534D01*
X439320Y664304D02*
X450402D01*
X558707Y732887D02*
X559977D01*
X460946Y475767D02*
Y476093D01*
Y475767D02*
X467375Y469338D01*
X432131Y449125D02*
X433072Y448184D01*
X461594Y323069D02*
X492568D01*
X461548Y323115D02*
Y340549D01*
X276741Y716187D02*
X278011D01*
X284361Y709837D01*
Y671236D02*
Y709837D01*
X259176Y646051D02*
X284361Y671236D01*
X256636Y646051D02*
X259176D01*
X320316Y582146D02*
X331192Y571270D01*
X269960Y306849D02*
X271526Y308416D01*
X252293Y306849D02*
X269960D01*
X267013Y488884D02*
X267734Y489605D01*
X438972Y654337D02*
Y663956D01*
X533968Y584822D02*
X537560D01*
X533070Y583924D02*
X533968Y584822D01*
X537560D02*
X538458Y583924D01*
X532715D02*
X533070D01*
X521050Y572259D02*
X532715Y583924D01*
X529294Y512346D02*
Y520712D01*
X518412Y510550D02*
X527497D01*
X506908Y522055D02*
X518412Y510550D01*
X443268Y650041D02*
Y650041D01*
X438972Y654337D02*
X443268Y650041D01*
X281912Y746590D02*
X282143Y746820D01*
X281912Y740015D02*
Y746590D01*
X279883Y737986D02*
X281912Y740015D01*
X277143Y746820D02*
X277372Y746590D01*
Y740496D02*
X279883Y737986D01*
X277372Y740496D02*
Y746590D01*
X279387Y736333D02*
X279883Y736829D01*
X275471Y716187D02*
X276741D01*
X272931Y718727D02*
Y723427D01*
X270510Y725847D02*
X272931Y723427D01*
Y718727D02*
X275471Y716187D01*
X262143Y734215D02*
X270510Y725847D01*
X262143Y734215D02*
Y746820D01*
X331192Y570491D02*
Y571270D01*
Y570491D02*
X336495Y565188D01*
X496528Y313770D02*
Y318944D01*
X493299Y429794D02*
X499257Y435752D01*
X493299Y427738D02*
Y429794D01*
X287528Y301752D02*
X294386Y308610D01*
X639870Y79658D02*
X659130D01*
X666496Y87024D01*
Y101854D01*
X659130Y109220D02*
X666496Y101854D01*
X617788Y109220D02*
X659130D01*
X596198Y129540D02*
X597468D01*
X593658Y132080D02*
Y133350D01*
Y132080D02*
X596198Y129540D01*
X597468D02*
X617788Y109220D01*
X111506Y79502D02*
X111662Y79658D01*
X131167D01*
X133154D01*
X131167Y99658D02*
X146410Y114901D01*
X196850Y163576D02*
Y173228D01*
X415186Y324786D02*
Y338308D01*
X410928Y298765D02*
Y310080D01*
X411876Y311028D01*
X410928Y214529D02*
X415547Y209911D01*
X519898Y283384D02*
X529036D01*
X519898Y318944D02*
X529036D01*
X415547Y209911D02*
X426227D01*
X440392D01*
X464776Y290557D02*
X466046D01*
X430190Y297487D02*
Y321707D01*
X449190Y297487D02*
X457845D01*
X464776Y290557D01*
X439690Y297487D02*
Y309907D01*
X439886Y310103D01*
X429082Y322814D02*
X430190Y321707D01*
X429082Y322814D02*
X429336Y323069D01*
X445726D01*
X443348Y338308D02*
X445634Y340594D01*
X430426Y338308D02*
X443348D01*
X384316Y135642D02*
X398280Y149606D01*
X507654D01*
X282194Y153416D02*
X506076D01*
X273656Y144878D02*
X282194Y153416D01*
X509233Y145796D02*
X591285Y227848D01*
X266954Y157226D02*
X504498D01*
X505131Y145796D02*
X509233D01*
X507654Y149606D02*
X587475Y229426D01*
X504498Y157226D02*
X569722Y222450D01*
X494977Y135642D02*
X505131Y145796D01*
X506076Y153416D02*
X583665Y231005D01*
Y417013D01*
X591285Y227848D02*
Y423535D01*
X565912Y224028D02*
Y395732D01*
X587475Y229426D02*
Y420274D01*
X269084Y161192D02*
X503076D01*
X481617Y407691D02*
X559341D01*
X569722Y222450D02*
Y397310D01*
X503076Y161192D02*
X565912Y224028D01*
X460799Y428510D02*
X481617Y407691D01*
X494977Y123142D02*
Y135642D01*
X559341Y407691D02*
X569722Y397310D01*
X453358Y430562D02*
X480039Y403881D01*
X557763D02*
X565912Y395732D01*
X469625Y429555D02*
X474709Y434639D01*
X448419Y430562D02*
X453358D01*
X480039Y403881D02*
X557763D01*
X469625Y428664D02*
Y429555D01*
X482079Y416518D02*
X485598Y420038D01*
X460799Y428510D02*
Y428590D01*
X453406Y435983D02*
X460799Y428590D01*
X442079Y435983D02*
X453406D01*
X492766Y507912D02*
X583665Y417013D01*
X499837Y514984D02*
X591285Y423535D01*
X496301Y511448D02*
X587475Y420274D01*
X447689Y431292D02*
X448419Y430562D01*
X442052Y435956D02*
X442079Y435983D01*
X447294Y431292D02*
X447689D01*
X261508Y700319D02*
Y706951D01*
Y700171D02*
Y700319D01*
X263698Y294149D02*
X269925D01*
X252293D02*
X263698D01*
X131167Y169070D02*
X133154D01*
X109115D02*
X131167D01*
X267945Y319550D02*
X277206Y328811D01*
X272910Y281450D02*
X281016Y289556D01*
X277206Y328811D02*
Y416198D01*
X281016Y289556D02*
Y414620D01*
X307594Y441198D01*
X277206Y416198D02*
X306016Y445008D01*
X432079Y433309D02*
Y439832D01*
Y433309D02*
X432131Y433257D01*
X539616Y500228D02*
X539616D01*
X534370Y505474D02*
X539616Y500228D01*
X534046Y505474D02*
X534370D01*
X482079Y416518D02*
X482079D01*
X506030Y473826D02*
Y474179D01*
Y473826D02*
X510961Y468894D01*
X511035D01*
X482159Y497306D02*
X499257Y480208D01*
X499721D01*
X307102Y615794D02*
X347102Y575795D01*
X333601Y575478D02*
X340031Y569049D01*
X333501Y579492D02*
X333601Y579392D01*
Y575478D02*
Y579392D01*
X106523Y588226D02*
X115488D01*
X122602Y677275D02*
X128366D01*
X122016Y677860D02*
X122602Y677275D01*
X513238Y557352D02*
X513979Y558093D01*
Y558117D02*
X524585Y568724D01*
X513979Y558093D02*
Y558117D01*
X317386Y619652D02*
X354173Y582866D01*
X365434Y559507D02*
X375577Y569650D01*
X393064Y600544D02*
X489230Y504377D01*
Y504377D02*
Y504377D01*
X137884Y694333D02*
Y695603D01*
Y677860D02*
Y694333D01*
X131534Y687983D02*
X137884Y694333D01*
X100134Y702624D02*
X114774Y687983D01*
X131534D01*
X78486Y695004D02*
X86106Y702624D01*
X100134D01*
X324090Y548132D02*
X331631D01*
X303498Y568724D02*
X324090Y548132D01*
X331631D02*
X336495Y543268D01*
X336495D01*
X283456Y529074D02*
X304546Y550164D01*
X147828Y529074D02*
X283456D01*
X280846Y532884D02*
X303116Y555155D01*
X124264Y532884D02*
X280846D01*
X367225Y554138D02*
X379387Y566301D01*
X303116Y555155D02*
X304267D01*
X304546Y555434D01*
X366091Y554138D02*
X367225D01*
X365811Y553859D02*
X366091Y554138D01*
X524585Y539732D02*
X618236Y446082D01*
Y273013D02*
X665226Y226023D01*
X618236Y273013D02*
Y446082D01*
X521050Y536197D02*
X613767Y443480D01*
Y179070D02*
Y443480D01*
X603826Y169129D02*
X613767Y179070D01*
X665226Y168334D02*
Y226023D01*
X630242Y133350D02*
X665226Y168334D01*
X639870Y189070D02*
X660686D01*
X603826Y169129D02*
X639811D01*
X593658Y133350D02*
X630242D01*
X131151Y288461D02*
X179691D01*
X465346Y505474D02*
X465626Y505194D01*
Y499697D02*
X475088Y490235D01*
X465626Y499697D02*
Y505194D01*
X475088Y489910D02*
Y490235D01*
X477520Y508762D02*
X485441Y500841D01*
X485695D01*
X252293Y319550D02*
X267945D01*
X504370Y538734D02*
X513979Y529126D01*
X500126Y538734D02*
X504370D01*
X140638Y521884D02*
X147828Y529074D01*
X249428Y180848D02*
X269084Y161192D01*
X176046Y180848D02*
X249428D01*
X247142Y177038D02*
X266954Y157226D01*
X200660Y177038D02*
X247142D01*
X168351Y188542D02*
X176046Y180848D01*
X196850Y173228D02*
X200660Y177038D01*
X273656Y123142D02*
Y144878D01*
X384316Y123142D02*
Y135642D01*
X327085Y345694D02*
X334070D01*
X320100D02*
X327085D01*
X348802Y308610D02*
Y315528D01*
X381671Y202438D02*
Y209206D01*
X359530Y217992D02*
X366084D01*
X312480D02*
X319824D01*
X161454Y299208D02*
X169037D01*
X124045Y511104D02*
X124264Y510884D01*
X110744Y511104D02*
X124045D01*
X457451Y441283D02*
X462671Y446502D01*
X403670Y726433D02*
X411790D01*
X350637Y711620D02*
Y718727D01*
X200346Y730758D02*
X206121D01*
X309096Y593366D02*
X313690Y588772D01*
X233796Y650832D02*
Y660230D01*
X230743Y700227D02*
Y706479D01*
X276741Y700319D02*
Y706951D01*
X292009Y700319D02*
Y706567D01*
X246126Y700218D02*
Y706479D01*
X98552Y545084D02*
Y556396D01*
X98264Y556684D02*
X98552Y556396D01*
X180848Y546100D02*
Y555760D01*
X181102Y419346D02*
Y431038D01*
Y419346D02*
X181264Y419184D01*
X423358Y664210D02*
X430443D01*
X423104Y663956D02*
X423358Y664210D01*
X540512Y593344D02*
X547878D01*
X549678Y595144D01*
X560832Y578104D02*
Y597133D01*
X552923Y570195D02*
X560832Y578104D01*
X534046Y570195D02*
X552923D01*
X505329Y748755D02*
X522218D01*
X272288Y746965D02*
Y753872D01*
X272143Y746820D02*
X272288Y746965D01*
X557646Y749816D02*
X558707Y748755D01*
X541072Y749816D02*
X557646D01*
X522218Y748755D02*
X523279Y749816D01*
Y673997D02*
Y734576D01*
X510443Y661162D02*
X523279Y673997D01*
X515620Y658876D02*
X541072Y684327D01*
Y734576D01*
X471552Y621757D02*
X485695Y635899D01*
X492766D02*
X493836D01*
X475088Y618221D02*
X492766Y635899D01*
X493558Y636764D02*
X493836Y636486D01*
Y635899D02*
Y636486D01*
X465910Y681279D02*
X528395Y618793D01*
X467488Y685089D02*
X532205Y620371D01*
X458274Y685089D02*
X467488D01*
X469066Y688899D02*
X560832Y597133D01*
X532205Y611157D02*
Y620371D01*
X351388Y688899D02*
X469066D01*
X345518Y677469D02*
X464332D01*
X524585Y597008D02*
Y617215D01*
X470644Y692709D02*
X564642Y598711D01*
X464332Y677469D02*
X524585Y617215D01*
X352966Y692709D02*
X470644D01*
X456696Y681279D02*
X465910D01*
X564642Y576072D02*
Y598711D01*
X528395Y609579D02*
Y618793D01*
X453875Y639451D02*
X465346Y650923D01*
X453875Y639434D02*
Y639451D01*
X450339Y642970D02*
Y643210D01*
X461737Y654607D01*
X465346Y650923D02*
Y650940D01*
X461737Y654607D02*
Y654847D01*
X375577Y569650D02*
Y589746D01*
X639811Y169129D02*
X639870Y169070D01*
X325488Y511048D02*
X347102Y532661D01*
X340031Y518519D02*
X350637Y529126D01*
X317246Y511048D02*
X325488D01*
X308558Y518519D02*
X317851Y527812D01*
X323850D01*
X222758Y518519D02*
X308558D01*
X204123Y499884D02*
X222758Y518519D01*
X124264Y499884D02*
X204123D01*
X124264Y477884D02*
X271526D01*
X324957Y482942D02*
X325667D01*
X361244Y518519D01*
X324678Y482663D02*
X324957Y482942D01*
X295130Y482663D02*
X317311Y504844D01*
X124264Y466884D02*
X273082D01*
X317311Y504844D02*
X317462D01*
X273082Y466884D02*
X317246Y511048D01*
X268351Y455884D02*
X295130Y482663D01*
X124264Y455884D02*
X268351D01*
X295130Y482663D02*
Y482663D01*
X323850Y516304D02*
X343566Y536020D01*
Y536197D01*
X323850Y516128D02*
Y516304D01*
X124264Y521884D02*
X140638D01*
X379387Y566301D02*
Y593007D01*
X371850Y600544D02*
X379387Y593007D01*
X368315Y597008D02*
X375577Y589746D01*
X383841Y736151D02*
X388737D01*
X381301Y732341D02*
Y733611D01*
X383841Y736151D01*
X388737D02*
X388919Y736333D01*
X161196Y299466D02*
X161454Y299208D01*
X167824Y189070D02*
X168351Y188542D01*
X131167Y189070D02*
X167824D01*
X364779Y514984D02*
X373447Y523651D01*
X394376D01*
X395189Y522837D01*
X368315Y511448D02*
X375978Y519111D01*
X391463D01*
X131151Y308461D02*
X180691D01*
X317386Y619652D02*
Y695198D01*
X324104Y620006D02*
Y688340D01*
Y620006D02*
X357708Y586401D01*
X267734Y499884D02*
Y505474D01*
X230743Y499884D02*
Y505217D01*
X230999Y505474D01*
X98264Y431004D02*
X98298Y431038D01*
X98264Y419184D02*
Y431004D01*
X339090Y619162D02*
X364779Y593472D01*
X332142Y619038D02*
X361244Y589937D01*
X340031Y568724D02*
Y569049D01*
X339090Y619162D02*
Y675132D01*
X332142Y619038D02*
Y683852D01*
X500405Y535628D02*
X510443Y525590D01*
X500126Y538734D02*
X500405Y538455D01*
Y535628D02*
Y538455D01*
X457451Y440918D02*
Y441283D01*
X180594Y556014D02*
X181264Y556684D01*
X124264Y499884D02*
X126994Y502614D01*
X528121Y565188D02*
X533424Y570491D01*
X533750D02*
X534046Y570195D01*
X533424Y570491D02*
X533750D01*
X530142Y541572D02*
X564642Y576072D01*
X529817Y541572D02*
X530142D01*
X528121Y543268D02*
X529817Y541572D01*
X395922Y725163D02*
Y726433D01*
X380388Y718160D02*
X388919D01*
X395922Y725163D01*
X373888Y725310D02*
Y737978D01*
X380388Y718160D02*
Y718810D01*
X373888Y725310D02*
X380388Y718810D01*
X371586Y740280D02*
X373888Y737978D01*
X349590Y740280D02*
X371586D01*
X349774Y734708D02*
X355898D01*
X347373Y742498D02*
X349590Y740280D01*
X347373Y742498D02*
Y746590D01*
X347142Y746820D02*
X347373Y746590D01*
X342373Y742110D02*
X349774Y734708D01*
X342373Y742110D02*
Y746590D01*
X342142Y746820D02*
X342373Y746590D01*
X358266Y732341D02*
X365433D01*
X355898Y734708D02*
X358266Y732341D01*
X365433D02*
X367388Y730386D01*
Y718160D02*
Y730386D01*
X390050Y699160D02*
X397165Y706275D01*
Y707284D01*
X373888Y699160D02*
X390050D01*
X297372Y736829D02*
X349112Y685089D01*
X302372Y737914D02*
X351388Y688899D01*
X287372Y735614D02*
X345518Y677469D01*
X307372Y738302D02*
X352966Y692709D01*
X349112Y685089D02*
X458274D01*
X347421Y681279D02*
X456696D01*
X292372Y736328D02*
X347421Y681279D01*
X344843Y730027D02*
X348097D01*
X338973Y735898D02*
X338973D01*
X348097Y730027D02*
X350637Y727487D01*
X338973Y735898D02*
X344843Y730027D01*
X332142Y746820D02*
X332373Y746590D01*
Y742498D02*
Y746590D01*
Y742498D02*
X338973Y735898D01*
X327373Y742110D02*
X339003Y730479D01*
X327373Y742110D02*
Y746590D01*
X339003Y715744D02*
Y730479D01*
X324002Y728093D02*
Y734514D01*
X317372Y741143D02*
X324002Y734514D01*
X322373Y741531D02*
X331978Y731926D01*
Y722376D02*
Y731926D01*
X327142Y746820D02*
X327373Y746590D01*
X312143Y740180D02*
X317386Y734936D01*
Y734708D02*
Y734936D01*
X322373Y741531D02*
Y746590D01*
X317372Y741143D02*
Y746590D01*
X322142Y746820D02*
X322373Y746590D01*
X317143Y746820D02*
X317372Y746590D01*
X312143Y740180D02*
Y746820D01*
X297372Y736829D02*
Y746590D01*
X302372Y737914D02*
Y746590D01*
X307372Y738302D02*
Y746590D01*
X292372Y736328D02*
Y746590D01*
X528395Y593747D02*
Y609579D01*
X513979Y579330D02*
X528395Y593747D01*
X517514Y575795D02*
X532205Y590486D01*
X510443Y582866D02*
X524585Y597008D01*
X532205Y590486D02*
Y611157D01*
X287372Y735614D02*
Y746590D01*
X267372Y739554D02*
X290739Y716187D01*
X267372Y739554D02*
Y746590D01*
X290739Y716187D02*
X292009D01*
X267143Y746820D02*
X267372Y746590D01*
X257143Y730252D02*
X261508Y725887D01*
X257143Y730252D02*
Y746820D01*
X261508Y716187D02*
Y725887D01*
X246126Y716086D02*
Y724820D01*
X252143Y730836D01*
Y746820D01*
X232013Y716095D02*
X247143Y731224D01*
Y746820D01*
X247396Y716086D02*
X253746Y709736D01*
X246126Y716086D02*
X247396D01*
X256636Y679071D02*
Y692709D01*
X253746Y695599D02*
X256636Y692709D01*
X253746Y695599D02*
Y709736D01*
X227446Y679566D02*
Y680042D01*
X231256Y683852D02*
X233796D01*
X211328Y665988D02*
X213868D01*
X227446Y679566D01*
Y680042D02*
X231256Y683852D01*
X209490Y664150D02*
X211328Y665988D01*
X192278Y664150D02*
X209490D01*
X211328Y710034D02*
X215768Y714474D01*
X211328Y699008D02*
Y710034D01*
X215768Y714474D02*
Y715744D01*
X307143Y746820D02*
X307372Y746590D01*
X302143Y746820D02*
X302372Y746590D01*
X297143Y746820D02*
X297372Y746590D01*
X292143Y746820D02*
X292372Y746590D01*
X287143Y746820D02*
X287372Y746590D01*
X236912D02*
X237143Y746820D01*
X236912Y744014D02*
Y746590D01*
X216718Y731770D02*
X224668D01*
X236912Y744014D01*
X218308Y719554D02*
X219578D01*
X215768Y717014D02*
X218308Y719554D01*
X219578D02*
X241912Y741888D01*
Y746590D01*
X215768Y715744D02*
Y717014D01*
X215960Y731012D02*
X216718Y731770D01*
X241912Y746590D02*
X242143Y746820D01*
X230743Y716095D02*
X232013D01*
X200092Y731012D02*
X200346Y730758D01*
X199900Y715744D02*
X206640D01*
X365351Y233356D02*
Y242868D01*
X344349Y257868D02*
X360351D01*
X355351Y262868D02*
X360351Y257868D01*
X355351Y262868D02*
Y272868D01*
X335534Y331918D02*
X350326D01*
X334070Y330454D02*
X335534Y331918D01*
X332292Y315528D02*
X333562D01*
X323275Y324545D02*
X332292Y315528D01*
X323275Y324545D02*
Y327279D01*
X320100Y330454D02*
X323275Y327279D01*
X364819Y331131D02*
X365604Y331916D01*
X364819Y315976D02*
Y331131D01*
X380806Y331916D02*
X380909D01*
X378266Y315976D02*
Y329376D01*
X380806Y331916D01*
X348802Y291338D02*
Y299660D01*
Y291338D02*
X360351Y279789D01*
Y272868D02*
Y279789D01*
X365351Y272868D02*
Y300204D01*
X364819Y300736D02*
X365351Y300204D01*
X370351Y280375D02*
X378266Y288290D01*
Y300736D01*
X370351Y272868D02*
Y280375D01*
X328736Y258122D02*
Y265428D01*
X380401Y218306D02*
X381671D01*
X365351Y233356D02*
X380401Y218306D01*
X355121Y238691D02*
Y242638D01*
X335692Y217992D02*
Y219262D01*
X355121Y238691D01*
Y242638D02*
X355351Y242868D01*
X335692Y202752D02*
Y217992D01*
X360121Y236787D02*
Y242638D01*
X350216Y217992D02*
Y226882D01*
X360121Y236787D01*
Y242638D02*
X360351Y242868D01*
X350216Y202752D02*
Y217992D01*
X328736Y250816D02*
Y258122D01*
X365581Y238796D02*
Y242638D01*
X365351Y242868D02*
X365581Y242638D01*
X189769Y339502D02*
Y355056D01*
X172212Y340106D02*
X172816Y339502D01*
X189769D01*
X233172Y344963D02*
X241995Y353786D01*
X233172Y295821D02*
Y344963D01*
Y295821D02*
X247544Y281450D01*
X252293D01*
X241995Y353786D02*
Y355056D01*
X205009D02*
X226127D01*
X205009Y339502D02*
X205310Y339804D01*
X226134D01*
X242002Y338534D02*
X252293Y328242D01*
X242002Y338534D02*
Y339804D01*
X252293Y319550D02*
Y328242D01*
Y281450D02*
X272910D01*
X269925Y294149D02*
X271526Y292548D01*
X181196Y256194D02*
Y289966D01*
Y256194D02*
X181866Y255524D01*
X203043Y306849D02*
X235712Y274181D01*
Y262636D02*
Y274181D01*
X198293Y306849D02*
X203043D01*
X224684Y255524D02*
X229002Y251206D01*
X233172D01*
X235712Y248666D01*
X214374Y255524D02*
X224684D01*
X193543Y306849D02*
X198293D01*
X181196Y308966D02*
X191427D01*
X193543Y306849D01*
X180691Y308461D02*
X181196Y308966D01*
Y289966D02*
X189506D01*
X191814Y292274D01*
Y292419D01*
X193543Y294149D01*
X198293D01*
X179691Y288461D02*
X181196Y289966D01*
X639870Y99658D02*
X661760D01*
X661924Y99822D01*
X474977Y102873D02*
X474980Y102870D01*
X474977Y102873D02*
Y123142D01*
X364316Y102950D02*
Y123142D01*
X364236Y102870D02*
X364316Y102950D01*
X253492Y103886D02*
X253656Y104050D01*
Y123142D01*
X249225Y499884D02*
Y505474D01*
X206640Y715744D02*
X206840Y715944D01*
D15*
X156177Y708373D02*
X162653D01*
X110516D02*
X156177D01*
X61722Y689914D02*
X80181Y708373D01*
X61214Y689406D02*
X61722Y689914D01*
X456538Y384810D02*
X496528Y344820D01*
X309096Y384810D02*
X456538D01*
X417812Y423535D02*
X456538Y384810D01*
X295910D02*
X309096D01*
X96266Y156972D02*
X121666Y131572D01*
X96266Y156972D02*
Y263144D01*
X162653Y708373D02*
X191008Y680018D01*
X156177Y708373D02*
X191658Y743854D01*
Y769224D01*
X61722Y480060D02*
Y689914D01*
X80181Y708373D02*
X110516D01*
X122016Y696873D01*
X169626Y131572D02*
X216408D01*
Y112522D02*
Y131572D01*
Y158616D01*
X417812Y436076D02*
X430861Y449125D01*
X454591Y734132D02*
X504083D01*
X401324Y787400D02*
X454591Y734132D01*
X540960Y96520D02*
X575250Y130810D01*
X500855Y96520D02*
X540960D01*
X500855D02*
X514977Y110642D01*
X390195Y96520D02*
X500855D01*
X390195D02*
X404316Y110642D01*
X209834Y787400D02*
X401324D01*
X191658Y769224D02*
X209834Y787400D01*
X70546Y488884D02*
X124264D01*
X61722Y480060D02*
X70546Y488884D01*
X61722Y418338D02*
X75946Y404114D01*
X61722Y418338D02*
Y480060D01*
X279534Y96520D02*
X390195D01*
X279534D02*
X293656Y110642D01*
X232410Y96520D02*
X279534D01*
X173990Y355346D02*
Y377444D01*
X96266Y263144D02*
Y376335D01*
Y263144D02*
X155000Y204410D01*
X168351D01*
X250654Y404114D02*
X269960Y384808D01*
X173990Y377444D02*
X200660Y404114D01*
X250654D01*
X216408Y112522D02*
X232410Y96520D01*
X212718Y162306D02*
X216408Y158616D01*
X212718Y162306D02*
Y163576D01*
X567597Y740507D02*
Y754143D01*
X559977Y732887D02*
X567597Y740507D01*
X96266Y376335D02*
X124045Y404114D01*
X75946D02*
X124045D01*
X200660D01*
X534340Y787400D02*
X567597Y754143D01*
X401324Y787400D02*
X534340D01*
X417812Y423535D02*
Y436076D01*
X496528Y319109D02*
Y344820D01*
X328228Y196836D02*
X332024Y193040D01*
X357642D02*
X366084Y201482D01*
X332024Y193040D02*
X357642D01*
X392430Y197364D02*
Y288807D01*
X366084Y201482D02*
X372434Y195132D01*
X390198D01*
X392430Y197364D01*
X398101Y291218D02*
X404451Y284868D01*
X387565Y355406D02*
X398145Y344826D01*
X392386Y308680D02*
X392430Y308724D01*
Y337533D01*
X382179Y347784D02*
X392430Y337533D01*
X398101Y306313D02*
X398145Y306357D01*
Y344826D01*
X392386Y288851D02*
X392430Y288807D01*
X392386Y288851D02*
Y308680D01*
X398101Y291218D02*
Y306313D01*
X380909Y347784D02*
X382179D01*
X365604D02*
X380909D01*
X198508Y202752D02*
X319824D01*
X158242Y243018D02*
X198508Y202752D01*
X158242Y243018D02*
Y266229D01*
X301120Y281296D02*
Y340992D01*
X315534Y355406D01*
X301120Y281296D02*
X328736D01*
X407880Y265196D02*
X410928D01*
X404451Y268624D02*
X407880Y265196D01*
X404451Y268624D02*
Y284868D01*
X315534Y355406D02*
X387565D01*
X430190Y274482D02*
X439690D01*
X410928Y265196D02*
X413976D01*
X410928Y248099D02*
Y265196D01*
X420381Y274482D02*
X430190D01*
X413976Y265196D02*
X417405Y268624D01*
Y271506D01*
X420381Y274482D01*
X328228Y196836D02*
Y202752D01*
X365602Y347786D02*
X365604Y347784D01*
X350326Y347786D02*
X365602D01*
X331276Y283836D02*
X333562Y286122D01*
X331276Y282566D02*
Y283836D01*
X330006Y281296D02*
X331276Y282566D01*
X328736Y281296D02*
X330006D01*
X333562Y286122D02*
Y299660D01*
X131151Y268461D02*
X156010D01*
X158242Y266229D01*
X328228Y202752D02*
Y233043D01*
X319824Y202752D02*
X328228D01*
Y233043D02*
X328736Y233551D01*
X331911Y236853D02*
Y237238D01*
X328736Y234948D02*
X330006D01*
X331911Y236853D01*
X328736Y233551D02*
Y234948D01*
X337541Y242868D02*
X350351D01*
X331911Y237238D02*
X337541Y242868D01*
X366084Y201482D02*
Y202752D01*
X338434Y272868D02*
X350351D01*
X330006Y281296D02*
X338434Y272868D01*
D17*
X443268Y458415D02*
D03*
X446804Y461951D02*
D03*
X450339Y465486D02*
D03*
X453875Y469022D02*
D03*
X457410Y472557D02*
D03*
X460946Y476093D02*
D03*
X464481Y479628D02*
D03*
X468017Y483164D02*
D03*
X471552Y486699D02*
D03*
X475088Y490235D02*
D03*
X478624Y493770D02*
D03*
X482159Y497306D02*
D03*
X485695Y500841D02*
D03*
X489230Y504377D02*
D03*
X492766Y507912D02*
D03*
X496301Y511448D02*
D03*
X499837Y514984D02*
D03*
X503372Y518519D02*
D03*
X506908Y522055D02*
D03*
X510443Y525590D02*
D03*
X513979Y529126D02*
D03*
X517514Y532661D02*
D03*
X521050Y536197D02*
D03*
X524585Y539732D02*
D03*
X528121Y543268D02*
D03*
X421348Y650041D02*
D03*
X417812Y646505D02*
D03*
X414277Y642970D02*
D03*
X410741Y639434D02*
D03*
X407206Y635899D02*
D03*
X403670Y632363D02*
D03*
X400135Y628828D02*
D03*
X396599Y625292D02*
D03*
X393064Y621757D02*
D03*
X389528Y618221D02*
D03*
X385993Y614686D02*
D03*
X382457Y611150D02*
D03*
X378921Y607615D02*
D03*
X375386Y604079D02*
D03*
X371850Y600544D02*
D03*
X368315Y597008D02*
D03*
X364779Y593472D02*
D03*
X361244Y589937D02*
D03*
X357708Y586401D02*
D03*
X354173Y582866D02*
D03*
X350637Y579330D02*
D03*
X347102Y575795D02*
D03*
X343566Y572259D02*
D03*
X340031Y568724D02*
D03*
X336495Y565188D02*
D03*
D18*
X528121D02*
D03*
X524585Y568724D02*
D03*
X521050Y572259D02*
D03*
X517514Y575795D02*
D03*
X513979Y579330D02*
D03*
X510443Y582866D02*
D03*
X506908Y586401D02*
D03*
X503372Y589937D02*
D03*
X499837Y593472D02*
D03*
X496301Y597008D02*
D03*
X492766Y600544D02*
D03*
X489230Y604079D02*
D03*
X485695Y607615D02*
D03*
X482159Y611150D02*
D03*
X478624Y614686D02*
D03*
X475088Y618221D02*
D03*
X471552Y621757D02*
D03*
X468017Y625292D02*
D03*
X464481Y628828D02*
D03*
X460946Y632363D02*
D03*
X457410Y635899D02*
D03*
X453875Y639434D02*
D03*
X450339Y642970D02*
D03*
X446804Y646505D02*
D03*
X443268Y650041D02*
D03*
X336495Y543268D02*
D03*
X340031Y539732D02*
D03*
X343566Y536197D02*
D03*
X347102Y532661D02*
D03*
X350637Y529126D02*
D03*
X354173Y525590D02*
D03*
X357708Y522055D02*
D03*
X361244Y518519D02*
D03*
X364779Y514984D02*
D03*
X368315Y511448D02*
D03*
X371850Y507912D02*
D03*
X375386Y504377D02*
D03*
X378921Y500841D02*
D03*
X382457Y497306D02*
D03*
X385993Y493770D02*
D03*
X389528Y490235D02*
D03*
X393064Y486699D02*
D03*
X396599Y483164D02*
D03*
X400135Y479628D02*
D03*
X403670Y476093D02*
D03*
X407206Y472557D02*
D03*
X410741Y469022D02*
D03*
X414277Y465486D02*
D03*
X417812Y461951D02*
D03*
X421348Y458415D02*
D03*
D19*
X263698Y226882D02*
D03*
X689102Y258572D02*
D03*
X600456Y787400D02*
D03*
X148048Y804322D02*
D03*
D20*
X73667Y56158D02*
D03*
Y123158D02*
D03*
X697370Y212570D02*
D03*
Y145570D02*
D03*
Y56158D02*
D03*
Y123158D02*
D03*
X73651Y351961D02*
D03*
Y244961D02*
D03*
X73667Y212570D02*
D03*
Y145570D02*
D03*
D21*
X131167Y79658D02*
D03*
Y99658D02*
D03*
X639870Y189070D02*
D03*
Y169070D02*
D03*
Y79658D02*
D03*
Y99658D02*
D03*
X131151Y268461D02*
D03*
Y288461D02*
D03*
Y308461D02*
D03*
Y328461D02*
D03*
X131167Y189070D02*
D03*
Y169070D02*
D03*
D22*
X410928Y214529D02*
D03*
Y248099D02*
D03*
Y298765D02*
D03*
Y265196D02*
D03*
D23*
X470618Y231434D02*
D03*
X525228D02*
D03*
D24*
X440392Y209911D02*
D03*
Y249910D02*
D03*
X300034Y243144D02*
D03*
Y283144D02*
D03*
D25*
X496528Y318944D02*
D03*
X529036D02*
D03*
X496528Y283384D02*
D03*
X529036D02*
D03*
X181866Y255524D02*
D03*
X214374D02*
D03*
D26*
X413214Y322814D02*
D03*
X429082D02*
D03*
X445726Y323069D02*
D03*
X461594D02*
D03*
X445634Y340594D02*
D03*
X461502D02*
D03*
X319824Y202752D02*
D03*
X335692D02*
D03*
X137884Y677860D02*
D03*
X122016D02*
D03*
X137884Y695603D02*
D03*
X122016D02*
D03*
X366084Y217992D02*
D03*
X350216D02*
D03*
X226127Y355056D02*
D03*
X241995D02*
D03*
X242002Y339804D02*
D03*
X226134D02*
D03*
X319824Y217992D02*
D03*
X335692D02*
D03*
X350216Y202752D02*
D03*
X366084D02*
D03*
X423104Y663956D02*
D03*
X438972D02*
D03*
X395922Y726433D02*
D03*
X411790D02*
D03*
X381301Y732341D02*
D03*
X365433D02*
D03*
X212718Y163576D02*
D03*
X196850D02*
D03*
X593658Y133350D02*
D03*
X577790D02*
D03*
X215960Y731012D02*
D03*
X200092D02*
D03*
X215768Y715744D02*
D03*
X199900D02*
D03*
D27*
X449190Y297487D02*
D03*
X439690D02*
D03*
X430190D02*
D03*
Y274482D02*
D03*
X439690D02*
D03*
X449190D02*
D03*
D28*
X466046Y290557D02*
D03*
Y274688D02*
D03*
X505329Y732887D02*
D03*
Y748755D02*
D03*
X558707D02*
D03*
Y732887D02*
D03*
X348802Y299660D02*
D03*
Y315528D02*
D03*
X328736Y281296D02*
D03*
Y265428D02*
D03*
X271526Y292548D02*
D03*
Y308416D02*
D03*
X261508Y700319D02*
D03*
Y716187D02*
D03*
X292009Y700319D02*
D03*
Y716187D02*
D03*
X276741Y700319D02*
D03*
Y716187D02*
D03*
X603826Y169129D02*
D03*
Y184997D02*
D03*
X432131Y433257D02*
D03*
Y449125D02*
D03*
X230999Y489605D02*
D03*
Y505474D02*
D03*
X249225Y489605D02*
D03*
Y505474D02*
D03*
X267734Y489605D02*
D03*
Y505474D02*
D03*
X365604Y347784D02*
D03*
Y331916D02*
D03*
X380909Y347784D02*
D03*
Y331916D02*
D03*
X350326Y347786D02*
D03*
Y331918D02*
D03*
X333562Y299660D02*
D03*
Y315528D02*
D03*
X381671Y218306D02*
D03*
Y202438D02*
D03*
X168351Y204410D02*
D03*
Y188542D02*
D03*
X328736Y250816D02*
D03*
Y234948D02*
D03*
X350637Y727487D02*
D03*
Y711620D02*
D03*
X192278Y680018D02*
D03*
Y664150D02*
D03*
X230743Y716095D02*
D03*
Y700227D02*
D03*
X246126Y716086D02*
D03*
Y700218D02*
D03*
D29*
X430426Y338308D02*
D03*
X415186D02*
D03*
X205009Y339502D02*
D03*
X189769D02*
D03*
Y355056D02*
D03*
X205009D02*
D03*
D30*
X539616Y500228D02*
D03*
X528395Y511448D02*
D03*
X309096Y593366D02*
D03*
X320316Y582146D02*
D03*
D31*
X117012Y588226D02*
D03*
X75012D02*
D03*
D32*
X252293Y281450D02*
D03*
Y294149D02*
D03*
Y306849D02*
D03*
Y319550D02*
D03*
X198293Y281450D02*
D03*
Y294149D02*
D03*
Y306849D02*
D03*
Y319550D02*
D03*
D33*
X541072Y749816D02*
D03*
Y734576D02*
D03*
X523279Y749816D02*
D03*
Y734576D02*
D03*
X364819Y315976D02*
D03*
Y300736D02*
D03*
X378266Y315976D02*
D03*
Y300736D02*
D03*
X334070Y345694D02*
D03*
Y330454D02*
D03*
X320100Y345694D02*
D03*
Y330454D02*
D03*
D34*
X469625Y428664D02*
D03*
X480845Y439884D02*
D03*
X493299Y427738D02*
D03*
X482079Y416518D02*
D03*
X468672Y452138D02*
D03*
X457451Y440918D02*
D03*
X360983Y484107D02*
D03*
X349762Y472887D02*
D03*
X549678Y595144D02*
D03*
X538458Y583924D02*
D03*
D35*
X350351Y242868D02*
D03*
X355351D02*
D03*
X360351D02*
D03*
X365351D02*
D03*
X370351D02*
D03*
Y272868D02*
D03*
X365351D02*
D03*
X360351D02*
D03*
X355351D02*
D03*
X350351D02*
D03*
D36*
X360351Y257868D02*
D03*
D37*
X124264Y532884D02*
D03*
Y521884D02*
D03*
Y510884D02*
D03*
Y499884D02*
D03*
Y488884D02*
D03*
Y477884D02*
D03*
Y466884D02*
D03*
Y455884D02*
D03*
D38*
X98264Y419184D02*
D03*
Y556684D02*
D03*
X181264Y419184D02*
D03*
Y556684D02*
D03*
D39*
X503610Y461470D02*
D03*
X492296Y472783D02*
D03*
D40*
X172212Y340106D02*
D03*
Y354076D02*
D03*
X235712Y248666D02*
D03*
Y262636D02*
D03*
D41*
X247143Y746820D02*
D03*
X352142D02*
D03*
X347142D02*
D03*
X342142D02*
D03*
X337142D02*
D03*
X332142D02*
D03*
X327142D02*
D03*
X322142D02*
D03*
X317143D02*
D03*
X312143D02*
D03*
X307143D02*
D03*
X302143D02*
D03*
X297143D02*
D03*
X292143D02*
D03*
X287143D02*
D03*
X282143D02*
D03*
X277143D02*
D03*
X272143D02*
D03*
X267143D02*
D03*
X262143D02*
D03*
X257143D02*
D03*
X252143D02*
D03*
X242143D02*
D03*
X237143D02*
D03*
D42*
X377137Y762820D02*
D03*
X212143D02*
D03*
D43*
X451477Y65642D02*
D03*
X538477D02*
D03*
X340816D02*
D03*
X427817D02*
D03*
X230156D02*
D03*
X317156D02*
D03*
D44*
X514977Y123142D02*
D03*
X494977D02*
D03*
X474977D02*
D03*
X404316D02*
D03*
X384316D02*
D03*
X364316D02*
D03*
X293656D02*
D03*
X273656D02*
D03*
X253656D02*
D03*
D45*
X410683Y707284D02*
D03*
X397165D02*
D03*
D46*
X380388Y718160D02*
D03*
X367388D02*
D03*
X373888Y699160D02*
D03*
D47*
X161196Y299466D02*
D03*
X181196Y289966D02*
D03*
Y308966D02*
D03*
D48*
X256636Y679071D02*
D03*
Y646051D02*
D03*
X233796Y650832D02*
D03*
Y683852D02*
D03*
X211328Y665988D02*
D03*
Y699008D02*
D03*
D71*
X496185Y454045D02*
D03*
X511035Y468894D02*
D03*
X499721Y480208D02*
D03*
X484872Y465359D02*
D03*
D81*
X576834Y134306D02*
X577790Y133350D01*
X514977Y110642D02*
Y123142D01*
X404316Y110642D02*
Y123142D01*
X319418Y581248D02*
X320316Y582146D01*
X293656Y110642D02*
Y123142D01*
X172212Y354076D02*
X172720D01*
X173990Y355346D01*
X504083Y734132D02*
X505329Y732887D01*
X496528Y261765D02*
Y283384D01*
X500898Y257395D02*
X518768D01*
X496528Y261765D02*
X500898Y257395D01*
X525228Y231434D02*
X525461Y231667D01*
X492568Y323069D02*
X496528Y319109D01*
X461548Y323115D02*
X461594Y323069D01*
X461502Y340594D02*
X461548Y340549D01*
X271526Y308416D02*
X272034D01*
X273304Y307146D01*
X602556Y183727D02*
X603826Y184997D01*
X438972Y663956D02*
X439320Y664304D01*
X538458Y583924D02*
X539356Y583026D01*
X527497Y510550D02*
X528395Y511448D01*
X529294Y512346D01*
X496528Y283384D02*
Y313770D01*
X440392Y253910D02*
X448669Y262188D01*
X464158Y249910D02*
X470618Y243450D01*
X440392Y249910D02*
X464158D01*
X440392D02*
Y253910D01*
X448669Y273961D02*
X449190Y274482D01*
X448669Y262188D02*
Y273961D01*
X449190Y274482D02*
X449397Y274688D01*
X466046D01*
X470618Y231434D02*
Y243450D01*
X319759Y345353D02*
X320100Y345694D01*
D82*
X78486Y669604D02*
D03*
X91186D02*
D03*
Y656904D02*
D03*
X78486D02*
D03*
Y644204D02*
D03*
X91186D02*
D03*
Y682304D02*
D03*
X78486D02*
D03*
Y695004D02*
D03*
X91186D02*
D03*
D83*
X605882Y668674D02*
D03*
D84*
Y694074D02*
D03*
Y719474D02*
D03*
D85*
X405256Y498892D02*
D03*
X388919Y508762D02*
D03*
X383446Y477082D02*
D03*
X442722Y559507D02*
D03*
Y543560D02*
D03*
X369658Y492752D02*
D03*
X354876Y477600D02*
D03*
X169626Y131572D02*
D03*
X121666D02*
D03*
X111506Y79502D02*
D03*
X287528Y301752D02*
D03*
X295910Y384810D02*
D03*
X519898Y283384D02*
D03*
Y318944D02*
D03*
X426227Y209911D02*
D03*
X411876Y311423D02*
D03*
X439886Y310103D02*
D03*
X474709Y434639D02*
D03*
X485598Y420038D02*
D03*
X300542Y258122D02*
D03*
X447294Y431292D02*
D03*
X432079Y439832D02*
D03*
X534046Y505474D02*
D03*
X506030Y474179D02*
D03*
X257048Y637032D02*
D03*
X257143Y607615D02*
D03*
X333501Y579492D02*
D03*
X106523Y588226D02*
D03*
X128366Y677275D02*
D03*
X393064Y600544D02*
D03*
X297372Y632363D02*
D03*
X365434Y559507D02*
D03*
X365811Y553859D02*
D03*
X304546Y550164D02*
D03*
Y555434D02*
D03*
X660686Y189070D02*
D03*
X111982Y328450D02*
D03*
X465346Y505474D02*
D03*
X477520Y508762D02*
D03*
X269960Y384808D02*
D03*
X109115Y169070D02*
D03*
X455642Y669544D02*
D03*
X462534Y707284D02*
D03*
X273304Y301752D02*
D03*
X327085Y345694D02*
D03*
X348802Y308610D02*
D03*
X381671Y209206D02*
D03*
X359530Y217992D02*
D03*
X312480D02*
D03*
X263698Y294149D02*
D03*
X169037Y299208D02*
D03*
X110744Y511104D02*
D03*
X462671Y446502D02*
D03*
X403670Y726433D02*
D03*
X350637Y718727D02*
D03*
X206121Y730758D02*
D03*
X313690Y588772D02*
D03*
X233796Y660230D02*
D03*
X230743Y706479D02*
D03*
X261508Y706951D02*
D03*
X276741D02*
D03*
X292009Y706567D02*
D03*
X246126Y706479D02*
D03*
X98552Y545084D02*
D03*
X180848Y546100D02*
D03*
X181102Y431038D02*
D03*
X430443Y664210D02*
D03*
X540512Y593344D02*
D03*
X272288Y753872D02*
D03*
X510443Y661162D02*
D03*
X515620Y658876D02*
D03*
X485695Y635899D02*
D03*
X493558Y636764D02*
D03*
X461737Y654847D02*
D03*
X465346Y650940D02*
D03*
X340031Y518519D02*
D03*
X323850Y527812D02*
D03*
X271526Y477884D02*
D03*
X324678Y482663D02*
D03*
X317462Y504844D02*
D03*
X323850Y516128D02*
D03*
X388919Y736333D02*
D03*
X442052Y435956D02*
D03*
X395189Y522837D02*
D03*
X391463Y519111D02*
D03*
X270510Y725847D02*
D03*
X279387Y736333D02*
D03*
X267734Y499884D02*
D03*
X230743D02*
D03*
X98298Y431038D02*
D03*
X324104Y688340D02*
D03*
X317386Y695198D02*
D03*
X332142Y683852D02*
D03*
X339090Y675132D02*
D03*
X500126Y538734D02*
D03*
X513238Y557352D02*
D03*
X324002Y728093D02*
D03*
X339003Y715744D02*
D03*
X317386Y734708D02*
D03*
X331978Y722376D02*
D03*
X344349Y257868D02*
D03*
X328736Y258122D02*
D03*
X661924Y99822D02*
D03*
X474980Y102870D02*
D03*
X364236D02*
D03*
X253492D02*
D03*
X249225Y499884D02*
D03*
X206840Y715944D02*
D03*
M02*
