G04*
G04 #@! TF.GenerationSoftware,Altium Limited,Altium Designer,21.5.1 (32)*
G04*
G04 Layer_Color=8388736*
%FSLAX44Y44*%
%MOMM*%
G71*
G04*
G04 #@! TF.SameCoordinates,291158CD-1CAE-4BE2-80A8-EAB606698AEE*
G04*
G04*
G04 #@! TF.FilePolarity,Positive*
G04*
G01*
G75*
%ADD13C,0.2000*%
G36*
X446090Y285138D02*
X442394D01*
X442388D01*
X442360D01*
X442318D01*
X442256D01*
X442186Y285132D01*
X442110D01*
X442020Y285125D01*
X441930Y285118D01*
X441729Y285104D01*
X441528Y285076D01*
X441334Y285035D01*
X441243Y285014D01*
X441167Y284986D01*
X441160D01*
X441153Y284979D01*
X441132Y284972D01*
X441105Y284958D01*
X441028Y284917D01*
X440945Y284861D01*
X440841Y284792D01*
X440744Y284702D01*
X440647Y284591D01*
X440557Y284459D01*
Y284452D01*
X440550Y284438D01*
X440536Y284417D01*
X440522Y284390D01*
X440508Y284355D01*
X440494Y284306D01*
X440474Y284258D01*
X440453Y284202D01*
X440418Y284064D01*
X440383Y283904D01*
X440356Y283724D01*
X440349Y283530D01*
Y283440D01*
X440356Y283377D01*
X440363Y283301D01*
X440370Y283211D01*
X440383Y283114D01*
X440404Y283010D01*
X440453Y282795D01*
X440488Y282684D01*
X440529Y282573D01*
X440578Y282469D01*
X440633Y282372D01*
X440696Y282282D01*
X440772Y282198D01*
X440779Y282192D01*
X440793Y282178D01*
X440820Y282164D01*
X440855Y282136D01*
X440904Y282108D01*
X440966Y282074D01*
X441042Y282032D01*
X441132Y281997D01*
X441236Y281963D01*
X441354Y281921D01*
X441486Y281886D01*
X441632Y281859D01*
X441798Y281831D01*
X441978Y281810D01*
X442179Y281803D01*
X442394Y281796D01*
X446090D01*
Y280950D01*
X442394D01*
X442381D01*
X442353D01*
X442304D01*
X442235D01*
X442152Y280957D01*
X442062Y280964D01*
X441958Y280971D01*
X441840Y280978D01*
X441597Y281006D01*
X441340Y281040D01*
X441091Y281096D01*
X440973Y281131D01*
X440862Y281172D01*
X440855D01*
X440834Y281179D01*
X440807Y281193D01*
X440765Y281214D01*
X440716Y281241D01*
X440661Y281269D01*
X440536Y281352D01*
X440460Y281401D01*
X440391Y281456D01*
X440307Y281526D01*
X440231Y281595D01*
X440155Y281678D01*
X440078Y281761D01*
X440009Y281859D01*
X439940Y281963D01*
X439933Y281970D01*
X439926Y281990D01*
X439905Y282018D01*
X439884Y282067D01*
X439856Y282122D01*
X439829Y282192D01*
X439794Y282268D01*
X439766Y282365D01*
X439732Y282462D01*
X439697Y282573D01*
X439669Y282698D01*
X439642Y282829D01*
X439621Y282975D01*
X439600Y283128D01*
X439593Y283287D01*
X439586Y283454D01*
Y283544D01*
X439593Y283606D01*
Y283682D01*
X439600Y283766D01*
X439614Y283869D01*
X439628Y283974D01*
X439662Y284209D01*
X439718Y284459D01*
X439794Y284702D01*
X439836Y284820D01*
X439891Y284930D01*
X439898Y284937D01*
X439905Y284958D01*
X439926Y284986D01*
X439947Y285021D01*
X439981Y285069D01*
X440023Y285125D01*
X440065Y285180D01*
X440120Y285243D01*
X440245Y285381D01*
X440397Y285513D01*
X440578Y285638D01*
X440682Y285693D01*
X440786Y285742D01*
X440793D01*
X440813Y285749D01*
X440848Y285763D01*
X440897Y285776D01*
X440952Y285797D01*
X441028Y285818D01*
X441112Y285839D01*
X441209Y285860D01*
X441320Y285887D01*
X441437Y285908D01*
X441569Y285929D01*
X441715Y285943D01*
X441867Y285964D01*
X442034Y285971D01*
X442207Y285984D01*
X442394D01*
X446090D01*
Y285138D01*
D02*
G37*
G36*
X441431Y279030D02*
X441424D01*
X441403Y279023D01*
X441375Y279016D01*
X441334Y279009D01*
X441285Y279002D01*
X441223Y278981D01*
X441091Y278946D01*
X440945Y278891D01*
X440793Y278815D01*
X440654Y278724D01*
X440592Y278669D01*
X440529Y278613D01*
Y278606D01*
X440515Y278599D01*
X440501Y278579D01*
X440481Y278551D01*
X440432Y278482D01*
X440383Y278385D01*
X440328Y278267D01*
X440280Y278128D01*
X440245Y277976D01*
X440238Y277892D01*
X440231Y277802D01*
Y277747D01*
X440238Y277705D01*
X440245Y277656D01*
X440252Y277601D01*
X440286Y277469D01*
X440335Y277317D01*
X440370Y277240D01*
X440411Y277157D01*
X440460Y277074D01*
X440515Y276998D01*
X440578Y276922D01*
X440654Y276845D01*
X440661Y276838D01*
X440675Y276831D01*
X440696Y276810D01*
X440730Y276783D01*
X440779Y276755D01*
X440827Y276720D01*
X440890Y276686D01*
X440959Y276644D01*
X441035Y276609D01*
X441119Y276575D01*
X441216Y276540D01*
X441313Y276512D01*
X441424Y276485D01*
X441541Y276464D01*
X441659Y276457D01*
X441791Y276450D01*
X441798D01*
X441819D01*
X441854D01*
X441902Y276457D01*
X441958Y276464D01*
X442027Y276471D01*
X442096Y276485D01*
X442179Y276499D01*
X442346Y276540D01*
X442526Y276609D01*
X442609Y276651D01*
X442693Y276707D01*
X442776Y276762D01*
X442852Y276831D01*
X442859Y276838D01*
X442866Y276845D01*
X442887Y276873D01*
X442915Y276901D01*
X442942Y276935D01*
X442977Y276984D01*
X443012Y277032D01*
X443053Y277095D01*
X443088Y277164D01*
X443122Y277234D01*
X443185Y277407D01*
X443213Y277497D01*
X443233Y277601D01*
X443240Y277705D01*
X443247Y277816D01*
Y277878D01*
X443240Y277955D01*
X443227Y278045D01*
X443206Y278156D01*
X443171Y278274D01*
X443130Y278391D01*
X443067Y278509D01*
X443060Y278523D01*
X443039Y278558D01*
X442998Y278613D01*
X442949Y278683D01*
X442880Y278752D01*
X442804Y278835D01*
X442713Y278912D01*
X442616Y278981D01*
X442720Y279716D01*
X446007Y279099D01*
Y275916D01*
X445258D01*
Y278475D01*
X443539Y278815D01*
X443545Y278808D01*
X443559Y278787D01*
X443573Y278759D01*
X443601Y278717D01*
X443629Y278662D01*
X443663Y278599D01*
X443705Y278530D01*
X443740Y278447D01*
X443774Y278364D01*
X443816Y278267D01*
X443878Y278066D01*
X443906Y277955D01*
X443927Y277844D01*
X443934Y277726D01*
X443941Y277608D01*
Y277573D01*
X443934Y277525D01*
Y277469D01*
X443920Y277400D01*
X443913Y277317D01*
X443892Y277220D01*
X443871Y277123D01*
X443837Y277012D01*
X443802Y276901D01*
X443754Y276783D01*
X443698Y276665D01*
X443629Y276547D01*
X443553Y276429D01*
X443462Y276311D01*
X443358Y276200D01*
X443351Y276193D01*
X443331Y276173D01*
X443296Y276145D01*
X443254Y276110D01*
X443199Y276062D01*
X443122Y276013D01*
X443046Y275965D01*
X442956Y275909D01*
X442852Y275854D01*
X442734Y275805D01*
X442616Y275750D01*
X442478Y275708D01*
X442339Y275673D01*
X442186Y275646D01*
X442027Y275625D01*
X441861Y275618D01*
X441854D01*
X441819D01*
X441777D01*
X441715Y275625D01*
X441639Y275632D01*
X441555Y275646D01*
X441458Y275659D01*
X441347Y275680D01*
X441236Y275708D01*
X441112Y275743D01*
X440987Y275784D01*
X440862Y275833D01*
X440737Y275888D01*
X440605Y275958D01*
X440481Y276034D01*
X440363Y276124D01*
X440356Y276131D01*
X440328Y276152D01*
X440293Y276186D01*
X440245Y276235D01*
X440182Y276297D01*
X440120Y276374D01*
X440044Y276464D01*
X439974Y276568D01*
X439905Y276679D01*
X439829Y276804D01*
X439766Y276942D01*
X439711Y277095D01*
X439655Y277254D01*
X439621Y277428D01*
X439593Y277608D01*
X439586Y277802D01*
Y277885D01*
X439593Y277948D01*
X439600Y278024D01*
X439614Y278107D01*
X439628Y278204D01*
X439649Y278308D01*
X439669Y278419D01*
X439704Y278537D01*
X439746Y278655D01*
X439794Y278773D01*
X439850Y278891D01*
X439912Y279009D01*
X439988Y279120D01*
X440071Y279231D01*
X440078Y279237D01*
X440092Y279251D01*
X440120Y279279D01*
X440162Y279314D01*
X440210Y279362D01*
X440266Y279411D01*
X440335Y279459D01*
X440418Y279515D01*
X440501Y279570D01*
X440598Y279626D01*
X440709Y279674D01*
X440820Y279723D01*
X440945Y279771D01*
X441077Y279806D01*
X441223Y279834D01*
X441368Y279855D01*
X441431Y279030D01*
D02*
G37*
G36*
X100675Y307253D02*
X100723D01*
X100786Y307246D01*
X100862Y307239D01*
X100939Y307226D01*
X101112Y307198D01*
X101299Y307149D01*
X101493Y307087D01*
X101694Y306997D01*
X101701D01*
X101715Y306983D01*
X101743Y306969D01*
X101777Y306948D01*
X101819Y306921D01*
X101868Y306893D01*
X101986Y306810D01*
X102110Y306712D01*
X102242Y306588D01*
X102374Y306442D01*
X102485Y306283D01*
Y306276D01*
X102499Y306262D01*
X102513Y306234D01*
X102526Y306199D01*
X102547Y306158D01*
X102568Y306109D01*
X102596Y306047D01*
X102617Y305984D01*
X102672Y305832D01*
X102714Y305651D01*
X102741Y305457D01*
X102755Y305249D01*
Y305208D01*
X102748Y305152D01*
X102741Y305083D01*
X102734Y305000D01*
X102714Y304903D01*
X102693Y304799D01*
X102665Y304681D01*
X102624Y304556D01*
X102582Y304424D01*
X102520Y304292D01*
X102450Y304161D01*
X102367Y304022D01*
X102270Y303897D01*
X102159Y303765D01*
X102034Y303647D01*
X102027Y303641D01*
X101999Y303620D01*
X101958Y303592D01*
X101895Y303550D01*
X101819Y303502D01*
X101722Y303453D01*
X101604Y303398D01*
X101466Y303342D01*
X101313Y303280D01*
X101139Y303225D01*
X100945Y303176D01*
X100730Y303127D01*
X100495Y303086D01*
X100238Y303058D01*
X99961Y303037D01*
X99663Y303030D01*
X99656D01*
X99642D01*
X99614D01*
X99579D01*
X99538D01*
X99482Y303037D01*
X99427D01*
X99358Y303044D01*
X99205Y303051D01*
X99032Y303065D01*
X98837Y303086D01*
X98629Y303114D01*
X98407Y303155D01*
X98186Y303197D01*
X97964Y303252D01*
X97742Y303322D01*
X97527Y303398D01*
X97319Y303488D01*
X97132Y303599D01*
X96965Y303717D01*
X96958Y303724D01*
X96931Y303745D01*
X96896Y303779D01*
X96847Y303828D01*
X96792Y303883D01*
X96729Y303960D01*
X96667Y304043D01*
X96598Y304140D01*
X96528Y304251D01*
X96466Y304376D01*
X96404Y304507D01*
X96348Y304653D01*
X96299Y304806D01*
X96265Y304972D01*
X96237Y305145D01*
X96230Y305333D01*
Y305409D01*
X96237Y305457D01*
X96244Y305520D01*
X96251Y305596D01*
X96265Y305679D01*
X96286Y305769D01*
X96334Y305970D01*
X96369Y306068D01*
X96410Y306178D01*
X96459Y306283D01*
X96521Y306380D01*
X96584Y306477D01*
X96660Y306574D01*
X96667Y306581D01*
X96681Y306595D01*
X96702Y306622D01*
X96736Y306650D01*
X96778Y306692D01*
X96833Y306733D01*
X96896Y306782D01*
X96965Y306830D01*
X97041Y306879D01*
X97132Y306927D01*
X97229Y306976D01*
X97333Y307024D01*
X97444Y307066D01*
X97562Y307101D01*
X97686Y307135D01*
X97825Y307156D01*
X97887Y306373D01*
X97880D01*
X97867Y306366D01*
X97846Y306359D01*
X97811Y306352D01*
X97728Y306331D01*
X97631Y306296D01*
X97520Y306255D01*
X97409Y306199D01*
X97305Y306144D01*
X97215Y306075D01*
X97208Y306068D01*
X97201Y306061D01*
X97180Y306040D01*
X97159Y306019D01*
X97104Y305950D01*
X97041Y305853D01*
X96979Y305742D01*
X96931Y305603D01*
X96889Y305450D01*
X96882Y305367D01*
X96875Y305284D01*
Y305222D01*
X96889Y305145D01*
X96903Y305055D01*
X96931Y304951D01*
X96965Y304840D01*
X97021Y304729D01*
X97090Y304618D01*
Y304611D01*
X97104Y304604D01*
X97118Y304584D01*
X97139Y304556D01*
X97201Y304494D01*
X97291Y304410D01*
X97402Y304313D01*
X97541Y304216D01*
X97700Y304126D01*
X97880Y304036D01*
X97887D01*
X97901Y304029D01*
X97936Y304015D01*
X97978Y304001D01*
X98026Y303987D01*
X98095Y303967D01*
X98172Y303946D01*
X98255Y303925D01*
X98352Y303904D01*
X98463Y303890D01*
X98588Y303869D01*
X98720Y303849D01*
X98858Y303835D01*
X99011Y303828D01*
X99177Y303821D01*
X99343Y303814D01*
X99344Y303814D01*
X99351D01*
X99343Y303814D01*
X99330Y303828D01*
X99309Y303842D01*
X99281Y303862D01*
X99205Y303925D01*
X99108Y304001D01*
X99004Y304105D01*
X98900Y304223D01*
X98803Y304355D01*
X98713Y304500D01*
Y304507D01*
X98706Y304521D01*
X98692Y304542D01*
X98678Y304570D01*
X98664Y304611D01*
X98643Y304653D01*
X98602Y304764D01*
X98567Y304896D01*
X98532Y305041D01*
X98505Y305201D01*
X98498Y305367D01*
Y305402D01*
X98505Y305443D01*
Y305499D01*
X98518Y305568D01*
X98525Y305645D01*
X98546Y305735D01*
X98567Y305832D01*
X98602Y305929D01*
X98636Y306040D01*
X98685Y306151D01*
X98740Y306262D01*
X98810Y306380D01*
X98886Y306490D01*
X98976Y306602D01*
X99080Y306705D01*
X99087Y306712D01*
X99108Y306726D01*
X99136Y306754D01*
X99184Y306796D01*
X99240Y306837D01*
X99309Y306879D01*
X99392Y306934D01*
X99482Y306983D01*
X99586Y307031D01*
X99697Y307087D01*
X99822Y307129D01*
X99954Y307177D01*
X100092Y307212D01*
X100245Y307239D01*
X100405Y307253D01*
X100571Y307260D01*
X100578D01*
X100599D01*
X100626D01*
X100675Y307253D01*
D02*
G37*
G36*
X100814Y301997D02*
X100890D01*
X100980Y301990D01*
X101070Y301976D01*
X101271Y301956D01*
X101479Y301921D01*
X101680Y301872D01*
X101771Y301838D01*
X101861Y301803D01*
X101868D01*
X101882Y301796D01*
X101902Y301782D01*
X101930Y301768D01*
X102013Y301720D01*
X102110Y301651D01*
X102214Y301567D01*
X102325Y301463D01*
X102429Y301332D01*
X102526Y301186D01*
Y301179D01*
X102533Y301165D01*
X102547Y301144D01*
X102561Y301110D01*
X102582Y301075D01*
X102596Y301026D01*
X102617Y300971D01*
X102637Y300909D01*
X102686Y300763D01*
X102720Y300597D01*
X102748Y300409D01*
X102755Y300201D01*
Y300118D01*
X102748Y300063D01*
X102741Y299993D01*
X102727Y299910D01*
X102714Y299820D01*
X102693Y299723D01*
X102672Y299619D01*
X102637Y299515D01*
X102603Y299404D01*
X102554Y299300D01*
X102499Y299189D01*
X102436Y299092D01*
X102360Y298995D01*
X102277Y298904D01*
X102270Y298898D01*
X102256Y298884D01*
X102228Y298863D01*
X102187Y298835D01*
X102138Y298801D01*
X102076Y298766D01*
X101999Y298724D01*
X101916Y298683D01*
X101819Y298648D01*
X101715Y298606D01*
X101597Y298572D01*
X101466Y298537D01*
X101327Y298516D01*
X101174Y298495D01*
X101015Y298482D01*
X100841D01*
X100730Y299244D01*
X100737D01*
X100765D01*
X100800Y299251D01*
X100848D01*
X100911Y299258D01*
X100980Y299265D01*
X101133Y299286D01*
X101299Y299321D01*
X101466Y299369D01*
X101542Y299397D01*
X101618Y299431D01*
X101680Y299473D01*
X101736Y299515D01*
X101750Y299529D01*
X101777Y299563D01*
X101819Y299619D01*
X101868Y299695D01*
X101916Y299792D01*
X101958Y299910D01*
X101986Y300042D01*
X101999Y300194D01*
Y300250D01*
X101993Y300305D01*
X101979Y300382D01*
X101965Y300472D01*
X101937Y300562D01*
X101902Y300652D01*
X101854Y300742D01*
X101847Y300756D01*
X101826Y300784D01*
X101791Y300818D01*
X101750Y300874D01*
X101694Y300922D01*
X101625Y300978D01*
X101549Y301026D01*
X101459Y301068D01*
X101445Y301075D01*
X101410Y301082D01*
X101348Y301096D01*
X101264Y301117D01*
X101153Y301130D01*
X101015Y301144D01*
X100855Y301151D01*
X100758Y301158D01*
X100661D01*
X96251D01*
Y302004D01*
X100612D01*
X100619D01*
X100647D01*
X100689D01*
X100744D01*
X100814Y301997D01*
D02*
G37*
G36*
X498520Y96681D02*
Y96674D01*
Y96646D01*
Y96604D01*
Y96549D01*
X498513Y96480D01*
Y96403D01*
X498507Y96313D01*
X498493Y96223D01*
X498472Y96022D01*
X498437Y95814D01*
X498389Y95613D01*
X498354Y95523D01*
X498319Y95433D01*
Y95426D01*
X498312Y95412D01*
X498298Y95391D01*
X498285Y95363D01*
X498236Y95280D01*
X498167Y95183D01*
X498083Y95079D01*
X497980Y94968D01*
X497848Y94864D01*
X497702Y94767D01*
X497695D01*
X497681Y94760D01*
X497660Y94746D01*
X497626Y94732D01*
X497591Y94711D01*
X497543Y94697D01*
X497487Y94677D01*
X497425Y94656D01*
X497279Y94607D01*
X497113Y94573D01*
X496926Y94545D01*
X496717Y94538D01*
X496634D01*
X496579Y94545D01*
X496509Y94552D01*
X496426Y94566D01*
X496336Y94580D01*
X496239Y94600D01*
X496135Y94621D01*
X496031Y94656D01*
X495920Y94691D01*
X495816Y94739D01*
X495705Y94795D01*
X495608Y94857D01*
X495511Y94933D01*
X495421Y95016D01*
X495414Y95023D01*
X495400Y95037D01*
X495379Y95065D01*
X495351Y95107D01*
X495317Y95155D01*
X495282Y95218D01*
X495241Y95294D01*
X495199Y95377D01*
X495164Y95474D01*
X495123Y95578D01*
X495088Y95696D01*
X495053Y95828D01*
X495032Y95966D01*
X495012Y96119D01*
X494998Y96278D01*
Y96452D01*
X495760Y96563D01*
Y96556D01*
Y96528D01*
X495768Y96493D01*
Y96445D01*
X495774Y96383D01*
X495781Y96313D01*
X495802Y96161D01*
X495837Y95994D01*
X495885Y95828D01*
X495913Y95751D01*
X495948Y95675D01*
X495989Y95613D01*
X496031Y95557D01*
X496045Y95543D01*
X496079Y95516D01*
X496135Y95474D01*
X496211Y95426D01*
X496308Y95377D01*
X496426Y95335D01*
X496558Y95308D01*
X496711Y95294D01*
X496766D01*
X496822Y95301D01*
X496898Y95315D01*
X496988Y95329D01*
X497078Y95356D01*
X497168Y95391D01*
X497258Y95439D01*
X497272Y95446D01*
X497300Y95467D01*
X497335Y95502D01*
X497390Y95543D01*
X497439Y95599D01*
X497494Y95668D01*
X497543Y95744D01*
X497584Y95835D01*
X497591Y95849D01*
X497598Y95883D01*
X497612Y95946D01*
X497633Y96029D01*
X497647Y96140D01*
X497660Y96278D01*
X497667Y96438D01*
X497674Y96535D01*
Y96632D01*
Y101042D01*
X498520D01*
Y96681D01*
D02*
G37*
G36*
X503777Y100342D02*
X503769Y100335D01*
X503749Y100314D01*
X503714Y100273D01*
X503672Y100224D01*
X503617Y100155D01*
X503548Y100078D01*
X503478Y99988D01*
X503395Y99884D01*
X503305Y99766D01*
X503208Y99635D01*
X503104Y99489D01*
X503000Y99336D01*
X502896Y99177D01*
X502785Y98997D01*
X502667Y98809D01*
X502556Y98615D01*
X502549Y98601D01*
X502528Y98567D01*
X502501Y98511D01*
X502459Y98428D01*
X502410Y98331D01*
X502348Y98213D01*
X502286Y98081D01*
X502216Y97936D01*
X502147Y97776D01*
X502071Y97603D01*
X501994Y97416D01*
X501918Y97228D01*
X501842Y97027D01*
X501766Y96819D01*
X501634Y96396D01*
Y96389D01*
X501627Y96362D01*
X501613Y96313D01*
X501599Y96258D01*
X501578Y96181D01*
X501558Y96091D01*
X501530Y95987D01*
X501509Y95876D01*
X501481Y95751D01*
X501460Y95613D01*
X501433Y95467D01*
X501412Y95315D01*
X501384Y95155D01*
X501363Y94989D01*
X501336Y94642D01*
X500531D01*
Y94649D01*
Y94677D01*
Y94718D01*
X500538Y94774D01*
X500545Y94850D01*
X500552Y94933D01*
X500559Y95037D01*
X500573Y95148D01*
X500587Y95280D01*
X500607Y95412D01*
X500628Y95564D01*
X500656Y95724D01*
X500691Y95897D01*
X500725Y96077D01*
X500774Y96265D01*
X500822Y96459D01*
X500829Y96473D01*
X500836Y96507D01*
X500850Y96563D01*
X500878Y96639D01*
X500906Y96736D01*
X500940Y96854D01*
X500982Y96979D01*
X501031Y97118D01*
X501086Y97270D01*
X501148Y97437D01*
X501211Y97610D01*
X501287Y97783D01*
X501447Y98151D01*
X501634Y98525D01*
X501641Y98539D01*
X501661Y98567D01*
X501689Y98622D01*
X501724Y98692D01*
X501779Y98775D01*
X501835Y98872D01*
X501904Y98983D01*
X501974Y99108D01*
X502057Y99232D01*
X502147Y99371D01*
X502341Y99649D01*
X502549Y99933D01*
X502660Y100071D01*
X502771Y100203D01*
X499637D01*
Y100959D01*
X503777D01*
Y100342D01*
D02*
G37*
G36*
X387860Y96681D02*
Y96674D01*
Y96646D01*
Y96604D01*
Y96549D01*
X387853Y96480D01*
Y96403D01*
X387846Y96313D01*
X387832Y96223D01*
X387811Y96022D01*
X387777Y95814D01*
X387728Y95613D01*
X387693Y95523D01*
X387659Y95433D01*
Y95426D01*
X387652Y95412D01*
X387638Y95391D01*
X387624Y95363D01*
X387576Y95280D01*
X387506Y95183D01*
X387423Y95079D01*
X387319Y94968D01*
X387187Y94864D01*
X387042Y94767D01*
X387035D01*
X387021Y94760D01*
X387000Y94746D01*
X386965Y94732D01*
X386931Y94711D01*
X386882Y94697D01*
X386827Y94677D01*
X386764Y94656D01*
X386619Y94607D01*
X386452Y94573D01*
X386265Y94545D01*
X386057Y94538D01*
X385974D01*
X385918Y94545D01*
X385849Y94552D01*
X385766Y94566D01*
X385676Y94580D01*
X385578Y94600D01*
X385475Y94621D01*
X385370Y94656D01*
X385260Y94691D01*
X385155Y94739D01*
X385045Y94795D01*
X384948Y94857D01*
X384850Y94933D01*
X384760Y95016D01*
X384753Y95023D01*
X384739Y95037D01*
X384719Y95065D01*
X384691Y95107D01*
X384656Y95155D01*
X384622Y95218D01*
X384580Y95294D01*
X384538Y95377D01*
X384504Y95474D01*
X384462Y95578D01*
X384427Y95696D01*
X384393Y95828D01*
X384372Y95966D01*
X384351Y96119D01*
X384337Y96278D01*
Y96452D01*
X385100Y96563D01*
Y96556D01*
Y96528D01*
X385107Y96493D01*
Y96445D01*
X385114Y96383D01*
X385121Y96313D01*
X385142Y96161D01*
X385176Y95994D01*
X385225Y95828D01*
X385253Y95751D01*
X385287Y95675D01*
X385329Y95613D01*
X385370Y95557D01*
X385384Y95543D01*
X385419Y95516D01*
X385475Y95474D01*
X385551Y95426D01*
X385648Y95377D01*
X385766Y95335D01*
X385897Y95308D01*
X386050Y95294D01*
X386105D01*
X386161Y95301D01*
X386237Y95315D01*
X386327Y95329D01*
X386418Y95356D01*
X386508Y95391D01*
X386598Y95439D01*
X386612Y95446D01*
X386639Y95467D01*
X386674Y95502D01*
X386730Y95543D01*
X386778Y95599D01*
X386834Y95668D01*
X386882Y95744D01*
X386924Y95835D01*
X386931Y95849D01*
X386938Y95883D01*
X386951Y95946D01*
X386972Y96029D01*
X386986Y96140D01*
X387000Y96278D01*
X387007Y96438D01*
X387014Y96535D01*
Y96632D01*
Y101042D01*
X387860D01*
Y96681D01*
D02*
G37*
G36*
X391140Y101056D02*
X391209Y101049D01*
X391292Y101035D01*
X391382Y101021D01*
X391486Y101001D01*
X391590Y100973D01*
X391701Y100945D01*
X391812Y100904D01*
X391923Y100855D01*
X392041Y100800D01*
X392145Y100730D01*
X392256Y100661D01*
X392353Y100571D01*
X392360Y100564D01*
X392374Y100550D01*
X392402Y100522D01*
X392436Y100487D01*
X392471Y100439D01*
X392513Y100384D01*
X392561Y100314D01*
X392610Y100245D01*
X392658Y100162D01*
X392707Y100071D01*
X392748Y99974D01*
X392783Y99870D01*
X392818Y99759D01*
X392845Y99642D01*
X392859Y99517D01*
X392866Y99392D01*
Y99385D01*
Y99371D01*
Y99350D01*
Y99316D01*
X392859Y99281D01*
X392853Y99232D01*
X392839Y99128D01*
X392811Y99010D01*
X392769Y98879D01*
X392707Y98747D01*
X392631Y98615D01*
Y98608D01*
X392617Y98601D01*
X392589Y98560D01*
X392533Y98504D01*
X392457Y98428D01*
X392353Y98352D01*
X392235Y98262D01*
X392090Y98185D01*
X391923Y98109D01*
X391930D01*
X391951Y98102D01*
X391979Y98088D01*
X392020Y98074D01*
X392069Y98054D01*
X392124Y98026D01*
X392256Y97956D01*
X392402Y97873D01*
X392547Y97762D01*
X392693Y97638D01*
X392818Y97485D01*
X392825Y97478D01*
X392832Y97464D01*
X392845Y97443D01*
X392866Y97409D01*
X392887Y97367D01*
X392915Y97319D01*
X392943Y97263D01*
X392977Y97201D01*
X393033Y97055D01*
X393081Y96882D01*
X393116Y96688D01*
X393130Y96584D01*
Y96473D01*
Y96466D01*
Y96438D01*
X393123Y96396D01*
Y96334D01*
X393109Y96265D01*
X393102Y96181D01*
X393081Y96091D01*
X393060Y95994D01*
X393026Y95883D01*
X392991Y95772D01*
X392943Y95661D01*
X392887Y95543D01*
X392818Y95426D01*
X392742Y95315D01*
X392651Y95197D01*
X392547Y95093D01*
X392540Y95086D01*
X392520Y95072D01*
X392485Y95044D01*
X392443Y95009D01*
X392381Y94961D01*
X392312Y94919D01*
X392228Y94864D01*
X392138Y94815D01*
X392034Y94767D01*
X391916Y94711D01*
X391791Y94670D01*
X391660Y94628D01*
X391514Y94586D01*
X391362Y94559D01*
X391195Y94545D01*
X391022Y94538D01*
X390980D01*
X390932Y94545D01*
X390862D01*
X390786Y94552D01*
X390689Y94566D01*
X390585Y94586D01*
X390474Y94607D01*
X390356Y94635D01*
X390231Y94677D01*
X390107Y94718D01*
X389975Y94774D01*
X389850Y94836D01*
X389725Y94912D01*
X389600Y94996D01*
X389489Y95093D01*
X389482Y95100D01*
X389462Y95120D01*
X389434Y95148D01*
X389399Y95197D01*
X389358Y95252D01*
X389309Y95315D01*
X389254Y95391D01*
X389205Y95481D01*
X389150Y95578D01*
X389094Y95682D01*
X389046Y95800D01*
X389004Y95918D01*
X388969Y96050D01*
X388942Y96195D01*
X388921Y96341D01*
X388914Y96493D01*
Y96500D01*
Y96521D01*
Y96556D01*
X388921Y96597D01*
Y96653D01*
X388928Y96715D01*
X388942Y96785D01*
X388955Y96861D01*
X388990Y97020D01*
X389046Y97194D01*
X389122Y97367D01*
X389170Y97450D01*
X389226Y97534D01*
X389233Y97541D01*
X389240Y97554D01*
X389261Y97575D01*
X389288Y97603D01*
X389316Y97638D01*
X389358Y97672D01*
X389406Y97721D01*
X389462Y97762D01*
X389586Y97859D01*
X389739Y97956D01*
X389919Y98040D01*
X390127Y98109D01*
X390120D01*
X390107Y98116D01*
X390079Y98130D01*
X390051Y98144D01*
X390009Y98158D01*
X389961Y98185D01*
X389857Y98241D01*
X389739Y98310D01*
X389621Y98400D01*
X389503Y98497D01*
X389406Y98615D01*
Y98622D01*
X389399Y98629D01*
X389385Y98650D01*
X389371Y98678D01*
X389330Y98747D01*
X389288Y98837D01*
X389247Y98955D01*
X389205Y99094D01*
X389177Y99246D01*
X389170Y99413D01*
Y99420D01*
Y99440D01*
X389177Y99482D01*
Y99531D01*
X389184Y99586D01*
X389198Y99655D01*
X389212Y99732D01*
X389233Y99822D01*
X389261Y99912D01*
X389295Y100002D01*
X389330Y100099D01*
X389378Y100203D01*
X389441Y100300D01*
X389503Y100397D01*
X389580Y100494D01*
X389670Y100585D01*
X389677Y100591D01*
X389691Y100605D01*
X389718Y100626D01*
X389760Y100661D01*
X389808Y100695D01*
X389871Y100737D01*
X389940Y100779D01*
X390023Y100827D01*
X390113Y100869D01*
X390218Y100911D01*
X390322Y100952D01*
X390439Y100987D01*
X390571Y101021D01*
X390703Y101042D01*
X390849Y101056D01*
X391001Y101063D01*
X391084D01*
X391140Y101056D01*
D02*
G37*
G36*
X277199Y96681D02*
Y96674D01*
Y96646D01*
Y96604D01*
Y96549D01*
X277192Y96480D01*
Y96403D01*
X277185Y96313D01*
X277172Y96223D01*
X277151Y96022D01*
X277116Y95814D01*
X277068Y95613D01*
X277033Y95523D01*
X276998Y95433D01*
Y95426D01*
X276991Y95412D01*
X276978Y95391D01*
X276964Y95363D01*
X276915Y95280D01*
X276846Y95183D01*
X276763Y95079D01*
X276658Y94968D01*
X276527Y94864D01*
X276381Y94767D01*
X276374D01*
X276360Y94760D01*
X276339Y94746D01*
X276305Y94732D01*
X276270Y94711D01*
X276222Y94697D01*
X276166Y94677D01*
X276104Y94656D01*
X275958Y94607D01*
X275792Y94573D01*
X275604Y94545D01*
X275396Y94538D01*
X275313D01*
X275258Y94545D01*
X275189Y94552D01*
X275105Y94566D01*
X275015Y94580D01*
X274918Y94600D01*
X274814Y94621D01*
X274710Y94656D01*
X274599Y94691D01*
X274495Y94739D01*
X274384Y94795D01*
X274287Y94857D01*
X274190Y94933D01*
X274100Y95016D01*
X274093Y95023D01*
X274079Y95037D01*
X274058Y95065D01*
X274030Y95107D01*
X273996Y95155D01*
X273961Y95218D01*
X273920Y95294D01*
X273878Y95377D01*
X273843Y95474D01*
X273802Y95578D01*
X273767Y95696D01*
X273732Y95828D01*
X273711Y95966D01*
X273691Y96119D01*
X273677Y96278D01*
Y96452D01*
X274440Y96563D01*
Y96556D01*
Y96528D01*
X274447Y96493D01*
Y96445D01*
X274453Y96383D01*
X274460Y96313D01*
X274481Y96161D01*
X274516Y95994D01*
X274564Y95828D01*
X274592Y95751D01*
X274627Y95675D01*
X274668Y95613D01*
X274710Y95557D01*
X274724Y95543D01*
X274758Y95516D01*
X274814Y95474D01*
X274890Y95426D01*
X274987Y95377D01*
X275105Y95335D01*
X275237Y95308D01*
X275389Y95294D01*
X275445D01*
X275501Y95301D01*
X275577Y95315D01*
X275667Y95329D01*
X275757Y95356D01*
X275847Y95391D01*
X275937Y95439D01*
X275951Y95446D01*
X275979Y95467D01*
X276014Y95502D01*
X276069Y95543D01*
X276118Y95599D01*
X276173Y95668D01*
X276222Y95744D01*
X276263Y95835D01*
X276270Y95849D01*
X276277Y95883D01*
X276291Y95946D01*
X276312Y96029D01*
X276326Y96140D01*
X276339Y96278D01*
X276346Y96438D01*
X276353Y96535D01*
Y96632D01*
Y101042D01*
X277199D01*
Y96681D01*
D02*
G37*
G36*
X280375Y101056D02*
X280431D01*
X280493Y101042D01*
X280569Y101035D01*
X280646Y101021D01*
X280826Y100980D01*
X281013Y100917D01*
X281110Y100883D01*
X281214Y100834D01*
X281311Y100786D01*
X281408Y100723D01*
X281415Y100716D01*
X281429Y100709D01*
X281457Y100689D01*
X281492Y100661D01*
X281540Y100626D01*
X281589Y100585D01*
X281644Y100536D01*
X281700Y100481D01*
X281762Y100418D01*
X281831Y100342D01*
X281894Y100266D01*
X281963Y100182D01*
X282026Y100085D01*
X282088Y99988D01*
X282143Y99877D01*
X282199Y99766D01*
Y99759D01*
X282213Y99739D01*
X282227Y99704D01*
X282241Y99649D01*
X282261Y99586D01*
X282282Y99510D01*
X282310Y99420D01*
X282338Y99309D01*
X282358Y99191D01*
X282386Y99059D01*
X282407Y98906D01*
X282428Y98747D01*
X282442Y98574D01*
X282456Y98386D01*
X282469Y98185D01*
Y97970D01*
Y97956D01*
Y97915D01*
Y97852D01*
X282462Y97769D01*
Y97665D01*
X282456Y97541D01*
X282449Y97409D01*
X282435Y97263D01*
X282421Y97111D01*
X282407Y96951D01*
X282358Y96625D01*
X282289Y96306D01*
X282248Y96161D01*
X282199Y96015D01*
Y96008D01*
X282185Y95980D01*
X282171Y95946D01*
X282150Y95897D01*
X282123Y95835D01*
X282088Y95765D01*
X282046Y95689D01*
X282005Y95606D01*
X281894Y95433D01*
X281755Y95245D01*
X281596Y95072D01*
X281506Y94989D01*
X281408Y94912D01*
X281402Y94906D01*
X281388Y94899D01*
X281353Y94878D01*
X281318Y94857D01*
X281263Y94829D01*
X281207Y94795D01*
X281138Y94760D01*
X281055Y94725D01*
X280972Y94691D01*
X280875Y94656D01*
X280777Y94628D01*
X280667Y94593D01*
X280431Y94552D01*
X280306Y94545D01*
X280174Y94538D01*
X280105D01*
X280049Y94545D01*
X279987Y94552D01*
X279911Y94559D01*
X279827Y94573D01*
X279737Y94593D01*
X279543Y94642D01*
X279446Y94677D01*
X279342Y94711D01*
X279238Y94760D01*
X279134Y94815D01*
X279037Y94878D01*
X278947Y94954D01*
X278940Y94961D01*
X278926Y94975D01*
X278905Y94996D01*
X278871Y95030D01*
X278836Y95072D01*
X278794Y95127D01*
X278746Y95190D01*
X278697Y95259D01*
X278649Y95335D01*
X278600Y95426D01*
X278559Y95523D01*
X278510Y95627D01*
X278468Y95738D01*
X278434Y95856D01*
X278406Y95987D01*
X278385Y96126D01*
X279141Y96188D01*
Y96181D01*
X279148Y96167D01*
Y96140D01*
X279162Y96098D01*
X279169Y96057D01*
X279183Y96008D01*
X279217Y95890D01*
X279266Y95765D01*
X279328Y95640D01*
X279411Y95523D01*
X279453Y95467D01*
X279501Y95419D01*
X279515Y95412D01*
X279550Y95384D01*
X279613Y95342D01*
X279689Y95301D01*
X279793Y95259D01*
X279911Y95218D01*
X280042Y95190D01*
X280195Y95183D01*
X280257D01*
X280327Y95190D01*
X280410Y95204D01*
X280507Y95224D01*
X280611Y95252D01*
X280722Y95287D01*
X280826Y95342D01*
X280840Y95349D01*
X280875Y95370D01*
X280923Y95412D01*
X280985Y95460D01*
X281055Y95523D01*
X281131Y95599D01*
X281207Y95689D01*
X281277Y95786D01*
X281284Y95800D01*
X281304Y95835D01*
X281339Y95897D01*
X281381Y95987D01*
X281422Y96091D01*
X281471Y96216D01*
X281519Y96369D01*
X281568Y96535D01*
Y96542D01*
X281575Y96556D01*
X281582Y96584D01*
X281589Y96618D01*
X281596Y96660D01*
X281603Y96708D01*
X281616Y96771D01*
X281630Y96833D01*
X281651Y96979D01*
X281665Y97138D01*
X281679Y97312D01*
X281686Y97492D01*
Y97506D01*
Y97534D01*
Y97582D01*
Y97645D01*
X281672Y97638D01*
X281665Y97617D01*
X281644Y97589D01*
X281589Y97520D01*
X281519Y97437D01*
X281422Y97339D01*
X281311Y97235D01*
X281187Y97138D01*
X281041Y97041D01*
X281034D01*
X281020Y97034D01*
X280999Y97020D01*
X280972Y97007D01*
X280930Y96986D01*
X280888Y96972D01*
X280777Y96930D01*
X280646Y96882D01*
X280493Y96847D01*
X280327Y96819D01*
X280153Y96812D01*
X280119D01*
X280077Y96819D01*
X280022D01*
X279952Y96833D01*
X279876Y96840D01*
X279786Y96861D01*
X279689Y96882D01*
X279585Y96916D01*
X279481Y96951D01*
X279370Y97000D01*
X279259Y97055D01*
X279141Y97118D01*
X279030Y97194D01*
X278919Y97284D01*
X278815Y97381D01*
X278808Y97388D01*
X278794Y97409D01*
X278766Y97443D01*
X278732Y97485D01*
X278690Y97541D01*
X278642Y97610D01*
X278593Y97693D01*
X278545Y97790D01*
X278489Y97887D01*
X278441Y98005D01*
X278392Y98130D01*
X278350Y98262D01*
X278316Y98407D01*
X278288Y98567D01*
X278274Y98726D01*
X278267Y98900D01*
Y98913D01*
Y98941D01*
X278274Y98997D01*
Y99059D01*
X278288Y99142D01*
X278295Y99239D01*
X278316Y99343D01*
X278337Y99461D01*
X278371Y99579D01*
X278406Y99711D01*
X278454Y99843D01*
X278510Y99967D01*
X278572Y100099D01*
X278649Y100231D01*
X278739Y100349D01*
X278836Y100467D01*
X278843Y100474D01*
X278864Y100494D01*
X278898Y100522D01*
X278940Y100557D01*
X278995Y100605D01*
X279065Y100654D01*
X279141Y100709D01*
X279231Y100765D01*
X279328Y100820D01*
X279439Y100876D01*
X279557Y100924D01*
X279682Y100973D01*
X279820Y101008D01*
X279966Y101035D01*
X280112Y101056D01*
X280271Y101063D01*
X280334D01*
X280375Y101056D01*
D02*
G37*
G36*
X403924Y699002D02*
X403078D01*
Y704646D01*
X399923D01*
Y705402D01*
X403924D01*
Y699002D01*
D02*
G37*
G36*
X399341Y705388D02*
Y705353D01*
Y705298D01*
X399334Y705229D01*
X399327Y705145D01*
X399306Y705055D01*
X399286Y704958D01*
X399251Y704861D01*
Y704854D01*
X399244Y704840D01*
X399237Y704819D01*
X399223Y704785D01*
X399202Y704750D01*
X399182Y704702D01*
X399126Y704591D01*
X399057Y704459D01*
X398966Y704313D01*
X398862Y704161D01*
X398738Y704008D01*
X398731Y704001D01*
X398724Y703987D01*
X398703Y703967D01*
X398668Y703932D01*
X398634Y703897D01*
X398585Y703849D01*
X398537Y703793D01*
X398474Y703731D01*
X398405Y703661D01*
X398329Y703592D01*
X398245Y703509D01*
X398148Y703426D01*
X398051Y703336D01*
X397940Y703245D01*
X397829Y703148D01*
X397705Y703044D01*
X397691Y703037D01*
X397656Y703003D01*
X397607Y702961D01*
X397538Y702899D01*
X397455Y702829D01*
X397358Y702746D01*
X397247Y702656D01*
X397136Y702552D01*
X396900Y702337D01*
X396671Y702108D01*
X396560Y701997D01*
X396456Y701886D01*
X396366Y701782D01*
X396290Y701685D01*
X396283Y701678D01*
X396276Y701665D01*
X396255Y701637D01*
X396234Y701602D01*
X396200Y701553D01*
X396172Y701505D01*
X396103Y701380D01*
X396033Y701235D01*
X395971Y701075D01*
X395929Y700909D01*
X395922Y700825D01*
X395915Y700742D01*
Y700735D01*
Y700721D01*
Y700694D01*
X395922Y700666D01*
Y700624D01*
X395936Y700576D01*
X395957Y700472D01*
X395999Y700347D01*
X396061Y700215D01*
X396096Y700146D01*
X396144Y700083D01*
X396193Y700021D01*
X396255Y699959D01*
X396262Y699952D01*
X396269Y699945D01*
X396290Y699931D01*
X396318Y699910D01*
X396352Y699882D01*
X396394Y699855D01*
X396491Y699792D01*
X396623Y699737D01*
X396768Y699681D01*
X396942Y699647D01*
X397039Y699633D01*
X397191D01*
X397233Y699640D01*
X397281D01*
X397337Y699654D01*
X397462Y699674D01*
X397607Y699716D01*
X397760Y699778D01*
X397836Y699820D01*
X397912Y699862D01*
X397982Y699917D01*
X398051Y699979D01*
X398058Y699986D01*
X398065Y699993D01*
X398079Y700014D01*
X398107Y700042D01*
X398128Y700077D01*
X398155Y700118D01*
X398190Y700167D01*
X398218Y700222D01*
X398252Y700285D01*
X398280Y700354D01*
X398335Y700520D01*
X398377Y700701D01*
X398384Y700805D01*
X398391Y700916D01*
X399195Y700832D01*
Y700818D01*
X399188Y700791D01*
X399182Y700749D01*
X399174Y700687D01*
X399161Y700611D01*
X399140Y700520D01*
X399119Y700423D01*
X399084Y700319D01*
X399050Y700215D01*
X399008Y700097D01*
X398953Y699986D01*
X398897Y699875D01*
X398828Y699758D01*
X398752Y699654D01*
X398668Y699550D01*
X398571Y699459D01*
X398564Y699453D01*
X398544Y699439D01*
X398516Y699418D01*
X398474Y699383D01*
X398419Y699349D01*
X398349Y699307D01*
X398273Y699265D01*
X398183Y699217D01*
X398086Y699175D01*
X397975Y699134D01*
X397857Y699092D01*
X397725Y699057D01*
X397587Y699023D01*
X397441Y699002D01*
X397281Y698988D01*
X397115Y698981D01*
X397025D01*
X396963Y698988D01*
X396886Y698995D01*
X396796Y699009D01*
X396692Y699023D01*
X396588Y699043D01*
X396470Y699071D01*
X396352Y699106D01*
X396227Y699147D01*
X396110Y699196D01*
X395985Y699258D01*
X395867Y699328D01*
X395756Y699404D01*
X395652Y699494D01*
X395645Y699501D01*
X395631Y699515D01*
X395603Y699550D01*
X395569Y699584D01*
X395527Y699633D01*
X395479Y699695D01*
X395430Y699764D01*
X395382Y699848D01*
X395333Y699931D01*
X395285Y700028D01*
X395236Y700132D01*
X395194Y700243D01*
X395160Y700368D01*
X395132Y700493D01*
X395118Y700624D01*
X395111Y700763D01*
Y700770D01*
Y700777D01*
Y700798D01*
Y700825D01*
X395118Y700902D01*
X395132Y700999D01*
X395153Y701117D01*
X395180Y701242D01*
X395215Y701380D01*
X395271Y701519D01*
Y701526D01*
X395277Y701533D01*
X395285Y701553D01*
X395298Y701581D01*
X395340Y701658D01*
X395395Y701755D01*
X395472Y701872D01*
X395562Y702004D01*
X395666Y702143D01*
X395798Y702296D01*
X395804Y702302D01*
X395812Y702316D01*
X395839Y702337D01*
X395867Y702372D01*
X395909Y702413D01*
X395957Y702462D01*
X396012Y702524D01*
X396082Y702587D01*
X396165Y702663D01*
X396255Y702746D01*
X396352Y702843D01*
X396463Y702940D01*
X396581Y703051D01*
X396713Y703162D01*
X396858Y703287D01*
X397011Y703419D01*
X397018Y703426D01*
X397039Y703447D01*
X397080Y703474D01*
X397122Y703516D01*
X397184Y703565D01*
X397247Y703620D01*
X397392Y703745D01*
X397545Y703876D01*
X397691Y704015D01*
X397760Y704078D01*
X397822Y704133D01*
X397878Y704189D01*
X397919Y704230D01*
X397926Y704237D01*
X397954Y704265D01*
X397989Y704306D01*
X398037Y704362D01*
X398093Y704424D01*
X398148Y704494D01*
X398259Y704646D01*
X395104D01*
Y705402D01*
X399341D01*
Y705388D01*
D02*
G37*
G36*
X364770Y703660D02*
X364783Y703674D01*
X364818Y703709D01*
X364880Y703757D01*
X364971Y703827D01*
X365075Y703910D01*
X365206Y704000D01*
X365352Y704097D01*
X365518Y704201D01*
X365525D01*
X365539Y704215D01*
X365560Y704229D01*
X365595Y704243D01*
X365636Y704271D01*
X365685Y704292D01*
X365796Y704354D01*
X365921Y704416D01*
X366059Y704486D01*
X366205Y704548D01*
X366344Y704604D01*
Y703848D01*
X366337Y703841D01*
X366316Y703834D01*
X366281Y703813D01*
X366233Y703792D01*
X366177Y703764D01*
X366108Y703723D01*
X366032Y703681D01*
X365955Y703640D01*
X365775Y703529D01*
X365581Y703397D01*
X365380Y703258D01*
X365192Y703099D01*
X365186Y703092D01*
X365172Y703078D01*
X365144Y703057D01*
X365109Y703023D01*
X365075Y702981D01*
X365026Y702939D01*
X364922Y702821D01*
X364804Y702697D01*
X364686Y702551D01*
X364582Y702398D01*
X364492Y702239D01*
X363986D01*
Y708660D01*
X364770D01*
Y703660D01*
D02*
G37*
G36*
X367925Y709138D02*
X367966Y709125D01*
X368015Y709104D01*
X368077Y709076D01*
X368153Y709048D01*
X368237Y709007D01*
X368327Y708958D01*
X368424Y708910D01*
X368535Y708854D01*
X368764Y708722D01*
X369013Y708563D01*
X369270Y708376D01*
X369277Y708383D01*
X369305Y708390D01*
X369339Y708410D01*
X369395Y708438D01*
X369464Y708466D01*
X369540Y708501D01*
X369630Y708535D01*
X369734Y708570D01*
X369845Y708605D01*
X369970Y708639D01*
X370095Y708674D01*
X370234Y708702D01*
X370532Y708750D01*
X370684Y708757D01*
X370844Y708764D01*
X370927D01*
X370989Y708757D01*
X371066Y708750D01*
X371156Y708743D01*
X371253Y708729D01*
X371364Y708708D01*
X371482Y708688D01*
X371607Y708660D01*
X371738Y708625D01*
X371870Y708591D01*
X372009Y708542D01*
X372147Y708487D01*
X372286Y708424D01*
X372418Y708348D01*
X372425Y708341D01*
X372446Y708327D01*
X372487Y708306D01*
X372536Y708272D01*
X372591Y708230D01*
X372661Y708175D01*
X372737Y708112D01*
X372820Y708043D01*
X372903Y707967D01*
X372994Y707876D01*
X373084Y707779D01*
X373174Y707675D01*
X373264Y707564D01*
X373347Y707447D01*
X373430Y707315D01*
X373507Y707176D01*
X373514Y707169D01*
X373521Y707141D01*
X373541Y707100D01*
X373569Y707044D01*
X373597Y706968D01*
X373624Y706885D01*
X373659Y706788D01*
X373694Y706677D01*
X373735Y706552D01*
X373770Y706420D01*
X373798Y706282D01*
X373826Y706129D01*
X373853Y705976D01*
X373874Y705810D01*
X373881Y705637D01*
X373888Y705463D01*
Y705450D01*
Y705422D01*
Y705373D01*
X373881Y705304D01*
X373874Y705221D01*
X373867Y705124D01*
X373853Y705013D01*
X373839Y704888D01*
X373819Y704763D01*
X373798Y704624D01*
X373728Y704333D01*
X373680Y704187D01*
X373631Y704035D01*
X373576Y703882D01*
X373507Y703737D01*
X373500Y703730D01*
X373486Y703702D01*
X373465Y703660D01*
X373437Y703612D01*
X373396Y703543D01*
X373347Y703466D01*
X373292Y703390D01*
X373229Y703300D01*
X373153Y703203D01*
X373070Y703106D01*
X372987Y703009D01*
X372890Y702912D01*
X372779Y702814D01*
X372668Y702724D01*
X372550Y702634D01*
X372418Y702558D01*
X372411Y702551D01*
X372383Y702537D01*
X372349Y702523D01*
X372293Y702495D01*
X372224Y702461D01*
X372147Y702426D01*
X372050Y702392D01*
X371953Y702350D01*
X371836Y702315D01*
X371718Y702281D01*
X371586Y702246D01*
X371440Y702211D01*
X371295Y702184D01*
X371142Y702170D01*
X370983Y702156D01*
X370823Y702149D01*
X370740D01*
X370677Y702156D01*
X370594Y702163D01*
X370504Y702170D01*
X370407Y702184D01*
X370296Y702204D01*
X370171Y702225D01*
X370047Y702253D01*
X369915Y702288D01*
X369776Y702329D01*
X369637Y702378D01*
X369499Y702433D01*
X369367Y702495D01*
X369228Y702572D01*
X369221Y702579D01*
X369193Y702593D01*
X369159Y702613D01*
X369110Y702648D01*
X369048Y702690D01*
X368985Y702745D01*
X368909Y702807D01*
X368826Y702877D01*
X368736Y702960D01*
X368646Y703043D01*
X368556Y703140D01*
X368465Y703244D01*
X368382Y703362D01*
X368292Y703480D01*
X368216Y703612D01*
X368139Y703751D01*
X368133Y703757D01*
X368126Y703785D01*
X368105Y703827D01*
X368084Y703882D01*
X368049Y703952D01*
X368022Y704042D01*
X367987Y704139D01*
X367952Y704250D01*
X367918Y704368D01*
X367883Y704500D01*
X367848Y704638D01*
X367821Y704791D01*
X367800Y704943D01*
X367779Y705110D01*
X367772Y705283D01*
X367765Y705456D01*
Y705463D01*
Y705491D01*
Y705533D01*
X367772Y705588D01*
Y705658D01*
X367779Y705741D01*
X367786Y705831D01*
X367793Y705928D01*
X367807Y706039D01*
X367827Y706150D01*
X367869Y706393D01*
X367925Y706635D01*
X368008Y706878D01*
Y706885D01*
X368022Y706906D01*
X368036Y706940D01*
X368056Y706982D01*
X368077Y707037D01*
X368112Y707100D01*
X368147Y707176D01*
X368188Y707252D01*
X368292Y707426D01*
X368417Y707606D01*
X368563Y707793D01*
X368736Y707973D01*
X368729Y707980D01*
X368708Y707994D01*
X368680Y708015D01*
X368632Y708043D01*
X368583Y708071D01*
X368521Y708112D01*
X368452Y708154D01*
X368375Y708202D01*
X368209Y708299D01*
X368022Y708397D01*
X367827Y708494D01*
X367640Y708570D01*
X367897Y709152D01*
X367904D01*
X367925Y709138D01*
D02*
G37*
%LPC*%
G36*
X100619Y306456D02*
X100612D01*
X100592D01*
X100557D01*
X100508Y306449D01*
X100453Y306442D01*
X100391Y306435D01*
X100321Y306428D01*
X100245Y306414D01*
X100079Y306373D01*
X99905Y306310D01*
X99815Y306269D01*
X99732Y306220D01*
X99656Y306165D01*
X99579Y306102D01*
X99572Y306095D01*
X99565Y306088D01*
X99545Y306068D01*
X99517Y306040D01*
X99489Y306005D01*
X99454Y305963D01*
X99385Y305860D01*
X99316Y305728D01*
X99253Y305575D01*
X99205Y305402D01*
X99198Y305305D01*
X99191Y305208D01*
Y305159D01*
X99198Y305118D01*
X99205Y305076D01*
X99212Y305021D01*
X99240Y304896D01*
X99288Y304750D01*
X99358Y304597D01*
X99399Y304521D01*
X99448Y304445D01*
X99510Y304369D01*
X99579Y304299D01*
X99586Y304292D01*
X99600Y304286D01*
X99621Y304265D01*
X99649Y304244D01*
X99683Y304216D01*
X99732Y304181D01*
X99787Y304147D01*
X99850Y304119D01*
X99912Y304084D01*
X99988Y304050D01*
X100162Y303987D01*
X100356Y303946D01*
X100467Y303939D01*
X100578Y303932D01*
X100585D01*
X100599D01*
X100619D01*
X100647D01*
X100682Y303939D01*
X100723D01*
X100828Y303953D01*
X100945Y303973D01*
X101077Y304001D01*
X101216Y304043D01*
X101355Y304098D01*
X101361D01*
X101368Y304105D01*
X101389Y304119D01*
X101417Y304133D01*
X101479Y304168D01*
X101562Y304223D01*
X101653Y304292D01*
X101743Y304376D01*
X101833Y304466D01*
X101916Y304577D01*
Y304584D01*
X101923Y304591D01*
X101944Y304632D01*
X101979Y304695D01*
X102013Y304778D01*
X102048Y304875D01*
X102083Y304986D01*
X102103Y305111D01*
X102110Y305236D01*
Y305284D01*
X102103Y305319D01*
X102097Y305367D01*
X102090Y305416D01*
X102062Y305534D01*
X102013Y305665D01*
X101979Y305742D01*
X101944Y305811D01*
X101895Y305887D01*
X101847Y305957D01*
X101784Y306026D01*
X101715Y306095D01*
X101708Y306102D01*
X101694Y306109D01*
X101673Y306130D01*
X101639Y306151D01*
X101597Y306178D01*
X101549Y306206D01*
X101493Y306241D01*
X101424Y306276D01*
X101355Y306310D01*
X101271Y306345D01*
X101181Y306373D01*
X101084Y306400D01*
X100980Y306421D01*
X100862Y306442D01*
X100744Y306449D01*
X100619Y306456D01*
D02*
G37*
G36*
X391098Y100418D02*
X390973D01*
X390939Y100411D01*
X390904D01*
X390855Y100404D01*
X390751Y100384D01*
X390634Y100349D01*
X390509Y100293D01*
X390384Y100224D01*
X390266Y100127D01*
X390252Y100113D01*
X390218Y100078D01*
X390176Y100016D01*
X390120Y99933D01*
X390065Y99836D01*
X390023Y99718D01*
X389989Y99586D01*
X389975Y99440D01*
Y99433D01*
Y99420D01*
Y99399D01*
X389982Y99364D01*
Y99323D01*
X389989Y99281D01*
X390009Y99177D01*
X390044Y99059D01*
X390093Y98934D01*
X390162Y98809D01*
X390259Y98699D01*
X390273Y98685D01*
X390315Y98657D01*
X390377Y98608D01*
X390467Y98560D01*
X390571Y98504D01*
X390703Y98456D01*
X390855Y98428D01*
X391022Y98414D01*
X391063D01*
X391098Y98421D01*
X391140D01*
X391181Y98428D01*
X391285Y98449D01*
X391403Y98483D01*
X391528Y98532D01*
X391653Y98601D01*
X391771Y98699D01*
X391785Y98712D01*
X391819Y98747D01*
X391861Y98809D01*
X391916Y98893D01*
X391972Y98990D01*
X392013Y99115D01*
X392048Y99246D01*
X392062Y99392D01*
Y99399D01*
Y99413D01*
Y99433D01*
X392055Y99468D01*
X392048Y99544D01*
X392027Y99649D01*
X391993Y99759D01*
X391937Y99884D01*
X391861Y100002D01*
X391819Y100064D01*
X391764Y100120D01*
Y100127D01*
X391750Y100134D01*
X391708Y100169D01*
X391646Y100217D01*
X391556Y100273D01*
X391452Y100321D01*
X391320Y100370D01*
X391174Y100404D01*
X391098Y100418D01*
D02*
G37*
G36*
X391001Y97769D02*
X390946D01*
X390911Y97762D01*
X390862Y97755D01*
X390807Y97748D01*
X390675Y97721D01*
X390530Y97679D01*
X390377Y97617D01*
X390301Y97575D01*
X390224Y97527D01*
X390148Y97464D01*
X390079Y97402D01*
X390072Y97395D01*
X390065Y97388D01*
X390044Y97367D01*
X390023Y97339D01*
X389996Y97298D01*
X389968Y97256D01*
X389933Y97208D01*
X389898Y97152D01*
X389829Y97020D01*
X389774Y96861D01*
X389732Y96681D01*
X389725Y96590D01*
X389718Y96487D01*
Y96480D01*
Y96473D01*
Y96431D01*
X389725Y96362D01*
X389739Y96278D01*
X389753Y96181D01*
X389781Y96070D01*
X389822Y95953D01*
X389871Y95835D01*
X389878Y95821D01*
X389898Y95786D01*
X389940Y95724D01*
X389989Y95654D01*
X390058Y95578D01*
X390134Y95502D01*
X390231Y95419D01*
X390342Y95349D01*
X390349D01*
X390356Y95342D01*
X390398Y95322D01*
X390460Y95294D01*
X390550Y95266D01*
X390647Y95238D01*
X390765Y95211D01*
X390890Y95190D01*
X391022Y95183D01*
X391077D01*
X391119Y95190D01*
X391167Y95197D01*
X391223Y95204D01*
X391355Y95231D01*
X391500Y95273D01*
X391660Y95335D01*
X391736Y95377D01*
X391812Y95426D01*
X391889Y95481D01*
X391958Y95543D01*
X391965Y95550D01*
X391972Y95557D01*
X391993Y95578D01*
X392013Y95606D01*
X392041Y95647D01*
X392076Y95689D01*
X392110Y95738D01*
X392145Y95793D01*
X392208Y95925D01*
X392270Y96084D01*
X392312Y96258D01*
X392318Y96355D01*
X392326Y96459D01*
Y96466D01*
Y96487D01*
Y96514D01*
X392318Y96556D01*
X392312Y96604D01*
X392305Y96660D01*
X392277Y96792D01*
X392235Y96937D01*
X392166Y97097D01*
X392124Y97173D01*
X392069Y97249D01*
X392013Y97325D01*
X391944Y97395D01*
X391937Y97402D01*
X391930Y97409D01*
X391909Y97430D01*
X391875Y97450D01*
X391840Y97485D01*
X391799Y97513D01*
X391743Y97547D01*
X391688Y97582D01*
X391549Y97651D01*
X391389Y97714D01*
X391202Y97755D01*
X391105Y97762D01*
X391001Y97769D01*
D02*
G37*
G36*
X280368Y100411D02*
X280320D01*
X280278Y100404D01*
X280236Y100397D01*
X280181Y100390D01*
X280056Y100356D01*
X279911Y100307D01*
X279834Y100273D01*
X279758Y100231D01*
X279682Y100182D01*
X279606Y100120D01*
X279529Y100058D01*
X279453Y99981D01*
X279446Y99974D01*
X279439Y99960D01*
X279418Y99940D01*
X279391Y99905D01*
X279363Y99863D01*
X279335Y99808D01*
X279300Y99753D01*
X279266Y99683D01*
X279224Y99607D01*
X279189Y99524D01*
X279162Y99433D01*
X279134Y99330D01*
X279086Y99115D01*
X279079Y98997D01*
X279072Y98872D01*
Y98865D01*
Y98844D01*
Y98816D01*
X279079Y98768D01*
X279086Y98719D01*
X279092Y98657D01*
X279120Y98518D01*
X279162Y98359D01*
X279224Y98199D01*
X279266Y98116D01*
X279314Y98033D01*
X279370Y97956D01*
X279432Y97880D01*
X279439Y97873D01*
X279446Y97866D01*
X279467Y97846D01*
X279501Y97825D01*
X279536Y97797D01*
X279578Y97762D01*
X279626Y97728D01*
X279682Y97693D01*
X279820Y97624D01*
X279973Y97561D01*
X280153Y97520D01*
X280250Y97513D01*
X280347Y97506D01*
X280403D01*
X280438Y97513D01*
X280486Y97520D01*
X280535Y97527D01*
X280660Y97554D01*
X280805Y97596D01*
X280951Y97665D01*
X281027Y97707D01*
X281103Y97755D01*
X281173Y97818D01*
X281242Y97880D01*
X281249Y97887D01*
X281256Y97901D01*
X281277Y97922D01*
X281297Y97950D01*
X281325Y97991D01*
X281353Y98040D01*
X281388Y98095D01*
X281422Y98158D01*
X281450Y98227D01*
X281485Y98310D01*
X281512Y98393D01*
X281540Y98490D01*
X281561Y98595D01*
X281582Y98699D01*
X281589Y98816D01*
X281596Y98941D01*
Y98948D01*
Y98969D01*
Y99004D01*
X281589Y99052D01*
X281582Y99108D01*
X281575Y99177D01*
X281568Y99246D01*
X281554Y99330D01*
X281506Y99496D01*
X281443Y99676D01*
X281402Y99766D01*
X281353Y99850D01*
X281297Y99933D01*
X281235Y100009D01*
X281228Y100016D01*
X281221Y100030D01*
X281200Y100044D01*
X281173Y100071D01*
X281138Y100099D01*
X281096Y100134D01*
X280992Y100210D01*
X280868Y100286D01*
X280715Y100349D01*
X280639Y100377D01*
X280549Y100397D01*
X280458Y100404D01*
X280368Y100411D01*
D02*
G37*
G36*
X370823Y708043D02*
X370747D01*
X370705Y708036D01*
X370657D01*
X370546Y708022D01*
X370414Y708001D01*
X370268Y707973D01*
X370116Y707932D01*
X369963Y707876D01*
X369970D01*
X369984Y707863D01*
X370005Y707849D01*
X370033Y707835D01*
X370067Y707814D01*
X370116Y707786D01*
X370220Y707731D01*
X370345Y707675D01*
X370483Y707613D01*
X370643Y707558D01*
X370802Y707509D01*
X370601Y706892D01*
X370594D01*
X370566Y706899D01*
X370532Y706913D01*
X370476Y706933D01*
X370414Y706954D01*
X370345Y706982D01*
X370261Y707010D01*
X370171Y707044D01*
X369984Y707134D01*
X369776Y707238D01*
X369575Y707363D01*
X369388Y707502D01*
X369381Y707495D01*
X369353Y707467D01*
X369318Y707433D01*
X369270Y707377D01*
X369214Y707301D01*
X369152Y707218D01*
X369083Y707114D01*
X369013Y706989D01*
X368944Y706857D01*
X368875Y706705D01*
X368812Y706538D01*
X368757Y706351D01*
X368708Y706150D01*
X368674Y705935D01*
X368646Y705706D01*
X368639Y705456D01*
Y705450D01*
Y705422D01*
Y705380D01*
X368646Y705325D01*
Y705255D01*
X368653Y705179D01*
X368660Y705089D01*
X368674Y704999D01*
X368701Y704784D01*
X368750Y704555D01*
X368819Y704326D01*
X368909Y704104D01*
Y704097D01*
X368923Y704077D01*
X368937Y704049D01*
X368958Y704007D01*
X368985Y703959D01*
X369020Y703903D01*
X369103Y703771D01*
X369214Y703626D01*
X369346Y703480D01*
X369499Y703335D01*
X369679Y703203D01*
X369686Y703196D01*
X369700Y703189D01*
X369728Y703175D01*
X369769Y703154D01*
X369818Y703127D01*
X369873Y703099D01*
X369935Y703071D01*
X370012Y703036D01*
X370095Y703009D01*
X370178Y702981D01*
X370372Y702925D01*
X370587Y702891D01*
X370705Y702877D01*
X370865D01*
X370913Y702884D01*
X370983D01*
X371059Y702898D01*
X371156Y702912D01*
X371260Y702932D01*
X371371Y702960D01*
X371496Y702995D01*
X371620Y703036D01*
X371752Y703092D01*
X371884Y703154D01*
X372016Y703224D01*
X372141Y703314D01*
X372272Y703411D01*
X372390Y703529D01*
X372397Y703536D01*
X372418Y703556D01*
X372446Y703598D01*
X372487Y703647D01*
X372536Y703716D01*
X372584Y703799D01*
X372647Y703896D01*
X372702Y704014D01*
X372758Y704139D01*
X372813Y704285D01*
X372869Y704444D01*
X372917Y704617D01*
X372959Y704805D01*
X372987Y705013D01*
X373007Y705228D01*
X373014Y705463D01*
Y705477D01*
Y705519D01*
X373007Y705581D01*
Y705671D01*
X372994Y705775D01*
X372980Y705893D01*
X372966Y706025D01*
X372938Y706171D01*
X372903Y706323D01*
X372862Y706476D01*
X372813Y706635D01*
X372751Y706795D01*
X372681Y706954D01*
X372598Y707107D01*
X372508Y707245D01*
X372397Y707377D01*
X372390Y707384D01*
X372369Y707405D01*
X372335Y707440D01*
X372286Y707481D01*
X372224Y707530D01*
X372155Y707585D01*
X372064Y707648D01*
X371967Y707710D01*
X371863Y707772D01*
X371738Y707835D01*
X371614Y707890D01*
X371475Y707939D01*
X371322Y707980D01*
X371163Y708015D01*
X370996Y708036D01*
X370823Y708043D01*
D02*
G37*
%LPD*%
D13*
X459190Y260210D02*
Y311759D01*
X420190Y260210D02*
X459190D01*
X420190D02*
Y311759D01*
X459190D01*
X55651Y236461D02*
X149651D01*
Y360461D01*
X55651D02*
X149651D01*
X55651Y236461D02*
Y360461D01*
X442977Y47642D02*
Y141642D01*
Y47642D02*
X546977D01*
Y141642D01*
X442977D02*
X546977D01*
X332317Y47642D02*
Y141642D01*
Y47642D02*
X436316D01*
Y141642D01*
X332317D02*
X436316D01*
X221656Y47642D02*
Y141642D01*
Y47642D02*
X325656D01*
Y141642D01*
X221656D02*
X325656D01*
X390393Y699034D02*
X417455D01*
X390393D02*
Y715534D01*
X417455D01*
Y699034D02*
Y715534D01*
X385888Y695160D02*
Y722160D01*
X361888Y695160D02*
X385888D01*
X361888D02*
Y722160D01*
X385888D01*
M02*
