G04*
G04 #@! TF.GenerationSoftware,Altium Limited,Altium Designer,21.5.1 (32)*
G04*
G04 Layer_Color=16711935*
%FSLAX44Y44*%
%MOMM*%
G71*
G04*
G04 #@! TF.SameCoordinates,B68859E6-8F99-4948-AC01-CAA0BB4B992E*
G04*
G04*
G04 #@! TF.FilePolarity,Positive*
G04*
G01*
G75*
%ADD86C,0.1000*%
%ADD88C,0.0000*%
%ADD89C,0.0254*%
D86*
X437308Y467961D02*
G03*
X437308Y467961I-5000J0D01*
G01*
X432308Y455233D02*
X531303Y554228D01*
X333313D02*
X432308Y653223D01*
X333313Y554228D02*
X432308Y455233D01*
Y653223D02*
X531303Y554228D01*
X134667Y50158D02*
Y58158D01*
X66667Y50158D02*
X134667D01*
X118667Y58158D02*
X134667D01*
X118667Y58158D02*
Y121158D01*
Y121158D02*
X134667D01*
X58667Y55158D02*
X66667D01*
Y50158D02*
Y55158D01*
X58667D02*
Y124158D01*
Y124158D02*
X66667D01*
Y124158D02*
Y129158D01*
X134667Y121158D02*
Y129158D01*
X66667D02*
X134667D01*
X636370Y210570D02*
Y218570D01*
X704370D01*
X636370Y210570D02*
X652370D01*
Y147570D02*
Y210570D01*
X636370Y147570D02*
X652370D01*
X704370Y213570D02*
X712370D01*
X704370Y213570D02*
Y218570D01*
X712370Y144570D02*
Y213570D01*
X704370Y144570D02*
X712370D01*
X704370Y139570D02*
Y144570D01*
X636370Y139570D02*
Y147570D01*
Y139570D02*
X704370D01*
X345351Y242868D02*
Y272868D01*
X375351D01*
Y242868D02*
Y272868D01*
X345351Y242868D02*
X375351D01*
X345351Y250368D02*
X352851Y242868D01*
X636370Y50158D02*
X704370D01*
X636370D02*
Y58158D01*
X704370Y50158D02*
Y55158D01*
Y55158D02*
X712370D01*
Y55158D02*
Y124158D01*
X704370D02*
Y129158D01*
Y124158D02*
X712370D01*
X636370Y58158D02*
X652370D01*
Y58158D02*
Y121158D01*
X636370Y121158D02*
X652370D01*
X636370Y129158D02*
X704370D01*
X636370Y121158D02*
Y129158D01*
X211642Y752823D02*
X377645D01*
X371445Y803820D02*
X387643D01*
X371445Y787823D02*
Y803820D01*
X371447Y787823D02*
X377645D01*
Y752823D02*
Y787823D01*
X211642Y752823D02*
Y787823D01*
X217845D01*
Y803820D01*
X387642Y813820D02*
X387643Y803820D01*
X201643Y813820D02*
X387642D01*
X201642Y803820D02*
X201643Y813820D01*
X201642Y803820D02*
X217845D01*
X371445D01*
X217845Y787823D02*
X371447D01*
X66667Y218570D02*
X134667D01*
Y210570D02*
Y218570D01*
X66667Y213570D02*
Y218570D01*
X58667Y213570D02*
X66667D01*
X58667Y144570D02*
Y213570D01*
X66667Y139570D02*
Y144570D01*
X58667Y144570D02*
X66667D01*
X118667Y210570D02*
X134667D01*
X118667Y147570D02*
Y210570D01*
Y147570D02*
X134667D01*
X66667Y139570D02*
X134667D01*
Y147570D01*
D88*
X488795Y453658D02*
G03*
X484484Y457968I-2155J2155D01*
G01*
D89*
X500428Y487279D02*
X518106Y469601D01*
X477801Y464652D02*
X500428Y487279D01*
X477801Y464652D02*
X495478Y446974D01*
X518106Y469601D01*
M02*
